<svg width="69" height="69" viewBox="0 0 69 69" fill="none" xmlns="http://www.w3.org/2000/svg">
<path d="M31.05 41.4H24.15C24.15 33.165 27.4213 25.2673 33.2443 19.4443C39.0673 13.6213 46.965 10.35 55.2 10.35V17.25C41.8485 17.25 31.05 28.0485 31.05 41.4ZM55.2 31.05V24.15C45.678 24.15 37.95 31.878 37.95 41.4H44.85C44.85 35.673 49.473 31.05 55.2 31.05ZM17.25 6.9C17.25 3.0705 14.1795 0 10.35 0C6.5205 0 3.45 3.0705 3.45 6.9C3.45 10.7295 6.5205 13.8 10.35 13.8C14.1795 13.8 17.25 10.7295 17.25 6.9ZM32.6025 8.625H25.7025C25.3087 11.038 24.0678 13.2317 22.2026 14.8124C20.3374 16.3931 17.9699 17.2573 15.525 17.25H5.175C2.3115 17.25 0 19.5615 0 22.425V31.05H20.7V23.253C23.8942 22.241 26.7229 20.3171 28.8376 17.718C30.9524 15.119 32.2611 11.9583 32.6025 8.625ZM58.65 51.75C62.4795 51.75 65.55 48.6795 65.55 44.85C65.55 41.0205 62.4795 37.95 58.65 37.95C54.8205 37.95 51.75 41.0205 51.75 44.85C51.75 48.6795 54.8205 51.75 58.65 51.75ZM63.825 55.2H53.475C48.3 55.2 44.1255 51.474 43.2975 46.575H36.3975C37.0875 53.475 41.883 59.1675 48.3 61.203V69H69V60.375C69 57.5115 66.6885 55.2 63.825 55.2Z" fill="#FFD74B"/>
</svg>
