<svg width="62" height="65" viewBox="0 0 62 65" fill="none" xmlns="http://www.w3.org/2000/svg">
<path d="M27.6589 1.23148C28.5926 0.436358 29.7765 0 31 0C32.2235 0 33.4074 0.436358 34.3411 1.23148L60.1744 23.2716C60.7465 23.7593 61.2061 24.3664 61.5213 25.0507C61.8366 25.735 61.9999 26.4801 62 27.2342V59.8043C62 61.1823 61.4557 62.5038 60.4867 63.4782C59.5178 64.4526 58.2036 65 56.8333 65H37.0278C36.3426 65 35.6856 64.7263 35.2011 64.2391C34.7166 63.7519 34.4444 63.0911 34.4444 62.4022V40.7534H27.5556V62.4022C27.5556 63.0911 27.2834 63.7519 26.7989 64.2391C26.3144 64.7263 25.6574 65 24.9722 65H5.16667C3.79638 65 2.48222 64.4526 1.51328 63.4782C0.544344 62.5038 0 61.1823 0 59.8043V27.2342C0 25.7101 0.668222 24.2588 1.82556 23.2716L27.6589 1.23148ZM31 5.19407L5.16667 27.2342V59.8043H22.3889V38.1556C22.3889 37.4666 22.6611 36.8058 23.1455 36.3186C23.63 35.8314 24.2871 35.5577 24.9722 35.5577H37.0278C37.7129 35.5577 38.37 35.8314 38.8545 36.3186C39.3389 36.8058 39.6111 37.4666 39.6111 38.1556V59.8043H56.8333V27.2342L31 5.19407Z" fill="#FFD74B"/>
</svg>
