<svg width="84" height="84" viewBox="0 0 84 84" fill="none" xmlns="http://www.w3.org/2000/svg">
<path d="M49.875 73.5C51.3247 73.5 52.5 72.3247 52.5 70.875C52.5 69.4253 51.3247 68.25 49.875 68.25C48.4253 68.25 47.25 69.4253 47.25 70.875C47.25 72.3247 48.4253 73.5 49.875 73.5Z" fill="black"/>
<path d="M76.125 81.375H42C39.1046 81.375 36.75 79.0204 36.75 76.125V65.625C36.75 62.7296 39.1046 60.375 42 60.375H76.125C79.0204 60.375 81.375 62.7296 81.375 65.625V76.125C81.375 79.0204 79.0204 81.375 76.125 81.375ZM42 65.625V76.125H76.125V65.625H42ZM76.125 55.125H42C39.1046 55.125 36.75 52.7704 36.75 49.875V39.375C36.75 36.4796 39.1046 34.125 42 34.125H76.125C79.0204 34.125 81.375 36.4796 81.375 39.375V49.875C81.375 52.7704 79.0204 55.125 76.125 55.125ZM42 39.375V49.875H76.125V39.375H42Z" fill="#F7B006"/>
<path d="M31.5 71.6625C19.2859 67.326 10.5 55.6841 10.5 42C10.5 24.6304 24.6304 10.5 42 10.5C54.6814 10.5 65.6093 18.0495 70.5994 28.875H76.2851C70.9853 15.0832 57.6371 5.25 42 5.25C21.735 5.25 5.25 21.735 5.25 42C5.25 58.6162 16.3406 72.6731 31.5 77.2012V71.6625Z" fill="#F7B006"/>
</svg>
