<svg width="415" height="75" viewBox="0 0 415 75" fill="none" xmlns="http://www.w3.org/2000/svg">
<mask id="path-1-outside-1_50_231" maskUnits="userSpaceOnUse" x="0" y="0" width="415" height="75" fill="black">
<rect fill="white" width="415" height="75"/>
<path d="M14.688 73H1.728V3.592H14.688V73ZM38.694 29.8C39.686 28.808 40.726 27.896 41.814 27.064C42.934 26.2 44.102 25.48 45.318 24.904C46.566 24.296 47.894 23.832 49.302 23.512C50.71 23.16 52.246 22.984 53.91 22.984C56.598 22.984 58.982 23.448 61.062 24.376C63.142 25.272 64.87 26.552 66.246 28.216C67.654 29.848 68.71 31.816 69.414 34.12C70.15 36.392 70.518 38.904 70.518 41.656V73H58.662V41.656C58.662 38.648 57.974 36.328 56.598 34.696C55.222 33.032 53.126 32.2 50.31 32.2C48.262 32.2 46.342 32.664 44.55 33.592C42.758 34.52 41.062 35.784 39.462 37.384V73H27.606V23.752H34.854C36.39 23.752 37.398 24.472 37.878 25.912L38.694 29.8ZM112.706 36.328C111.362 34.696 109.89 33.544 108.29 32.872C106.722 32.2 105.026 31.864 103.202 31.864C101.41 31.864 99.7935 32.2 98.3535 32.872C96.9135 33.544 95.6815 34.568 94.6575 35.944C93.6335 37.288 92.8495 39.016 92.3055 41.128C91.7615 43.208 91.4895 45.672 91.4895 48.52C91.4895 51.4 91.7135 53.848 92.1615 55.864C92.6415 57.848 93.3135 59.48 94.1775 60.76C95.0415 62.008 96.0975 62.92 97.3455 63.496C98.5935 64.04 99.9855 64.312 101.522 64.312C103.986 64.312 106.082 63.8 107.81 62.776C109.538 61.752 111.17 60.296 112.706 58.408V36.328ZM124.562 1.672V73H117.314C115.746 73 114.754 72.28 114.338 70.84L113.33 66.088C111.346 68.36 109.058 70.2 106.466 71.608C103.906 73.016 100.914 73.72 97.4895 73.72C94.8015 73.72 92.3375 73.16 90.0975 72.04C87.8575 70.92 85.9215 69.304 84.2895 67.192C82.6895 65.048 81.4415 62.408 80.5455 59.272C79.6815 56.136 79.2495 52.552 79.2495 48.52C79.2495 44.872 79.7455 41.48 80.7375 38.344C81.7295 35.208 83.1535 32.488 85.0095 30.184C86.8655 27.88 89.0895 26.088 91.6815 24.808C94.2735 23.496 97.1855 22.84 100.418 22.84C103.17 22.84 105.522 23.272 107.474 24.136C109.426 25 111.17 26.168 112.706 27.64V1.672H124.562ZM178.694 23.752V73H171.446C169.878 73 168.886 72.28 168.47 70.84L167.654 66.904C165.638 68.952 163.414 70.616 160.982 71.896C158.55 73.144 155.686 73.768 152.39 73.768C149.702 73.768 147.318 73.32 145.238 72.424C143.19 71.496 141.462 70.2 140.054 68.536C138.646 66.872 137.574 64.904 136.838 62.632C136.134 60.328 135.782 57.8 135.782 55.048V23.752H147.638V55.048C147.638 58.056 148.326 60.392 149.702 62.056C151.11 63.688 153.206 64.504 155.99 64.504C158.038 64.504 159.958 64.056 161.75 63.16C163.542 62.232 165.238 60.968 166.838 59.368V23.752H178.694ZM220.498 33.352C220.178 33.864 219.842 34.232 219.49 34.456C219.138 34.648 218.69 34.744 218.146 34.744C217.57 34.744 216.946 34.584 216.274 34.264C215.634 33.944 214.882 33.592 214.018 33.208C213.154 32.792 212.162 32.424 211.042 32.104C209.954 31.784 208.658 31.624 207.154 31.624C204.818 31.624 202.978 32.12 201.634 33.112C200.322 34.104 199.666 35.4 199.666 37C199.666 38.056 200.002 38.952 200.674 39.688C201.378 40.392 202.29 41.016 203.41 41.56C204.562 42.104 205.858 42.6 207.298 43.048C208.738 43.464 210.194 43.928 211.666 44.44C213.17 44.952 214.642 45.544 216.082 46.216C217.522 46.856 218.802 47.688 219.922 48.712C221.074 49.704 221.986 50.904 222.658 52.312C223.362 53.72 223.714 55.416 223.714 57.4C223.714 59.768 223.282 61.96 222.418 63.976C221.586 65.96 220.338 67.688 218.674 69.16C217.01 70.6 214.946 71.736 212.482 72.568C210.05 73.368 207.234 73.768 204.034 73.768C202.338 73.768 200.674 73.608 199.042 73.288C197.442 73 195.89 72.584 194.386 72.04C192.914 71.496 191.538 70.856 190.258 70.12C189.01 69.384 187.906 68.584 186.946 67.72L189.682 63.208C190.034 62.664 190.45 62.248 190.93 61.96C191.41 61.672 192.018 61.528 192.754 61.528C193.49 61.528 194.178 61.736 194.818 62.152C195.49 62.568 196.258 63.016 197.122 63.496C197.986 63.976 198.994 64.424 200.146 64.84C201.33 65.256 202.818 65.464 204.61 65.464C206.018 65.464 207.218 65.304 208.21 64.984C209.234 64.632 210.066 64.184 210.706 63.64C211.378 63.096 211.858 62.472 212.146 61.768C212.466 61.032 212.626 60.28 212.626 59.512C212.626 58.36 212.274 57.416 211.57 56.68C210.898 55.944 209.986 55.304 208.834 54.76C207.714 54.216 206.418 53.736 204.946 53.32C203.506 52.872 202.018 52.392 200.482 51.88C198.978 51.368 197.49 50.776 196.018 50.104C194.578 49.4 193.282 48.52 192.13 47.464C191.01 46.408 190.098 45.112 189.394 43.576C188.722 42.04 188.386 40.184 188.386 38.008C188.386 35.992 188.786 34.072 189.586 32.248C190.386 30.424 191.554 28.84 193.09 27.496C194.658 26.12 196.594 25.032 198.898 24.232C201.234 23.4 203.922 22.984 206.962 22.984C210.354 22.984 213.442 23.544 216.226 24.664C219.01 25.784 221.33 27.256 223.186 29.08L220.498 33.352ZM249.053 73.768C244.765 73.768 241.469 72.568 239.165 70.168C236.893 67.736 235.757 64.392 235.757 60.136V32.632H230.717C230.077 32.632 229.533 32.424 229.085 32.008C228.637 31.592 228.413 30.968 228.413 30.136V25.432L236.333 24.136L238.829 10.696C238.989 10.056 239.293 9.56 239.741 9.20799C240.189 8.856 240.765 8.68 241.469 8.68H247.613V24.184H260.765V32.632H247.613V59.32C247.613 60.856 247.981 62.056 248.717 62.92C249.485 63.784 250.525 64.216 251.837 64.216C252.573 64.216 253.181 64.136 253.661 63.976C254.173 63.784 254.605 63.592 254.957 63.4C255.341 63.208 255.677 63.032 255.965 62.872C256.253 62.68 256.541 62.584 256.829 62.584C257.181 62.584 257.469 62.68 257.693 62.872C257.917 63.032 258.157 63.288 258.413 63.64L261.965 69.4C260.237 70.84 258.253 71.928 256.013 72.664C253.773 73.4 251.453 73.768 249.053 73.768ZM279.54 32.296C281.076 29.352 282.9 27.048 285.012 25.384C287.124 23.688 289.62 22.84 292.5 22.84C294.772 22.84 296.596 23.336 297.972 24.328L297.204 33.208C297.044 33.784 296.804 34.2 296.484 34.456C296.196 34.68 295.796 34.792 295.284 34.792C294.804 34.792 294.084 34.712 293.124 34.552C292.196 34.392 291.284 34.312 290.388 34.312C289.076 34.312 287.908 34.504 286.884 34.888C285.86 35.272 284.932 35.832 284.1 36.568C283.3 37.272 282.58 38.136 281.94 39.16C281.332 40.184 280.756 41.352 280.212 42.664V73H268.356V23.752H275.316C276.532 23.752 277.38 23.976 277.86 24.424C278.34 24.84 278.66 25.608 278.82 26.728L279.54 32.296ZM316.457 23.752V73H304.553V23.752H316.457ZM318.089 9.4C318.089 10.424 317.881 11.384 317.465 12.28C317.049 13.176 316.489 13.96 315.785 14.632C315.113 15.304 314.313 15.848 313.385 16.264C312.457 16.648 311.465 16.84 310.409 16.84C309.385 16.84 308.409 16.648 307.481 16.264C306.585 15.848 305.801 15.304 305.129 14.632C304.457 13.96 303.913 13.176 303.497 12.28C303.113 11.384 302.921 10.424 302.921 9.4C302.921 8.344 303.113 7.352 303.497 6.424C303.913 5.496 304.457 4.696 305.129 4.024C305.801 3.352 306.585 2.824 307.481 2.44C308.409 2.024 309.385 1.816 310.409 1.816C311.465 1.816 312.457 2.024 313.385 2.44C314.313 2.824 315.113 3.352 315.785 4.024C316.489 4.696 317.049 5.496 317.465 6.424C317.881 7.352 318.089 8.344 318.089 9.4ZM360.272 42.712C360.272 41.176 360.048 39.736 359.6 38.392C359.184 37.016 358.544 35.816 357.68 34.792C356.816 33.768 355.712 32.968 354.368 32.392C353.056 31.784 351.52 31.48 349.76 31.48C346.336 31.48 343.632 32.456 341.648 34.408C339.696 36.36 338.448 39.128 337.904 42.712H360.272ZM337.664 49.864C337.856 52.392 338.304 54.584 339.008 56.44C339.712 58.264 340.64 59.784 341.792 61C342.944 62.184 344.304 63.08 345.872 63.688C347.472 64.264 349.232 64.552 351.152 64.552C353.072 64.552 354.72 64.328 356.096 63.88C357.504 63.432 358.72 62.936 359.744 62.392C360.8 61.848 361.712 61.352 362.48 60.904C363.28 60.456 364.048 60.232 364.784 60.232C365.776 60.232 366.512 60.6 366.992 61.336L370.4 65.656C369.088 67.192 367.616 68.488 365.984 69.544C364.352 70.568 362.64 71.4 360.848 72.04C359.088 72.648 357.28 73.08 355.424 73.336C353.6 73.592 351.824 73.72 350.096 73.72C346.672 73.72 343.488 73.16 340.544 72.04C337.6 70.888 335.04 69.208 332.864 67C330.688 64.76 328.976 62.008 327.728 58.744C326.48 55.448 325.855 51.64 325.855 47.32C325.855 43.96 326.4 40.808 327.488 37.864C328.576 34.888 330.128 32.312 332.144 30.136C334.192 27.928 336.672 26.184 339.584 24.904C342.528 23.624 345.84 22.984 349.52 22.984C352.624 22.984 355.488 23.48 358.112 24.472C360.736 25.464 362.992 26.92 364.88 28.84C366.768 30.728 368.24 33.064 369.296 35.848C370.384 38.6 370.927 41.752 370.927 45.304C370.927 47.096 370.736 48.312 370.352 48.952C369.968 49.56 369.232 49.864 368.144 49.864H337.664ZM409.873 33.352C409.553 33.864 409.217 34.232 408.865 34.456C408.513 34.648 408.065 34.744 407.521 34.744C406.945 34.744 406.321 34.584 405.649 34.264C405.009 33.944 404.257 33.592 403.393 33.208C402.529 32.792 401.537 32.424 400.417 32.104C399.329 31.784 398.033 31.624 396.529 31.624C394.193 31.624 392.353 32.12 391.009 33.112C389.697 34.104 389.041 35.4 389.041 37C389.041 38.056 389.377 38.952 390.049 39.688C390.753 40.392 391.665 41.016 392.785 41.56C393.937 42.104 395.233 42.6 396.673 43.048C398.113 43.464 399.569 43.928 401.041 44.44C402.545 44.952 404.017 45.544 405.457 46.216C406.897 46.856 408.177 47.688 409.297 48.712C410.449 49.704 411.361 50.904 412.033 52.312C412.737 53.72 413.089 55.416 413.089 57.4C413.089 59.768 412.657 61.96 411.793 63.976C410.961 65.96 409.713 67.688 408.049 69.16C406.385 70.6 404.321 71.736 401.857 72.568C399.425 73.368 396.609 73.768 393.409 73.768C391.713 73.768 390.049 73.608 388.417 73.288C386.817 73 385.265 72.584 383.761 72.04C382.289 71.496 380.913 70.856 379.633 70.12C378.385 69.384 377.281 68.584 376.321 67.72L379.057 63.208C379.409 62.664 379.825 62.248 380.305 61.96C380.785 61.672 381.393 61.528 382.129 61.528C382.865 61.528 383.553 61.736 384.193 62.152C384.865 62.568 385.633 63.016 386.497 63.496C387.361 63.976 388.369 64.424 389.521 64.84C390.705 65.256 392.193 65.464 393.985 65.464C395.393 65.464 396.593 65.304 397.585 64.984C398.609 64.632 399.441 64.184 400.081 63.64C400.753 63.096 401.233 62.472 401.521 61.768C401.841 61.032 402.001 60.28 402.001 59.512C402.001 58.36 401.649 57.416 400.945 56.68C400.273 55.944 399.361 55.304 398.209 54.76C397.089 54.216 395.793 53.736 394.321 53.32C392.881 52.872 391.393 52.392 389.857 51.88C388.353 51.368 386.865 50.776 385.393 50.104C383.953 49.4 382.657 48.52 381.505 47.464C380.385 46.408 379.473 45.112 378.769 43.576C378.097 42.04 377.761 40.184 377.761 38.008C377.761 35.992 378.161 34.072 378.961 32.248C379.761 30.424 380.929 28.84 382.465 27.496C384.033 26.12 385.969 25.032 388.273 24.232C390.609 23.4 393.297 22.984 396.337 22.984C399.729 22.984 402.817 23.544 405.601 24.664C408.385 25.784 410.705 27.256 412.561 29.08L409.873 33.352Z"/>
</mask>
<path d="M14.688 73V74H15.688V73H14.688ZM1.728 73H0.728001V74H1.728V73ZM1.728 3.592V2.592H0.728001V3.592H1.728ZM14.688 3.592H15.688V2.592H14.688V3.592ZM14.688 73V72H1.728V73V74H14.688V73ZM1.728 73H2.728V3.592H1.728H0.728001V73H1.728ZM1.728 3.592V4.592H14.688V3.592V2.592H1.728V3.592ZM14.688 3.592H13.688V73H14.688H15.688V3.592H14.688ZM38.694 29.8L37.7153 30.0054L38.0948 31.8134L39.4011 30.5071L38.694 29.8ZM41.814 27.064L42.4215 27.8584L42.4248 27.8558L41.814 27.064ZM45.318 24.904L45.7461 25.8078L45.756 25.803L45.318 24.904ZM49.302 23.512L49.5236 24.4871L49.5341 24.4847L49.5445 24.4821L49.302 23.512ZM61.062 24.376L60.6545 25.2893L60.6664 25.2944L61.062 24.376ZM66.246 28.216L65.4754 28.8533L65.482 28.8613L65.4888 28.8692L66.246 28.216ZM69.414 34.12L68.4576 34.4122L68.4601 34.4202L68.4627 34.4282L69.414 34.12ZM70.518 73V74H71.518V73H70.518ZM58.662 73H57.662V74H58.662V73ZM56.598 34.696L55.8273 35.3333L55.8335 35.3406L56.598 34.696ZM39.462 37.384L38.7549 36.6769L38.462 36.9698V37.384H39.462ZM39.462 73V74H40.462V73H39.462ZM27.606 73H26.606V74H27.606V73ZM27.606 23.752V22.752H26.606V23.752H27.606ZM37.878 25.912L38.8567 25.7066L38.8449 25.6503L38.8267 25.5958L37.878 25.912ZM38.694 29.8L39.4011 30.5071C40.3626 29.5456 41.3694 28.6629 42.4215 27.8584L41.814 27.064L41.2066 26.2696C40.0826 27.1291 39.0094 28.0704 37.9869 29.0929L38.694 29.8ZM41.814 27.064L42.4248 27.8558C43.491 27.0333 44.5981 26.3515 45.7461 25.8077L45.318 24.904L44.8899 24.0003C43.6059 24.6085 42.377 25.3667 41.2032 26.2722L41.814 27.064ZM45.318 24.904L45.756 25.803C46.9323 25.2299 48.1874 24.7908 49.5236 24.4871L49.302 23.512L49.0804 22.5369C47.6006 22.8732 46.1997 23.3621 44.88 24.005L45.318 24.904ZM49.302 23.512L49.5445 24.4821C50.8626 24.1526 52.3161 23.984 53.91 23.984V22.984V21.984C52.1759 21.984 50.5574 22.1674 49.0595 22.5419L49.302 23.512ZM53.91 22.984V23.984C56.4826 23.984 58.7238 24.4278 60.6546 25.2892L61.062 24.376L61.4694 23.4628C59.2402 22.4682 56.7134 21.984 53.91 21.984V22.984ZM61.062 24.376L60.6664 25.2944C62.6082 26.1309 64.2053 27.3174 65.4754 28.8533L66.246 28.216L67.0166 27.5787C65.5347 25.7866 63.6758 24.4131 61.4576 23.4576L61.062 24.376ZM66.246 28.216L65.4888 28.8692C66.796 30.3843 67.7895 32.2254 68.4576 34.4122L69.414 34.12L70.3704 33.8278C69.6305 31.4066 68.512 29.3117 67.0032 27.5628L66.246 28.216ZM69.414 34.12L68.4627 34.4282C69.1619 36.5868 69.518 38.993 69.518 41.656H70.518H71.518C71.518 38.815 71.1381 36.1972 70.3653 33.8118L69.414 34.12ZM70.518 41.656H69.518V73H70.518H71.518V41.656H70.518ZM70.518 73V72H58.662V73V74H70.518V73ZM58.662 73H59.662V41.656H58.662H57.662V73H58.662ZM58.662 41.656H59.662C59.662 38.5074 58.9424 35.9253 57.3625 34.0514L56.598 34.696L55.8335 35.3406C57.0056 36.7307 57.662 38.7886 57.662 41.656H58.662ZM56.598 34.696L57.3686 34.0587C55.7483 32.0992 53.3267 31.2 50.31 31.2V32.2V33.2C52.9253 33.2 54.6957 33.9648 55.8274 35.3333L56.598 34.696ZM50.31 32.2V31.2C48.1044 31.2 46.0264 31.7013 44.0901 32.704L44.55 33.592L45.0099 34.48C46.6576 33.6267 48.4196 33.2 50.31 33.2V32.2ZM44.55 33.592L44.0901 32.704C42.1966 33.6846 40.4188 35.0129 38.7549 36.6769L39.462 37.384L40.1691 38.0911C41.7052 36.555 43.3194 35.3554 45.0099 34.48L44.55 33.592ZM39.462 37.384H38.462V73H39.462H40.462V37.384H39.462ZM39.462 73V72H27.606V73V74H39.462V73ZM27.606 73H28.606V23.752H27.606H26.606V73H27.606ZM27.606 23.752V24.752H34.854V23.752V22.752H27.606V23.752ZM34.854 23.752V24.752C35.4642 24.752 35.8834 24.8933 36.1808 25.1057C36.4771 25.3174 36.7408 25.6627 36.9293 26.2282L37.878 25.912L38.8267 25.5958C38.5352 24.7213 38.0549 23.9866 37.3432 23.4783C36.6326 22.9707 35.7798 22.752 34.854 22.752V23.752ZM37.878 25.912L36.8993 26.1174L37.7153 30.0054L38.694 29.8L39.6727 29.5946L38.8567 25.7066L37.878 25.912ZM112.706 36.328H113.706V35.9692L113.477 35.6923L112.706 36.328ZM108.29 32.872L107.896 33.7912L107.902 33.794L108.29 32.872ZM98.3535 32.872L98.7764 33.7782L98.3535 32.872ZM94.6575 35.944L95.453 36.5501L95.4597 36.541L94.6575 35.944ZM92.3055 41.128L93.273 41.381L93.2739 41.3774L92.3055 41.128ZM92.1615 55.864L91.1853 56.0809L91.1873 56.0901L91.1895 56.0992L92.1615 55.864ZM94.1775 60.76L93.3486 61.3195L93.3553 61.3292L94.1775 60.76ZM97.3455 63.496L96.9264 64.404L96.9361 64.4084L96.9459 64.4127L97.3455 63.496ZM107.81 62.776L107.3 61.9157L107.81 62.776ZM112.706 58.408L113.481 59.0391L113.706 58.7634V58.408H112.706ZM124.561 1.672H125.561V0.671997H124.561V1.672ZM124.561 73V74H125.561V73H124.561ZM114.338 70.84L113.359 71.0475L113.367 71.0828L113.377 71.1175L114.338 70.84ZM113.329 66.088L114.308 65.8805L113.893 63.923L112.576 65.4302L113.329 66.088ZM106.465 71.608L105.988 70.7293L105.984 70.7318L106.465 71.608ZM90.0975 72.04L90.5447 71.1456L90.0975 72.04ZM84.2895 67.192L83.4881 67.7901L83.4931 67.7968L83.4982 67.8034L84.2895 67.192ZM80.5455 59.272L79.5814 59.5376L79.584 59.5467L80.5455 59.272ZM80.7375 38.344L79.7841 38.0424L80.7375 38.344ZM85.0095 30.184L85.7883 30.8113L85.0095 30.184ZM91.6815 24.808L92.1243 25.7047L92.1331 25.7002L91.6815 24.808ZM107.474 24.136L107.069 25.0504L107.069 25.0504L107.474 24.136ZM112.706 27.64L112.014 28.362L113.706 29.9834V27.64H112.706ZM112.706 1.672V0.671997H111.706V1.672H112.706ZM112.706 36.328L113.477 35.6923C112.053 33.9621 110.456 32.6971 108.677 31.95L108.29 32.872L107.902 33.794C109.323 34.3909 110.67 35.4299 111.934 36.9637L112.706 36.328ZM108.29 32.872L108.683 31.9529C106.982 31.2239 105.151 30.864 103.201 30.864V31.864V32.864C104.9 32.864 106.461 33.1761 107.896 33.7911L108.29 32.872ZM103.201 31.864V30.864C101.282 30.864 99.519 31.2246 97.9306 31.9658L98.3535 32.872L98.7764 33.7782C100.068 33.1754 101.537 32.864 103.201 32.864V31.864ZM98.3535 32.872L97.9306 31.9658C96.3287 32.7134 94.9701 33.8489 93.8553 35.347L94.6575 35.944L95.4597 36.541C96.3929 35.2871 97.4983 34.3746 98.7764 33.7782L98.3535 32.872ZM94.6575 35.944L93.8621 35.338C92.7374 36.8141 91.9051 38.6733 91.3371 40.8786L92.3055 41.128L93.2739 41.3774C93.7939 39.3587 94.5296 37.7619 95.4529 36.55L94.6575 35.944ZM92.3055 41.128L91.338 40.875C90.7668 43.0593 90.4895 45.6124 90.4895 48.52H91.4895H92.4895C92.4895 45.7316 92.7562 43.3567 93.273 41.381L92.3055 41.128ZM91.4895 48.52H90.4895C90.4895 51.4467 90.7167 53.972 91.1853 56.0809L92.1615 55.864L93.1377 55.6471C92.7103 53.724 92.4895 51.3533 92.4895 48.52H91.4895ZM92.1615 55.864L91.1895 56.0992C91.689 58.1638 92.4004 59.9147 93.3487 61.3195L94.1775 60.76L95.0063 60.2005C94.2266 59.0453 93.5939 57.5322 93.1335 55.6288L92.1615 55.864ZM94.1775 60.76L93.3553 61.3292C94.3101 62.7084 95.4997 63.7454 96.9264 64.404L97.3455 63.496L97.7646 62.588C96.6953 62.0946 95.7729 61.3076 94.9997 60.1908L94.1775 60.76ZM97.3455 63.496L96.9459 64.4127C98.3352 65.0183 99.8656 65.312 101.521 65.312V64.312V63.312C100.105 63.312 98.8518 63.0617 97.7451 62.5793L97.3455 63.496ZM101.521 64.312V65.312C104.124 65.312 106.405 64.7704 108.319 63.6363L107.81 62.776L107.3 61.9157C105.758 62.8296 103.847 63.312 101.521 63.312V64.312ZM107.81 62.776L108.319 63.6363C110.168 62.5409 111.886 60.9998 113.481 59.0391L112.706 58.408L111.93 57.7769C110.453 59.5922 108.907 60.9631 107.3 61.9157L107.81 62.776ZM112.706 58.408H113.706V36.328H112.706H111.706V58.408H112.706ZM124.561 1.672H123.561V73H124.561H125.561V1.672H124.561ZM124.561 73V72H117.313V73V74H124.561V73ZM117.313 73V72C116.681 72 116.264 71.856 115.981 71.6507C115.702 71.4485 115.459 71.1175 115.298 70.5625L114.338 70.84L113.377 71.1175C113.632 72.0025 114.093 72.7515 114.806 73.2693C115.515 73.784 116.378 74 117.313 74V73ZM114.338 70.84L115.316 70.6325L114.308 65.8805L113.329 66.088L112.351 66.2955L113.359 71.0475L114.338 70.84ZM113.329 66.088L112.576 65.4302C110.669 67.6148 108.473 69.3793 105.988 70.7293L106.465 71.608L106.943 72.4867C109.642 71.0207 112.022 69.1051 114.083 66.7458L113.329 66.088ZM106.465 71.608L105.984 70.7318C103.595 72.0456 100.774 72.72 97.4895 72.72V73.72V74.72C101.053 74.72 104.216 73.9864 106.947 72.4842L106.465 71.608ZM97.4895 73.72V72.72C94.9451 72.72 92.6358 72.1911 90.5447 71.1456L90.0975 72.04L89.6503 72.9344C92.0392 74.1289 94.6579 74.72 97.4895 74.72V73.72ZM90.0975 72.04L90.5447 71.1456C88.448 70.0972 86.627 68.5816 85.0808 66.5806L84.2895 67.192L83.4982 67.8034C85.216 70.0265 87.267 71.7428 89.6503 72.9344L90.0975 72.04ZM84.2895 67.192L85.0909 66.5939C83.5774 64.5658 82.3768 62.0415 81.507 58.9973L80.5455 59.272L79.584 59.5467C80.5062 62.7746 81.8016 65.5302 83.4881 67.7901L84.2895 67.192ZM80.5455 59.272L81.5096 59.0064C80.6743 55.9747 80.2495 52.4827 80.2495 48.52H79.2495H78.2495C78.2495 52.6212 78.6887 56.2973 79.5814 59.5376L80.5455 59.272ZM79.2495 48.52H80.2495C80.2495 44.9633 80.733 41.674 81.6909 38.6456L80.7375 38.344L79.7841 38.0424C78.758 41.286 78.2495 44.7807 78.2495 48.52H79.2495ZM80.7375 38.344L81.6909 38.6456C82.6496 35.6149 84.0185 33.0083 85.7883 30.8113L85.0095 30.184L84.2307 29.5567C82.2885 31.9677 80.8094 34.8011 79.7841 38.0424L80.7375 38.344ZM85.0095 30.184L85.7883 30.8113C87.5553 28.6177 89.6656 26.9188 92.1243 25.7046L91.6815 24.808L91.2387 23.9114C88.5134 25.2572 86.1757 27.1423 84.2307 29.5567L85.0095 30.184ZM91.6815 24.808L92.1331 25.7002C94.57 24.4667 97.3245 23.84 100.418 23.84V22.84V21.84C97.0465 21.84 93.977 22.5253 91.2299 23.9158L91.6815 24.808ZM100.418 22.84V23.84C103.069 23.84 105.275 24.2566 107.069 25.0504L107.474 24.136L107.878 23.2216C105.768 22.2873 103.27 21.84 100.418 21.84V22.84ZM107.474 24.136L107.069 25.0504C108.915 25.8676 110.562 26.9706 112.014 28.362L112.706 27.64L113.397 26.918C111.777 25.3654 109.936 24.1324 107.878 23.2216L107.474 24.136ZM112.706 27.64H113.706V1.672H112.706H111.706V27.64H112.706ZM112.706 1.672V2.672H124.561V1.672V0.671997H112.706V1.672ZM178.694 23.752H179.694V22.752H178.694V23.752ZM178.694 73V74H179.694V73H178.694ZM168.47 70.84L167.491 71.043L167.499 71.0806L167.51 71.1175L168.47 70.84ZM167.654 66.904L168.633 66.701L168.254 64.8695L166.942 66.2025L167.654 66.904ZM160.982 71.896L161.439 72.7857L161.448 72.7809L160.982 71.896ZM145.238 72.424L144.826 73.3349L144.834 73.3387L144.843 73.3424L145.238 72.424ZM140.054 68.536L139.291 69.1819L140.054 68.536ZM136.838 62.632L135.882 62.9242L135.884 62.9322L135.887 62.9402L136.838 62.632ZM135.782 23.752V22.752H134.782V23.752H135.782ZM147.638 23.752H148.638V22.752H147.638V23.752ZM149.702 62.056L148.932 62.6933L148.938 62.7013L148.945 62.7092L149.702 62.056ZM161.75 63.16L162.197 64.0544L162.204 64.0513L162.21 64.048L161.75 63.16ZM166.838 59.368L167.545 60.0751L167.838 59.7822V59.368H166.838ZM166.838 23.752V22.752H165.838V23.752H166.838ZM178.694 23.752H177.694V73H178.694H179.694V23.752H178.694ZM178.694 73V72H171.446V73V74H178.694V73ZM171.446 73V72C170.814 72 170.397 71.856 170.114 71.6507C169.835 71.4485 169.591 71.1175 169.431 70.5625L168.47 70.84L167.51 71.1175C167.765 72.0025 168.225 72.7515 168.939 73.2693C169.648 73.784 170.51 74 171.446 74V73ZM168.47 70.84L169.449 70.637L168.633 66.701L167.654 66.904L166.675 67.107L167.491 71.043L168.47 70.84ZM167.654 66.904L166.942 66.2025C164.995 68.1804 162.853 69.7813 160.517 71.0111L160.982 71.896L161.448 72.7809C163.975 71.4507 166.282 69.7236 168.367 67.6055L167.654 66.904ZM160.982 71.896L160.526 71.0063C158.261 72.1684 155.56 72.768 152.39 72.768V73.768V74.768C155.813 74.768 158.839 74.1196 161.439 72.7857L160.982 71.896ZM152.39 73.768V72.768C149.813 72.768 147.568 72.3387 145.634 71.5056L145.238 72.424L144.843 73.3424C147.069 74.3013 149.591 74.768 152.39 74.768V73.768ZM145.238 72.424L145.651 71.5131C143.734 70.6444 142.127 69.4372 140.818 67.8901L140.054 68.536L139.291 69.1819C140.798 70.9628 142.647 72.3476 144.826 73.3349L145.238 72.424ZM140.054 68.536L140.818 67.8901C139.501 66.3345 138.489 64.484 137.79 62.3238L136.838 62.632L135.887 62.9402C136.659 65.324 137.791 67.4095 139.291 69.1819L140.054 68.536ZM136.838 62.632L137.795 62.3398C137.123 60.1429 136.782 57.7148 136.782 55.048H135.782H134.782C134.782 57.8852 135.145 60.5131 135.882 62.9242L136.838 62.632ZM135.782 55.048H136.782V23.752H135.782H134.782V55.048H135.782ZM135.782 23.752V24.752H147.638V23.752V22.752H135.782V23.752ZM147.638 23.752H146.638V55.048H147.638H148.638V23.752H147.638ZM147.638 55.048H146.638C146.638 58.1981 147.358 60.7908 148.932 62.6933L149.702 62.056L150.473 61.4187C149.294 59.9932 148.638 57.9139 148.638 55.048H147.638ZM149.702 62.056L148.945 62.7092C150.595 64.6219 153.006 65.504 155.99 65.504V64.504V63.504C153.406 63.504 151.625 62.7541 150.459 61.4028L149.702 62.056ZM155.99 64.504V65.504C158.19 65.504 160.263 65.0214 162.197 64.0544L161.75 63.16L161.303 62.2656C159.653 63.0906 157.887 63.504 155.99 63.504V64.504ZM161.75 63.16L162.21 64.048C164.104 63.0674 165.881 61.7391 167.545 60.0751L166.838 59.368L166.131 58.6609C164.595 60.197 162.981 61.3966 161.29 62.272L161.75 63.16ZM166.838 59.368H167.838V23.752H166.838H165.838V59.368H166.838ZM166.838 23.752V24.752H178.694V23.752V22.752H166.838V23.752ZM220.498 33.352L219.651 32.8194L219.65 32.822L220.498 33.352ZM219.49 34.456L219.969 35.3339L219.998 35.3178L220.027 35.2997L219.49 34.456ZM216.274 34.264L215.827 35.1584L215.835 35.1627L215.844 35.1669L216.274 34.264ZM214.018 33.208L213.584 34.109L213.598 34.1156L213.612 34.1218L214.018 33.208ZM211.042 32.104L210.76 33.0634L210.767 33.0655L211.042 32.104ZM201.634 33.112L201.04 32.3074L201.031 32.3143L201.634 33.112ZM200.674 39.688L199.935 40.3623L199.951 40.379L199.967 40.3951L200.674 39.688ZM203.41 41.56L202.973 42.4596L202.983 42.4642L203.41 41.56ZM207.298 43.048L207.001 44.0029L207.01 44.0059L207.02 44.0087L207.298 43.048ZM211.666 44.44L211.337 45.3845L211.343 45.3867L211.666 44.44ZM216.082 46.216L215.659 47.1222L215.667 47.1261L215.676 47.1298L216.082 46.216ZM219.922 48.712L219.247 49.45L219.258 49.4601L219.269 49.4698L219.922 48.712ZM222.658 52.312L221.755 52.7427L221.759 52.751L221.763 52.7592L222.658 52.312ZM222.418 63.976L221.499 63.5821L221.496 63.5893L222.418 63.976ZM218.674 69.16L219.328 69.9162L219.336 69.909L218.674 69.16ZM212.482 72.568L212.794 73.518L212.802 73.5154L212.482 72.568ZM199.042 73.288L199.234 72.3067L199.227 72.3052L199.219 72.3038L199.042 73.288ZM194.386 72.04L194.039 72.978L194.046 72.9804L194.386 72.04ZM190.258 70.12L189.75 70.9814L189.759 70.9869L190.258 70.12ZM186.946 67.72L186.091 67.2015L185.661 67.9094L186.277 68.4633L186.946 67.72ZM189.682 63.208L188.842 62.6647L188.834 62.677L188.827 62.6895L189.682 63.208ZM190.93 61.96L191.444 62.8175L190.93 61.96ZM194.818 62.152L194.273 62.9904L194.282 62.9965L194.291 63.0023L194.818 62.152ZM197.122 63.496L196.636 64.3702L197.122 63.496ZM200.146 64.84L199.806 65.7806L199.814 65.7835L200.146 64.84ZM208.21 64.984L208.517 65.9357L208.526 65.9328L208.535 65.9297L208.21 64.984ZM210.706 63.64L210.077 62.8628L210.067 62.8703L210.058 62.8781L210.706 63.64ZM212.146 61.768L211.229 61.3693L211.224 61.3793L211.22 61.3894L212.146 61.768ZM211.57 56.68L210.831 57.3543L210.839 57.3628L210.847 57.3712L211.57 56.68ZM208.834 54.76L208.397 55.6596L208.407 55.6642L208.834 54.76ZM204.946 53.32L204.649 54.2749L204.661 54.2787L204.674 54.2823L204.946 53.32ZM200.482 51.88L200.159 52.8267L200.166 52.8287L200.482 51.88ZM196.018 50.104L195.579 51.0024L195.59 51.0082L195.602 51.0137L196.018 50.104ZM192.13 47.464L191.444 48.1917L191.454 48.2012L192.13 47.464ZM189.394 43.576L188.478 43.9768L188.481 43.9848L188.485 43.9927L189.394 43.576ZM189.586 32.248L188.67 31.8463L189.586 32.248ZM193.09 27.496L193.748 28.2486L193.749 28.2476L193.09 27.496ZM198.898 24.232L199.226 25.1767L199.233 25.174L198.898 24.232ZM216.226 24.664L216.599 23.7363L216.226 24.664ZM223.186 29.08L224.032 29.6126L224.461 28.9311L223.887 28.3668L223.186 29.08ZM220.498 33.352L219.65 32.822C219.376 33.2599 219.136 33.496 218.953 33.6123L219.49 34.456L220.027 35.2997C220.548 34.968 220.979 34.4681 221.346 33.882L220.498 33.352ZM219.49 34.456L219.011 33.5781C218.849 33.6665 218.58 33.744 218.146 33.744V34.744V35.744C218.8 35.744 219.427 35.6295 219.969 35.3339L219.49 34.456ZM218.146 34.744V33.744C217.755 33.744 217.279 33.6352 216.704 33.3611L216.274 34.264L215.844 35.1669C216.612 35.5328 217.384 35.744 218.146 35.744V34.744ZM216.274 34.264L216.721 33.3696C216.064 33.0411 215.298 32.6825 214.424 32.2942L214.018 33.208L213.612 34.1218C214.466 34.5015 215.204 34.8469 215.827 35.1584L216.274 34.264ZM214.018 33.208L214.452 32.307C213.527 31.8618 212.48 31.4749 211.316 31.1425L211.042 32.104L210.767 33.0655C211.844 33.3731 212.781 33.7222 213.584 34.109L214.018 33.208ZM211.042 32.104L211.324 31.1446C210.12 30.7905 208.724 30.624 207.154 30.624V31.624V32.624C208.591 32.624 209.787 32.7775 210.76 33.0634L211.042 32.104ZM207.154 31.624V30.624C204.687 30.624 202.612 31.1468 201.04 32.3074L201.634 33.112L202.228 33.9166C203.343 33.0932 204.949 32.624 207.154 32.624V31.624ZM201.634 33.112L201.031 32.3143C199.477 33.4891 198.666 35.0764 198.666 37H199.666H200.666C200.666 35.7235 201.167 34.7189 202.237 33.9097L201.634 33.112ZM199.666 37H198.666C198.666 38.2892 199.084 39.4303 199.935 40.3623L200.674 39.688L201.412 39.0137C200.919 38.4737 200.666 37.8228 200.666 37H199.666ZM200.674 39.688L199.967 40.3951C200.766 41.1947 201.777 41.8785 202.973 42.4595L203.41 41.56L203.847 40.6605C202.803 40.1535 201.989 39.5893 201.381 38.9809L200.674 39.688ZM203.41 41.56L202.983 42.4642C204.184 43.0313 205.524 43.5435 207.001 44.0029L207.298 43.048L207.595 42.0931C206.191 41.6565 204.94 41.1767 203.837 40.6558L203.41 41.56ZM207.298 43.048L207.02 44.0087C208.442 44.4196 209.881 44.8781 211.337 45.3845L211.666 44.44L211.994 43.4955C210.506 42.9779 209.033 42.5084 207.575 42.0873L207.298 43.048ZM211.666 44.44L211.343 45.3867C212.813 45.887 214.252 46.4655 215.659 47.1222L216.082 46.216L216.505 45.3098C215.032 44.6225 213.526 44.017 211.988 43.4933L211.666 44.44ZM216.082 46.216L215.676 47.1298C217.021 47.7278 218.21 48.5015 219.247 49.45L219.922 48.712L220.597 47.974C219.394 46.8745 218.022 45.9842 216.488 45.3022L216.082 46.216ZM219.922 48.712L219.269 49.4698C220.313 50.3689 221.141 51.4565 221.755 52.7427L222.658 52.312L223.56 51.8813C222.83 50.3515 221.834 49.0391 220.574 47.9542L219.922 48.712ZM222.658 52.312L221.763 52.7592C222.382 53.997 222.714 55.5319 222.714 57.4H223.714H224.714C224.714 55.3001 224.341 53.443 223.552 51.8648L222.658 52.312ZM223.714 57.4H222.714C222.714 59.6435 222.305 61.7002 221.499 63.5821L222.418 63.976L223.337 64.3699C224.258 62.2198 224.714 59.8925 224.714 57.4H223.714ZM222.418 63.976L221.496 63.5893C220.724 65.4299 219.566 67.0353 218.011 68.411L218.674 69.16L219.336 69.909C221.109 68.3407 222.448 66.4901 223.34 64.3627L222.418 63.976ZM218.674 69.16L218.019 68.4038C216.47 69.7451 214.525 70.8226 212.162 71.6206L212.482 72.568L212.802 73.5154C215.367 72.6494 217.55 71.4549 219.328 69.9162L218.674 69.16ZM212.482 72.568L212.169 71.6181C209.86 72.3778 207.153 72.768 204.034 72.768V73.768V74.768C207.315 74.768 210.24 74.3582 212.794 73.5179L212.482 72.568ZM204.034 73.768V72.768C202.401 72.768 200.802 72.614 199.234 72.3067L199.042 73.288L198.849 74.2693C200.546 74.602 202.274 74.768 204.034 74.768V73.768ZM199.042 73.288L199.219 72.3038C197.673 72.0256 196.176 71.6241 194.726 71.0996L194.386 72.04L194.046 72.9804C195.603 73.5439 197.21 73.9744 198.865 74.2722L199.042 73.288ZM194.386 72.04L194.732 71.102C193.31 70.5762 191.985 69.9595 190.756 69.2531L190.258 70.12L189.759 70.9869C191.091 71.7525 192.518 72.4158 194.039 72.978L194.386 72.04ZM190.258 70.12L190.766 69.2586C189.568 68.5525 188.52 67.7911 187.615 66.9767L186.946 67.72L186.277 68.4633C187.292 69.3769 188.451 70.2155 189.75 70.9814L190.258 70.12ZM186.946 67.72L187.801 68.2385L190.537 63.7265L189.682 63.208L188.827 62.6895L186.091 67.2015L186.946 67.72ZM189.682 63.208L190.521 63.7513C190.803 63.3153 191.114 63.0154 191.444 62.8175L190.93 61.96L190.415 61.1025C189.785 61.4806 189.264 62.0127 188.842 62.6647L189.682 63.208ZM190.93 61.96L191.444 62.8175C191.727 62.6477 192.143 62.528 192.754 62.528V61.528V60.528C191.892 60.528 191.092 60.6963 190.415 61.1025L190.93 61.96ZM192.754 61.528V62.528C193.289 62.528 193.789 62.6758 194.273 62.9904L194.818 62.152L195.363 61.3136C194.567 60.7962 193.691 60.528 192.754 60.528V61.528ZM194.818 62.152L194.291 63.0023C194.98 63.4283 195.762 63.8843 196.636 64.3702L197.122 63.496L197.607 62.6218C196.754 62.1477 196 61.7077 195.344 61.3017L194.818 62.152ZM197.122 63.496L196.636 64.3702C197.556 64.8814 198.615 65.3505 199.806 65.7806L200.146 64.84L200.485 63.8994C199.372 63.4975 198.415 63.0705 197.607 62.6218L197.122 63.496ZM200.146 64.84L199.814 65.7835C201.14 66.2492 202.749 66.464 204.61 66.464V65.464V64.464C202.886 64.464 201.52 64.2628 200.477 63.8965L200.146 64.84ZM204.61 65.464V66.464C206.088 66.464 207.398 66.2967 208.517 65.9357L208.21 64.984L207.903 64.0323C207.038 64.3113 205.948 64.464 204.61 64.464V65.464ZM208.21 64.984L208.535 65.9297C209.644 65.5483 210.595 65.0464 211.353 64.4019L210.706 63.64L210.058 62.8781C209.536 63.3216 208.823 63.7157 207.885 64.0383L208.21 64.984ZM210.706 63.64L211.335 64.4172C212.12 63.7821 212.711 63.0265 213.071 62.1466L212.146 61.768L211.22 61.3894C211.004 61.9175 210.636 62.4099 210.077 62.8628L210.706 63.64ZM212.146 61.768L213.063 62.1667C213.435 61.3107 213.626 60.4234 213.626 59.512H212.626H211.626C211.626 60.1366 211.496 60.7533 211.229 61.3693L212.146 61.768ZM212.626 59.512H213.626C213.626 58.139 213.198 56.9357 212.292 55.9888L211.57 56.68L210.847 57.3712C211.349 57.8963 211.626 58.581 211.626 59.512H212.626ZM211.57 56.68L212.308 56.0057C211.528 55.1508 210.499 54.4406 209.261 53.8558L208.834 54.76L208.407 55.6642C209.472 56.1674 210.268 56.7372 210.831 57.3543L211.57 56.68ZM208.834 54.76L209.271 53.8605C208.087 53.2857 206.734 52.7862 205.218 52.3577L204.946 53.32L204.674 54.2823C206.101 54.6858 207.34 55.1463 208.397 55.6595L208.834 54.76ZM204.946 53.32L205.243 52.3651C203.81 51.9193 202.328 51.4413 200.798 50.9313L200.482 51.88L200.166 52.8287C201.707 53.3427 203.202 53.8247 204.649 54.2749L204.946 53.32ZM200.482 51.88L200.804 50.9333C199.332 50.4323 197.875 49.8527 196.433 49.1943L196.018 50.104L195.602 51.0137C197.104 51.6993 198.623 52.3037 200.159 52.8266L200.482 51.88ZM196.018 50.104L196.457 49.2056C195.101 48.5426 193.885 47.7164 192.805 46.7268L192.13 47.464L191.454 48.2012C192.679 49.3236 194.055 50.2574 195.579 51.0024L196.018 50.104ZM192.13 47.464L192.816 46.7364C191.798 45.777 190.958 44.5898 190.303 43.1593L189.394 43.576L188.485 43.9927C189.237 45.6342 190.221 47.039 191.444 48.1916L192.13 47.464ZM189.394 43.576L190.31 43.1752C189.707 41.7972 189.386 40.0854 189.386 38.008H188.386H187.386C187.386 40.2826 187.736 42.2828 188.478 43.9768L189.394 43.576ZM188.386 38.008H189.386C189.386 36.1285 189.758 34.3455 190.502 32.6497L189.586 32.248L188.67 31.8463C187.814 33.7985 187.386 35.8555 187.386 38.008H188.386ZM189.586 32.248L190.502 32.6497C191.241 30.9635 192.32 29.4984 193.748 28.2486L193.09 27.496L192.431 26.7434C190.788 28.1816 189.53 29.8845 188.67 31.8463L189.586 32.248ZM193.09 27.496L193.749 28.2476C195.205 26.9699 197.023 25.9414 199.226 25.1767L198.898 24.232L198.57 23.2873C196.164 24.1226 194.11 25.2701 192.43 26.7444L193.09 27.496ZM198.898 24.232L199.233 25.174C201.44 24.3879 204.011 23.984 206.962 23.984V22.984V21.984C203.832 21.984 201.027 22.412 198.562 23.29L198.898 24.232ZM206.962 22.984V23.984C210.242 23.984 213.202 24.5253 215.853 25.5917L216.226 24.664L216.599 23.7363C213.682 22.5627 210.465 21.984 206.962 21.984V22.984ZM216.226 24.664L215.853 25.5917C218.533 26.67 220.736 28.0747 222.485 29.7932L223.186 29.08L223.887 28.3668C221.923 26.4373 219.487 24.898 216.599 23.7363L216.226 24.664ZM223.186 29.08L222.339 28.5474L219.651 32.8194L220.498 33.352L221.344 33.8846L224.032 29.6126L223.186 29.08ZM239.165 70.168L238.434 70.8507L238.444 70.8605L239.165 70.168ZM235.757 32.632H236.757V31.632H235.757V32.632ZM229.085 32.008L228.405 32.7408L229.085 32.008ZM228.413 25.432L228.252 24.4451L227.413 24.5823V25.432H228.413ZM236.333 24.136L236.495 25.1229L237.188 25.0094L237.316 24.3186L236.333 24.136ZM238.829 10.696L237.859 10.4535L237.852 10.4832L237.846 10.5134L238.829 10.696ZM239.741 9.20799L239.123 8.42167V8.42168L239.741 9.20799ZM247.613 8.68H248.613V7.68H247.613V8.68ZM247.613 24.184H246.613V25.184H247.613V24.184ZM260.765 24.184H261.765V23.184H260.765V24.184ZM260.765 32.632V33.632H261.765V32.632H260.765ZM247.613 32.632V31.632H246.613V32.632H247.613ZM248.717 62.92L247.956 63.5685L247.963 63.5765L247.97 63.5844L248.717 62.92ZM253.661 63.976L253.977 64.9247L253.995 64.9188L254.012 64.9123L253.661 63.976ZM254.957 63.4L254.51 62.5056L254.494 62.5136L254.478 62.5221L254.957 63.4ZM255.965 62.872L256.451 63.7462L256.486 63.7265L256.52 63.704L255.965 62.872ZM257.693 62.872L257.042 63.6313L257.076 63.66L257.112 63.6857L257.693 62.872ZM258.413 63.64L259.264 63.1151L259.244 63.0827L259.222 63.0518L258.413 63.64ZM261.965 69.4L262.605 70.1682L263.272 69.6131L262.816 68.8751L261.965 69.4ZM249.053 73.768V72.768C244.955 72.768 241.952 71.6264 239.887 69.4755L239.165 70.168L238.444 70.8605C240.987 73.5096 244.576 74.768 249.053 74.768V73.768ZM239.165 70.168L239.896 69.4853C237.841 67.2859 236.757 64.2119 236.757 60.136H235.757H234.757C234.757 64.5721 235.945 68.1861 238.435 70.8507L239.165 70.168ZM235.757 60.136H236.757V32.632H235.757H234.757V60.136H235.757ZM235.757 32.632V31.632H230.717V32.632V33.632H235.757V32.632ZM230.717 32.632V31.632C230.317 31.632 230.019 31.5108 229.766 31.2752L229.085 32.008L228.405 32.7408C229.047 33.3372 229.838 33.632 230.717 33.632V32.632ZM229.085 32.008L229.766 31.2752C229.587 31.1092 229.413 30.7941 229.413 30.136H228.413H227.413C227.413 31.1419 227.688 32.0748 228.405 32.7408L229.085 32.008ZM228.413 30.136H229.413V25.432H228.413H227.413V30.136H228.413ZM228.413 25.432L228.575 26.4189L236.495 25.1229L236.333 24.136L236.172 23.1491L228.252 24.4451L228.413 25.432ZM236.333 24.136L237.316 24.3186L239.812 10.8786L238.829 10.696L237.846 10.5134L235.35 23.9534L236.333 24.136ZM238.829 10.696L239.799 10.9385C239.914 10.4784 240.112 10.1882 240.359 9.99431L239.741 9.20799L239.123 8.42168C238.474 8.93183 238.064 9.63362 237.859 10.4535L238.829 10.696ZM239.741 9.20799L240.359 9.99431C240.593 9.81083 240.935 9.68 241.469 9.68V8.68V7.68C240.595 7.68 239.786 7.90117 239.123 8.42167L239.741 9.20799ZM241.469 8.68V9.68H247.613V8.68V7.68H241.469V8.68ZM247.613 8.68H246.613V24.184H247.613H248.613V8.68H247.613ZM247.613 24.184V25.184H260.765V24.184V23.184H247.613V24.184ZM260.765 24.184H259.765V32.632H260.765H261.765V24.184H260.765ZM260.765 32.632V31.632H247.613V32.632V33.632H260.765V32.632ZM247.613 32.632H246.613V59.32H247.613H248.613V32.632H247.613ZM247.613 59.32H246.613C246.613 61.0094 247.019 62.4683 247.956 63.5685L248.717 62.92L249.479 62.2715C248.944 61.6437 248.613 60.7026 248.613 59.32H247.613ZM248.717 62.92L247.97 63.5844C248.954 64.6919 250.282 65.216 251.837 65.216V64.216V63.216C250.768 63.216 250.016 62.8761 249.465 62.2556L248.717 62.92ZM251.837 64.216V65.216C252.636 65.216 253.361 65.1303 253.977 64.9247L253.661 63.976L253.345 63.0273C253.002 63.1417 252.51 63.216 251.837 63.216V64.216ZM253.661 63.976L254.012 64.9123C254.554 64.7093 255.031 64.4987 255.436 64.2779L254.957 63.4L254.478 62.5221C254.179 62.6853 253.793 62.8587 253.31 63.0397L253.661 63.976ZM254.957 63.4L255.404 64.2944C255.798 64.0978 256.147 63.9149 256.451 63.7462L255.965 62.872L255.48 61.9978C255.207 62.1491 254.885 62.3182 254.51 62.5056L254.957 63.4ZM255.965 62.872L256.52 63.704C256.677 63.5991 256.776 63.584 256.829 63.584V62.584V61.584C256.307 61.584 255.829 61.7609 255.411 62.0399L255.965 62.872ZM256.829 62.584V63.584C256.991 63.584 257.033 63.6234 257.042 63.6313L257.693 62.872L258.344 62.1127C257.905 61.7366 257.372 61.584 256.829 61.584V62.584ZM257.693 62.872L257.112 63.6857C257.213 63.7578 257.379 63.9187 257.605 64.2282L258.413 63.64L259.222 63.0518C258.935 62.6573 258.622 62.3062 258.275 62.0583L257.693 62.872ZM258.413 63.64L257.562 64.1649L261.114 69.9249L261.965 69.4L262.816 68.8751L259.264 63.1151L258.413 63.64ZM261.965 69.4L261.325 68.6318C259.699 69.9872 257.827 71.0154 255.701 71.714L256.013 72.664L256.325 73.614C258.679 72.8406 260.776 71.6928 262.605 70.1682L261.965 69.4ZM256.013 72.664L255.701 71.714C253.564 72.4163 251.349 72.768 249.053 72.768V73.768V74.768C251.557 74.768 253.983 74.3837 256.325 73.614L256.013 72.664ZM279.54 32.296L278.548 32.4242L278.956 35.5772L280.427 32.7586L279.54 32.296ZM285.012 25.384L285.631 26.1695L285.638 26.1637L285.012 25.384ZM297.972 24.328L298.968 24.4142L299.017 23.8487L298.557 23.5168L297.972 24.328ZM297.204 33.208L298.168 33.4756L298.192 33.3864L298.2 33.2942L297.204 33.208ZM296.484 34.456L297.098 35.2454L297.109 35.2369L296.484 34.456ZM293.124 34.552L292.954 35.5375L292.96 35.5384L293.124 34.552ZM286.884 34.888L287.235 35.8243L286.884 34.888ZM284.1 36.568L284.761 37.3187L284.763 37.317L284.1 36.568ZM281.94 39.16L281.092 38.63L281.086 38.6397L281.08 38.6495L281.94 39.16ZM280.212 42.664L279.288 42.281L279.212 42.4649V42.664H280.212ZM280.212 73V74H281.212V73H280.212ZM268.356 73H267.356V74H268.356V73ZM268.356 23.752V22.752H267.356V23.752H268.356ZM277.86 24.424L277.178 25.1551L277.191 25.1676L277.205 25.1797L277.86 24.424ZM278.82 26.728L279.812 26.5997L279.81 26.5866L278.82 26.728ZM279.54 32.296L280.427 32.7586C281.912 29.9112 283.653 27.728 285.631 26.1695L285.012 25.384L284.393 24.5985C282.147 26.368 280.24 28.7928 278.653 31.8334L279.54 32.296ZM285.012 25.384L285.638 26.1637C287.561 24.6197 289.832 23.84 292.5 23.84V22.84V21.84C289.408 21.84 286.687 22.7563 284.386 24.6043L285.012 25.384ZM292.5 22.84V23.84C294.632 23.84 296.231 24.3055 297.387 25.1392L297.972 24.328L298.557 23.5168C296.961 22.3665 294.912 21.84 292.5 21.84V22.84ZM297.972 24.328L296.976 24.2418L296.208 33.1218L297.204 33.208L298.2 33.2942L298.968 24.4142L297.972 24.328ZM297.204 33.208L296.24 32.9404C296.112 33.4028 295.956 33.5981 295.859 33.6751L296.484 34.456L297.109 35.2369C297.652 34.8019 297.976 34.1652 298.168 33.4756L297.204 33.208ZM296.484 34.456L295.87 33.6666C295.816 33.7085 295.661 33.792 295.284 33.792V34.792V35.792C295.931 35.792 296.576 35.6515 297.098 35.2453L296.484 34.456ZM295.284 34.792V33.792C294.89 33.792 294.237 33.7238 293.288 33.5656L293.124 34.552L292.96 35.5384C293.931 35.7002 294.718 35.792 295.284 35.792V34.792ZM293.124 34.552L293.294 33.5665C292.313 33.3974 291.344 33.312 290.388 33.312V34.312V35.312C291.224 35.312 292.079 35.3866 292.954 35.5375L293.124 34.552ZM290.388 34.312V33.312C288.979 33.312 287.689 33.5181 286.533 33.9517L286.884 34.888L287.235 35.8243C288.127 35.4899 289.173 35.312 290.388 35.312V34.312ZM286.884 34.888L286.533 33.9517C285.393 34.3792 284.359 35.0034 283.437 35.819L284.1 36.568L284.763 37.317C285.505 36.6606 286.327 36.1647 287.235 35.8243L286.884 34.888ZM284.1 36.568L283.439 35.8173C282.558 36.5933 281.777 37.5345 281.092 38.63L281.94 39.16L282.788 39.69C283.383 38.7375 284.042 37.9507 284.761 37.3187L284.1 36.568ZM281.94 39.16L281.08 38.6495C280.444 39.7213 279.847 40.9331 279.288 42.281L280.212 42.664L281.136 43.047C281.665 41.7709 282.22 40.6467 282.8 39.6705L281.94 39.16ZM280.212 42.664H279.212V73H280.212H281.212V42.664H280.212ZM280.212 73V72H268.356V73V74H280.212V73ZM268.356 73H269.356V23.752H268.356H267.356V73H268.356ZM268.356 23.752V24.752H275.316V23.752V22.752H268.356V23.752ZM275.316 23.752V24.752C276.471 24.752 276.987 24.9772 277.178 25.1551L277.86 24.424L278.542 23.6929C277.773 22.9748 276.593 22.752 275.316 22.752V23.752ZM277.86 24.424L277.205 25.1797C277.407 25.3543 277.68 25.8203 277.83 26.8694L278.82 26.728L279.81 26.5866C279.64 25.3957 279.273 24.3257 278.515 23.6683L277.86 24.424ZM278.82 26.728L277.828 26.8562L278.548 32.4242L279.54 32.296L280.532 32.1678L279.812 26.5998L278.82 26.728ZM316.457 23.752H317.457V22.752H316.457V23.752ZM316.457 73V74H317.457V73H316.457ZM304.552 73H303.552V74H304.552V73ZM304.552 23.752V22.752H303.552V23.752H304.552ZM315.785 14.632L315.094 13.9086L315.086 13.9167L315.077 13.9249L315.785 14.632ZM313.384 16.264L313.767 17.188L313.78 17.1825L313.794 17.1765L313.384 16.264ZM307.48 16.264L307.059 17.171L307.079 17.1799L307.098 17.188L307.48 16.264ZM303.496 12.28L302.577 12.6739L302.583 12.6876L302.589 12.7011L303.496 12.28ZM303.496 6.424L302.584 6.01494L302.578 6.02821L302.572 6.04165L303.496 6.424ZM307.48 2.44L307.874 3.35914L307.882 3.35589L307.89 3.35251L307.48 2.44ZM313.384 2.44L312.975 3.35251L312.989 3.35846L313.002 3.36402L313.384 2.44ZM315.785 4.024L315.077 4.7311L315.086 4.73932L315.094 4.74735L315.785 4.024ZM317.465 6.424L318.377 6.01494V6.01494L317.465 6.424ZM316.457 23.752H315.457V73H316.457H317.457V23.752H316.457ZM316.457 73V72H304.552V73V74H316.457V73ZM304.552 73H305.552V23.752H304.552H303.552V73H304.552ZM304.552 23.752V24.752H316.457V23.752V22.752H304.552V23.752ZM318.089 9.4H317.089C317.089 10.284 316.91 11.0997 316.557 11.8589L317.465 12.28L318.372 12.7011C318.851 11.6683 319.089 10.564 319.089 9.4H318.089ZM317.465 12.28L316.557 11.8589C316.193 12.6432 315.706 13.3243 315.094 13.9086L315.785 14.632L316.475 15.3554C317.271 14.5957 317.904 13.7088 318.372 12.7011L317.465 12.28ZM315.785 14.632L315.077 13.9249C314.497 14.505 313.8 14.9817 312.975 15.3515L313.384 16.264L313.794 17.1765C314.825 16.7143 315.728 16.103 316.492 15.3391L315.785 14.632ZM313.384 16.264L313.002 15.34C312.202 15.6713 311.34 15.84 310.409 15.84V16.84V17.84C311.589 17.84 312.711 17.6247 313.767 17.188L313.384 16.264ZM310.409 16.84V15.84C309.513 15.84 308.667 15.6728 307.863 15.34L307.48 16.264L307.098 17.188C308.15 17.6232 309.256 17.84 310.409 17.84V16.84ZM307.48 16.264L307.902 15.357C307.108 14.9884 306.421 14.5108 305.836 13.9249L305.129 14.632L304.421 15.3391C305.18 16.0972 306.061 16.7076 307.059 17.171L307.48 16.264ZM305.129 14.632L305.836 13.9249C305.25 13.339 304.772 12.6528 304.404 11.8589L303.496 12.28L302.589 12.7011C303.053 13.6992 303.663 14.581 304.421 15.3391L305.129 14.632ZM303.496 12.28L304.416 11.8861C304.088 11.1208 303.921 10.2955 303.921 9.4H302.921H301.921C301.921 10.5525 302.137 11.6472 302.577 12.6739L303.496 12.28ZM302.921 9.4H303.921C303.921 8.46834 304.089 7.60693 304.421 6.80635L303.496 6.424L302.572 6.04165C302.136 7.09706 301.921 8.21966 301.921 9.4H302.921ZM303.496 6.424L304.409 6.83305C304.779 6.00823 305.255 5.3112 305.836 4.7311L305.129 4.024L304.421 3.31689C303.658 4.08079 303.046 4.98376 302.584 6.01494L303.496 6.424ZM305.129 4.024L305.836 4.7311C306.415 4.1514 307.092 3.69435 307.874 3.35914L307.48 2.44L307.087 1.52085C306.077 1.95365 305.186 2.5526 304.421 3.31689L305.129 4.024ZM307.48 2.44L307.89 3.35251C308.688 2.99459 309.525 2.816 310.409 2.816V1.816V0.815998C309.245 0.815998 308.129 1.0534 307.071 1.52749L307.48 2.44ZM310.409 1.816V2.816C311.329 2.816 312.181 2.99641 312.975 3.35251L313.384 2.44L313.794 1.52749C312.732 1.05159 311.6 0.815998 310.409 0.815998V1.816ZM313.384 2.44L313.002 3.36402C313.816 3.70065 314.504 4.15726 315.077 4.7311L315.785 4.024L316.492 3.31689C315.721 2.54674 314.809 1.94734 313.767 1.51598L313.384 2.44ZM315.785 4.024L315.094 4.74735C315.7 5.32595 316.187 6.01781 316.552 6.83305L317.465 6.424L318.377 6.01494C317.91 4.97419 317.277 4.06605 316.475 3.30064L315.785 4.024ZM317.465 6.424L316.552 6.83305C316.908 7.62743 317.089 8.47945 317.089 9.4H318.089H319.089C319.089 8.20854 318.853 7.07656 318.377 6.01494L317.465 6.424ZM360.272 42.712V43.712H361.272V42.712H360.272ZM359.599 38.392L358.642 38.6814L358.646 38.6949L358.651 38.7082L359.599 38.392ZM354.367 32.392L353.947 33.2993L353.96 33.3054L353.974 33.3111L354.367 32.392ZM341.647 34.408L340.946 33.6951L340.94 33.7009L341.647 34.408ZM337.904 42.712L336.915 42.5619L336.74 43.712H337.904V42.712ZM337.664 49.864V48.864H336.585L336.666 49.9397L337.664 49.864ZM339.008 56.44L338.072 56.7947L338.075 56.8001L339.008 56.44ZM341.792 61L341.065 61.6878L341.075 61.6974L341.792 61ZM345.871 63.688L345.51 64.6204L345.521 64.6248L345.533 64.6289L345.871 63.688ZM356.095 63.88L355.792 62.9271L355.786 62.9291L356.095 63.88ZM359.743 62.392L359.286 61.503L359.274 61.5089L359.743 62.392ZM362.479 60.904L361.991 60.0315L361.983 60.0358L361.976 60.0402L362.479 60.904ZM366.992 61.336L366.154 61.8823L366.178 61.92L366.206 61.9554L366.992 61.336ZM370.4 65.656L371.16 66.3055L371.693 65.6812L371.185 65.0366L370.4 65.656ZM365.983 69.544L366.515 70.3911L366.527 70.3836L365.983 69.544ZM360.848 72.04L361.174 72.9852L361.184 72.9817L360.848 72.04ZM355.423 73.336L355.287 72.3454L355.285 72.3457L355.423 73.336ZM340.543 72.04L340.179 72.9713L340.188 72.9746L340.543 72.04ZM332.863 67L332.146 67.6968L332.151 67.7019L332.863 67ZM327.728 58.744L326.792 59.0981L326.793 59.1011L327.728 58.744ZM327.487 37.864L328.426 38.2107L328.427 38.2074L327.487 37.864ZM332.143 30.136L331.41 29.456L331.41 29.4564L332.143 30.136ZM339.583 24.904L339.185 23.9869L339.181 23.9885L339.583 24.904ZM364.88 28.84L364.166 29.5412L364.172 29.5471L364.88 28.84ZM369.296 35.848L368.36 36.2027L368.366 36.2157L369.296 35.848ZM370.352 48.952L371.197 49.486L371.203 49.4763L371.209 49.4665L370.352 48.952ZM360.272 42.712H361.272C361.272 41.0776 361.033 39.53 360.548 38.0758L359.599 38.392L358.651 38.7082C359.062 39.942 359.272 41.2744 359.272 42.712H360.272ZM359.599 38.392L360.557 38.1026C360.104 36.6058 359.402 35.2827 358.444 34.1471L357.68 34.792L356.915 35.4369C357.685 36.3493 358.263 37.4262 358.642 38.6814L359.599 38.392ZM357.68 34.792L358.444 34.1471C357.47 32.9935 356.235 32.1045 354.761 31.4729L354.367 32.392L353.974 33.3111C355.188 33.8315 356.161 34.5425 356.915 35.4369L357.68 34.792ZM354.367 32.392L354.788 31.4847C353.319 30.8038 351.634 30.48 349.759 30.48V31.48V32.48C351.405 32.48 352.792 32.7642 353.947 33.2993L354.367 32.392ZM349.759 31.48V30.48C346.137 30.48 343.158 31.5187 340.946 33.6952L341.647 34.408L342.349 35.1208C344.105 33.3933 346.534 32.48 349.759 32.48V31.48ZM341.647 34.408L340.94 33.7009C338.796 35.8449 337.481 38.8328 336.915 42.5619L337.904 42.712L338.892 42.8621C339.414 39.4232 340.595 36.8751 342.355 35.1151L341.647 34.408ZM337.904 42.712V43.712H360.272V42.712V41.712H337.904V42.712ZM337.664 49.864L336.666 49.9397C336.864 52.5382 337.327 54.8283 338.073 56.7947L339.008 56.44L339.943 56.0853C339.28 54.3396 338.847 52.2458 338.661 49.7883L337.664 49.864ZM339.008 56.44L338.075 56.8001C338.818 58.7257 339.81 60.3626 341.066 61.6877L341.792 61L342.517 60.3123C341.469 59.2054 340.605 57.8023 339.94 56.0799L339.008 56.44ZM341.792 61L341.075 61.6974C342.329 62.9862 343.811 63.9614 345.51 64.6204L345.871 63.688L346.233 62.7556C344.796 62.1986 343.558 61.3818 342.508 60.3026L341.792 61ZM345.871 63.688L345.533 64.6289C347.254 65.2487 349.131 65.552 351.151 65.552V64.552V63.552C349.332 63.552 347.689 63.2793 346.21 62.7471L345.871 63.688ZM351.151 64.552V65.552C353.144 65.552 354.903 65.3201 356.405 64.8309L356.095 63.88L355.786 62.9291C354.536 63.3359 352.999 63.552 351.151 63.552V64.552ZM356.095 63.88L356.399 64.8329C357.849 64.3714 359.123 63.8538 360.213 63.2751L359.743 62.392L359.274 61.5089C358.316 62.0182 357.158 62.4926 355.792 62.9271L356.095 63.88ZM359.743 62.392L360.201 63.281C361.268 62.7314 362.196 62.2269 362.983 61.7678L362.479 60.904L361.976 60.0402C361.227 60.4771 360.331 60.9646 359.286 61.503L359.743 62.392ZM362.479 60.904L362.968 61.7765C363.655 61.3918 364.256 61.232 364.784 61.232V60.232V59.232C363.839 59.232 362.904 59.5202 361.991 60.0315L362.479 60.904ZM364.784 60.232V61.232C365.489 61.232 365.885 61.4697 366.154 61.8823L366.992 61.336L367.829 60.7897C367.138 59.7303 366.062 59.232 364.784 59.232V60.232ZM366.992 61.336L366.206 61.9554L369.614 66.2754L370.4 65.656L371.185 65.0366L367.777 60.7166L366.992 61.336ZM370.4 65.656L369.639 65.0065C368.387 66.4719 366.988 67.703 365.44 68.7044L365.983 69.544L366.527 70.3836C368.243 69.273 369.788 67.9121 371.16 66.3055L370.4 65.656ZM365.983 69.544L365.452 68.6969C363.881 69.6829 362.234 70.483 360.511 71.0983L360.848 72.04L361.184 72.9817C363.045 72.317 364.822 71.4531 366.515 70.3911L365.983 69.544ZM360.848 72.04L360.521 71.0948C358.823 71.6814 357.079 72.0982 355.287 72.3454L355.423 73.336L355.56 74.3266C357.48 74.0618 359.352 73.6146 361.174 72.9852L360.848 72.04ZM355.423 73.336L355.285 72.3457C353.504 72.5957 351.774 72.72 350.095 72.72V73.72V74.72C351.873 74.72 353.695 74.5883 355.562 74.3263L355.423 73.336ZM350.095 73.72V72.72C346.782 72.72 343.72 72.1785 340.899 71.1054L340.543 72.04L340.188 72.9746C343.255 74.1415 346.561 74.72 350.095 74.72V73.72ZM340.543 72.04L340.908 71.1088C338.092 70.0069 335.651 68.404 333.576 66.2981L332.863 67L332.151 67.7019C334.428 70.012 337.107 71.7691 340.179 72.9712L340.543 72.04ZM332.863 67L333.581 66.3032C331.51 64.1715 329.867 61.5392 328.662 58.3869L327.728 58.744L326.793 59.1011C328.084 62.4768 329.865 65.3485 332.146 67.6968L332.863 67ZM327.728 58.744L328.663 58.3899C327.466 55.2294 326.855 51.5454 326.855 47.32H325.855H324.855C324.855 51.7346 325.493 55.6666 326.792 59.0981L327.728 58.744ZM325.855 47.32H326.855C326.855 44.0699 327.381 41.0361 328.426 38.2106L327.487 37.864L326.549 37.5173C325.418 40.5799 324.855 43.8501 324.855 47.32H325.855ZM327.487 37.864L328.427 38.2074C329.472 35.3474 330.957 32.8878 332.877 30.8156L332.143 30.136L331.41 29.4564C329.298 31.7362 327.679 34.4286 326.548 37.5206L327.487 37.864ZM332.143 30.136L332.877 30.816C334.827 28.7139 337.192 27.0476 339.986 25.8195L339.583 24.904L339.181 23.9885C336.151 25.3204 333.557 27.1421 331.41 29.456L332.143 30.136ZM339.583 24.904L339.982 25.8211C342.783 24.6032 345.957 23.984 349.52 23.984V22.984V21.984C345.722 21.984 342.272 22.6448 339.185 23.9869L339.583 24.904ZM349.52 22.984V23.984C352.516 23.984 355.258 24.4624 357.758 25.4074L358.112 24.472L358.465 23.5366C355.717 22.4976 352.731 21.984 349.52 21.984V22.984ZM358.112 24.472L357.758 25.4074C360.252 26.3504 362.384 27.7286 364.166 29.5411L364.88 28.84L365.593 28.1389C363.599 26.1114 361.219 24.5776 358.465 23.5366L358.112 24.472ZM364.88 28.84L364.172 29.5471C365.949 31.3241 367.349 33.5356 368.361 36.2027L369.296 35.848L370.23 35.4933C369.13 32.5924 367.586 30.1319 365.587 28.1329L364.88 28.84ZM369.296 35.848L368.366 36.2157C369.399 38.8297 369.927 41.8533 369.927 45.304H370.927H371.927C371.927 41.6507 371.368 38.3703 370.225 35.4803L369.296 35.848ZM370.927 45.304H369.927C369.927 46.169 369.881 46.8651 369.796 47.404C369.708 47.9569 369.591 48.2762 369.494 48.4375L370.352 48.952L371.209 49.4665C371.496 48.9878 371.667 48.3791 371.771 47.716C371.878 47.0389 371.927 46.2309 371.927 45.304H370.927ZM370.352 48.952L369.506 48.418C369.387 48.6066 369.076 48.864 368.143 48.864V49.864V50.864C369.387 50.864 370.548 50.5134 371.197 49.486L370.352 48.952ZM368.143 49.864V48.864H337.664V49.864V50.864H368.143V49.864ZM409.873 33.352L409.026 32.8194L409.025 32.822L409.873 33.352ZM408.865 34.456L409.344 35.3339L409.373 35.3178L409.402 35.2997L408.865 34.456ZM405.649 34.264L405.202 35.1584L405.21 35.1627L405.219 35.1669L405.649 34.264ZM403.393 33.208L402.959 34.109L402.973 34.1156L402.987 34.1218L403.393 33.208ZM400.417 32.104L400.135 33.0634L400.142 33.0655L400.417 32.104ZM391.009 33.112L390.415 32.3074L390.406 32.3143L391.009 33.112ZM390.049 39.688L389.31 40.3623L389.326 40.379L389.342 40.3951L390.049 39.688ZM392.785 41.56L392.348 42.4596L392.358 42.4642L392.785 41.56ZM396.673 43.048L396.376 44.0029L396.385 44.0059L396.395 44.0087L396.673 43.048ZM401.041 44.44L400.712 45.3845L400.718 45.3867L401.041 44.44ZM405.457 46.216L405.034 47.1222L405.042 47.1261L405.051 47.1298L405.457 46.216ZM409.297 48.712L408.622 49.45L408.633 49.4601L408.644 49.4698L409.297 48.712ZM412.033 52.312L411.13 52.7427L411.134 52.751L411.138 52.7592L412.033 52.312ZM411.793 63.976L410.874 63.5821L410.871 63.5893L411.793 63.976ZM408.049 69.16L408.703 69.9162L408.711 69.909L408.049 69.16ZM401.857 72.568L402.169 73.518L402.177 73.5154L401.857 72.568ZM388.417 73.288L388.609 72.3067L388.602 72.3052L388.594 72.3038L388.417 73.288ZM383.761 72.04L383.414 72.978L383.421 72.9804L383.761 72.04ZM379.633 70.12L379.125 70.9814L379.134 70.9869L379.633 70.12ZM376.321 67.72L375.466 67.2015L375.036 67.9094L375.652 68.4633L376.321 67.72ZM379.057 63.208L378.217 62.6647L378.209 62.677L378.202 62.6895L379.057 63.208ZM380.305 61.96L380.819 62.8175L380.305 61.96ZM384.193 62.152L383.648 62.9904L383.657 62.9965L383.666 63.0023L384.193 62.152ZM386.497 63.496L386.011 64.3702L386.497 63.496ZM389.521 64.84L389.181 65.7806L389.189 65.7835L389.521 64.84ZM397.585 64.984L397.892 65.9357L397.901 65.9328L397.91 65.9297L397.585 64.984ZM400.081 63.64L399.452 62.8628L399.442 62.8703L399.433 62.8781L400.081 63.64ZM401.521 61.768L400.604 61.3693L400.599 61.3793L400.595 61.3894L401.521 61.768ZM400.945 56.68L400.206 57.3543L400.214 57.3628L400.222 57.3712L400.945 56.68ZM398.209 54.76L397.772 55.6596L397.782 55.6642L398.209 54.76ZM394.321 53.32L394.024 54.2749L394.036 54.2787L394.049 54.2823L394.321 53.32ZM389.857 51.88L389.534 52.8267L389.541 52.8287L389.857 51.88ZM385.393 50.104L384.954 51.0024L384.965 51.0082L384.977 51.0137L385.393 50.104ZM381.505 47.464L380.819 48.1917L380.829 48.2012L381.505 47.464ZM378.769 43.576L377.853 43.9768L377.856 43.9848L377.86 43.9927L378.769 43.576ZM378.961 32.248L378.045 31.8463L378.961 32.248ZM382.465 27.496L383.123 28.2486L383.124 28.2476L382.465 27.496ZM388.273 24.232L388.601 25.1767L388.608 25.174L388.273 24.232ZM405.601 24.664L405.974 23.7363L405.601 24.664ZM412.561 29.08L413.407 29.6126L413.836 28.9311L413.262 28.3668L412.561 29.08ZM409.873 33.352L409.025 32.822C408.751 33.2599 408.511 33.496 408.328 33.6123L408.865 34.456L409.402 35.2997C409.923 34.968 410.354 34.4681 410.721 33.882L409.873 33.352ZM408.865 34.456L408.386 33.5781C408.224 33.6665 407.955 33.744 407.521 33.744V34.744V35.744C408.175 35.744 408.802 35.6295 409.344 35.3339L408.865 34.456ZM407.521 34.744V33.744C407.13 33.744 406.654 33.6352 406.079 33.3611L405.649 34.264L405.219 35.1669C405.987 35.5328 406.759 35.744 407.521 35.744V34.744ZM405.649 34.264L406.096 33.3696C405.439 33.0411 404.673 32.6825 403.799 32.2942L403.393 33.208L402.987 34.1218C403.841 34.5015 404.579 34.8469 405.202 35.1584L405.649 34.264ZM403.393 33.208L403.827 32.307C402.902 31.8618 401.855 31.4749 400.691 31.1425L400.417 32.104L400.142 33.0655C401.219 33.3731 402.156 33.7222 402.959 34.109L403.393 33.208ZM400.417 32.104L400.699 31.1446C399.495 30.7905 398.099 30.624 396.529 30.624V31.624V32.624C397.966 32.624 399.162 32.7775 400.135 33.0634L400.417 32.104ZM396.529 31.624V30.624C394.062 30.624 391.987 31.1468 390.415 32.3074L391.009 33.112L391.603 33.9166C392.718 33.0932 394.324 32.624 396.529 32.624V31.624ZM391.009 33.112L390.406 32.3143C388.852 33.4891 388.041 35.0764 388.041 37H389.041H390.041C390.041 35.7235 390.542 34.7189 391.612 33.9097L391.009 33.112ZM389.041 37H388.041C388.041 38.2892 388.459 39.4303 389.31 40.3623L390.049 39.688L390.787 39.0137C390.294 38.4737 390.041 37.8228 390.041 37H389.041ZM390.049 39.688L389.342 40.3951C390.141 41.1947 391.152 41.8785 392.348 42.4595L392.785 41.56L393.222 40.6605C392.178 40.1535 391.364 39.5893 390.756 38.9809L390.049 39.688ZM392.785 41.56L392.358 42.4642C393.559 43.0313 394.899 43.5435 396.376 44.0029L396.673 43.048L396.97 42.0931C395.566 41.6565 394.315 41.1767 393.212 40.6558L392.785 41.56ZM396.673 43.048L396.395 44.0087C397.817 44.4196 399.256 44.8781 400.712 45.3845L401.041 44.44L401.369 43.4955C399.881 42.9779 398.408 42.5084 396.95 42.0873L396.673 43.048ZM401.041 44.44L400.718 45.3867C402.188 45.887 403.627 46.4655 405.034 47.1222L405.457 46.216L405.88 45.3098C404.407 44.6225 402.901 44.017 401.363 43.4933L401.041 44.44ZM405.457 46.216L405.051 47.1298C406.396 47.7278 407.585 48.5015 408.622 49.45L409.297 48.712L409.972 47.974C408.769 46.8745 407.397 45.9842 405.863 45.3022L405.457 46.216ZM409.297 48.712L408.644 49.4698C409.688 50.3689 410.516 51.4565 411.13 52.7427L412.033 52.312L412.935 51.8813C412.205 50.3515 411.209 49.0391 409.949 47.9542L409.297 48.712ZM412.033 52.312L411.138 52.7592C411.757 53.997 412.089 55.5319 412.089 57.4H413.089H414.089C414.089 55.3001 413.716 53.443 412.927 51.8648L412.033 52.312ZM413.089 57.4H412.089C412.089 59.6435 411.68 61.7002 410.874 63.5821L411.793 63.976L412.712 64.3699C413.633 62.2198 414.089 59.8925 414.089 57.4H413.089ZM411.793 63.976L410.871 63.5893C410.099 65.4299 408.941 67.0353 407.386 68.411L408.049 69.16L408.711 69.909C410.484 68.3407 411.823 66.4901 412.715 64.3627L411.793 63.976ZM408.049 69.16L407.394 68.4038C405.845 69.7451 403.9 70.8226 401.537 71.6206L401.857 72.568L402.177 73.5154C404.742 72.6494 406.925 71.4549 408.703 69.9162L408.049 69.16ZM401.857 72.568L401.544 71.6181C399.235 72.3778 396.528 72.768 393.409 72.768V73.768V74.768C396.69 74.768 399.615 74.3582 402.169 73.5179L401.857 72.568ZM393.409 73.768V72.768C391.776 72.768 390.177 72.614 388.609 72.3067L388.417 73.288L388.224 74.2693C389.921 74.602 391.649 74.768 393.409 74.768V73.768ZM388.417 73.288L388.594 72.3038C387.048 72.0256 385.551 71.6241 384.101 71.0996L383.761 72.04L383.421 72.9804C384.978 73.5439 386.585 73.9744 388.24 74.2722L388.417 73.288ZM383.761 72.04L384.107 71.102C382.685 70.5762 381.36 69.9595 380.131 69.2531L379.633 70.12L379.134 70.9869C380.466 71.7525 381.893 72.4158 383.414 72.978L383.761 72.04ZM379.633 70.12L380.141 69.2586C378.943 68.5525 377.895 67.7911 376.99 66.9767L376.321 67.72L375.652 68.4633C376.667 69.3769 377.826 70.2155 379.125 70.9814L379.633 70.12ZM376.321 67.72L377.176 68.2385L379.912 63.7265L379.057 63.208L378.202 62.6895L375.466 67.2015L376.321 67.72ZM379.057 63.208L379.896 63.7513C380.178 63.3153 380.489 63.0154 380.819 62.8175L380.305 61.96L379.79 61.1025C379.16 61.4806 378.639 62.0127 378.217 62.6647L379.057 63.208ZM380.305 61.96L380.819 62.8175C381.102 62.6477 381.518 62.528 382.129 62.528V61.528V60.528C381.267 60.528 380.467 60.6963 379.79 61.1025L380.305 61.96ZM382.129 61.528V62.528C382.664 62.528 383.164 62.6758 383.648 62.9904L384.193 62.152L384.738 61.3136C383.942 60.7962 383.066 60.528 382.129 60.528V61.528ZM384.193 62.152L383.666 63.0023C384.355 63.4283 385.137 63.8843 386.011 64.3702L386.497 63.496L386.982 62.6218C386.129 62.1477 385.375 61.7077 384.719 61.3017L384.193 62.152ZM386.497 63.496L386.011 64.3702C386.931 64.8814 387.99 65.3505 389.181 65.7806L389.521 64.84L389.86 63.8994C388.747 63.4975 387.79 63.0705 386.982 62.6218L386.497 63.496ZM389.521 64.84L389.189 65.7835C390.515 66.2492 392.124 66.464 393.985 66.464V65.464V64.464C392.261 64.464 390.895 64.2628 389.852 63.8965L389.521 64.84ZM393.985 65.464V66.464C395.463 66.464 396.773 66.2967 397.892 65.9357L397.585 64.984L397.278 64.0323C396.413 64.3113 395.323 64.464 393.985 64.464V65.464ZM397.585 64.984L397.91 65.9297C399.019 65.5483 399.97 65.0464 400.728 64.4019L400.081 63.64L399.433 62.8781C398.911 63.3216 398.198 63.7157 397.26 64.0383L397.585 64.984ZM400.081 63.64L400.71 64.4172C401.495 63.7821 402.086 63.0265 402.446 62.1466L401.521 61.768L400.595 61.3894C400.379 61.9175 400.011 62.4099 399.452 62.8628L400.081 63.64ZM401.521 61.768L402.438 62.1667C402.81 61.3107 403.001 60.4234 403.001 59.512H402.001H401.001C401.001 60.1366 400.871 60.7533 400.604 61.3693L401.521 61.768ZM402.001 59.512H403.001C403.001 58.139 402.573 56.9357 401.667 55.9888L400.945 56.68L400.222 57.3712C400.724 57.8963 401.001 58.581 401.001 59.512H402.001ZM400.945 56.68L401.683 56.0057C400.903 55.1508 399.874 54.4406 398.636 53.8558L398.209 54.76L397.782 55.6642C398.847 56.1674 399.643 56.7372 400.206 57.3543L400.945 56.68ZM398.209 54.76L398.646 53.8605C397.462 53.2857 396.109 52.7862 394.593 52.3577L394.321 53.32L394.049 54.2823C395.476 54.6858 396.715 55.1463 397.772 55.6595L398.209 54.76ZM394.321 53.32L394.618 52.3651C393.185 51.9193 391.703 51.4413 390.173 50.9313L389.857 51.88L389.541 52.8287C391.082 53.3427 392.577 53.8247 394.024 54.2749L394.321 53.32ZM389.857 51.88L390.179 50.9333C388.707 50.4323 387.25 49.8527 385.808 49.1943L385.393 50.104L384.977 51.0137C386.479 51.6993 387.998 52.3037 389.534 52.8266L389.857 51.88ZM385.393 50.104L385.832 49.2056C384.476 48.5426 383.26 47.7164 382.18 46.7268L381.505 47.464L380.829 48.2012C382.054 49.3236 383.43 50.2574 384.954 51.0024L385.393 50.104ZM381.505 47.464L382.191 46.7364C381.173 45.777 380.333 44.5898 379.678 43.1593L378.769 43.576L377.86 43.9927C378.612 45.6342 379.596 47.039 380.819 48.1916L381.505 47.464ZM378.769 43.576L379.685 43.1752C379.082 41.7972 378.761 40.0854 378.761 38.008H377.761H376.761C376.761 40.2826 377.111 42.2828 377.853 43.9768L378.769 43.576ZM377.761 38.008H378.761C378.761 36.1285 379.133 34.3455 379.877 32.6497L378.961 32.248L378.045 31.8463C377.189 33.7985 376.761 35.8555 376.761 38.008H377.761ZM378.961 32.248L379.877 32.6497C380.616 30.9635 381.695 29.4984 383.123 28.2486L382.465 27.496L381.806 26.7434C380.163 28.1816 378.905 29.8845 378.045 31.8463L378.961 32.248ZM382.465 27.496L383.124 28.2476C384.58 26.9699 386.398 25.9414 388.601 25.1767L388.273 24.232L387.945 23.2873C385.539 24.1226 383.485 25.2701 381.805 26.7444L382.465 27.496ZM388.273 24.232L388.608 25.174C390.815 24.3879 393.386 23.984 396.337 23.984V22.984V21.984C393.207 21.984 390.402 22.412 387.937 23.29L388.273 24.232ZM396.337 22.984V23.984C399.617 23.984 402.577 24.5253 405.228 25.5917L405.601 24.664L405.974 23.7363C403.057 22.5627 399.84 21.984 396.337 21.984V22.984ZM405.601 24.664L405.228 25.5917C407.908 26.67 410.111 28.0747 411.86 29.7932L412.561 29.08L413.262 28.3668C411.298 26.4373 408.862 24.898 405.974 23.7363L405.601 24.664ZM412.561 29.08L411.714 28.5474L409.026 32.8194L409.873 33.352L410.719 33.8846L413.407 29.6126L412.561 29.08Z" fill="white" mask="url(#path-1-outside-1_50_231)"/>
</svg>
