<svg width="80" height="78" viewBox="0 0 80 78" fill="none" xmlns="http://www.w3.org/2000/svg">
<path d="M36.3125 3.45833C36.3125 4.37554 36.6769 5.25518 37.3254 5.90374C37.974 6.55231 38.8536 6.91667 39.7708 6.91667C40.688 6.91667 41.5677 6.55231 42.2162 5.90374C42.8648 5.25518 43.2292 4.37554 43.2292 3.45833C43.2292 2.54113 42.8648 1.66149 42.2162 1.01292C41.5677 0.364359 40.688 0 39.7708 0C38.8536 0 37.974 0.364359 37.3254 1.01292C36.6769 1.66149 36.3125 2.54113 36.3125 3.45833ZM39.7362 8.64583C38.0422 8.63255 36.4023 9.24142 35.1274 10.357C33.8525 11.4725 33.0313 13.0171 32.8196 14.6979C32.7997 14.8189 32.8048 14.9427 32.8346 15.0616C32.8643 15.1806 32.918 15.2922 32.9925 15.3896C33.0729 15.4861 33.1733 15.5639 33.2867 15.6176C33.4002 15.6714 33.524 15.6998 33.6496 15.7008H45.65C45.7756 15.6998 45.8994 15.6714 46.0128 15.6176C46.1263 15.5639 46.2267 15.4861 46.3071 15.3896C46.4108 15.3057 46.4953 15.2005 46.555 15.0812C46.6146 14.9619 46.648 14.8312 46.6529 14.6979C46.4412 13.0171 45.62 11.4725 44.3451 10.357C43.0702 9.24142 41.4303 8.63255 39.7362 8.64583ZM69.1667 38.0417C69.1667 38.9589 69.531 39.8385 70.1796 40.4871C70.8281 41.1356 71.7078 41.5 72.625 41.5C73.5422 41.5 74.4218 41.1356 75.0704 40.4871C75.719 39.8385 76.0833 38.9589 76.0833 38.0417C76.0833 37.1245 75.719 36.2448 75.0704 35.5963C74.4218 34.9477 73.5422 34.5833 72.625 34.5833C71.7078 34.5833 70.8281 34.9477 70.1796 35.5963C69.531 36.2448 69.1667 37.1245 69.1667 38.0417ZM65.7775 49.2812C65.7318 49.3908 65.7083 49.5084 65.7083 49.6271C65.7083 49.7458 65.7318 49.8633 65.7775 49.9729C65.8578 50.0694 65.9583 50.1472 66.0717 50.201C66.1852 50.2547 66.309 50.2831 66.4346 50.2842H78.435C78.5606 50.2831 78.6844 50.2547 78.7978 50.201C78.9113 50.1472 79.0117 50.0694 79.0921 49.9729C79.1709 49.8772 79.2298 49.7667 79.2654 49.648C79.301 49.5292 79.3126 49.4045 79.2996 49.2812C79.2996 47.4468 78.5709 45.6876 77.2737 44.3904C75.9766 43.0933 74.2173 42.3646 72.3829 42.3646C70.5485 42.3646 68.7892 43.0933 67.4921 44.3904C66.195 45.6876 65.4662 47.4468 65.4662 49.2812H65.7775ZM36.3125 65.7083C36.3125 66.6255 36.6769 67.5052 37.3254 68.1537C37.974 68.8023 38.8536 69.1667 39.7708 69.1667C40.688 69.1667 41.5677 68.8023 42.2162 68.1537C42.8648 67.5052 43.2292 66.6255 43.2292 65.7083C43.2292 64.7911 42.8648 63.9115 42.2162 63.2629C41.5677 62.6144 40.688 62.25 39.7708 62.25C38.8536 62.25 37.974 62.6144 37.3254 63.2629C36.6769 63.9115 36.3125 64.7911 36.3125 65.7083ZM39.7362 70.8958C38.0422 70.8825 36.4023 71.4914 35.1274 72.607C33.8525 73.7225 33.0313 75.2671 32.8196 76.9479C32.7997 77.0689 32.8048 77.1927 32.8346 77.3116C32.8643 77.4306 32.918 77.5422 32.9925 77.6396C33.0729 77.7361 33.1733 77.8139 33.2867 77.8676C33.4002 77.9214 33.524 77.9498 33.6496 77.9508H45.65C45.7756 77.9498 45.8994 77.9214 46.0128 77.8676C46.1263 77.8139 46.2267 77.7361 46.3071 77.6396C46.4108 77.5557 46.4953 77.4505 46.555 77.3312C46.6146 77.2119 46.648 77.0812 46.6529 76.9479C46.4412 75.2671 45.62 73.7225 44.3451 72.607C43.0702 71.4914 41.4303 70.8825 39.7362 70.8958ZM3.45833 38.0417C3.45833 38.9589 3.82269 39.8385 4.47126 40.4871C5.11982 41.1356 5.99946 41.5 6.91667 41.5C7.83387 41.5 8.71351 41.1356 9.36208 40.4871C10.0106 39.8385 10.375 38.9589 10.375 38.0417C10.375 37.1245 10.0106 36.2448 9.36208 35.5963C8.71351 34.9477 7.83387 34.5833 6.91667 34.5833C5.99946 34.5833 5.11982 34.9477 4.47126 35.5963C3.82269 36.2448 3.45833 37.1245 3.45833 38.0417ZM6.91667 43.2292C5.23456 43.2328 3.61142 43.8493 2.35104 44.9633C1.09066 46.0772 0.279426 47.6123 0.0691666 49.2812C0.0235076 49.3908 0 49.5084 0 49.6271C0 49.7458 0.0235076 49.8633 0.0691666 49.9729C0.149521 50.0694 0.249926 50.1472 0.3634 50.201C0.476874 50.2547 0.600694 50.2831 0.72625 50.2842H12.8996C13.0251 50.2831 13.149 50.2547 13.2624 50.201C13.3759 50.1472 13.4763 50.0694 13.5567 49.9729C13.6354 49.8772 13.6944 49.7667 13.73 49.648C13.7656 49.5292 13.7772 49.4045 13.7642 49.2812C13.5539 47.6123 12.7427 46.0772 11.4823 44.9633C10.2219 43.8493 8.59877 43.2328 6.91667 43.2292ZM54.7454 25.0729C54.8783 25.3848 55.0999 25.6508 55.3828 25.8378C55.6656 26.0247 55.9972 26.1244 56.3362 26.1244C56.6753 26.1244 57.0069 26.0247 57.2897 25.8378C57.5726 25.6508 57.7942 25.3848 57.9271 25.0729L58.3075 24.3121C58.3597 24.1773 58.4493 24.0602 58.5656 23.9744C58.682 23.8887 58.8204 23.8379 58.9646 23.8279C59.1015 23.7976 59.244 23.8041 59.3776 23.8466C59.5112 23.8891 59.6312 23.9662 59.7254 24.07C61.3374 25.6849 62.7536 27.4841 63.9446 29.4304C64.242 29.9595 64.6733 30.4011 65.1954 30.7107C65.7175 31.0203 66.3118 31.187 66.9187 31.1942C67.5277 31.1878 68.1242 31.0208 68.6479 30.71C69.4389 30.2538 70.0174 29.5032 70.2571 28.6221C70.4969 27.7409 70.3784 26.8008 69.9275 26.0067C67.9403 22.6454 65.4036 19.6411 62.4229 17.1187C62.2783 16.9932 62.1795 16.8232 62.1419 16.6354C62.1044 16.4477 62.1302 16.2527 62.2154 16.0812L63.8754 12.6229C64.0182 12.3131 64.068 11.9685 64.0189 11.6309C63.9698 11.2933 63.8239 10.9772 63.5987 10.7208C63.3668 10.4697 63.0656 10.2929 62.7332 10.2129C62.4008 10.1329 62.0521 10.1532 61.7313 10.2712L52.5321 13.7296C52.1004 13.8863 51.7469 14.2053 51.5467 14.6186C51.3464 15.0319 51.3154 15.507 51.46 15.9429L54.7454 25.0729ZM10.2712 29.2575C10.3048 29.7116 10.516 30.1341 10.8592 30.4333C11.1895 30.7339 11.6232 30.895 12.0696 30.8829L21.8567 30.2604C22.1996 30.2417 22.5287 30.1192 22.8004 29.9093C23.0722 29.6993 23.2737 29.4117 23.3783 29.0846C23.4944 28.7662 23.5102 28.4199 23.4236 28.0922C23.3371 27.7645 23.1523 27.4712 22.8942 27.2517L20.2658 25.0729C20.172 24.9979 20.0955 24.9033 20.0418 24.7959C19.9881 24.6884 19.9583 24.5705 19.9546 24.4504C19.9561 24.3333 19.9815 24.2178 20.029 24.1108C20.0766 24.0038 20.1454 23.9075 20.2313 23.8279C22.3373 21.6555 24.7775 19.8341 27.4592 18.4329C27.88 18.2396 28.2578 17.9637 28.57 17.6217C28.8822 17.2796 29.1225 16.8783 29.2767 16.4416C29.4309 16.0049 29.4958 15.5417 29.4676 15.0794C29.4393 14.6171 29.3185 14.1653 29.1123 13.7506C28.9061 13.3359 28.6188 12.9668 28.2672 12.6653C27.9157 12.3638 27.5072 12.1359 27.0659 11.9953C26.6247 11.8546 26.1597 11.804 25.6985 11.8465C25.2373 11.889 24.7894 12.0236 24.3813 12.2425C20.8676 14.0006 17.6757 16.339 14.94 19.1592C14.7801 19.3074 14.5701 19.3898 14.3521 19.3898C14.134 19.3898 13.924 19.3074 13.7642 19.1592L12.5192 18.1562C12.2614 17.9327 11.9432 17.7905 11.6048 17.7474C11.2663 17.7043 10.9226 17.7624 10.6171 17.9142C10.3124 18.0676 10.0588 18.3061 9.88697 18.6007C9.71511 18.8953 9.63236 19.2335 9.64875 19.5742L10.2712 29.2575ZM24.8654 61.0742C24.8057 60.7198 24.6371 60.3928 24.383 60.1387C24.1289 59.8846 23.8019 59.7159 23.4475 59.6562C23.1055 59.6069 22.7566 59.6632 22.4475 59.8178C22.1385 59.9723 21.884 60.2176 21.7183 60.5208L20.9229 61.835C20.8569 61.9464 20.7666 62.0415 20.6589 62.1133C20.5511 62.1852 20.4286 62.2319 20.3004 62.25C20.169 62.2656 20.0358 62.252 19.9102 62.2101C19.7847 62.1683 19.6699 62.0992 19.5742 62.0079C17.7347 60.036 16.1859 57.8118 14.9746 55.4025C14.5661 54.5819 13.8485 53.9571 12.9796 53.6653C12.1106 53.3734 11.1614 53.4385 10.3404 53.8462C9.51983 54.2547 8.89498 54.9723 8.60317 55.8412C8.31136 56.7102 8.37646 57.6594 8.78417 58.4804C10.6541 62.2333 13.1845 65.6188 16.2542 68.475C16.3748 68.6276 16.4404 68.8165 16.4404 69.011C16.4404 69.2056 16.3748 69.3944 16.2542 69.5471L14.5596 72.4521C14.3736 72.7344 14.2746 73.0651 14.2746 73.4031C14.2746 73.7412 14.3736 74.0718 14.5596 74.3542C14.767 74.6219 15.0459 74.8257 15.364 74.9419C15.6822 75.0582 16.0267 75.0822 16.3579 75.0113L25.8337 72.5212C26.0542 72.4648 26.2614 72.3654 26.4434 72.2288C26.6253 72.0921 26.7785 71.9209 26.8942 71.7249C27.0099 71.5289 27.0857 71.312 27.1174 71.0867C27.149 70.8613 27.1359 70.6319 27.0787 70.4117L24.8654 61.0742ZM69.2358 57.0279C69.2023 56.8041 69.1243 56.5892 69.0065 56.396C68.8886 56.2028 68.7332 56.0351 68.5494 55.903C68.3657 55.7708 68.1573 55.6768 67.9366 55.6265C67.716 55.5762 67.4875 55.5706 67.2646 55.61L57.5812 57.0971C57.2437 57.1431 56.9278 57.2898 56.6749 57.5181C56.4219 57.7464 56.2436 58.0456 56.1633 58.3767C56.0836 58.7078 56.1034 59.0551 56.2203 59.3751C56.3372 59.695 56.5459 59.9733 56.8204 60.175L58.9646 61.7313C59.1521 61.9039 59.2743 62.136 59.3104 62.3883C59.3087 62.6353 59.2093 62.8716 59.0337 63.0454C56.9993 65.0527 54.666 66.7326 52.1171 68.0254C51.4347 68.3739 50.8873 68.9391 50.5609 69.6324C50.2346 70.3256 50.1477 71.1076 50.3139 71.8556C50.4801 72.6036 50.89 73.2753 51.4793 73.765C52.0686 74.2548 52.8038 74.535 53.5696 74.5617C54.1082 74.5692 54.6411 74.4507 55.1258 74.2158C58.7464 72.3978 62.023 69.9637 64.8092 67.0225C64.9669 66.8839 65.1698 66.8074 65.3798 66.8074C65.5898 66.8074 65.7926 66.8839 65.9504 67.0225L67.9562 68.475C68.2461 68.6925 68.5969 68.8135 68.9592 68.8208C69.2787 68.8135 69.5899 68.7177 69.8583 68.5442C70.2385 68.3962 70.5509 68.1135 70.7359 67.7499C70.9209 67.3863 70.9655 66.9673 70.8612 66.5729L69.2358 57.0279ZM24.3121 51.045C24.1883 51.4012 24.1519 51.7819 24.2061 52.1551C24.2602 52.5282 24.4033 52.8829 24.6233 53.1892C24.8395 53.4912 25.1252 53.7369 25.4562 53.9054C25.7873 54.0739 26.154 54.1604 26.5254 54.1575H52.9817C53.3531 54.1604 53.7198 54.0739 54.0508 53.9054C54.3819 53.7369 54.6675 53.4912 54.8837 53.1892C55.1037 52.8829 55.2468 52.5282 55.301 52.1551C55.3552 51.7819 55.3188 51.4012 55.195 51.045C54.0754 47.8425 51.9878 45.0674 49.2212 43.1038C46.4547 41.1403 43.1461 40.0855 39.7535 40.0855C36.361 40.0855 33.0524 41.1403 30.2858 43.1038C27.5193 45.0674 25.4317 47.8425 24.3121 51.045ZM32.7158 30.6754C32.7158 32.5465 33.4591 34.341 34.7822 35.6641C36.1053 36.9871 37.8997 37.7304 39.7708 37.7304C41.6419 37.7304 43.4364 36.9871 44.7595 35.6641C46.0825 34.341 46.8258 32.5465 46.8258 30.6754C46.8258 28.8043 46.0825 27.0098 44.7595 25.6868C43.4364 24.3637 41.6419 23.6204 39.7708 23.6204C37.8997 23.6204 36.1053 24.3637 34.7822 25.6868C33.4591 27.0098 32.7158 28.8043 32.7158 30.6754Z" fill="#FFD74B"/>
</svg>
