<svg width="427" height="73" viewBox="0 0 427 73" fill="none" xmlns="http://www.w3.org/2000/svg">
<mask id="path-1-outside-1_42_978" maskUnits="userSpaceOnUse" x="0" y="0" width="427" height="73" fill="black">
<rect fill="white" width="427" height="73"/>
<path d="M22.704 34.616C25.136 34.616 27.248 34.312 29.04 33.704C30.864 33.096 32.352 32.264 33.504 31.208C34.688 30.12 35.568 28.84 36.144 27.368C36.72 25.896 37.008 24.28 37.008 22.52C37.008 19 35.84 16.296 33.504 14.408C31.2 12.52 27.664 11.576 22.896 11.576H14.64V34.616H22.704ZM55.92 71H44.256C42.048 71 40.448 70.136 39.456 68.408L24.864 46.184C24.32 45.352 23.712 44.76 23.04 44.408C22.4 44.056 21.44 43.88 20.16 43.88H14.64V71H1.728V1.592H22.896C27.6 1.592 31.632 2.088 34.992 3.08C38.384 4.04 41.152 5.4 43.296 7.16C45.472 8.92 47.072 11.032 48.096 13.496C49.12 15.928 49.632 18.616 49.632 21.56C49.632 23.896 49.28 26.104 48.576 28.184C47.904 30.264 46.912 32.152 45.6 33.848C44.32 35.544 42.72 37.032 40.8 38.312C38.912 39.592 36.752 40.6 34.32 41.336C35.152 41.816 35.92 42.392 36.624 43.064C37.328 43.704 37.968 44.472 38.544 45.368L55.92 71ZM90.084 40.712C90.084 39.176 89.86 37.736 89.412 36.392C88.996 35.016 88.356 33.816 87.492 32.792C86.628 31.768 85.524 30.968 84.18 30.392C82.868 29.784 81.332 29.48 79.572 29.48C76.148 29.48 73.444 30.456 71.46 32.408C69.508 34.36 68.26 37.128 67.716 40.712H90.084ZM67.476 47.864C67.668 50.392 68.116 52.584 68.82 54.44C69.524 56.264 70.452 57.784 71.604 59C72.756 60.184 74.116 61.08 75.684 61.688C77.284 62.264 79.044 62.552 80.964 62.552C82.884 62.552 84.532 62.328 85.908 61.88C87.316 61.432 88.532 60.936 89.556 60.392C90.612 59.848 91.524 59.352 92.292 58.904C93.092 58.456 93.86 58.232 94.596 58.232C95.588 58.232 96.324 58.6 96.804 59.336L100.212 63.656C98.9 65.192 97.428 66.488 95.796 67.544C94.164 68.568 92.452 69.4 90.66 70.04C88.9 70.648 87.092 71.08 85.236 71.336C83.412 71.592 81.636 71.72 79.908 71.72C76.484 71.72 73.3 71.16 70.356 70.04C67.412 68.888 64.852 67.208 62.676 65C60.5 62.76 58.788 60.008 57.54 56.744C56.292 53.448 55.668 49.64 55.668 45.32C55.668 41.96 56.212 38.808 57.3 35.864C58.388 32.888 59.94 30.312 61.956 28.136C64.004 25.928 66.484 24.184 69.396 22.904C72.34 21.624 75.652 20.984 79.332 20.984C82.436 20.984 85.3 21.48 87.924 22.472C90.548 23.464 92.804 24.92 94.692 26.84C96.58 28.728 98.052 31.064 99.108 33.848C100.196 36.6 100.74 39.752 100.74 43.304C100.74 45.096 100.548 46.312 100.164 46.952C99.78 47.56 99.044 47.864 97.956 47.864H67.476ZM139.685 31.352C139.365 31.864 139.029 32.232 138.677 32.456C138.325 32.648 137.877 32.744 137.333 32.744C136.757 32.744 136.133 32.584 135.461 32.264C134.821 31.944 134.069 31.592 133.205 31.208C132.341 30.792 131.349 30.424 130.229 30.104C129.141 29.784 127.845 29.624 126.341 29.624C124.005 29.624 122.165 30.12 120.821 31.112C119.509 32.104 118.853 33.4 118.853 35C118.853 36.056 119.189 36.952 119.861 37.688C120.565 38.392 121.477 39.016 122.597 39.56C123.749 40.104 125.045 40.6 126.485 41.048C127.925 41.464 129.381 41.928 130.853 42.44C132.357 42.952 133.829 43.544 135.269 44.216C136.709 44.856 137.989 45.688 139.109 46.712C140.261 47.704 141.173 48.904 141.845 50.312C142.549 51.72 142.901 53.416 142.901 55.4C142.901 57.768 142.469 59.96 141.605 61.976C140.773 63.96 139.525 65.688 137.861 67.16C136.197 68.6 134.133 69.736 131.669 70.568C129.237 71.368 126.421 71.768 123.221 71.768C121.525 71.768 119.861 71.608 118.229 71.288C116.629 71 115.077 70.584 113.573 70.04C112.101 69.496 110.725 68.856 109.445 68.12C108.197 67.384 107.093 66.584 106.133 65.72L108.869 61.208C109.221 60.664 109.637 60.248 110.117 59.96C110.597 59.672 111.205 59.528 111.941 59.528C112.677 59.528 113.365 59.736 114.005 60.152C114.677 60.568 115.445 61.016 116.309 61.496C117.173 61.976 118.181 62.424 119.333 62.84C120.517 63.256 122.005 63.464 123.797 63.464C125.205 63.464 126.405 63.304 127.397 62.984C128.421 62.632 129.253 62.184 129.893 61.64C130.565 61.096 131.045 60.472 131.333 59.768C131.653 59.032 131.813 58.28 131.813 57.512C131.813 56.36 131.461 55.416 130.757 54.68C130.085 53.944 129.173 53.304 128.021 52.76C126.901 52.216 125.605 51.736 124.133 51.32C122.693 50.872 121.205 50.392 119.669 49.88C118.165 49.368 116.677 48.776 115.205 48.104C113.765 47.4 112.469 46.52 111.317 45.464C110.197 44.408 109.285 43.112 108.581 41.576C107.909 40.04 107.573 38.184 107.573 36.008C107.573 33.992 107.973 32.072 108.773 30.248C109.573 28.424 110.741 26.84 112.277 25.496C113.845 24.12 115.781 23.032 118.085 22.232C120.421 21.4 123.109 20.984 126.149 20.984C129.541 20.984 132.629 21.544 135.413 22.664C138.197 23.784 140.517 25.256 142.373 27.08L139.685 31.352ZM173.617 20.984C177.265 20.984 180.577 21.576 183.553 22.76C186.561 23.944 189.121 25.624 191.233 27.8C193.377 29.976 195.025 32.632 196.177 35.768C197.329 38.904 197.905 42.408 197.905 46.28C197.905 50.184 197.329 53.704 196.177 56.84C195.025 59.976 193.377 62.648 191.233 64.856C189.121 67.064 186.561 68.76 183.553 69.944C180.577 71.128 177.265 71.72 173.617 71.72C169.937 71.72 166.593 71.128 163.585 69.944C160.577 68.76 158.001 67.064 155.857 64.856C153.745 62.648 152.097 59.976 150.913 56.84C149.761 53.704 149.185 50.184 149.185 46.28C149.185 42.408 149.761 38.904 150.913 35.768C152.097 32.632 153.745 29.976 155.857 27.8C158.001 25.624 160.577 23.944 163.585 22.76C166.593 21.576 169.937 20.984 173.617 20.984ZM173.617 62.6C177.713 62.6 180.737 61.224 182.689 58.472C184.673 55.72 185.665 51.688 185.665 46.376C185.665 41.064 184.673 37.016 182.689 34.232C180.737 31.448 177.713 30.056 173.617 30.056C169.457 30.056 166.369 31.464 164.353 34.28C162.369 37.064 161.377 41.096 161.377 46.376C161.377 51.656 162.369 55.688 164.353 58.472C166.369 61.224 169.457 62.6 173.617 62.6ZM249.382 21.752V71H242.134C240.566 71 239.574 70.28 239.158 68.84L238.342 64.904C236.326 66.952 234.102 68.616 231.67 69.896C229.238 71.144 226.374 71.768 223.078 71.768C220.39 71.768 218.006 71.32 215.926 70.424C213.878 69.496 212.15 68.2 210.742 66.536C209.334 64.872 208.262 62.904 207.526 60.632C206.822 58.328 206.47 55.8 206.47 53.048V21.752H218.326V53.048C218.326 56.056 219.014 58.392 220.39 60.056C221.798 61.688 223.894 62.504 226.678 62.504C228.726 62.504 230.646 62.056 232.438 61.16C234.23 60.232 235.926 58.968 237.526 57.368V21.752H249.382ZM272.321 30.296C273.857 27.352 275.681 25.048 277.793 23.384C279.905 21.688 282.401 20.84 285.281 20.84C287.553 20.84 289.377 21.336 290.753 22.328L289.985 31.208C289.825 31.784 289.585 32.2 289.265 32.456C288.977 32.68 288.577 32.792 288.065 32.792C287.585 32.792 286.865 32.712 285.905 32.552C284.977 32.392 284.065 32.312 283.169 32.312C281.857 32.312 280.689 32.504 279.665 32.888C278.641 33.272 277.713 33.832 276.881 34.568C276.081 35.272 275.361 36.136 274.721 37.16C274.113 38.184 273.537 39.352 272.993 40.664V71H261.137V21.752H268.097C269.313 21.752 270.161 21.976 270.641 22.424C271.121 22.84 271.441 23.608 271.601 24.728L272.321 30.296ZM330.824 32.168C330.472 32.616 330.12 32.968 329.768 33.224C329.448 33.48 328.968 33.608 328.328 33.608C327.72 33.608 327.128 33.432 326.552 33.08C325.976 32.696 325.288 32.28 324.488 31.832C323.688 31.352 322.728 30.936 321.608 30.584C320.52 30.2 319.16 30.008 317.528 30.008C315.448 30.008 313.624 30.392 312.056 31.16C310.488 31.896 309.176 32.968 308.12 34.376C307.096 35.784 306.328 37.496 305.816 39.512C305.304 41.496 305.048 43.752 305.048 46.28C305.048 48.904 305.32 51.24 305.864 53.288C306.44 55.336 307.256 57.064 308.312 58.472C309.368 59.848 310.648 60.904 312.152 61.64C313.656 62.344 315.352 62.696 317.24 62.696C319.128 62.696 320.648 62.472 321.8 62.024C322.984 61.544 323.976 61.032 324.776 60.488C325.576 59.912 326.264 59.4 326.84 58.952C327.448 58.472 328.12 58.232 328.856 58.232C329.816 58.232 330.536 58.6 331.016 59.336L334.424 63.656C333.112 65.192 331.688 66.488 330.152 67.544C328.616 68.568 327.016 69.4 325.352 70.04C323.72 70.648 322.024 71.08 320.264 71.336C318.536 71.592 316.808 71.72 315.08 71.72C312.04 71.72 309.176 71.16 306.488 70.04C303.8 68.888 301.448 67.224 299.432 65.048C297.416 62.872 295.816 60.216 294.632 57.08C293.48 53.912 292.904 50.312 292.904 46.28C292.904 42.664 293.416 39.32 294.44 36.248C295.496 33.144 297.032 30.472 299.048 28.232C301.064 25.96 303.56 24.184 306.536 22.904C309.512 21.624 312.936 20.984 316.807 20.984C320.488 20.984 323.704 21.576 326.456 22.76C329.24 23.944 331.736 25.64 333.944 27.848L330.824 32.168ZM372.74 40.712C372.74 39.176 372.516 37.736 372.068 36.392C371.652 35.016 371.012 33.816 370.148 32.792C369.284 31.768 368.18 30.968 366.836 30.392C365.524 29.784 363.988 29.48 362.228 29.48C358.804 29.48 356.1 30.456 354.116 32.408C352.164 34.36 350.916 37.128 350.372 40.712H372.74ZM350.132 47.864C350.324 50.392 350.772 52.584 351.476 54.44C352.18 56.264 353.108 57.784 354.26 59C355.412 60.184 356.772 61.08 358.34 61.688C359.94 62.264 361.7 62.552 363.62 62.552C365.54 62.552 367.188 62.328 368.564 61.88C369.972 61.432 371.188 60.936 372.212 60.392C373.268 59.848 374.18 59.352 374.948 58.904C375.748 58.456 376.516 58.232 377.252 58.232C378.244 58.232 378.98 58.6 379.46 59.336L382.868 63.656C381.556 65.192 380.084 66.488 378.452 67.544C376.82 68.568 375.108 69.4 373.316 70.04C371.556 70.648 369.748 71.08 367.892 71.336C366.068 71.592 364.292 71.72 362.564 71.72C359.14 71.72 355.956 71.16 353.012 70.04C350.068 68.888 347.508 67.208 345.332 65C343.156 62.76 341.444 60.008 340.196 56.744C338.948 53.448 338.324 49.64 338.324 45.32C338.324 41.96 338.868 38.808 339.956 35.864C341.044 32.888 342.596 30.312 344.612 28.136C346.66 25.928 349.14 24.184 352.052 22.904C354.996 21.624 358.308 20.984 361.988 20.984C365.092 20.984 367.956 21.48 370.58 22.472C373.204 23.464 375.46 24.92 377.348 26.84C379.236 28.728 380.708 31.064 381.764 33.848C382.852 36.6 383.396 39.752 383.396 43.304C383.396 45.096 383.204 46.312 382.82 46.952C382.436 47.56 381.7 47.864 380.612 47.864H350.132ZM422.342 31.352C422.022 31.864 421.686 32.232 421.334 32.456C420.982 32.648 420.534 32.744 419.99 32.744C419.414 32.744 418.79 32.584 418.118 32.264C417.478 31.944 416.726 31.592 415.862 31.208C414.998 30.792 414.006 30.424 412.885 30.104C411.798 29.784 410.502 29.624 408.998 29.624C406.662 29.624 404.822 30.12 403.478 31.112C402.166 32.104 401.51 33.4 401.51 35C401.51 36.056 401.846 36.952 402.518 37.688C403.222 38.392 404.134 39.016 405.254 39.56C406.406 40.104 407.702 40.6 409.142 41.048C410.582 41.464 412.038 41.928 413.51 42.44C415.014 42.952 416.486 43.544 417.926 44.216C419.366 44.856 420.646 45.688 421.766 46.712C422.918 47.704 423.83 48.904 424.502 50.312C425.206 51.72 425.558 53.416 425.558 55.4C425.558 57.768 425.126 59.96 424.262 61.976C423.43 63.96 422.182 65.688 420.518 67.16C418.854 68.6 416.79 69.736 414.326 70.568C411.894 71.368 409.078 71.768 405.878 71.768C404.182 71.768 402.518 71.608 400.886 71.288C399.286 71 397.734 70.584 396.23 70.04C394.758 69.496 393.382 68.856 392.102 68.12C390.854 67.384 389.75 66.584 388.79 65.72L391.526 61.208C391.878 60.664 392.294 60.248 392.773 59.96C393.253 59.672 393.862 59.528 394.598 59.528C395.334 59.528 396.022 59.736 396.662 60.152C397.334 60.568 398.102 61.016 398.966 61.496C399.83 61.976 400.838 62.424 401.99 62.84C403.174 63.256 404.662 63.464 406.454 63.464C407.862 63.464 409.062 63.304 410.054 62.984C411.078 62.632 411.91 62.184 412.55 61.64C413.222 61.096 413.701 60.472 413.99 59.768C414.31 59.032 414.47 58.28 414.47 57.512C414.47 56.36 414.118 55.416 413.414 54.68C412.742 53.944 411.83 53.304 410.677 52.76C409.558 52.216 408.262 51.736 406.79 51.32C405.35 50.872 403.862 50.392 402.326 49.88C400.822 49.368 399.334 48.776 397.862 48.104C396.422 47.4 395.126 46.52 393.974 45.464C392.854 44.408 391.942 43.112 391.238 41.576C390.566 40.04 390.23 38.184 390.23 36.008C390.23 33.992 390.63 32.072 391.43 30.248C392.23 28.424 393.398 26.84 394.934 25.496C396.502 24.12 398.438 23.032 400.742 22.232C403.078 21.4 405.766 20.984 408.806 20.984C412.198 20.984 415.286 21.544 418.07 22.664C420.854 23.784 423.174 25.256 425.03 27.08L422.342 31.352Z"/>
</mask>
<path d="M29.04 33.704L28.7238 32.7553L28.7187 32.757L29.04 33.704ZM33.504 31.208L34.1797 31.9452L34.1806 31.9443L33.504 31.208ZM33.504 14.408L32.8702 15.1815L32.8754 15.1857L33.504 14.408ZM14.64 11.576V10.576H13.64V11.576H14.64ZM14.64 34.616H13.64V35.616H14.64V34.616ZM55.92 71V72H57.806L56.7477 70.4389L55.92 71ZM39.456 68.408L40.3233 67.9101L40.3083 67.8842L40.2919 67.8591L39.456 68.408ZM24.864 46.184L24.027 46.7312L24.0281 46.7328L24.864 46.184ZM23.04 44.408L22.5581 45.2842L22.567 45.2891L22.576 45.2938L23.04 44.408ZM14.64 43.88V42.88H13.64V43.88H14.64ZM14.64 71V72H15.64V71H14.64ZM1.728 71H0.728001V72H1.728V71ZM1.728 1.592V0.591995H0.728001V1.592H1.728ZM34.992 3.08L34.7088 4.03913L34.7197 4.0422L34.992 3.08ZM43.296 7.16L42.6615 7.93295L42.6671 7.93751L43.296 7.16ZM48.096 13.496L47.1726 13.8798L47.1744 13.8841L48.096 13.496ZM48.576 28.184L47.6287 27.8634L47.6244 27.8766L48.576 28.184ZM45.6 33.848L44.809 33.2361L44.8018 33.2456L45.6 33.848ZM40.8 38.312L40.2453 37.4799L40.2388 37.4843L40.8 38.312ZM34.32 41.336L34.0303 40.3789L31.8196 41.0479L33.8203 42.2022L34.32 41.336ZM36.624 43.064L35.9335 43.7874L35.9423 43.7958L35.9513 43.8039L36.624 43.064ZM38.544 45.368L37.7028 45.9088L37.7094 45.919L37.7163 45.9291L38.544 45.368ZM22.704 34.616V35.616C25.2157 35.616 27.4411 35.3025 29.3613 34.651L29.04 33.704L28.7187 32.757C27.0549 33.3215 25.0563 33.616 22.704 33.616V34.616ZM29.04 33.704L29.3562 34.6527C31.2837 34.0102 32.9031 33.1154 34.1797 31.9452L33.504 31.208L32.8283 30.4708C31.8009 31.4126 30.4443 32.1818 28.7238 32.7553L29.04 33.704ZM33.504 31.208L34.1806 31.9443C35.4747 30.7552 36.4428 29.3486 37.0752 27.7324L36.144 27.368L35.2128 27.0036C34.6932 28.3313 33.9013 29.4848 32.8274 30.4717L33.504 31.208ZM36.144 27.368L37.0752 27.7324C37.7016 26.1318 38.008 24.3906 38.008 22.52H37.008H36.008C36.008 24.1694 35.7384 25.6602 35.2128 27.0036L36.144 27.368ZM37.008 22.52H38.008C38.008 18.756 36.7452 15.7418 34.1326 13.6303L33.504 14.408L32.8754 15.1857C34.9348 16.8502 36.008 19.244 36.008 22.52H37.008ZM33.504 14.408L34.1378 13.6345C31.5754 11.5347 27.7652 10.576 22.896 10.576V11.576V12.576C27.5628 12.576 30.8246 13.5053 32.8702 15.1815L33.504 14.408ZM22.896 11.576V10.576H14.64V11.576V12.576H22.896V11.576ZM14.64 11.576H13.64V34.616H14.64H15.64V11.576H14.64ZM14.64 34.616V35.616H22.704V34.616V33.616H14.64V34.616ZM55.92 71V70H44.256V71V72H55.92V71ZM44.256 71V70C42.3592 70 41.1148 69.2889 40.3233 67.9101L39.456 68.408L38.5887 68.9059C39.7812 70.9831 41.7368 72 44.256 72V71ZM39.456 68.408L40.2919 67.8591L25.6999 45.6351L24.864 46.184L24.0281 46.7328L38.6201 68.9569L39.456 68.408ZM24.864 46.184L25.701 45.6367C25.0917 44.7049 24.367 43.9742 23.504 43.5222L23.04 44.408L22.576 45.2938C23.057 45.5458 23.5483 45.9991 24.027 46.7312L24.864 46.184ZM23.04 44.408L23.5219 43.5318C22.6613 43.0585 21.4989 42.88 20.16 42.88V43.88V44.88C21.3811 44.88 22.1387 45.0535 22.5581 45.2842L23.04 44.408ZM20.16 43.88V42.88H14.64V43.88V44.88H20.16V43.88ZM14.64 43.88H13.64V71H14.64H15.64V43.88H14.64ZM14.64 71V70H1.728V71V72H14.64V71ZM1.728 71H2.728V1.592H1.728H0.728001V71H1.728ZM1.728 1.592V2.592H22.896V1.592V0.591995H1.728V1.592ZM22.896 1.592V2.592C27.5347 2.592 31.4661 3.08169 34.7088 4.03907L34.992 3.08L35.2752 2.12092C31.7979 1.09431 27.6653 0.591995 22.896 0.591995V1.592ZM34.992 3.08L34.7197 4.0422C38.0138 4.97449 40.6486 6.2805 42.6615 7.93293L43.296 7.16L43.9305 6.38707C41.6554 4.51949 38.7542 3.1055 35.2643 2.11779L34.992 3.08ZM43.296 7.16L42.6671 7.93751C44.7202 9.59812 46.2156 11.5771 47.1726 13.8798L48.096 13.496L49.0194 13.1122C47.9284 10.4869 46.2238 8.24187 43.9249 6.38249L43.296 7.16ZM48.096 13.496L47.1744 13.8841C48.141 16.1798 48.632 18.7338 48.632 21.56H49.632H50.632C50.632 18.4981 50.099 15.6762 49.0176 13.1079L48.096 13.496ZM49.632 21.56H48.632C48.632 23.794 48.2957 25.8931 47.6288 27.8634L48.576 28.184L49.5232 28.5046C50.2643 26.3149 50.632 23.998 50.632 21.56H49.632ZM48.576 28.184L47.6244 27.8766C46.9873 29.8487 46.0489 31.6334 44.809 33.2361L45.6 33.848L46.391 34.4599C47.7751 32.6706 48.8207 30.6793 49.5276 28.4914L48.576 28.184ZM45.6 33.848L44.8018 33.2456C43.5951 34.8445 42.0799 36.2569 40.2453 37.4799L40.8 38.312L41.3547 39.144C43.3602 37.8071 45.0449 36.2435 46.3982 34.4504L45.6 33.848ZM40.8 38.312L40.2388 37.4843C38.4432 38.7017 36.3767 39.6688 34.0303 40.3789L34.32 41.336L34.6097 42.2931C37.1273 41.5312 39.3808 40.4823 41.3612 39.1397L40.8 38.312ZM34.32 41.336L33.8203 42.2022C34.5823 42.6418 35.2864 43.1697 35.9335 43.7874L36.624 43.064L37.3145 42.3406C36.5536 41.6143 35.7217 40.9902 34.8197 40.4698L34.32 41.336ZM36.624 43.064L35.9513 43.8039C36.5835 44.3787 37.1685 45.0776 37.7028 45.9088L38.544 45.368L39.3852 44.8272C38.7675 43.8664 38.0725 43.0293 37.2967 42.3241L36.624 43.064ZM38.544 45.368L37.7163 45.9291L55.0923 71.5611L55.92 71L56.7477 70.4389L39.3717 44.8069L38.544 45.368ZM90.084 40.712V41.712H91.084V40.712H90.084ZM89.412 36.392L88.4548 36.6814L88.4589 36.6949L88.4633 36.7082L89.412 36.392ZM84.18 30.392L83.7595 31.2993L83.7727 31.3054L83.7861 31.3111L84.18 30.392ZM71.46 32.408L70.7586 31.6951L70.7529 31.7009L71.46 32.408ZM67.716 40.712L66.7273 40.5619L66.5528 41.712H67.716V40.712ZM67.476 47.864V46.864H66.3972L66.4789 47.9397L67.476 47.864ZM68.82 54.44L67.885 54.7947L67.8871 54.8001L68.82 54.44ZM71.604 59L70.878 59.6878L70.8873 59.6974L71.604 59ZM75.684 61.688L75.3225 62.6204L75.3338 62.6248L75.3453 62.6289L75.684 61.688ZM85.908 61.88L85.6048 60.9271L85.5984 60.9291L85.908 61.88ZM89.556 60.392L89.098 59.503L89.0868 59.5089L89.556 60.392ZM92.292 58.904L91.8034 58.0315L91.7957 58.0358L91.7881 58.0402L92.292 58.904ZM96.804 59.336L95.9664 59.8823L95.991 59.92L96.0189 59.9554L96.804 59.336ZM100.212 63.656L100.972 64.3055L101.506 63.6812L100.997 63.0366L100.212 63.656ZM95.796 67.544L96.3275 68.3911L96.3393 68.3836L95.796 67.544ZM90.66 70.04L90.9865 70.9852L90.9963 70.9817L90.66 70.04ZM85.236 71.336L85.0994 70.3454L85.097 70.3457L85.236 71.336ZM70.356 70.04L69.9916 70.9713L70.0004 70.9746L70.356 70.04ZM62.676 65L61.9587 65.6968L61.9638 65.7019L62.676 65ZM57.54 56.744L56.6048 57.0981L56.6059 57.1011L57.54 56.744ZM57.3 35.864L58.238 36.2107L58.2392 36.2074L57.3 35.864ZM61.956 28.136L61.2228 27.456L61.2224 27.4564L61.956 28.136ZM69.396 22.904L68.9973 21.9869L68.9936 21.9885L69.396 22.904ZM94.692 26.84L93.979 27.5412L93.9849 27.5471L94.692 26.84ZM99.108 33.848L98.1729 34.2027L98.178 34.2157L99.108 33.848ZM100.164 46.952L101.009 47.486L101.016 47.4763L101.021 47.4665L100.164 46.952ZM90.084 40.712H91.084C91.084 39.0776 90.8454 37.53 90.3607 36.0758L89.412 36.392L88.4633 36.7082C88.8746 37.942 89.084 39.2744 89.084 40.712H90.084ZM89.412 36.392L90.3692 36.1026C89.9167 34.6058 89.2144 33.2827 88.2563 32.1471L87.492 32.792L86.7277 33.4369C87.4976 34.3493 88.0753 35.4262 88.4548 36.6814L89.412 36.392ZM87.492 32.792L88.2563 32.1471C87.2829 30.9935 86.0477 30.1045 84.5739 29.4729L84.18 30.392L83.7861 31.3111C85.0003 31.8315 85.9731 32.5425 86.7277 33.4369L87.492 32.792ZM84.18 30.392L84.6005 29.4847C83.1313 28.8038 81.4463 28.48 79.572 28.48V29.48V30.48C81.2177 30.48 82.6047 30.7642 83.7595 31.2993L84.18 30.392ZM79.572 29.48V28.48C75.9496 28.48 72.9708 29.5187 70.7587 31.6952L71.46 32.408L72.1613 33.1208C73.9172 31.3933 76.3464 30.48 79.572 30.48V29.48ZM71.46 32.408L70.7529 31.7009C68.6089 33.8449 67.2934 36.8328 66.7273 40.5619L67.716 40.712L68.7047 40.8621C69.2266 37.4232 70.4071 34.8751 72.1671 33.1151L71.46 32.408ZM67.716 40.712V41.712H90.084V40.712V39.712H67.716V40.712ZM67.476 47.864L66.4789 47.9397C66.6762 50.5382 67.1392 52.8283 67.885 54.7947L68.82 54.44L69.755 54.0853C69.0928 52.3396 68.6598 50.2458 68.4731 47.7883L67.476 47.864ZM68.82 54.44L67.8871 54.8001C68.6303 56.7257 69.6227 58.3626 70.8781 59.6877L71.604 59L72.33 58.3123C71.2813 57.2054 70.4177 55.8023 69.7529 54.0799L68.82 54.44ZM71.604 59L70.8873 59.6974C72.1413 60.9862 73.6231 61.9614 75.3225 62.6204L75.684 61.688L76.0455 60.7556C74.6089 60.1986 73.3707 59.3818 72.3207 58.3026L71.604 59ZM75.684 61.688L75.3453 62.6289C77.067 63.2487 78.9433 63.552 80.964 63.552V62.552V61.552C79.1447 61.552 77.501 61.2793 76.0227 60.7471L75.684 61.688ZM80.964 62.552V63.552C82.9569 63.552 84.715 63.3201 86.2176 62.8309L85.908 61.88L85.5984 60.9291C84.349 61.3359 82.8111 61.552 80.964 61.552V62.552ZM85.908 61.88L86.2112 62.8329C87.6618 62.3714 88.9359 61.8538 90.0252 61.2751L89.556 60.392L89.0868 59.5089C88.1281 60.0182 86.9702 60.4926 85.6048 60.9271L85.908 61.88ZM89.556 60.392L90.014 61.281C91.0807 60.7314 92.0088 60.2269 92.7959 59.7678L92.292 58.904L91.7881 58.0402C91.0392 58.4771 90.1433 58.9646 89.098 59.503L89.556 60.392ZM92.292 58.904L92.7806 59.7765C93.4675 59.3918 94.0683 59.232 94.596 59.232V58.232V57.232C93.6517 57.232 92.7165 57.5202 91.8034 58.0315L92.292 58.904ZM94.596 58.232V59.232C95.3013 59.232 95.6973 59.4697 95.9664 59.8823L96.804 59.336L97.6416 58.7897C96.9507 57.7303 95.8747 57.232 94.596 57.232V58.232ZM96.804 59.336L96.0189 59.9554L99.4269 64.2754L100.212 63.656L100.997 63.0366L97.5891 58.7166L96.804 59.336ZM100.212 63.656L99.4516 63.0065C98.2 64.4719 96.8004 65.703 95.2528 66.7044L95.796 67.544L96.3393 68.3836C98.0556 67.273 99.6001 65.9121 100.972 64.3055L100.212 63.656ZM95.796 67.544L95.2645 66.6969C93.6932 67.6829 92.0465 68.483 90.3237 69.0983L90.66 70.04L90.9963 70.9817C92.8575 70.317 94.6348 69.4531 96.3275 68.3911L95.796 67.544ZM90.66 70.04L90.3335 69.0948C88.6355 69.6814 86.8911 70.0982 85.0994 70.3454L85.236 71.336L85.3726 72.3266C87.2929 72.0618 89.1645 71.6146 90.9865 70.9852L90.66 70.04ZM85.236 71.336L85.097 70.3457C83.3161 70.5957 81.5866 70.72 79.908 70.72V71.72V72.72C81.6854 72.72 83.5079 72.5883 85.375 72.3263L85.236 71.336ZM79.908 71.72V70.72C76.5949 70.72 73.5325 70.1785 70.7116 69.1054L70.356 70.04L70.0004 70.9746C73.0675 72.1415 76.3731 72.72 79.908 72.72V71.72ZM70.356 70.04L70.7204 69.1088C67.9045 68.0069 65.4637 66.404 63.3883 64.2981L62.676 65L61.9638 65.7019C64.2403 68.012 66.9195 69.7691 69.9916 70.9712L70.356 70.04ZM62.676 65L63.3933 64.3032C61.3225 62.1715 59.6794 59.5392 58.4741 56.3869L57.54 56.744L56.6059 57.1011C57.8966 60.4768 59.6775 63.3485 61.9587 65.6968L62.676 65ZM57.54 56.744L58.4752 56.3899C57.2785 53.2294 56.668 49.5454 56.668 45.32H55.668H54.668C54.668 49.7346 55.3055 53.6666 56.6048 57.0981L57.54 56.744ZM55.668 45.32H56.668C56.668 42.0699 57.1938 39.0361 58.238 36.2106L57.3 35.864L56.362 35.5173C55.2302 38.5799 54.668 41.8501 54.668 45.32H55.668ZM57.3 35.864L58.2392 36.2074C59.2848 33.3474 60.7698 30.8878 62.6896 28.8156L61.956 28.136L61.2224 27.4564C59.1102 29.7362 57.4912 32.4286 56.3608 35.5206L57.3 35.864ZM61.956 28.136L62.6892 28.816C64.639 26.7139 67.0044 25.0476 69.7984 23.8195L69.396 22.904L68.9936 21.9885C65.9636 23.3204 63.369 25.1421 61.2228 27.456L61.956 28.136ZM69.396 22.904L69.7947 23.8211C72.5958 22.6032 75.7692 21.984 79.332 21.984V20.984V19.984C75.5348 19.984 72.0842 20.6448 68.9973 21.9869L69.396 22.904ZM79.332 20.984V21.984C82.328 21.984 85.0708 22.4624 87.5704 23.4074L87.924 22.472L88.2776 21.5366C85.5292 20.4976 82.544 19.984 79.332 19.984V20.984ZM87.924 22.472L87.5704 23.4074C90.0648 24.3504 92.1967 25.7286 93.979 27.5411L94.692 26.84L95.405 26.1389C93.4113 24.1114 91.0312 22.5776 88.2776 21.5366L87.924 22.472ZM94.692 26.84L93.9849 27.5471C95.7619 29.3241 97.1614 31.5356 98.173 34.2027L99.108 33.848L100.043 33.4933C98.9426 30.5924 97.3981 28.1319 95.3991 26.1329L94.692 26.84ZM99.108 33.848L98.178 34.2157C99.2115 36.8297 99.74 39.8533 99.74 43.304H100.74H101.74C101.74 39.6507 101.18 36.3703 100.038 33.4803L99.108 33.848ZM100.74 43.304H99.74C99.74 44.169 99.6933 44.8651 99.6082 45.404C99.5209 45.9569 99.4033 46.2762 99.3065 46.4375L100.164 46.952L101.021 47.4665C101.309 46.9878 101.479 46.3791 101.584 45.716C101.691 45.0389 101.74 44.2309 101.74 43.304H100.74ZM100.164 46.952L99.3185 46.418C99.1994 46.6066 98.8884 46.864 97.956 46.864V47.864V48.864C99.1996 48.864 100.361 48.5134 101.009 47.486L100.164 46.952ZM97.956 47.864V46.864H67.476V47.864V48.864H97.956V47.864ZM139.685 31.352L138.839 30.8194L138.837 30.822L139.685 31.352ZM138.677 32.456L139.156 33.3339L139.186 33.3178L139.214 33.2997L138.677 32.456ZM135.461 32.264L135.014 33.1584L135.023 33.1627L135.031 33.1669L135.461 32.264ZM133.205 31.208L132.771 32.109L132.785 32.1156L132.799 32.1218L133.205 31.208ZM130.229 30.104L129.947 31.0634L129.955 31.0655L130.229 30.104ZM120.821 31.112L120.227 30.3074L120.218 30.3143L120.821 31.112ZM119.861 37.688L119.123 38.3623L119.138 38.379L119.154 38.3951L119.861 37.688ZM122.597 39.56L122.16 40.4596L122.17 40.4642L122.597 39.56ZM126.485 41.048L126.188 42.0029L126.198 42.0059L126.208 42.0087L126.485 41.048ZM130.853 42.44L130.525 43.3845L130.531 43.3867L130.853 42.44ZM135.269 44.216L134.846 45.1222L134.855 45.1261L134.863 45.1298L135.269 44.216ZM139.109 46.712L138.434 47.45L138.445 47.4601L138.457 47.4698L139.109 46.712ZM141.845 50.312L140.943 50.7427L140.947 50.751L140.951 50.7592L141.845 50.312ZM141.605 61.976L140.686 61.5821L140.683 61.5893L141.605 61.976ZM137.861 67.16L138.516 67.9162L138.524 67.909L137.861 67.16ZM131.669 70.568L131.982 71.518L131.989 71.5154L131.669 70.568ZM118.229 71.288L118.422 70.3067L118.414 70.3052L118.406 70.3038L118.229 71.288ZM113.573 70.04L113.227 70.978L113.233 70.9804L113.573 70.04ZM109.445 68.12L108.937 68.9814L108.947 68.9869L109.445 68.12ZM106.133 65.72L105.278 65.2015L104.849 65.9094L105.464 66.4633L106.133 65.72ZM108.869 61.208L108.03 60.6647L108.022 60.677L108.014 60.6895L108.869 61.208ZM110.117 59.96L110.632 60.8175L110.117 59.96ZM114.005 60.152L113.46 60.9904L113.47 60.9965L113.479 61.0023L114.005 60.152ZM116.309 61.496L115.824 62.3702L116.309 61.496ZM119.333 62.84L118.994 63.7806L119.002 63.7835L119.333 62.84ZM127.397 62.984L127.704 63.9357L127.713 63.9328L127.722 63.9297L127.397 62.984ZM129.893 61.64L129.264 60.8628L129.255 60.8703L129.246 60.8781L129.893 61.64ZM131.333 59.768L130.416 59.3693L130.412 59.3793L130.408 59.3894L131.333 59.768ZM130.757 54.68L130.019 55.3543L130.027 55.3628L130.035 55.3712L130.757 54.68ZM128.021 52.76L127.584 53.6596L127.594 53.6642L128.021 52.76ZM124.133 51.32L123.836 52.2749L123.849 52.2787L123.861 52.2823L124.133 51.32ZM119.669 49.88L119.347 50.8267L119.353 50.8287L119.669 49.88ZM115.205 48.104L114.766 49.0024L114.778 49.0082L114.79 49.0137L115.205 48.104ZM111.317 45.464L110.631 46.1917L110.642 46.2012L111.317 45.464ZM108.581 41.576L107.665 41.9768L107.669 41.9848L107.672 41.9927L108.581 41.576ZM108.773 30.248L107.857 29.8463L108.773 30.248ZM112.277 25.496L112.936 26.2486L112.937 26.2476L112.277 25.496ZM118.085 22.232L118.413 23.1767L118.421 23.174L118.085 22.232ZM135.413 22.664L135.786 21.7363L135.413 22.664ZM142.373 27.08L143.22 27.6126L143.648 26.9311L143.074 26.3668L142.373 27.08ZM139.685 31.352L138.837 30.822C138.564 31.2599 138.323 31.496 138.14 31.6123L138.677 32.456L139.214 33.2997C139.735 32.968 140.167 32.4681 140.533 31.882L139.685 31.352ZM138.677 32.456L138.198 31.5781C138.036 31.6665 137.767 31.744 137.333 31.744V32.744V33.744C137.987 33.744 138.614 33.6295 139.156 33.3339L138.677 32.456ZM137.333 32.744V31.744C136.943 31.744 136.467 31.6352 135.891 31.3611L135.461 32.264L135.031 33.1669C135.8 33.5328 136.572 33.744 137.333 33.744V32.744ZM135.461 32.264L135.908 31.3696C135.251 31.0411 134.485 30.6825 133.611 30.2942L133.205 31.208L132.799 32.1218C133.653 32.5015 134.391 32.8469 135.014 33.1584L135.461 32.264ZM133.205 31.208L133.639 30.307C132.714 29.8618 131.667 29.4749 130.504 29.1425L130.229 30.104L129.955 31.0655C131.031 31.3731 131.968 31.7222 132.771 32.109L133.205 31.208ZM130.229 30.104L130.511 29.1446C129.308 28.7905 127.912 28.624 126.341 28.624V29.624V30.624C127.779 30.624 128.975 30.7775 129.947 31.0634L130.229 30.104ZM126.341 29.624V28.624C123.874 28.624 121.8 29.1468 120.227 30.3074L120.821 31.112L121.415 31.9166C122.531 31.0932 124.136 30.624 126.341 30.624V29.624ZM120.821 31.112L120.218 30.3143C118.664 31.4891 117.853 33.0764 117.853 35H118.853H119.853C119.853 33.7235 120.354 32.7189 121.424 31.9097L120.821 31.112ZM118.853 35H117.853C117.853 36.2892 118.272 37.4303 119.123 38.3623L119.861 37.688L120.6 37.0137C120.107 36.4737 119.853 35.8228 119.853 35H118.853ZM119.861 37.688L119.154 38.3951C119.954 39.1947 120.964 39.8785 122.16 40.4595L122.597 39.56L123.034 38.6605C121.99 38.1535 121.177 37.5893 120.568 36.9809L119.861 37.688ZM122.597 39.56L122.17 40.4642C123.371 41.0313 124.712 41.5435 126.188 42.0029L126.485 41.048L126.782 40.0931C125.379 39.6565 124.127 39.1767 123.024 38.6558L122.597 39.56ZM126.485 41.048L126.208 42.0087C127.63 42.4196 129.069 42.8781 130.525 43.3845L130.853 42.44L131.182 41.4955C129.694 40.9779 128.221 40.5084 126.763 40.0873L126.485 41.048ZM130.853 42.44L130.531 43.3867C132.001 43.887 133.439 44.4655 134.846 45.1222L135.269 44.216L135.692 43.3098C134.219 42.6225 132.714 42.017 131.176 41.4933L130.853 42.44ZM135.269 44.216L134.863 45.1298C136.209 45.7278 137.397 46.5015 138.434 47.45L139.109 46.712L139.784 45.974C138.581 44.8745 137.21 43.9842 135.675 43.3022L135.269 44.216ZM139.109 46.712L138.457 47.4698C139.501 48.3689 140.329 49.4565 140.943 50.7427L141.845 50.312L142.748 49.8813C142.018 48.3515 141.022 47.0391 139.762 45.9542L139.109 46.712ZM141.845 50.312L140.951 50.7592C141.57 51.997 141.901 53.5319 141.901 55.4H142.901H143.901C143.901 53.3001 143.529 51.443 142.74 49.8648L141.845 50.312ZM142.901 55.4H141.901C141.901 57.6435 141.493 59.7002 140.686 61.5821L141.605 61.976L142.524 62.3699C143.446 60.2198 143.901 57.8925 143.901 55.4H142.901ZM141.605 61.976L140.683 61.5893C139.911 63.4299 138.754 65.0353 137.199 66.411L137.861 67.16L138.524 67.909C140.297 66.3407 141.635 64.4901 142.527 62.3627L141.605 61.976ZM137.861 67.16L137.207 66.4038C135.657 67.7451 133.712 68.8226 131.349 69.6206L131.669 70.568L131.989 71.5154C134.554 70.6494 136.737 69.4549 138.516 67.9162L137.861 67.16ZM131.669 70.568L131.357 69.6181C129.047 70.3778 126.34 70.768 123.221 70.768V71.768V72.768C126.502 72.768 129.427 72.3582 131.982 71.5179L131.669 70.568ZM123.221 71.768V70.768C121.589 70.768 119.989 70.614 118.422 70.3067L118.229 71.288L118.037 72.2693C119.733 72.602 121.462 72.768 123.221 72.768V71.768ZM118.229 71.288L118.406 70.3038C116.861 70.0256 115.364 69.6241 113.913 69.0996L113.573 70.04L113.233 70.9804C114.791 71.5439 116.398 71.9744 118.052 72.2722L118.229 71.288ZM113.573 70.04L113.92 69.102C112.497 68.5762 111.172 67.9595 109.944 67.2531L109.445 68.12L108.947 68.9869C110.278 69.7525 111.705 70.4158 113.227 70.978L113.573 70.04ZM109.445 68.12L109.953 67.2586C108.756 66.5525 107.707 65.7911 106.802 64.9767L106.133 65.72L105.464 66.4633C106.479 67.3769 107.639 68.2155 108.937 68.9814L109.445 68.12ZM106.133 65.72L106.988 66.2385L109.724 61.7265L108.869 61.208L108.014 60.6895L105.278 65.2015L106.133 65.72ZM108.869 61.208L109.709 61.7513C109.991 61.3153 110.302 61.0154 110.632 60.8175L110.117 59.96L109.603 59.1025C108.973 59.4806 108.452 60.0127 108.03 60.6647L108.869 61.208ZM110.117 59.96L110.632 60.8175C110.915 60.6477 111.331 60.528 111.941 60.528V59.528V58.528C111.08 58.528 110.28 58.6963 109.603 59.1025L110.117 59.96ZM111.941 59.528V60.528C112.476 60.528 112.976 60.6758 113.46 60.9904L114.005 60.152L114.55 59.3136C113.754 58.7962 112.878 58.528 111.941 58.528V59.528ZM114.005 60.152L113.479 61.0023C114.167 61.4283 114.949 61.8843 115.824 62.3702L116.309 61.496L116.795 60.6218C115.941 60.1477 115.187 59.7077 114.532 59.3017L114.005 60.152ZM116.309 61.496L115.824 62.3702C116.744 62.8814 117.803 63.3505 118.994 63.7806L119.333 62.84L119.673 61.8994C118.56 61.4975 117.603 61.0705 116.795 60.6218L116.309 61.496ZM119.333 62.84L119.002 63.7835C120.327 64.2492 121.937 64.464 123.797 64.464V63.464V62.464C122.074 62.464 120.707 62.2628 119.665 61.8965L119.333 62.84ZM123.797 63.464V64.464C125.275 64.464 126.585 64.2967 127.704 63.9357L127.397 62.984L127.09 62.0323C126.225 62.3113 125.135 62.464 123.797 62.464V63.464ZM127.397 62.984L127.722 63.9297C128.832 63.5483 129.783 63.0464 130.541 62.4019L129.893 61.64L129.246 60.8781C128.724 61.3216 128.011 61.7157 127.072 62.0383L127.397 62.984ZM129.893 61.64L130.522 62.4172C131.307 61.7821 131.899 61.0265 132.259 60.1466L131.333 59.768L130.408 59.3894C130.192 59.9175 129.823 60.4099 129.264 60.8628L129.893 61.64ZM131.333 59.768L132.25 60.1667C132.623 59.3107 132.813 58.4234 132.813 57.512H131.813H130.813C130.813 58.1366 130.684 58.7533 130.416 59.3693L131.333 59.768ZM131.813 57.512H132.813C132.813 56.139 132.386 54.9357 131.48 53.9888L130.757 54.68L130.035 55.3712C130.537 55.8963 130.813 56.581 130.813 57.512H131.813ZM130.757 54.68L131.496 54.0057C130.715 53.1508 129.687 52.4406 128.448 51.8558L128.021 52.76L127.594 53.6642C128.66 54.1674 129.455 54.7372 130.019 55.3543L130.757 54.68ZM128.021 52.76L128.458 51.8605C127.275 51.2857 125.922 50.7862 124.405 50.3577L124.133 51.32L123.861 52.2823C125.289 52.6858 126.528 53.1463 127.584 53.6595L128.021 52.76ZM124.133 51.32L124.43 50.3651C122.997 49.9193 121.516 49.4413 119.985 48.9313L119.669 49.88L119.353 50.8287C120.895 51.3427 122.389 51.8247 123.836 52.2749L124.133 51.32ZM119.669 49.88L119.992 48.9333C118.52 48.4323 117.063 47.8527 115.621 47.1943L115.205 48.104L114.79 49.0137C116.292 49.6993 117.811 50.3037 119.347 50.8266L119.669 49.88ZM115.205 48.104L115.644 47.2056C114.288 46.5426 113.072 45.7164 111.993 44.7268L111.317 45.464L110.642 46.2012C111.866 47.3236 113.242 48.2574 114.766 49.0024L115.205 48.104ZM111.317 45.464L112.003 44.7364C110.986 43.777 110.146 42.5898 109.49 41.1593L108.581 41.576L107.672 41.9927C108.425 43.6342 109.409 45.039 110.631 46.1916L111.317 45.464ZM108.581 41.576L109.497 41.1752C108.895 39.7972 108.573 38.0854 108.573 36.008H107.573H106.573C106.573 38.2826 106.924 40.2828 107.665 41.9768L108.581 41.576ZM107.573 36.008H108.573C108.573 34.1285 108.945 32.3455 109.689 30.6497L108.773 30.248L107.857 29.8463C107.001 31.7985 106.573 33.8555 106.573 36.008H107.573ZM108.773 30.248L109.689 30.6497C110.429 28.9635 111.507 27.4984 112.936 26.2486L112.277 25.496L111.619 24.7434C109.975 26.1816 108.718 27.8845 107.857 29.8463L108.773 30.248ZM112.277 25.496L112.937 26.2476C114.393 24.9699 116.211 23.9414 118.413 23.1767L118.085 22.232L117.757 21.2873C115.352 22.1226 113.298 23.2701 111.618 24.7444L112.277 25.496ZM118.085 22.232L118.421 23.174C120.628 22.3879 123.199 21.984 126.149 21.984V20.984V19.984C123.02 19.984 120.215 20.412 117.75 21.29L118.085 22.232ZM126.149 20.984V21.984C129.43 21.984 132.389 22.5253 135.04 23.5917L135.413 22.664L135.786 21.7363C132.869 20.5627 129.653 19.984 126.149 19.984V20.984ZM135.413 22.664L135.04 23.5917C137.72 24.67 139.924 26.0747 141.672 27.7932L142.373 27.08L143.074 26.3668C141.111 24.4373 138.674 22.898 135.786 21.7363L135.413 22.664ZM142.373 27.08L141.527 26.5474L138.839 30.8194L139.685 31.352L140.532 31.8846L143.22 27.6126L142.373 27.08ZM183.553 22.76L183.183 23.6892L183.186 23.6905L183.553 22.76ZM191.233 27.8L190.515 28.4965L190.52 28.5018L191.233 27.8ZM196.177 56.84L195.238 56.4952L196.177 56.84ZM191.233 64.856L190.515 64.1593L190.51 64.1648L191.233 64.856ZM183.553 69.944L183.186 69.0135L183.183 69.0148L183.553 69.944ZM155.857 64.856L155.134 65.5472L155.139 65.5526L155.857 64.856ZM150.913 56.84L149.974 57.1848L149.977 57.1932L150.913 56.84ZM150.913 35.768L149.977 35.4148L149.974 35.4232L150.913 35.768ZM155.857 27.8L155.144 27.0981L155.139 27.1035L155.857 27.8ZM163.585 22.76L163.951 23.6905L163.585 22.76ZM182.689 58.472L181.878 57.8872L181.873 57.8935L182.689 58.472ZM182.689 34.232L181.87 34.8061L181.874 34.8124L182.689 34.232ZM164.353 34.28L163.54 33.6979L163.538 33.6996L164.353 34.28ZM164.353 58.472L163.538 59.0524L163.546 59.063L164.353 58.472ZM173.617 20.984V21.984C177.156 21.984 180.34 22.558 183.183 23.6892L183.553 22.76L183.922 21.8308C180.814 20.594 177.374 19.984 173.617 19.984V20.984ZM183.553 22.76L183.186 23.6905C186.071 24.8259 188.509 26.4292 190.515 28.4965L191.233 27.8L191.95 27.1035C189.733 24.8188 187.051 23.0621 183.919 21.8295L183.553 22.76ZM191.233 27.8L190.52 28.5018C192.555 30.5671 194.131 33.0979 195.238 36.1128L196.177 35.768L197.115 35.4232C195.919 32.1661 194.198 29.3849 191.945 27.0981L191.233 27.8ZM196.177 35.768L195.238 36.1128C196.344 39.1223 196.905 42.5073 196.905 46.28H197.905H198.905C198.905 42.3087 198.314 38.6856 197.115 35.4232L196.177 35.768ZM197.905 46.28H196.905C196.905 50.0858 196.343 53.4865 195.238 56.4952L196.177 56.84L197.115 57.1848C198.314 53.9215 198.905 50.2822 198.905 46.28H197.905ZM196.177 56.84L195.238 56.4952C194.13 59.5111 192.554 62.0602 190.515 64.1594L191.233 64.856L191.95 65.5526C194.2 63.2358 195.919 60.4409 197.115 57.1848L196.177 56.84ZM191.233 64.856L190.51 64.1648C188.504 66.2621 186.068 67.8794 183.186 69.0135L183.553 69.944L183.919 70.8745C187.054 69.6406 189.738 67.8659 191.955 65.5472L191.233 64.856ZM183.553 69.944L183.183 69.0148C180.34 70.146 177.156 70.72 173.617 70.72V71.72V72.72C177.374 72.72 180.814 72.11 183.922 70.8732L183.553 69.944ZM173.617 71.72V70.72C170.045 70.72 166.827 70.1457 163.951 69.0135L163.585 69.944L163.218 70.8745C166.358 72.1103 169.829 72.72 173.617 72.72V71.72ZM163.585 69.944L163.951 69.0135C161.069 67.8789 158.614 66.2602 156.574 64.1594L155.857 64.856L155.139 65.5526C157.387 67.8678 160.085 69.6411 163.218 70.8745L163.585 69.944ZM155.857 64.856L156.579 64.1648C154.569 62.063 152.989 59.5092 151.848 56.4868L150.913 56.84L149.977 57.1932C151.204 60.4428 152.92 63.233 155.134 65.5472L155.857 64.856ZM150.913 56.84L151.851 56.4952C150.746 53.4865 150.185 50.0858 150.185 46.28H149.185H148.185C148.185 50.2822 148.775 53.9215 149.974 57.1848L150.913 56.84ZM149.185 46.28H150.185C150.185 42.5073 150.746 39.1223 151.851 36.1128L150.913 35.768L149.974 35.4232C148.776 38.6856 148.185 42.3087 148.185 46.28H149.185ZM150.913 35.768L151.848 36.1212C152.989 33.0998 154.567 30.5643 156.574 28.4965L155.857 27.8L155.139 27.1035C152.922 29.3877 151.204 32.1642 149.977 35.4148L150.913 35.768ZM155.857 27.8L156.569 28.5018C158.609 26.4312 161.065 24.8263 163.951 23.6905L163.585 22.76L163.218 21.8295C160.088 23.0616 157.392 24.8168 155.144 27.0981L155.857 27.8ZM163.585 22.76L163.951 23.6905C166.827 22.5583 170.045 21.984 173.617 21.984V20.984V19.984C169.829 19.984 166.358 20.5937 163.218 21.8295L163.585 22.76ZM173.617 62.6V63.6C177.958 63.6 181.324 62.125 183.504 59.0505L182.689 58.472L181.873 57.8935C180.15 60.323 177.467 61.6 173.617 61.6V62.6ZM182.689 58.472L183.5 59.0568C185.658 56.0627 186.665 51.7875 186.665 46.376H185.665H184.665C184.665 51.5885 183.687 55.3773 181.878 57.8872L182.689 58.472ZM185.665 46.376H186.665C186.665 40.9633 185.658 36.6754 183.503 33.6516L182.689 34.232L181.874 34.8124C183.688 37.3566 184.665 41.1647 184.665 46.376H185.665ZM182.689 34.232L183.508 33.6579C181.329 30.5503 177.963 29.056 173.617 29.056V30.056V31.056C177.463 31.056 180.145 32.3456 181.87 34.8061L182.689 34.232ZM173.617 30.056V29.056C169.208 29.056 165.782 30.565 163.54 33.6979L164.353 34.28L165.166 34.8621C166.955 32.363 169.706 31.056 173.617 31.056V30.056ZM164.353 34.28L163.538 33.6996C161.384 36.7226 160.377 40.9938 160.377 46.376H161.377H162.377C162.377 41.1982 163.353 37.4054 165.167 34.8604L164.353 34.28ZM161.377 46.376H160.377C160.377 51.7582 161.384 56.0294 163.538 59.0524L164.353 58.472L165.167 57.8916C163.353 55.3466 162.377 51.5538 162.377 46.376H161.377ZM164.353 58.472L163.546 59.063C165.792 62.1295 169.217 63.6 173.617 63.6V62.6V61.6C169.697 61.6 166.945 60.3185 165.159 57.881L164.353 58.472ZM249.382 21.752H250.382V20.752H249.382V21.752ZM249.382 71V72H250.382V71H249.382ZM239.158 68.84L238.179 69.043L238.186 69.0806L238.197 69.1175L239.158 68.84ZM238.342 64.904L239.321 64.701L238.941 62.8695L237.629 64.2025L238.342 64.904ZM231.67 69.896L232.126 70.7857L232.135 70.7809L231.67 69.896ZM215.926 70.424L215.513 71.3349L215.522 71.3387L215.53 71.3424L215.926 70.424ZM210.742 66.536L209.978 67.1819L210.742 66.536ZM207.526 60.632L206.569 60.9242L206.572 60.9322L206.574 60.9402L207.526 60.632ZM206.47 21.752V20.752H205.47V21.752H206.47ZM218.326 21.752H219.326V20.752H218.326V21.752ZM220.39 60.056L219.619 60.6933L219.626 60.7013L219.633 60.7092L220.39 60.056ZM232.438 61.16L232.885 62.0544L232.891 62.0513L232.898 62.048L232.438 61.16ZM237.526 57.368L238.233 58.0751L238.526 57.7822V57.368H237.526ZM237.526 21.752V20.752H236.526V21.752H237.526ZM249.382 21.752H248.382V71H249.382H250.382V21.752H249.382ZM249.382 71V70H242.134V71V72H249.382V71ZM242.134 71V70C241.502 70 241.084 69.856 240.801 69.6507C240.523 69.4485 240.279 69.1175 240.118 68.5625L239.158 68.84L238.197 69.1175C238.453 70.0025 238.913 70.7515 239.626 71.2693C240.335 71.784 241.198 72 242.134 72V71ZM239.158 68.84L240.137 68.637L239.321 64.701L238.342 64.904L237.363 65.107L238.179 69.043L239.158 68.84ZM238.342 64.904L237.629 64.2025C235.682 66.1804 233.541 67.7813 231.204 69.0111L231.67 69.896L232.135 70.7809C234.663 69.4507 236.969 67.7236 239.054 65.6055L238.342 64.904ZM231.67 69.896L231.213 69.0063C228.949 70.1684 226.247 70.768 223.078 70.768V71.768V72.768C226.5 72.768 229.527 72.1196 232.126 70.7857L231.67 69.896ZM223.078 71.768V70.768C220.501 70.768 218.255 70.3387 216.321 69.5056L215.926 70.424L215.53 71.3424C217.756 72.3013 220.279 72.768 223.078 72.768V71.768ZM215.926 70.424L216.338 69.5131C214.421 68.6444 212.814 67.4372 211.505 65.8901L210.742 66.536L209.978 67.1819C211.485 68.9628 213.334 70.3476 215.513 71.3349L215.926 70.424ZM210.742 66.536L211.505 65.8901C210.189 64.3345 209.177 62.484 208.477 60.3238L207.526 60.632L206.574 60.9402C207.347 63.324 208.479 65.4095 209.978 67.1819L210.742 66.536ZM207.526 60.632L208.482 60.3398C207.811 58.1429 207.47 55.7148 207.47 53.048H206.47H205.47C205.47 55.8852 205.833 58.5131 206.569 60.9242L207.526 60.632ZM206.47 53.048H207.47V21.752H206.47H205.47V53.048H206.47ZM206.47 21.752V22.752H218.326V21.752V20.752H206.47V21.752ZM218.326 21.752H217.326V53.048H218.326H219.326V21.752H218.326ZM218.326 53.048H217.326C217.326 56.1981 218.046 58.7908 219.619 60.6933L220.39 60.056L221.16 59.4187C219.982 57.9932 219.326 55.9139 219.326 53.048H218.326ZM220.39 60.056L219.633 60.7092C221.283 62.6219 223.694 63.504 226.678 63.504V62.504V61.504C224.094 61.504 222.313 60.7541 221.147 59.4028L220.39 60.056ZM226.678 62.504V63.504C228.877 63.504 230.951 63.0214 232.885 62.0544L232.438 61.16L231.991 60.2656C230.341 61.0906 228.574 61.504 226.678 61.504V62.504ZM232.438 61.16L232.898 62.048C234.791 61.0674 236.569 59.7391 238.233 58.0751L237.526 57.368L236.819 56.6609C235.283 58.197 233.668 59.3966 231.978 60.272L232.438 61.16ZM237.526 57.368H238.526V21.752H237.526H236.526V57.368H237.526ZM237.526 21.752V22.752H249.382V21.752V20.752H237.526V21.752ZM272.321 30.296L271.329 30.4242L271.737 33.5772L273.208 30.7586L272.321 30.296ZM277.793 23.384L278.412 24.1695L278.419 24.1637L277.793 23.384ZM290.753 22.328L291.75 22.4142L291.798 21.8487L291.338 21.5168L290.753 22.328ZM289.985 31.208L290.949 31.4756L290.974 31.3864L290.982 31.2942L289.985 31.208ZM289.265 32.456L289.879 33.2454L289.89 33.2369L289.265 32.456ZM285.905 32.552L285.735 33.5375L285.741 33.5384L285.905 32.552ZM279.665 32.888L280.016 33.8243L279.665 32.888ZM276.881 34.568L277.542 35.3187L277.544 35.317L276.881 34.568ZM274.721 37.16L273.873 36.63L273.867 36.6397L273.861 36.6495L274.721 37.16ZM272.993 40.664L272.07 40.281L271.993 40.4649V40.664H272.993ZM272.993 71V72H273.993V71H272.993ZM261.137 71H260.137V72H261.137V71ZM261.137 21.752V20.752H260.137V21.752H261.137ZM270.641 22.424L269.959 23.1551L269.972 23.1676L269.986 23.1797L270.641 22.424ZM271.601 24.728L272.593 24.5997L272.591 24.5866L271.601 24.728ZM272.321 30.296L273.208 30.7586C274.693 27.9112 276.434 25.728 278.412 24.1695L277.793 23.384L277.174 22.5985C274.928 24.368 273.021 26.7928 271.435 29.8334L272.321 30.296ZM277.793 23.384L278.419 24.1637C280.342 22.6197 282.613 21.84 285.281 21.84V20.84V19.84C282.189 19.84 279.468 20.7563 277.167 22.6043L277.793 23.384ZM285.281 20.84V21.84C287.414 21.84 289.012 22.3055 290.168 23.1392L290.753 22.328L291.338 21.5168C289.742 20.3665 287.693 19.84 285.281 19.84V20.84ZM290.753 22.328L289.757 22.2418L288.989 31.1218L289.985 31.208L290.982 31.2942L291.75 22.4142L290.753 22.328ZM289.985 31.208L289.022 30.9404C288.893 31.4028 288.737 31.5981 288.641 31.6751L289.265 32.456L289.89 33.2369C290.434 32.8019 290.757 32.1652 290.949 31.4756L289.985 31.208ZM289.265 32.456L288.651 31.6666C288.597 31.7085 288.443 31.792 288.065 31.792V32.792V33.792C288.712 33.792 289.357 33.6515 289.879 33.2453L289.265 32.456ZM288.065 32.792V31.792C287.672 31.792 287.019 31.7238 286.07 31.5656L285.905 32.552L285.741 33.5384C286.712 33.7002 287.499 33.792 288.065 33.792V32.792ZM285.905 32.552L286.075 31.5665C285.094 31.3974 284.125 31.312 283.169 31.312V32.312V33.312C284.005 33.312 284.861 33.3866 285.735 33.5375L285.905 32.552ZM283.169 32.312V31.312C281.761 31.312 280.47 31.5181 279.314 31.9517L279.665 32.888L280.016 33.8243C280.908 33.4899 281.954 33.312 283.169 33.312V32.312ZM279.665 32.888L279.314 31.9517C278.174 32.3792 277.141 33.0034 276.219 33.819L276.881 34.568L277.544 35.317C278.286 34.6606 279.109 34.1647 280.016 33.8243L279.665 32.888ZM276.881 34.568L276.221 33.8173C275.339 34.5933 274.558 35.5345 273.873 36.63L274.721 37.16L275.569 37.69C276.165 36.7375 276.824 35.9507 277.542 35.3187L276.881 34.568ZM274.721 37.16L273.861 36.6495C273.225 37.7213 272.628 38.9331 272.07 40.281L272.993 40.664L273.917 41.047C274.446 39.7709 275.001 38.6467 275.581 37.6705L274.721 37.16ZM272.993 40.664H271.993V71H272.993H273.993V40.664H272.993ZM272.993 71V70H261.137V71V72H272.993V71ZM261.137 71H262.137V21.752H261.137H260.137V71H261.137ZM261.137 21.752V22.752H268.097V21.752V20.752H261.137V21.752ZM268.097 21.752V22.752C269.253 22.752 269.768 22.9772 269.959 23.1551L270.641 22.424L271.324 21.6929C270.554 20.9748 269.374 20.752 268.097 20.752V21.752ZM270.641 22.424L269.986 23.1797C270.188 23.3543 270.461 23.8203 270.611 24.8694L271.601 24.728L272.591 24.5866C272.421 23.3957 272.055 22.3257 271.296 21.6683L270.641 22.424ZM271.601 24.728L270.609 24.8562L271.329 30.4242L272.321 30.296L273.313 30.1678L272.593 24.5998L271.601 24.728ZM330.824 32.168L331.61 32.7858L331.622 32.7699L331.634 32.7535L330.824 32.168ZM329.768 33.224L329.179 32.4153L329.161 32.4288L329.143 32.4431L329.768 33.224ZM326.552 33.08L325.997 33.912L326.013 33.923L326.03 33.9333L326.552 33.08ZM324.487 31.832L323.973 32.6895L323.986 32.6972L323.999 32.7045L324.487 31.832ZM321.608 30.584L321.275 31.527L321.291 31.5328L321.308 31.538L321.608 30.584ZM312.056 31.16L312.48 32.0652L312.488 32.0617L312.495 32.0581L312.056 31.16ZM308.12 34.376L307.319 33.776L307.315 33.7819L307.311 33.7878L308.12 34.376ZM305.815 39.512L306.784 39.7619L306.785 39.7582L305.815 39.512ZM305.863 53.288L304.897 53.5447L304.899 53.5518L304.901 53.5587L305.863 53.288ZM308.311 58.472L307.511 59.072L307.518 59.0808L308.311 58.472ZM312.151 61.64L311.712 62.5382L311.72 62.542L311.728 62.5457L312.151 61.64ZM321.799 62.024L322.162 62.956L322.169 62.9534L322.175 62.9507L321.799 62.024ZM324.776 60.488L325.338 61.3149L325.349 61.3074L325.36 61.2995L324.776 60.488ZM326.84 58.952L327.453 59.7414L327.459 59.7369L326.84 58.952ZM331.016 59.336L330.178 59.8823L330.202 59.92L330.23 59.9554L331.016 59.336ZM334.423 63.656L335.184 64.3055L335.717 63.6812L335.209 63.0366L334.423 63.656ZM330.151 67.544L330.706 68.3761L330.712 68.3721L330.718 68.368L330.151 67.544ZM325.352 70.04L325.701 70.9771L325.71 70.9733L325.352 70.04ZM320.263 71.336L320.12 70.3464L320.117 70.3468L320.263 71.336ZM306.487 70.04L306.094 70.9592L306.103 70.9631L306.487 70.04ZM299.431 65.048L300.165 64.3684L299.431 65.048ZM294.632 57.08L293.692 57.4218L293.696 57.4332L294.632 57.08ZM294.44 36.248L293.493 35.9259L293.491 35.9318L294.44 36.248ZM299.047 28.232L299.791 28.901L299.796 28.8957L299.047 28.232ZM306.535 22.904L306.14 21.9854L306.535 22.904ZM326.456 22.76L326.06 23.6786L326.064 23.6802L326.456 22.76ZM333.944 27.848L334.754 28.4335L335.253 27.7431L334.651 27.1409L333.944 27.848ZM330.824 32.168L330.037 31.5502C329.726 31.9467 329.438 32.2272 329.179 32.4153L329.768 33.224L330.356 34.0327C330.801 33.7088 331.217 33.2853 331.61 32.7858L330.824 32.168ZM329.768 33.224L329.143 32.4431C329.075 32.497 328.861 32.608 328.328 32.608V33.608V34.608C329.074 34.608 329.82 34.463 330.392 34.0049L329.768 33.224ZM328.328 33.608V32.608C327.923 32.608 327.51 32.4937 327.073 32.2267L326.552 33.08L326.03 33.9333C326.745 34.3703 327.516 34.608 328.328 34.608V33.608ZM326.552 33.08L327.106 32.248C326.503 31.8459 325.792 31.4163 324.976 30.9595L324.487 31.832L323.999 32.7045C324.783 33.1437 325.448 33.5461 325.997 33.912L326.552 33.08ZM324.487 31.832L325.002 30.9745C324.12 30.4452 323.084 29.9998 321.907 29.63L321.608 30.584L321.308 31.538C322.371 31.8722 323.255 32.2588 323.973 32.6895L324.487 31.832ZM321.608 30.584L321.94 29.641C320.711 29.2072 319.23 29.008 317.527 29.008V30.008V31.008C319.089 31.008 320.328 31.1928 321.275 31.527L321.608 30.584ZM317.527 30.008V29.008C315.324 29.008 313.344 29.4152 311.616 30.2619L312.056 31.16L312.495 32.0581C313.903 31.3688 315.571 31.008 317.527 31.008V30.008ZM312.056 31.16L311.631 30.2548C309.912 31.0614 308.472 32.2393 307.319 33.776L308.12 34.376L308.919 34.976C309.879 33.6967 311.063 32.7306 312.48 32.0652L312.056 31.16ZM308.12 34.376L307.311 33.7878C306.199 35.3165 305.384 37.1501 304.846 39.2658L305.815 39.512L306.785 39.7582C307.271 37.8419 307.992 36.2515 308.928 34.9642L308.12 34.376ZM305.815 39.512L304.847 39.2621C304.31 41.3441 304.048 43.6865 304.048 46.28H305.048H306.048C306.048 43.8175 306.297 41.6479 306.784 39.7619L305.815 39.512ZM305.048 46.28H304.048C304.048 48.971 304.326 51.3959 304.897 53.5447L305.863 53.288L306.83 53.0313C306.313 51.0841 306.048 48.837 306.048 46.28H305.048ZM305.863 53.288L304.901 53.5587C305.503 55.7015 306.368 57.547 307.512 59.072L308.311 58.472L309.112 57.872C308.143 56.581 307.376 54.9705 306.826 53.0173L305.863 53.288ZM308.311 58.472L307.518 59.0808C308.665 60.5748 310.064 61.7319 311.712 62.5382L312.151 61.64L312.591 60.7418C311.231 60.0761 310.07 59.1212 309.105 57.8632L308.311 58.472ZM312.151 61.64L311.728 62.5457C313.381 63.3198 315.225 63.696 317.24 63.696V62.696V61.696C315.478 61.696 313.93 61.3682 312.575 60.7343L312.151 61.64ZM317.24 62.696V63.696C319.193 63.696 320.85 63.4662 322.162 62.956L321.799 62.024L321.437 61.092C320.445 61.4778 319.062 61.696 317.24 61.696V62.696ZM321.799 62.024L322.175 62.9507C323.405 62.4521 324.464 61.909 325.338 61.3149L324.776 60.488L324.213 59.6611C323.487 60.155 322.562 60.6359 321.424 61.0973L321.799 62.024ZM324.776 60.488L325.36 61.2995C326.167 60.7186 326.865 60.199 327.453 59.7413L326.84 58.952L326.226 58.1626C325.662 58.601 324.984 59.1054 324.191 59.6765L324.776 60.488ZM326.84 58.952L327.459 59.7369C327.901 59.3884 328.357 59.232 328.855 59.232V58.232V57.232C327.882 57.232 326.994 57.5556 326.22 58.1671L326.84 58.952ZM328.855 58.232V59.232C329.515 59.232 329.902 59.4591 330.178 59.8823L331.016 59.336L331.853 58.7897C331.169 57.7409 330.116 57.232 328.855 57.232V58.232ZM331.016 59.336L330.23 59.9554L333.638 64.2754L334.423 63.656L335.209 63.0366L331.801 58.7166L331.016 59.336ZM334.423 63.656L333.663 63.0065C332.403 64.4816 331.043 65.7174 329.585 66.72L330.151 67.544L330.718 68.368C332.332 67.2586 333.82 65.9024 335.184 64.3055L334.423 63.656ZM330.151 67.544L329.597 66.712C328.12 67.6965 326.585 68.494 324.993 69.1067L325.352 70.04L325.71 70.9733C327.446 70.306 329.111 69.4395 330.706 68.3761L330.151 67.544ZM325.352 70.04L325.002 69.1029C323.438 69.6857 321.811 70.1004 320.12 70.3464L320.263 71.336L320.407 72.3256C322.236 72.0596 324.001 71.6103 325.701 70.9771L325.352 70.04ZM320.263 71.336L320.117 70.3468C318.437 70.5957 316.758 70.72 315.079 70.72V71.72V72.72C316.857 72.72 318.634 72.5883 320.41 72.3252L320.263 71.336ZM315.079 71.72V70.72C312.166 70.72 309.433 70.1839 306.872 69.1169L306.487 70.04L306.103 70.9631C308.918 72.1361 311.913 72.72 315.079 72.72V71.72ZM306.487 70.04L306.881 69.1209C304.324 68.0248 302.087 66.4431 300.165 64.3684L299.431 65.048L298.698 65.7276C300.808 68.0049 303.275 69.7512 306.094 70.9591L306.487 70.04ZM299.431 65.048L300.165 64.3684C298.248 62.2987 296.711 59.7576 295.567 56.7268L294.632 57.08L293.696 57.4332C294.92 60.6744 296.583 63.4454 298.698 65.7276L299.431 65.048ZM294.632 57.08L295.571 56.7383C294.466 53.6989 293.904 50.2177 293.904 46.28H292.904H291.904C291.904 50.4063 292.493 54.1251 293.692 57.4217L294.632 57.08ZM292.904 46.28H293.904C293.904 42.7591 294.402 39.5231 295.388 36.5642L294.44 36.248L293.491 35.9318C292.429 39.1169 291.904 42.5689 291.904 46.28H292.904ZM294.44 36.248L295.386 36.5701C296.402 33.5829 297.873 31.0317 299.791 28.901L299.047 28.232L298.304 27.563C296.19 29.9123 294.589 32.7051 293.493 35.9259L294.44 36.248ZM299.047 28.232L299.796 28.8957C301.708 26.7408 304.08 25.0485 306.931 23.8226L306.535 22.904L306.14 21.9854C303.039 23.3195 300.419 25.1792 298.299 27.5683L299.047 28.232ZM306.535 22.904L306.931 23.8226C309.76 22.6057 313.045 21.984 316.807 21.984V20.984V19.984C312.826 19.984 309.263 20.6423 306.14 21.9854L306.535 22.904ZM316.807 20.984V21.984C320.382 21.984 323.458 22.5591 326.06 23.6786L326.456 22.76L326.851 21.8414C323.949 20.5929 320.593 19.984 316.807 19.984V20.984ZM326.456 22.76L326.064 23.6802C328.726 24.8125 331.116 26.4347 333.236 28.5551L333.944 27.848L334.651 27.1409C332.355 24.8452 329.753 23.0755 326.847 21.8398L326.456 22.76ZM333.944 27.848L333.133 27.2625L330.013 31.5825L330.824 32.168L331.634 32.7535L334.754 28.4335L333.944 27.848ZM372.74 40.712V41.712H373.74V40.712H372.74ZM372.068 36.392L371.111 36.6814L371.115 36.6949L371.12 36.7082L372.068 36.392ZM366.836 30.392L366.416 31.2993L366.429 31.3054L366.442 31.3111L366.836 30.392ZM354.116 32.408L353.415 31.6951L353.409 31.7009L354.116 32.408ZM350.372 40.712L349.384 40.5619L349.209 41.712H350.372V40.712ZM350.132 47.864V46.864H349.053L349.135 47.9397L350.132 47.864ZM351.476 54.44L350.541 54.7947L350.543 54.8001L351.476 54.44ZM354.26 59L353.534 59.6878L353.544 59.6974L354.26 59ZM358.34 61.688L357.979 62.6204L357.99 62.6248L358.002 62.6289L358.34 61.688ZM368.564 61.88L368.261 60.9271L368.255 60.9291L368.564 61.88ZM372.212 60.392L371.754 59.503L371.743 59.5089L372.212 60.392ZM374.948 58.904L374.46 58.0315L374.452 58.0358L374.444 58.0402L374.948 58.904ZM379.46 59.336L378.623 59.8823L378.647 59.92L378.675 59.9554L379.46 59.336ZM382.868 63.656L383.629 64.3055L384.162 63.6812L383.653 63.0366L382.868 63.656ZM378.452 67.544L378.984 68.3911L378.996 68.3836L378.452 67.544ZM373.316 70.04L373.643 70.9852L373.653 70.9817L373.316 70.04ZM367.892 71.336L367.756 70.3454L367.753 70.3457L367.892 71.336ZM353.012 70.04L352.648 70.9713L352.657 70.9746L353.012 70.04ZM345.332 65L344.615 65.6968L344.62 65.7019L345.332 65ZM340.196 56.744L339.261 57.0981L339.262 57.1011L340.196 56.744ZM339.956 35.864L340.894 36.2107L340.895 36.2074L339.956 35.864ZM344.612 28.136L343.879 27.456L343.879 27.4564L344.612 28.136ZM352.052 22.904L351.654 21.9869L351.65 21.9885L352.052 22.904ZM377.348 26.84L376.635 27.5412L376.641 27.5471L377.348 26.84ZM381.764 33.848L380.829 34.2027L380.834 34.2157L381.764 33.848ZM382.82 46.952L383.666 47.486L383.672 47.4763L383.678 47.4665L382.82 46.952ZM372.74 40.712H373.74C373.74 39.0776 373.502 37.53 373.017 36.0758L372.068 36.392L371.12 36.7082C371.531 37.942 371.74 39.2744 371.74 40.712H372.74ZM372.068 36.392L373.025 36.1026C372.573 34.6058 371.871 33.2827 370.913 32.1471L370.148 32.792L369.384 33.4369C370.154 34.3493 370.732 35.4262 371.111 36.6814L372.068 36.392ZM370.148 32.792L370.913 32.1471C369.939 30.9935 368.704 30.1045 367.23 29.4729L366.836 30.392L366.442 31.3111C367.657 31.8315 368.629 32.5425 369.384 33.4369L370.148 32.792ZM366.836 30.392L367.257 29.4847C365.788 28.8038 364.103 28.48 362.228 28.48V29.48V30.48C363.874 30.48 365.261 30.7642 366.416 31.2993L366.836 30.392ZM362.228 29.48V28.48C358.606 28.48 355.627 29.5187 353.415 31.6952L354.116 32.408L354.818 33.1208C356.573 31.3933 359.003 30.48 362.228 30.48V29.48ZM354.116 32.408L353.409 31.7009C351.265 33.8449 349.95 36.8328 349.384 40.5619L350.372 40.712L351.361 40.8621C351.883 37.4232 353.063 34.8751 354.823 33.1151L354.116 32.408ZM350.372 40.712V41.712H372.74V40.712V39.712H350.372V40.712ZM350.132 47.864L349.135 47.9397C349.332 50.5382 349.795 52.8283 350.541 54.7947L351.476 54.44L352.411 54.0853C351.749 52.3396 351.316 50.2458 351.129 47.7883L350.132 47.864ZM351.476 54.44L350.543 54.8001C351.287 56.7257 352.279 58.3626 353.534 59.6877L354.26 59L354.986 58.3123C353.938 57.2054 353.074 55.8023 352.409 54.0799L351.476 54.44ZM354.26 59L353.544 59.6974C354.798 60.9862 356.279 61.9614 357.979 62.6204L358.34 61.688L358.702 60.7556C357.265 60.1986 356.027 59.3818 354.977 58.3026L354.26 59ZM358.34 61.688L358.002 62.6289C359.723 63.2487 361.6 63.552 363.62 63.552V62.552V61.552C361.801 61.552 360.157 61.2793 358.679 60.7471L358.34 61.688ZM363.62 62.552V63.552C365.613 63.552 367.371 63.3201 368.874 62.8309L368.564 61.88L368.255 60.9291C367.005 61.3359 365.467 61.552 363.62 61.552V62.552ZM368.564 61.88L368.867 62.8329C370.318 62.3714 371.592 61.8538 372.681 61.2751L372.212 60.392L371.743 59.5089C370.784 60.0182 369.626 60.4926 368.261 60.9271L368.564 61.88ZM372.212 60.392L372.67 61.281C373.737 60.7314 374.665 60.2269 375.452 59.7678L374.948 58.904L374.444 58.0402C373.695 58.4771 372.8 58.9646 371.754 59.503L372.212 60.392ZM374.948 58.904L375.437 59.7765C376.124 59.3918 376.725 59.232 377.252 59.232V58.232V57.232C376.308 57.232 375.373 57.5202 374.46 58.0315L374.948 58.904ZM377.252 58.232V59.232C377.958 59.232 378.354 59.4697 378.623 59.8823L379.46 59.336L380.298 58.7897C379.607 57.7303 378.531 57.232 377.252 57.232V58.232ZM379.46 59.336L378.675 59.9554L382.083 64.2754L382.868 63.656L383.653 63.0366L380.245 58.7166L379.46 59.336ZM382.868 63.656L382.108 63.0065C380.856 64.4719 379.457 65.703 377.909 66.7044L378.452 67.544L378.996 68.3836C380.712 67.273 382.256 65.9121 383.629 64.3055L382.868 63.656ZM378.452 67.544L377.921 66.6969C376.349 67.6829 374.703 68.483 372.98 69.0983L373.316 70.04L373.653 70.9817C375.514 70.317 377.291 69.4531 378.984 68.3911L378.452 67.544ZM373.316 70.04L372.99 69.0948C371.292 69.6814 369.547 70.0982 367.756 70.3454L367.892 71.336L368.029 72.3266C369.949 72.0618 371.821 71.6146 373.643 70.9852L373.316 70.04ZM367.892 71.336L367.753 70.3457C365.972 70.5957 364.243 70.72 362.564 70.72V71.72V72.72C364.342 72.72 366.164 72.5883 368.031 72.3263L367.892 71.336ZM362.564 71.72V70.72C359.251 70.72 356.189 70.1785 353.368 69.1054L353.012 70.04L352.657 70.9746C355.724 72.1415 359.029 72.72 362.564 72.72V71.72ZM353.012 70.04L353.377 69.1088C350.561 68.0069 348.12 66.404 346.044 64.2981L345.332 65L344.62 65.7019C346.897 68.012 349.576 69.7691 352.648 70.9712L353.012 70.04ZM345.332 65L346.05 64.3032C343.979 62.1715 342.336 59.5392 341.13 56.3869L340.196 56.744L339.262 57.1011C340.553 60.4768 342.334 63.3485 344.615 65.6968L345.332 65ZM340.196 56.744L341.131 56.3899C339.935 53.2294 339.324 49.5454 339.324 45.32H338.324H337.324C337.324 49.7346 337.962 53.6666 339.261 57.0981L340.196 56.744ZM338.324 45.32H339.324C339.324 42.0699 339.85 39.0361 340.894 36.2106L339.956 35.864L339.018 35.5173C337.886 38.5799 337.324 41.8501 337.324 45.32H338.324ZM339.956 35.864L340.895 36.2074C341.941 33.3474 343.426 30.8878 345.346 28.8156L344.612 28.136L343.879 27.4564C341.766 29.7362 340.147 32.4286 339.017 35.5206L339.956 35.864ZM344.612 28.136L345.345 28.816C347.295 26.7139 349.661 25.0476 352.455 23.8195L352.052 22.904L351.65 21.9885C348.62 23.3204 346.025 25.1421 343.879 27.456L344.612 28.136ZM352.052 22.904L352.451 23.8211C355.252 22.6032 358.425 21.984 361.988 21.984V20.984V19.984C358.191 19.984 354.74 20.6448 351.654 21.9869L352.052 22.904ZM361.988 20.984V21.984C364.984 21.984 367.727 22.4624 370.227 23.4074L370.58 22.472L370.934 21.5366C368.185 20.4976 365.2 19.984 361.988 19.984V20.984ZM370.58 22.472L370.227 23.4074C372.721 24.3504 374.853 25.7286 376.635 27.5411L377.348 26.84L378.061 26.1389C376.068 24.1114 373.687 22.5776 370.934 21.5366L370.58 22.472ZM377.348 26.84L376.641 27.5471C378.418 29.3241 379.818 31.5356 380.829 34.2027L381.764 33.848L382.699 33.4933C381.599 30.5924 380.054 28.1319 378.055 26.1329L377.348 26.84ZM381.764 33.848L380.834 34.2157C381.868 36.8297 382.396 39.8533 382.396 43.304H383.396H384.396C384.396 39.6507 383.837 36.3703 382.694 33.4803L381.764 33.848ZM383.396 43.304H382.396C382.396 44.169 382.35 44.8651 382.264 45.404C382.177 45.9569 382.06 46.2762 381.963 46.4375L382.82 46.952L383.678 47.4665C383.965 46.9878 384.135 46.3791 384.24 45.716C384.347 45.0389 384.396 44.2309 384.396 43.304H383.396ZM382.82 46.952L381.975 46.418C381.856 46.6066 381.545 46.864 380.612 46.864V47.864V48.864C381.856 48.864 383.017 48.5134 383.666 47.486L382.82 46.952ZM380.612 47.864V46.864H350.132V47.864V48.864H380.612V47.864ZM422.341 31.352L421.495 30.8194L421.493 30.822L422.341 31.352ZM421.333 32.456L421.812 33.3339L421.842 33.3178L421.87 33.2997L421.333 32.456ZM418.117 32.264L417.67 33.1584L417.679 33.1627L417.688 33.1669L418.117 32.264ZM415.862 31.208L415.428 32.109L415.441 32.1156L415.455 32.1218L415.862 31.208ZM412.885 30.104L412.603 31.0634L412.611 31.0655L412.885 30.104ZM403.478 31.112L402.884 30.3074L402.874 30.3143L403.478 31.112ZM402.517 37.688L401.779 38.3623L401.794 38.379L401.81 38.3951L402.517 37.688ZM405.254 39.56L404.817 40.4596L404.827 40.4642L405.254 39.56ZM409.142 41.048L408.844 42.0029L408.854 42.0059L408.864 42.0087L409.142 41.048ZM413.509 42.44L413.181 43.3845L413.187 43.3867L413.509 42.44ZM417.926 44.216L417.503 45.1222L417.511 45.1261L417.519 45.1298L417.926 44.216ZM421.766 46.712L421.091 47.45L421.102 47.4601L421.113 47.4698L421.766 46.712ZM424.501 50.312L423.599 50.7427L423.603 50.751L423.607 50.7592L424.501 50.312ZM424.262 61.976L423.342 61.5821L423.339 61.5893L424.262 61.976ZM420.518 67.16L421.172 67.9162L421.18 67.909L420.518 67.16ZM414.326 70.568L414.638 71.518L414.645 71.5154L414.326 70.568ZM400.885 71.288L401.078 70.3067L401.07 70.3052L401.063 70.3038L400.885 71.288ZM396.229 70.04L395.883 70.978L395.889 70.9804L396.229 70.04ZM392.102 68.12L391.593 68.9814L391.603 68.9869L392.102 68.12ZM388.789 65.72L387.934 65.2015L387.505 65.9094L388.121 66.4633L388.789 65.72ZM391.526 61.208L390.686 60.6647L390.678 60.677L390.67 60.6895L391.526 61.208ZM392.773 59.96L393.288 60.8175L392.773 59.96ZM396.661 60.152L396.117 60.9904L396.126 60.9965L396.135 61.0023L396.661 60.152ZM398.966 61.496L398.48 62.3702L398.966 61.496ZM401.99 62.84L401.65 63.7806L401.658 63.7835L401.99 62.84ZM410.053 62.984L410.361 63.9357L410.37 63.9328L410.379 63.9297L410.053 62.984ZM412.549 61.64L411.92 60.8628L411.911 60.8703L411.902 60.8781L412.549 61.64ZM413.99 59.768L413.072 59.3693L413.068 59.3793L413.064 59.3894L413.99 59.768ZM413.414 54.68L412.675 55.3543L412.683 55.3628L412.691 55.3712L413.414 54.68ZM410.677 52.76L410.241 53.6596L410.25 53.6642L410.677 52.76ZM406.789 51.32L406.492 52.2749L406.505 52.2787L406.518 52.2823L406.789 51.32ZM402.326 49.88L402.003 50.8267L402.009 50.8287L402.326 49.88ZM397.862 48.104L397.422 49.0024L397.434 49.0082L397.446 49.0137L397.862 48.104ZM393.974 45.464L393.287 46.1917L393.298 46.2012L393.974 45.464ZM391.237 41.576L390.321 41.9768L390.325 41.9848L390.328 41.9927L391.237 41.576ZM391.43 30.248L390.514 29.8463L391.43 30.248ZM394.934 25.496L395.592 26.2486L395.593 26.2476L394.934 25.496ZM400.741 22.232L401.07 23.1767L401.077 23.174L400.741 22.232ZM418.069 22.664L418.443 21.7363L418.069 22.664ZM425.03 27.08L425.876 27.6126L426.305 26.9311L425.73 26.3668L425.03 27.08ZM422.341 31.352L421.493 30.822C421.22 31.2599 420.979 31.496 420.797 31.6123L421.333 32.456L421.87 33.2997C422.392 32.968 422.823 32.4681 423.19 31.882L422.341 31.352ZM421.333 32.456L420.855 31.5781C420.693 31.6665 420.423 31.744 419.99 31.744V32.744V33.744C420.644 33.744 421.27 33.6295 421.812 33.3339L421.333 32.456ZM419.99 32.744V31.744C419.599 31.744 419.123 31.6352 418.547 31.3611L418.117 32.264L417.688 33.1669C418.456 33.5328 419.228 33.744 419.99 33.744V32.744ZM418.117 32.264L418.565 31.3696C417.908 31.0411 417.141 30.6825 416.268 30.2942L415.862 31.208L415.455 32.1218C416.31 32.5015 417.047 32.8469 417.67 33.1584L418.117 32.264ZM415.862 31.208L416.295 30.307C415.371 29.8618 414.324 29.4749 413.16 29.1425L412.885 30.104L412.611 31.0655C413.687 31.3731 414.624 31.7222 415.428 32.109L415.862 31.208ZM412.885 30.104L413.168 29.1446C411.964 28.7905 410.568 28.624 408.997 28.624V29.624V30.624C410.435 30.624 411.631 30.7775 412.603 31.0634L412.885 30.104ZM408.997 29.624V28.624C406.531 28.624 404.456 29.1468 402.884 30.3074L403.478 31.112L404.071 31.9166C405.187 31.0932 406.792 30.624 408.997 30.624V29.624ZM403.478 31.112L402.874 30.3143C401.321 31.4891 400.509 33.0764 400.509 35H401.509H402.509C402.509 33.7235 403.01 32.7189 404.081 31.9097L403.478 31.112ZM401.509 35H400.509C400.509 36.2892 400.928 37.4303 401.779 38.3623L402.517 37.688L403.256 37.0137C402.763 36.4737 402.509 35.8228 402.509 35H401.509ZM402.517 37.688L401.81 38.3951C402.61 39.1947 403.62 39.8785 404.817 40.4595L405.254 39.56L405.69 38.6605C404.647 38.1535 403.833 37.5893 403.225 36.9809L402.517 37.688ZM405.254 39.56L404.827 40.4642C406.027 41.0313 407.368 41.5435 408.844 42.0029L409.142 41.048L409.439 40.0931C408.035 39.6565 406.784 39.1767 405.681 38.6558L405.254 39.56ZM409.142 41.048L408.864 42.0087C410.286 42.4196 411.725 42.8781 413.181 43.3845L413.509 42.44L413.838 41.4955C412.35 40.9779 410.877 40.5084 409.419 40.0873L409.142 41.048ZM413.509 42.44L413.187 43.3867C414.657 43.887 416.095 44.4655 417.503 45.1222L417.926 44.216L418.348 43.3098C416.876 42.6225 415.37 42.017 413.832 41.4933L413.509 42.44ZM417.926 44.216L417.519 45.1298C418.865 45.7278 420.053 46.5015 421.091 47.45L421.766 46.712L422.44 45.974C421.238 44.8745 419.866 43.9842 418.332 43.3022L417.926 44.216ZM421.766 46.712L421.113 47.4698C422.157 48.3689 422.985 49.4565 423.599 50.7427L424.501 50.312L425.404 49.8813C424.674 48.3515 423.678 47.0391 422.418 45.9542L421.766 46.712ZM424.501 50.312L423.607 50.7592C424.226 51.997 424.557 53.5319 424.557 55.4H425.557H426.557C426.557 53.3001 426.185 51.443 425.396 49.8648L424.501 50.312ZM425.557 55.4H424.557C424.557 57.6435 424.149 59.7002 423.342 61.5821L424.262 61.976L425.181 62.3699C426.102 60.2198 426.557 57.8925 426.557 55.4H425.557ZM424.262 61.976L423.339 61.5893C422.567 63.4299 421.41 65.0353 419.855 66.411L420.518 67.16L421.18 67.909C422.953 66.3407 424.292 64.4901 425.184 62.3627L424.262 61.976ZM420.518 67.16L419.863 66.4038C418.313 67.7451 416.369 68.8226 414.006 69.6206L414.326 70.568L414.645 71.5154C417.21 70.6494 419.394 69.4549 421.172 67.9162L420.518 67.16ZM414.326 70.568L414.013 69.6181C411.703 70.3778 408.997 70.768 405.878 70.768V71.768V72.768C409.158 72.768 412.084 72.3582 414.638 71.5179L414.326 70.568ZM405.878 71.768V70.768C404.245 70.768 402.645 70.614 401.078 70.3067L400.885 71.288L400.693 72.2693C402.39 72.602 404.118 72.768 405.878 72.768V71.768ZM400.885 71.288L401.063 70.3038C399.517 70.0256 398.02 69.6241 396.57 69.0996L396.229 70.04L395.889 70.9804C397.447 71.5439 399.054 71.9744 400.708 72.2722L400.885 71.288ZM396.229 70.04L396.576 69.102C395.153 68.5762 393.829 67.9595 392.6 67.2531L392.102 68.12L391.603 68.9869C392.934 69.7525 394.362 70.4158 395.883 70.978L396.229 70.04ZM392.102 68.12L392.609 67.2586C391.412 66.5525 390.363 65.7911 389.458 64.9767L388.789 65.72L388.121 66.4633C389.136 67.3769 390.295 68.2155 391.594 68.9814L392.102 68.12ZM388.789 65.72L389.645 66.2385L392.381 61.7265L391.526 61.208L390.67 60.6895L387.934 65.2015L388.789 65.72ZM391.526 61.208L392.365 61.7513C392.647 61.3153 392.958 61.0154 393.288 60.8175L392.773 59.96L392.259 59.1025C391.629 59.4806 391.108 60.0127 390.686 60.6647L391.526 61.208ZM392.773 59.96L393.288 60.8175C393.571 60.6477 393.987 60.528 394.598 60.528V59.528V58.528C393.736 58.528 392.936 58.6963 392.259 59.1025L392.773 59.96ZM394.598 59.528V60.528C395.133 60.528 395.632 60.6758 396.117 60.9904L396.661 60.152L397.206 59.3136C396.411 58.7962 395.534 58.528 394.598 58.528V59.528ZM396.661 60.152L396.135 61.0023C396.823 61.4283 397.605 61.8843 398.48 62.3702L398.966 61.496L399.451 60.6218C398.598 60.1477 397.844 59.7077 397.188 59.3017L396.661 60.152ZM398.966 61.496L398.48 62.3702C399.4 62.8814 400.459 63.3505 401.65 63.7806L401.99 62.84L402.329 61.8994C401.216 61.4975 400.259 61.0705 399.451 60.6218L398.966 61.496ZM401.99 62.84L401.658 63.7835C402.983 64.2492 404.593 64.464 406.453 64.464V63.464V62.464C404.73 62.464 403.363 62.2628 402.321 61.8965L401.99 62.84ZM406.453 63.464V64.464C407.932 64.464 409.241 64.2967 410.361 63.9357L410.053 62.984L409.746 62.0323C408.882 62.3113 407.791 62.464 406.453 62.464V63.464ZM410.053 62.984L410.379 63.9297C411.488 63.5483 412.439 63.0464 413.197 62.4019L412.549 61.64L411.902 60.8781C411.38 61.3216 410.667 61.7157 409.728 62.0383L410.053 62.984ZM412.549 61.64L413.179 62.4172C413.963 61.7821 414.555 61.0265 414.915 60.1466L413.99 59.768L413.064 59.3894C412.848 59.9175 412.48 60.4099 411.92 60.8628L412.549 61.64ZM413.99 59.768L414.907 60.1667C415.279 59.3107 415.47 58.4234 415.47 57.512H414.47H413.47C413.47 58.1366 413.34 58.7533 413.072 59.3693L413.99 59.768ZM414.47 57.512H415.47C415.47 56.139 415.042 54.9357 414.136 53.9888L413.414 54.68L412.691 55.3712C413.193 55.8963 413.47 56.581 413.47 57.512H414.47ZM413.414 54.68L414.152 54.0057C413.371 53.1508 412.343 52.4406 411.104 51.8558L410.677 52.76L410.25 53.6642C411.316 54.1674 412.112 54.7372 412.675 55.3543L413.414 54.68ZM410.677 52.76L411.114 51.8605C409.931 51.2857 408.578 50.7862 407.061 50.3577L406.789 51.32L406.518 52.2823C407.945 52.6858 409.184 53.1463 410.241 53.6595L410.677 52.76ZM406.789 51.32L407.087 50.3651C405.653 49.9193 404.172 49.4413 402.642 48.9313L402.326 49.88L402.009 50.8287C403.551 51.3427 405.046 51.8247 406.492 52.2749L406.789 51.32ZM402.326 49.88L402.648 48.9333C401.176 48.4323 399.719 47.8527 398.277 47.1943L397.862 48.104L397.446 49.0137C398.948 49.6993 400.467 50.3037 402.003 50.8266L402.326 49.88ZM397.862 48.104L398.301 47.2056C396.945 46.5426 395.729 45.7164 394.649 44.7268L393.974 45.464L393.298 46.2012C394.522 47.3236 395.898 48.2574 397.422 49.0024L397.862 48.104ZM393.974 45.464L394.66 44.7364C393.642 43.777 392.802 42.5898 392.147 41.1593L391.237 41.576L390.328 41.9927C391.081 43.6342 392.065 45.039 393.287 46.1916L393.974 45.464ZM391.237 41.576L392.154 41.1752C391.551 39.7972 391.229 38.0854 391.229 36.008H390.229H389.229C389.229 38.2826 389.58 40.2828 390.321 41.9768L391.237 41.576ZM390.229 36.008H391.229C391.229 34.1285 391.602 32.3455 392.345 30.6497L391.43 30.248L390.514 29.8463C389.657 31.7985 389.229 33.8555 389.229 36.008H390.229ZM391.43 30.248L392.345 30.6497C393.085 28.9635 394.164 27.4984 395.592 26.2486L394.934 25.496L394.275 24.7434C392.631 26.1816 391.374 27.8845 390.514 29.8463L391.43 30.248ZM394.934 25.496L395.593 26.2476C397.049 24.9699 398.867 23.9414 401.07 23.1767L400.741 22.232L400.413 21.2873C398.008 22.1226 395.954 23.2701 394.274 24.7444L394.934 25.496ZM400.741 22.232L401.077 23.174C403.284 22.3879 405.855 21.984 408.806 21.984V20.984V19.984C405.676 19.984 402.871 20.412 400.406 21.29L400.741 22.232ZM408.806 20.984V21.984C412.086 21.984 415.045 22.5253 417.696 23.5917L418.069 22.664L418.443 21.7363C415.526 20.5627 412.309 19.984 408.806 19.984V20.984ZM418.069 22.664L417.696 23.5917C420.377 24.67 422.58 26.0747 424.329 27.7932L425.03 27.08L425.73 26.3668C423.767 24.4373 421.33 22.898 418.443 21.7363L418.069 22.664ZM425.03 27.08L424.183 26.5474L421.495 30.8194L422.341 31.352L423.188 31.8846L425.876 27.6126L425.03 27.08Z" fill="white" mask="url(#path-1-outside-1_42_978)"/>
</svg>
