<svg width="113" height="113" viewBox="0 0 113 113" fill="none" xmlns="http://www.w3.org/2000/svg">
<mask id="mask0_32_709" style="mask-type:luminance" maskUnits="userSpaceOnUse" x="8" y="17" width="97" height="79">
<path d="M103.583 25.8958C103.583 24.0227 102.839 22.2263 101.515 20.9018C100.19 19.5773 98.3939 18.8333 96.5208 18.8333H16.4792C14.6061 18.8333 12.8097 19.5773 11.4852 20.9018C10.1607 22.2263 9.41666 24.0227 9.41666 25.8958V47.0833H103.583V25.8958Z" fill="white" stroke="white" stroke-width="2" stroke-linecap="round" stroke-linejoin="round"/>
<path d="M9.68033 91.883L38.3447 62.9268L53.8351 77.758L72.7673 61.2083L83.3139 71.4913" stroke="white" stroke-width="2" stroke-linecap="round" stroke-linejoin="round"/>
<path d="M103.583 42.375V87.1042C103.583 88.9773 102.839 90.7736 101.515 92.0981C100.19 93.4226 98.3939 94.1667 96.5208 94.1667H28.25" stroke="white" stroke-width="2" stroke-linecap="round" stroke-linejoin="round"/>
<path d="M44.9928 32.9583H87.3678M26.1548 32.9583H30.8631" stroke="black" stroke-width="2" stroke-linecap="round" stroke-linejoin="round"/>
<path d="M9.41666 42.375V63.5625" stroke="white" stroke-width="2" stroke-linecap="round" stroke-linejoin="round"/>
</mask>
<g mask="url(#mask0_32_709)">
<path d="M0 0H113V113H0V0Z" fill="white"/>
</g>
</svg>
