<svg width="96" height="96" viewBox="0 0 96 96" fill="none" xmlns="http://www.w3.org/2000/svg">
<g clip-path="url(#clip0_32_695)">
<path d="M93.32 50.6V54.6C93.3389 55.5358 93.029 56.4486 92.4443 57.1794C91.8596 57.9103 91.0371 58.413 90.12 58.6L85.16 59.6C84.2155 63.5807 82.6207 67.3784 80.44 70.84L83.28 75.08C83.7629 75.8353 83.978 76.7308 83.891 77.623C83.804 78.5152 83.4197 79.3523 82.8 80L77.32 85.48C76.6642 86.129 75.8041 86.5314 74.8856 86.6188C73.9671 86.7063 73.0466 86.4736 72.28 85.96L68 83.08C64.5637 85.3268 60.7793 86.9893 56.8 88L56 92.76C55.813 93.6771 55.3103 94.4996 54.5794 95.0843C53.8486 95.669 52.9358 95.9789 52 95.96H44C43.0642 95.9789 42.1514 95.669 41.4206 95.0843C40.6897 94.4996 40.187 93.6771 40 92.76L39.2 88C35.2207 86.9893 31.4363 85.3268 28 83.08L23.76 85.92C22.9934 86.4336 22.0729 86.6663 21.1544 86.5788C20.2359 86.4914 19.3758 86.089 18.72 85.44L13.2 80C12.551 79.3442 12.1486 78.4841 12.0612 77.5656C11.9737 76.6471 12.2064 75.7266 12.72 74.96L15.56 70.72C13.3793 67.2584 11.7845 63.4607 10.84 59.48L5.88 58.48C4.9629 58.293 4.14041 57.7903 3.55571 57.0594C2.97101 56.3286 2.66113 55.4158 2.68 54.48V50.48H28.92C28.92 55.5403 30.9302 60.3934 34.5084 63.9716C38.0866 67.5498 42.9397 69.56 48 69.56C53.0603 69.56 57.9134 67.5498 61.4916 63.9716C65.0698 60.3934 67.08 55.5403 67.08 50.48L93.32 50.6ZM68.68 15.24C68.68 17.7012 69.6577 20.0616 71.398 21.802C73.1384 23.5423 75.4988 24.52 77.96 24.52C80.4212 24.52 82.7816 23.5423 84.5219 21.802C86.2623 20.0616 87.24 17.7012 87.24 15.24C87.24 12.7788 86.2623 10.4184 84.5219 8.67805C82.7816 6.93771 80.4212 5.96 77.96 5.96C75.4988 5.96 73.1384 6.93771 71.398 8.67805C69.6577 10.4184 68.68 12.7788 68.68 15.24ZM8.8 15.24C8.8 17.7012 9.77771 20.0616 11.518 21.802C13.2584 23.5423 15.6188 24.52 18.08 24.52C20.5412 24.52 22.9016 23.5423 24.642 21.802C26.3823 20.0616 27.36 17.7012 27.36 15.24C27.36 12.7788 26.3823 10.4184 24.642 8.67805C22.9016 6.93771 20.5412 5.96 18.08 5.96C15.6188 5.96 13.2584 6.93771 11.518 8.67805C9.77771 10.4184 8.8 12.7788 8.8 15.24ZM27.2 35.2C25.7648 34.2873 24.2189 33.5615 22.6 33.04C18.3116 31.8349 13.7411 32.1202 9.63591 33.8495C5.5307 35.5788 2.13359 38.6496 0 42.56H22.92C24.1054 39.9741 25.5388 37.5092 27.2 35.2ZM72.72 42.68H96C93.8772 38.7468 90.4789 35.6533 86.364 33.9085C82.2492 32.1637 77.663 31.8715 73.36 33.08C71.7114 33.6077 70.1382 34.3472 68.68 35.28C70.2504 37.6178 71.6027 40.0949 72.72 42.68ZM68.28 42.68C66.6829 38.5329 63.9167 34.9385 60.3169 32.3327C56.7171 29.7269 52.4384 28.2218 48 28C43.5249 28.1971 39.2043 29.6945 35.567 32.3088C31.9296 34.9232 29.1332 38.5412 27.52 42.72L68.28 42.68ZM35.96 11.64C35.96 14.7271 37.1864 17.6878 39.3693 19.8707C41.5522 22.0536 44.5129 23.28 47.6 23.28C50.6871 23.28 53.6478 22.0536 55.8307 19.8707C58.0136 17.6878 59.24 14.7271 59.24 11.64C59.24 8.55288 58.0136 5.5922 55.8307 3.40928C53.6478 1.22635 50.6871 0 47.6 0C44.5129 0 41.5522 1.22635 39.3693 3.40928C37.1864 5.5922 35.96 8.55288 35.96 11.64Z" fill="white"/>
</g>
<defs>
<clipPath id="clip0_32_695">
<rect width="96" height="96" fill="white"/>
</clipPath>
</defs>
</svg>
