<svg width="81" height="81" viewBox="0 0 81 81" fill="none" xmlns="http://www.w3.org/2000/svg">
<g clip-path="url(#clip0_32_692)">
<path fill-rule="evenodd" clip-rule="evenodd" d="M29.2121 1.59674C21.384 3.87704 14.425 8.46373 9.24293 14.7584C4.06082 21.0531 0.896215 28.7636 0.161987 36.8838H18.6763C19.7555 24.527 23.3382 12.519 29.2063 1.59096M18.6763 44.116H0.161987C0.894687 52.2365 4.05794 59.9477 9.23903 66.2434C14.4201 72.5392 21.3785 77.1272 29.2063 79.4088C23.3382 68.4808 19.7555 56.4728 18.6763 44.116ZM38.4866 80.9536C31.4718 69.8283 27.1711 57.2096 25.9316 44.116H55.0626C53.8231 57.2096 49.5223 69.8283 42.5076 80.9536C41.1681 81.0202 39.8261 81.0202 38.4866 80.9536ZM51.7937 79.403C59.6206 77.1217 66.5784 72.5346 71.7594 66.24C76.9404 59.9454 80.1042 52.2355 80.838 44.116H62.3237C61.2445 56.4728 57.6618 68.4808 51.7937 79.4088M62.3237 36.8896H80.838C80.1053 28.7691 76.942 21.0579 71.7609 14.7621C66.5799 8.46637 59.6215 3.87838 51.7937 1.59674C57.6618 12.5248 61.2445 24.5327 62.3237 36.8896ZM38.4866 0.0461728C39.828 -0.0205993 41.172 -0.0205993 42.5134 0.0461728C49.5261 11.172 53.8248 23.7907 55.0626 36.8838H25.9373C27.1928 23.7097 31.5032 11.0795 38.4866 0.0461728Z" fill="#FFD74B"/>
</g>
<defs>
<clipPath id="clip0_32_692">
<rect width="81" height="81" fill="white"/>
</clipPath>
</defs>
</svg>
