<svg width="78" height="78" viewBox="0 0 78 78" fill="none" xmlns="http://www.w3.org/2000/svg">
<path d="M39 58.5V53.625H43.875V58.5H39Z" fill="white"/>
<path d="M43.875 68.25V63.375H39V68.25H9.75V4.875H4.875V68.25C4.875 69.5429 5.38861 70.7829 6.30285 71.6971C7.21709 72.6114 8.45707 73.125 9.75 73.125H73.125V68.25H43.875Z" fill="white"/>
<path d="M63.5042 47.9676C62.9655 49.5428 61.9701 50.922 60.6449 51.9295C59.3196 52.937 57.7244 53.5273 56.0625 53.625C50.7731 53.625 47.9919 45.5008 45.045 36.8989C44.1772 34.3663 43.2802 31.7558 42.2711 29.25H43.875V24.375H40.0286C37.0792 18.8053 33.1061 14.625 26.8125 14.625C17.8474 14.625 14.8736 23.2367 14.7493 23.6047L19.3708 25.1574C19.9095 23.5822 20.9048 22.203 22.2301 21.1955C23.5554 20.188 25.1506 19.5977 26.8125 19.5C33.93 19.5 37.2352 29.1476 40.4308 38.4784C41.0524 40.287 41.6739 42.1102 42.3369 43.875H39V48.75H44.3674C47.0072 54.3294 50.4514 58.5 56.0625 58.5C65.0276 58.5 68.0014 49.8883 68.1257 49.5202L63.5042 47.9676ZM39 19.5V14.625H43.875V19.5H39ZM39 9.75V4.875H43.875V9.75H39Z" fill="white"/>
</svg>
