<svg width="91" height="73" viewBox="0 0 91 73" fill="none" xmlns="http://www.w3.org/2000/svg">
<path d="M81.75 18.1667L45.4167 40.875L9.08333 18.1667V9.08333L45.4167 31.7917L81.75 9.08333M81.75 0H9.08333C4.04208 0 0 4.04208 0 9.08333V63.5833C0 65.9924 0.956991 68.3028 2.66045 70.0062C4.3639 71.7097 6.67428 72.6667 9.08333 72.6667H81.75C84.1591 72.6667 86.4694 71.7097 88.1729 70.0062C89.8763 68.3028 90.8333 65.9924 90.8333 63.5833V9.08333C90.8333 6.67428 89.8763 4.3639 88.1729 2.66045C86.4694 0.956991 84.1591 0 81.75 0Z" fill="white"/>
</svg>
