<svg width="352" height="75" viewBox="0 0 352 75" fill="none" xmlns="http://www.w3.org/2000/svg">
<mask id="path-1-outside-1_42_768" maskUnits="userSpaceOnUse" x="0" y="0" width="352" height="75" fill="black">
<rect fill="white" width="352" height="75"/>
<path d="M44.688 16.216C44.304 16.888 43.888 17.384 43.44 17.704C43.024 17.992 42.496 18.136 41.856 18.136C41.184 18.136 40.448 17.896 39.648 17.416C38.88 16.904 37.952 16.344 36.864 15.736C35.776 15.128 34.496 14.584 33.024 14.104C31.584 13.592 29.872 13.336 27.888 13.336C26.096 13.336 24.528 13.56 23.184 14.008C21.84 14.424 20.704 15.016 19.776 15.784C18.88 16.552 18.208 17.48 17.76 18.568C17.312 19.624 17.088 20.792 17.088 22.072C17.088 23.704 17.536 25.064 18.432 26.152C19.36 27.24 20.576 28.168 22.08 28.936C23.584 29.704 25.296 30.392 27.216 31C29.136 31.608 31.104 32.264 33.12 32.968C35.136 33.64 37.104 34.44 39.024 35.368C40.944 36.264 42.656 37.416 44.16 38.824C45.664 40.2 46.864 41.896 47.76 43.912C48.688 45.928 49.152 48.376 49.152 51.256C49.152 54.392 48.608 57.336 47.52 60.088C46.464 62.808 44.896 65.192 42.816 67.24C40.768 69.256 38.256 70.856 35.28 72.04C32.304 73.192 28.896 73.768 25.056 73.768C22.848 73.768 20.672 73.544 18.528 73.096C16.384 72.68 14.32 72.072 12.336 71.272C10.384 70.472 8.544 69.512 6.816 68.392C5.088 67.272 3.552 66.024 2.208 64.648L6 58.456C6.32 58.008 6.736 57.64 7.248 57.352C7.76 57.032 8.304 56.872 8.88 56.872C9.68 56.872 10.544 57.208 11.472 57.88C12.4 58.52 13.504 59.24 14.784 60.04C16.064 60.84 17.552 61.576 19.248 62.248C20.976 62.888 23.04 63.208 25.44 63.208C29.12 63.208 31.968 62.344 33.984 60.616C36 58.856 37.008 56.344 37.008 53.08C37.008 51.256 36.544 49.768 35.616 48.616C34.72 47.464 33.52 46.504 32.016 45.736C30.512 44.936 28.8 44.264 26.88 43.72C24.96 43.176 23.008 42.584 21.024 41.944C19.04 41.304 17.088 40.536 15.168 39.64C13.248 38.744 11.536 37.576 10.032 36.136C8.528 34.696 7.312 32.904 6.384 30.76C5.488 28.584 5.04 25.912 5.04 22.744C5.04 20.216 5.536 17.752 6.528 15.352C7.552 12.952 9.024 10.824 10.944 8.96799C12.864 7.112 15.232 5.624 18.048 4.504C20.864 3.384 24.096 2.824 27.744 2.824C31.84 2.824 35.616 3.464 39.072 4.744C42.528 6.024 45.472 7.816 47.904 10.12L44.688 16.216ZM90.084 42.712C90.084 41.176 89.86 39.736 89.412 38.392C88.996 37.016 88.356 35.816 87.492 34.792C86.628 33.768 85.524 32.968 84.18 32.392C82.868 31.784 81.332 31.48 79.572 31.48C76.148 31.48 73.444 32.456 71.46 34.408C69.508 36.36 68.26 39.128 67.716 42.712H90.084ZM67.476 49.864C67.668 52.392 68.116 54.584 68.82 56.44C69.524 58.264 70.452 59.784 71.604 61C72.756 62.184 74.116 63.08 75.684 63.688C77.284 64.264 79.044 64.552 80.964 64.552C82.884 64.552 84.532 64.328 85.908 63.88C87.316 63.432 88.532 62.936 89.556 62.392C90.612 61.848 91.524 61.352 92.292 60.904C93.092 60.456 93.86 60.232 94.596 60.232C95.588 60.232 96.324 60.6 96.804 61.336L100.212 65.656C98.9 67.192 97.428 68.488 95.796 69.544C94.164 70.568 92.452 71.4 90.66 72.04C88.9 72.648 87.092 73.08 85.236 73.336C83.412 73.592 81.636 73.72 79.908 73.72C76.484 73.72 73.3 73.16 70.356 72.04C67.412 70.888 64.852 69.208 62.676 67C60.5 64.76 58.788 62.008 57.54 58.744C56.292 55.448 55.668 51.64 55.668 47.32C55.668 43.96 56.212 40.808 57.3 37.864C58.388 34.888 59.94 32.312 61.956 30.136C64.004 27.928 66.484 26.184 69.396 24.904C72.34 23.624 75.652 22.984 79.332 22.984C82.436 22.984 85.3 23.48 87.924 24.472C90.548 25.464 92.804 26.92 94.692 28.84C96.58 30.728 98.052 33.064 99.108 35.848C100.196 38.6 100.74 41.752 100.74 45.304C100.74 47.096 100.548 48.312 100.164 48.952C99.78 49.56 99.044 49.864 97.956 49.864H67.476ZM120.821 32.296C122.357 29.352 124.181 27.048 126.293 25.384C128.405 23.688 130.901 22.84 133.781 22.84C136.053 22.84 137.877 23.336 139.253 24.328L138.485 33.208C138.325 33.784 138.085 34.2 137.765 34.456C137.477 34.68 137.077 34.792 136.565 34.792C136.085 34.792 135.365 34.712 134.405 34.552C133.477 34.392 132.565 34.312 131.669 34.312C130.357 34.312 129.189 34.504 128.165 34.888C127.141 35.272 126.213 35.832 125.381 36.568C124.581 37.272 123.861 38.136 123.221 39.16C122.613 40.184 122.037 41.352 121.493 42.664V73H109.637V23.752H116.597C117.813 23.752 118.661 23.976 119.141 24.424C119.621 24.84 119.941 25.608 120.101 26.728L120.821 32.296ZM189.85 23.752L170.314 73H159.562L140.026 23.752H149.818C150.714 23.752 151.45 23.96 152.026 24.376C152.634 24.792 153.034 25.32 153.226 25.96L162.73 52.264C163.242 53.8 163.69 55.304 164.074 56.776C164.458 58.248 164.794 59.72 165.082 61.192C165.402 59.72 165.754 58.248 166.138 56.776C166.522 55.304 166.986 53.8 167.53 52.264L177.226 25.96C177.45 25.32 177.85 24.792 178.426 24.376C179.002 23.96 179.69 23.752 180.49 23.752H189.85ZM208.457 23.752V73H196.553V23.752H208.457ZM210.089 9.4C210.089 10.424 209.881 11.384 209.465 12.28C209.049 13.176 208.489 13.96 207.785 14.632C207.113 15.304 206.313 15.848 205.385 16.264C204.457 16.648 203.465 16.84 202.409 16.84C201.385 16.84 200.409 16.648 199.481 16.264C198.585 15.848 197.801 15.304 197.129 14.632C196.457 13.96 195.913 13.176 195.497 12.28C195.113 11.384 194.921 10.424 194.921 9.4C194.921 8.344 195.113 7.352 195.497 6.424C195.913 5.496 196.457 4.696 197.129 4.024C197.801 3.352 198.585 2.824 199.481 2.44C200.409 2.024 201.385 1.816 202.409 1.816C203.465 1.816 204.457 2.024 205.385 2.44C206.313 2.824 207.113 3.352 207.785 4.024C208.489 4.696 209.049 5.496 209.465 6.424C209.881 7.352 210.089 8.344 210.089 9.4ZM255.824 34.168C255.472 34.616 255.12 34.968 254.768 35.224C254.448 35.48 253.968 35.608 253.328 35.608C252.72 35.608 252.128 35.432 251.552 35.08C250.976 34.696 250.288 34.28 249.488 33.832C248.688 33.352 247.728 32.936 246.608 32.584C245.52 32.2 244.16 32.008 242.528 32.008C240.448 32.008 238.624 32.392 237.056 33.16C235.488 33.896 234.176 34.968 233.12 36.376C232.096 37.784 231.328 39.496 230.816 41.512C230.304 43.496 230.048 45.752 230.048 48.28C230.048 50.904 230.32 53.24 230.864 55.288C231.44 57.336 232.256 59.064 233.312 60.472C234.368 61.848 235.648 62.904 237.152 63.64C238.656 64.344 240.352 64.696 242.24 64.696C244.128 64.696 245.648 64.472 246.8 64.024C247.984 63.544 248.976 63.032 249.776 62.488C250.576 61.912 251.264 61.4 251.84 60.952C252.448 60.472 253.12 60.232 253.856 60.232C254.816 60.232 255.536 60.6 256.016 61.336L259.424 65.656C258.112 67.192 256.688 68.488 255.152 69.544C253.616 70.568 252.016 71.4 250.352 72.04C248.72 72.648 247.024 73.08 245.264 73.336C243.536 73.592 241.808 73.72 240.08 73.72C237.04 73.72 234.176 73.16 231.488 72.04C228.8 70.888 226.448 69.224 224.432 67.048C222.416 64.872 220.816 62.216 219.632 59.08C218.48 55.912 217.904 52.312 217.904 48.28C217.904 44.664 218.416 41.32 219.44 38.248C220.496 35.144 222.032 32.472 224.048 30.232C226.064 27.96 228.56 26.184 231.536 24.904C234.512 23.624 237.936 22.984 241.807 22.984C245.488 22.984 248.704 23.576 251.456 24.76C254.24 25.944 256.736 27.64 258.944 29.848L255.824 34.168ZM297.74 42.712C297.74 41.176 297.516 39.736 297.068 38.392C296.652 37.016 296.012 35.816 295.148 34.792C294.284 33.768 293.18 32.968 291.836 32.392C290.524 31.784 288.988 31.48 287.228 31.48C283.804 31.48 281.1 32.456 279.116 34.408C277.164 36.36 275.916 39.128 275.372 42.712H297.74ZM275.132 49.864C275.324 52.392 275.772 54.584 276.476 56.44C277.18 58.264 278.108 59.784 279.26 61C280.412 62.184 281.772 63.08 283.34 63.688C284.94 64.264 286.7 64.552 288.62 64.552C290.54 64.552 292.188 64.328 293.564 63.88C294.972 63.432 296.188 62.936 297.212 62.392C298.268 61.848 299.18 61.352 299.948 60.904C300.748 60.456 301.516 60.232 302.252 60.232C303.244 60.232 303.98 60.6 304.46 61.336L307.868 65.656C306.556 67.192 305.084 68.488 303.452 69.544C301.82 70.568 300.108 71.4 298.316 72.04C296.556 72.648 294.748 73.08 292.892 73.336C291.068 73.592 289.292 73.72 287.564 73.72C284.14 73.72 280.956 73.16 278.012 72.04C275.068 70.888 272.508 69.208 270.332 67C268.156 64.76 266.444 62.008 265.196 58.744C263.948 55.448 263.324 51.64 263.324 47.32C263.324 43.96 263.868 40.808 264.956 37.864C266.044 34.888 267.596 32.312 269.612 30.136C271.66 27.928 274.14 26.184 277.052 24.904C279.996 23.624 283.308 22.984 286.988 22.984C290.092 22.984 292.956 23.48 295.58 24.472C298.204 25.464 300.46 26.92 302.348 28.84C304.236 30.728 305.708 33.064 306.764 35.848C307.852 38.6 308.396 41.752 308.396 45.304C308.396 47.096 308.204 48.312 307.82 48.952C307.436 49.56 306.7 49.864 305.612 49.864H275.132ZM347.342 33.352C347.022 33.864 346.686 34.232 346.334 34.456C345.982 34.648 345.534 34.744 344.99 34.744C344.414 34.744 343.79 34.584 343.118 34.264C342.478 33.944 341.726 33.592 340.862 33.208C339.998 32.792 339.006 32.424 337.885 32.104C336.798 31.784 335.502 31.624 333.998 31.624C331.662 31.624 329.822 32.12 328.478 33.112C327.166 34.104 326.51 35.4 326.51 37C326.51 38.056 326.846 38.952 327.518 39.688C328.222 40.392 329.134 41.016 330.254 41.56C331.406 42.104 332.702 42.6 334.142 43.048C335.582 43.464 337.038 43.928 338.51 44.44C340.014 44.952 341.486 45.544 342.926 46.216C344.366 46.856 345.646 47.688 346.766 48.712C347.918 49.704 348.83 50.904 349.502 52.312C350.206 53.72 350.558 55.416 350.558 57.4C350.558 59.768 350.126 61.96 349.262 63.976C348.43 65.96 347.182 67.688 345.518 69.16C343.854 70.6 341.79 71.736 339.326 72.568C336.894 73.368 334.078 73.768 330.878 73.768C329.182 73.768 327.518 73.608 325.886 73.288C324.286 73 322.734 72.584 321.23 72.04C319.758 71.496 318.382 70.856 317.102 70.12C315.854 69.384 314.75 68.584 313.79 67.72L316.526 63.208C316.878 62.664 317.294 62.248 317.773 61.96C318.253 61.672 318.862 61.528 319.598 61.528C320.334 61.528 321.022 61.736 321.662 62.152C322.334 62.568 323.102 63.016 323.966 63.496C324.83 63.976 325.838 64.424 326.99 64.84C328.174 65.256 329.662 65.464 331.454 65.464C332.862 65.464 334.062 65.304 335.054 64.984C336.078 64.632 336.91 64.184 337.55 63.64C338.222 63.096 338.701 62.472 338.99 61.768C339.31 61.032 339.47 60.28 339.47 59.512C339.47 58.36 339.118 57.416 338.414 56.68C337.742 55.944 336.83 55.304 335.677 54.76C334.558 54.216 333.262 53.736 331.79 53.32C330.35 52.872 328.862 52.392 327.326 51.88C325.822 51.368 324.334 50.776 322.862 50.104C321.422 49.4 320.126 48.52 318.974 47.464C317.854 46.408 316.942 45.112 316.238 43.576C315.566 42.04 315.23 40.184 315.23 38.008C315.23 35.992 315.63 34.072 316.43 32.248C317.23 30.424 318.398 28.84 319.934 27.496C321.502 26.12 323.438 25.032 325.742 24.232C328.078 23.4 330.766 22.984 333.806 22.984C337.198 22.984 340.286 23.544 343.07 24.664C345.854 25.784 348.174 27.256 350.03 29.08L347.342 33.352Z"/>
</mask>
<path d="M44.688 16.216L45.5562 16.7121L45.5646 16.6975L45.5725 16.6826L44.688 16.216ZM43.44 17.704L44.0092 18.5262L44.0153 18.522L44.0212 18.5177L43.44 17.704ZM39.648 17.416L39.0933 18.248L39.1131 18.2612L39.1335 18.2735L39.648 17.416ZM36.864 15.736L37.3518 14.8631L36.864 15.736ZM33.024 14.104L32.689 15.0462L32.7014 15.0506L32.714 15.0547L33.024 14.104ZM23.184 14.008L23.4797 14.9633L23.49 14.9601L23.5002 14.9567L23.184 14.008ZM19.776 15.784L19.1384 15.0136L19.1318 15.0191L19.1252 15.0247L19.776 15.784ZM17.76 18.568L18.6806 18.9586L18.6847 18.9487L17.76 18.568ZM18.432 26.152L17.6601 26.7877L17.6656 26.7944L17.6712 26.8009L18.432 26.152ZM22.08 28.936L21.6252 29.8266L22.08 28.936ZM33.12 32.968L32.7903 33.9121L32.797 33.9144L32.8038 33.9167L33.12 32.968ZM39.024 35.368L38.5888 36.2684L38.6011 36.2742L39.024 35.368ZM44.16 38.824L43.4765 39.5541L43.485 39.5618L44.16 38.824ZM47.76 43.912L46.8461 44.3182L46.8516 44.3301L47.76 43.912ZM47.52 60.088L46.59 59.7203L46.5878 59.7261L47.52 60.088ZM42.816 67.24L43.5175 67.9527L43.5176 67.9526L42.816 67.24ZM35.28 72.04L35.641 72.9726L35.6497 72.9692L35.28 72.04ZM18.528 73.096L18.7325 72.1171L18.7255 72.1157L18.7185 72.1143L18.528 73.096ZM12.336 71.272L11.9568 72.1973L11.962 72.1994L12.336 71.272ZM6.816 68.392L6.2721 69.2312L6.816 68.392ZM2.208 64.648L1.35521 64.1257L0.948578 64.7897L1.49262 65.3467L2.208 64.648ZM6 58.456L5.18627 57.8748L5.16569 57.9036L5.14721 57.9337L6 58.456ZM7.248 57.352L7.73826 58.2236L7.7584 58.2122L7.778 58.2L7.248 57.352ZM11.472 57.88L10.8855 58.6899L10.8948 58.6967L10.9043 58.7032L11.472 57.88ZM14.784 60.04L15.314 59.192L14.784 60.04ZM19.248 62.248L18.8796 63.1777L18.8901 63.1818L18.9007 63.1857L19.248 62.248ZM33.984 60.616L34.6348 61.3753L34.6417 61.3693L33.984 60.616ZM35.616 48.616L34.8266 49.2299L34.8319 49.2367L34.8372 49.2433L35.616 48.616ZM32.016 45.736L31.5464 46.6189L31.5538 46.6228L31.5612 46.6266L32.016 45.736ZM26.88 43.72L26.6074 44.6821H26.6074L26.88 43.72ZM21.024 41.944L20.717 42.8957H20.717L21.024 41.944ZM10.032 36.136L9.34043 36.8583H9.34043L10.032 36.136ZM6.384 30.76L5.45932 31.1407L5.46273 31.149L5.46628 31.1572L6.384 30.76ZM6.528 15.352L5.60816 14.9595L5.60383 14.97L6.528 15.352ZM10.944 8.96799L10.249 8.24901H10.249L10.944 8.96799ZM39.072 4.744L38.7247 5.68175V5.68175L39.072 4.744ZM47.904 10.12L48.7885 10.5866L49.1424 9.91572L48.5917 9.39404L47.904 10.12ZM44.688 16.216L43.8198 15.7199C43.4803 16.314 43.1517 16.681 42.8588 16.8903L43.44 17.704L44.0212 18.5177C44.6243 18.087 45.1277 17.462 45.5562 16.7121L44.688 16.216ZM43.44 17.704L42.8708 16.8818C42.6615 17.0267 42.3466 17.136 41.856 17.136V18.136V19.136C42.6454 19.136 43.3865 18.9573 44.0092 18.5262L43.44 17.704ZM41.856 18.136V17.136C41.4224 17.136 40.8648 16.9799 40.1625 16.5585L39.648 17.416L39.1335 18.2735C40.0312 18.8121 40.9456 19.136 41.856 19.136V18.136ZM39.648 17.416L40.2027 16.5839C39.4069 16.0534 38.4553 15.4797 37.3518 14.8631L36.864 15.736L36.3762 16.6089C37.4487 17.2083 38.3531 17.7546 39.0933 18.248L39.648 17.416ZM36.864 15.736L37.3518 14.8631C36.1956 14.2169 34.8535 13.6488 33.334 13.1533L33.024 14.104L32.714 15.0547C34.1385 15.5192 35.3564 16.0391 36.3762 16.6089L36.864 15.736ZM33.024 14.104L33.359 13.1618C31.7848 12.6021 29.9539 12.336 27.888 12.336V13.336V14.336C29.7901 14.336 31.3832 14.5819 32.689 15.0462L33.024 14.104ZM27.888 13.336V12.336C26.0157 12.336 24.3366 12.5697 22.8678 13.0593L23.184 14.008L23.5002 14.9567C24.7194 14.5503 26.1764 14.336 27.888 14.336V13.336ZM23.184 14.008L22.8883 13.0527C21.4401 13.501 20.1827 14.1494 19.1384 15.0136L19.776 15.784L20.4136 16.5544C21.2253 15.8826 22.2399 15.347 23.4797 14.9633L23.184 14.008ZM19.776 15.784L19.1252 15.0247C18.1097 15.8952 17.3436 16.9528 16.8353 18.1872L17.76 18.568L18.6847 18.9487C19.0724 18.0072 19.6503 17.2088 20.4268 16.5433L19.776 15.784ZM17.76 18.568L16.8394 18.1774C16.3333 19.3705 16.088 20.6734 16.088 22.072H17.088H18.088C18.088 20.9106 18.2907 19.8774 18.6806 18.9585L17.76 18.568ZM17.088 22.072H16.088C16.088 23.8974 16.5939 25.493 17.6601 26.7877L18.432 26.152L19.2039 25.5163C18.4781 24.635 18.088 23.5106 18.088 22.072H17.088ZM18.432 26.152L17.6712 26.8009C18.6983 28.0051 20.0251 29.0095 21.6252 29.8266L22.08 28.936L22.5348 28.0454C21.1269 27.3265 20.0217 26.4748 19.1928 25.5031L18.432 26.152ZM22.08 28.936L21.6252 29.8266C23.1867 30.6239 24.9512 31.3318 26.9141 31.9533L27.216 31L27.5179 30.0467C25.6408 29.4522 23.9813 28.7841 22.5348 28.0454L22.08 28.936ZM27.216 31L26.9141 31.9533C28.8243 32.5582 30.783 33.2111 32.7903 33.9121L33.12 32.968L33.4497 32.0239C31.425 31.3169 29.4477 30.6578 27.5179 30.0467L27.216 31ZM33.12 32.968L32.8038 33.9167C34.779 34.5751 36.7073 35.3589 38.5888 36.2683L39.024 35.368L39.4592 34.4676C37.5007 33.5211 35.493 32.7049 33.4362 32.0193L33.12 32.968ZM39.024 35.368L38.6011 36.2742C40.4283 37.1269 42.0518 38.2202 43.4766 39.554L44.16 38.824L44.8434 38.094C43.2602 36.6118 41.4597 35.4011 39.4469 34.4618L39.024 35.368ZM44.16 38.824L43.485 39.5618C44.8793 40.8374 46.0015 42.4175 46.8462 44.3181L47.76 43.912L48.6738 43.5059C47.7265 41.3745 46.4487 39.5626 44.835 38.0862L44.16 38.824ZM47.76 43.912L46.8516 44.3301C47.7041 46.1821 48.152 48.4791 48.152 51.256H49.152H50.152C50.152 48.2729 49.6719 45.6739 48.6684 43.4939L47.76 43.912ZM49.152 51.256H48.152C48.152 54.2737 47.629 57.0923 46.59 59.7203L47.52 60.088L48.45 60.4557C49.587 57.5797 50.152 54.5103 50.152 51.256H49.152ZM47.52 60.088L46.5878 59.7261C45.583 62.3141 44.0936 64.5786 42.1144 66.5274L42.816 67.24L43.5176 67.9526C45.6984 65.8054 47.345 63.3018 48.4522 60.4499L47.52 60.088ZM42.816 67.24L42.1145 66.5274C40.1719 68.4396 37.7766 69.9705 34.9103 71.1108L35.28 72.04L35.6497 72.9692C38.7354 71.7415 41.3641 70.0724 43.5175 67.9527L42.816 67.24ZM35.28 72.04L34.919 71.1074C32.0789 72.2068 28.797 72.768 25.056 72.768V73.768V74.768C28.995 74.768 32.5291 74.1772 35.641 72.9726L35.28 72.04ZM25.056 73.768V72.768C22.9162 72.768 20.8087 72.551 18.7325 72.1171L18.528 73.096L18.3235 74.0749C20.5353 74.537 22.7798 74.768 25.056 74.768V73.768ZM18.528 73.096L18.7185 72.1143C16.6359 71.7102 14.6334 71.1202 12.71 70.3446L12.336 71.272L11.962 72.1994C14.0066 73.0238 16.1321 73.6498 18.3375 74.0777L18.528 73.096ZM12.336 71.272L12.7152 70.3467C10.8193 69.5697 9.03454 68.6383 7.3599 67.5528L6.816 68.392L6.2721 69.2312C8.05346 70.3857 9.94874 71.3743 11.9568 72.1973L12.336 71.272ZM6.816 68.392L7.3599 67.5528C5.68973 66.4703 4.21209 65.2687 2.92338 63.9493L2.208 64.648L1.49262 65.3467C2.89191 66.7793 4.48627 68.0737 6.2721 69.2312L6.816 68.392ZM2.208 64.648L3.06079 65.1702L6.85279 58.9782L6 58.456L5.14721 57.9337L1.35521 64.1257L2.208 64.648ZM6 58.456L6.81373 59.0372C7.04286 58.7165 7.34534 58.4446 7.73826 58.2236L7.248 57.352L6.75774 56.4804C6.12666 56.8354 5.59714 57.2995 5.18627 57.8748L6 58.456ZM7.248 57.352L7.778 58.2C8.1391 57.9743 8.50068 57.872 8.88 57.872V56.872V55.872C8.10733 55.872 7.3809 56.0897 6.718 56.504L7.248 57.352ZM8.88 56.872V57.872C9.39594 57.872 10.057 58.09 10.8855 58.6899L11.472 57.88L12.0585 57.0701C11.031 56.326 9.96406 55.872 8.88 55.872V56.872ZM11.472 57.88L10.9043 58.7032C11.848 59.3541 12.9652 60.0825 14.254 60.888L14.784 60.04L15.314 59.192C14.0428 58.3975 12.952 57.6859 12.0397 57.0568L11.472 57.88ZM14.784 60.04L14.254 60.888C15.5946 61.7259 17.1386 62.4878 18.8796 63.1777L19.248 62.248L19.6164 61.3183C17.9654 60.6642 16.5334 59.9541 15.314 59.192L14.784 60.04ZM19.248 62.248L18.9007 63.1857C20.7678 63.8773 22.9554 64.208 25.44 64.208V63.208V62.208C23.1246 62.208 21.1842 61.8987 19.5953 61.3102L19.248 62.248ZM25.44 63.208V64.208C29.2669 64.208 32.3783 63.3094 34.6348 61.3753L33.984 60.616L33.3332 59.8567C31.5577 61.3786 28.9731 62.208 25.44 62.208V63.208ZM33.984 60.616L34.6417 61.3693C36.9223 59.3783 38.008 56.5637 38.008 53.08H37.008H36.008C36.008 56.1243 35.0777 58.3337 33.3263 59.8627L33.984 60.616ZM37.008 53.08H38.008C38.008 51.0825 37.4968 49.3568 36.3948 47.9887L35.616 48.616L34.8372 49.2433C35.5912 50.1792 36.008 51.4295 36.008 53.08H37.008ZM35.616 48.616L36.4054 48.0021C35.4063 46.7176 34.0848 45.6696 32.4708 44.8454L32.016 45.736L31.5612 46.6266C32.9552 47.3384 34.0337 48.2104 34.8266 49.2299L35.616 48.616ZM32.016 45.736L32.4856 44.8531C30.9094 44.0147 29.1296 43.318 27.1526 42.7579L26.88 43.72L26.6074 44.6821C28.4704 45.21 30.1146 45.8573 31.5464 46.6189L32.016 45.736ZM26.88 43.72L27.1526 42.7579C25.2446 42.2173 23.3041 41.6288 21.331 40.9923L21.024 41.944L20.717 42.8957C22.7119 43.5392 24.6754 44.1347 26.6074 44.6821L26.88 43.72ZM21.024 41.944L21.331 40.9923C19.3872 40.3652 17.4739 39.6125 15.5909 38.7338L15.168 39.64L14.7451 40.5462C16.7021 41.4595 18.6928 42.2427 20.717 42.8957L21.024 41.944ZM15.168 39.64L15.5909 38.7338C13.7681 37.8832 12.1473 36.7768 10.7236 35.4137L10.032 36.136L9.34043 36.8583C10.9247 38.3752 12.7279 39.6048 14.7451 40.5462L15.168 39.64ZM10.032 36.136L10.7236 35.4137C9.32695 34.0765 8.18322 32.3993 7.30172 30.3628L6.384 30.76L5.46628 31.1572C6.44078 33.4087 7.72905 35.3155 9.34043 36.8583L10.032 36.136ZM6.384 30.76L7.30868 30.3792C6.4764 28.358 6.04 25.824 6.04 22.744H5.04H4.04C4.04 26 4.4996 28.81 5.45932 31.1407L6.384 30.76ZM5.04 22.744H6.04C6.04 20.3507 6.50884 18.0162 7.45217 15.734L6.528 15.352L5.60383 14.97C4.56316 17.4878 4.04 20.0813 4.04 22.744H5.04ZM6.528 15.352L7.44778 15.7444C8.41816 13.4701 9.81268 11.4524 11.639 9.68698L10.944 8.96799L10.249 8.24901C8.23532 10.1955 6.68584 12.4339 5.60822 14.9596L6.528 15.352ZM10.944 8.96799L11.639 9.68698C13.4535 7.93301 15.7065 6.51148 18.4176 5.4332L18.048 4.504L17.6784 3.57479C14.7575 4.73652 12.2745 6.29098 10.249 8.24901L10.944 8.96799ZM18.048 4.504L18.4176 5.4332C21.0947 4.36845 24.1974 3.824 27.744 3.824V2.824V1.824C23.9946 1.824 20.6333 2.39955 17.6784 3.57479L18.048 4.504ZM27.744 2.824V3.824C31.7346 3.824 35.3915 4.44725 38.7247 5.68175L39.072 4.744L39.4193 3.80625C35.8405 2.48075 31.9454 1.824 27.744 1.824V2.824ZM39.072 4.744L38.7247 5.68175C42.0668 6.91957 44.8917 8.64372 47.2163 10.846L47.904 10.12L48.5917 9.39404C46.0523 6.98828 42.9892 5.12842 39.4193 3.80625L39.072 4.744ZM47.904 10.12L47.0195 9.65339L43.8035 15.7494L44.688 16.216L45.5725 16.6826L48.7885 10.5866L47.904 10.12ZM90.084 42.712V43.712H91.084V42.712H90.084ZM89.412 38.392L88.4548 38.6814L88.4589 38.6949L88.4633 38.7082L89.412 38.392ZM84.18 32.392L83.7595 33.2993L83.7727 33.3054L83.7861 33.3111L84.18 32.392ZM71.46 34.408L70.7586 33.6951L70.7529 33.7009L71.46 34.408ZM67.716 42.712L66.7273 42.5619L66.5528 43.712H67.716V42.712ZM67.476 49.864V48.864H66.3972L66.4789 49.9397L67.476 49.864ZM68.82 56.44L67.885 56.7947L67.8871 56.8001L68.82 56.44ZM71.604 61L70.878 61.6878L70.8873 61.6974L71.604 61ZM75.684 63.688L75.3225 64.6204L75.3338 64.6248L75.3453 64.6289L75.684 63.688ZM85.908 63.88L85.6048 62.9271L85.5984 62.9291L85.908 63.88ZM89.556 62.392L89.098 61.503L89.0868 61.5089L89.556 62.392ZM92.292 60.904L91.8034 60.0315L91.7957 60.0358L91.7881 60.0402L92.292 60.904ZM96.804 61.336L95.9664 61.8823L95.991 61.92L96.0189 61.9554L96.804 61.336ZM100.212 65.656L100.972 66.3055L101.506 65.6812L100.997 65.0366L100.212 65.656ZM95.796 69.544L96.3275 70.3911L96.3393 70.3836L95.796 69.544ZM90.66 72.04L90.9865 72.9852L90.9963 72.9817L90.66 72.04ZM85.236 73.336L85.0994 72.3454L85.097 72.3457L85.236 73.336ZM70.356 72.04L69.9916 72.9713L70.0004 72.9746L70.356 72.04ZM62.676 67L61.9587 67.6968L61.9638 67.7019L62.676 67ZM57.54 58.744L56.6048 59.0981L56.6059 59.1011L57.54 58.744ZM57.3 37.864L58.238 38.2107L58.2392 38.2074L57.3 37.864ZM61.956 30.136L61.2228 29.456L61.2224 29.4564L61.956 30.136ZM69.396 24.904L68.9973 23.9869L68.9936 23.9885L69.396 24.904ZM94.692 28.84L93.979 29.5412L93.9849 29.5471L94.692 28.84ZM99.108 35.848L98.1729 36.2027L98.178 36.2157L99.108 35.848ZM100.164 48.952L101.009 49.486L101.016 49.4763L101.021 49.4665L100.164 48.952ZM90.084 42.712H91.084C91.084 41.0776 90.8454 39.53 90.3607 38.0758L89.412 38.392L88.4633 38.7082C88.8746 39.942 89.084 41.2744 89.084 42.712H90.084ZM89.412 38.392L90.3692 38.1026C89.9167 36.6058 89.2144 35.2827 88.2563 34.1471L87.492 34.792L86.7277 35.4369C87.4976 36.3493 88.0753 37.4262 88.4548 38.6814L89.412 38.392ZM87.492 34.792L88.2563 34.1471C87.2829 32.9935 86.0477 32.1045 84.5739 31.4729L84.18 32.392L83.7861 33.3111C85.0003 33.8315 85.9731 34.5425 86.7277 35.4369L87.492 34.792ZM84.18 32.392L84.6005 31.4847C83.1313 30.8038 81.4463 30.48 79.572 30.48V31.48V32.48C81.2177 32.48 82.6047 32.7642 83.7595 33.2993L84.18 32.392ZM79.572 31.48V30.48C75.9496 30.48 72.9708 31.5187 70.7587 33.6952L71.46 34.408L72.1613 35.1208C73.9172 33.3933 76.3464 32.48 79.572 32.48V31.48ZM71.46 34.408L70.7529 33.7009C68.6089 35.8449 67.2934 38.8328 66.7273 42.5619L67.716 42.712L68.7047 42.8621C69.2266 39.4232 70.4071 36.8751 72.1671 35.1151L71.46 34.408ZM67.716 42.712V43.712H90.084V42.712V41.712H67.716V42.712ZM67.476 49.864L66.4789 49.9397C66.6762 52.5382 67.1392 54.8283 67.885 56.7947L68.82 56.44L69.755 56.0853C69.0928 54.3396 68.6598 52.2458 68.4731 49.7883L67.476 49.864ZM68.82 56.44L67.8871 56.8001C68.6303 58.7257 69.6227 60.3626 70.8781 61.6877L71.604 61L72.33 60.3123C71.2813 59.2054 70.4177 57.8023 69.7529 56.0799L68.82 56.44ZM71.604 61L70.8873 61.6974C72.1413 62.9862 73.6231 63.9614 75.3225 64.6204L75.684 63.688L76.0455 62.7556C74.6089 62.1986 73.3707 61.3818 72.3207 60.3026L71.604 61ZM75.684 63.688L75.3453 64.6289C77.067 65.2487 78.9433 65.552 80.964 65.552V64.552V63.552C79.1447 63.552 77.501 63.2793 76.0227 62.7471L75.684 63.688ZM80.964 64.552V65.552C82.9569 65.552 84.715 65.3201 86.2176 64.8309L85.908 63.88L85.5984 62.9291C84.349 63.3359 82.8111 63.552 80.964 63.552V64.552ZM85.908 63.88L86.2112 64.8329C87.6618 64.3714 88.9359 63.8538 90.0252 63.2751L89.556 62.392L89.0868 61.5089C88.1281 62.0182 86.9702 62.4926 85.6048 62.9271L85.908 63.88ZM89.556 62.392L90.014 63.281C91.0807 62.7314 92.0088 62.2269 92.7959 61.7678L92.292 60.904L91.7881 60.0402C91.0392 60.4771 90.1433 60.9646 89.098 61.503L89.556 62.392ZM92.292 60.904L92.7806 61.7765C93.4675 61.3918 94.0683 61.232 94.596 61.232V60.232V59.232C93.6517 59.232 92.7165 59.5202 91.8034 60.0315L92.292 60.904ZM94.596 60.232V61.232C95.3013 61.232 95.6973 61.4697 95.9664 61.8823L96.804 61.336L97.6416 60.7897C96.9507 59.7303 95.8747 59.232 94.596 59.232V60.232ZM96.804 61.336L96.0189 61.9554L99.4269 66.2754L100.212 65.656L100.997 65.0366L97.5891 60.7166L96.804 61.336ZM100.212 65.656L99.4516 65.0065C98.2 66.4719 96.8004 67.703 95.2528 68.7044L95.796 69.544L96.3393 70.3836C98.0556 69.273 99.6001 67.9121 100.972 66.3055L100.212 65.656ZM95.796 69.544L95.2645 68.6969C93.6932 69.6829 92.0465 70.483 90.3237 71.0983L90.66 72.04L90.9963 72.9817C92.8575 72.317 94.6348 71.4531 96.3275 70.3911L95.796 69.544ZM90.66 72.04L90.3335 71.0948C88.6355 71.6814 86.8911 72.0982 85.0994 72.3454L85.236 73.336L85.3726 74.3266C87.2929 74.0618 89.1645 73.6146 90.9865 72.9852L90.66 72.04ZM85.236 73.336L85.097 72.3457C83.3161 72.5957 81.5866 72.72 79.908 72.72V73.72V74.72C81.6854 74.72 83.5079 74.5883 85.375 74.3263L85.236 73.336ZM79.908 73.72V72.72C76.5949 72.72 73.5325 72.1785 70.7116 71.1054L70.356 72.04L70.0004 72.9746C73.0675 74.1415 76.3731 74.72 79.908 74.72V73.72ZM70.356 72.04L70.7204 71.1088C67.9045 70.0069 65.4637 68.404 63.3882 66.2981L62.676 67L61.9638 67.7019C64.2403 70.012 66.9195 71.7691 69.9916 72.9712L70.356 72.04ZM62.676 67L63.3933 66.3032C61.3225 64.1715 59.6794 61.5392 58.4741 58.3869L57.54 58.744L56.6059 59.1011C57.8966 62.4768 59.6775 65.3485 61.9587 67.6968L62.676 67ZM57.54 58.744L58.4752 58.3899C57.2785 55.2294 56.668 51.5454 56.668 47.32H55.668H54.668C54.668 51.7346 55.3055 55.6666 56.6048 59.0981L57.54 58.744ZM55.668 47.32H56.668C56.668 44.0699 57.1938 41.0361 58.238 38.2106L57.3 37.864L56.362 37.5173C55.2302 40.5799 54.668 43.8501 54.668 47.32H55.668ZM57.3 37.864L58.2392 38.2074C59.2848 35.3474 60.7698 32.8878 62.6896 30.8156L61.956 30.136L61.2224 29.4564C59.1102 31.7362 57.4912 34.4286 56.3608 37.5206L57.3 37.864ZM61.956 30.136L62.6892 30.816C64.639 28.7139 67.0044 27.0476 69.7984 25.8195L69.396 24.904L68.9936 23.9885C65.9636 25.3204 63.369 27.1421 61.2228 29.456L61.956 30.136ZM69.396 24.904L69.7947 25.8211C72.5958 24.6032 75.7692 23.984 79.332 23.984V22.984V21.984C75.5348 21.984 72.0842 22.6448 68.9973 23.9869L69.396 24.904ZM79.332 22.984V23.984C82.328 23.984 85.0708 24.4624 87.5704 25.4074L87.924 24.472L88.2776 23.5366C85.5292 22.4976 82.544 21.984 79.332 21.984V22.984ZM87.924 24.472L87.5704 25.4074C90.0648 26.3504 92.1967 27.7286 93.979 29.5411L94.692 28.84L95.405 28.1389C93.4113 26.1114 91.0312 24.5776 88.2776 23.5366L87.924 24.472ZM94.692 28.84L93.9849 29.5471C95.7619 31.3241 97.1614 33.5356 98.173 36.2027L99.108 35.848L100.043 35.4933C98.9426 32.5924 97.3981 30.1319 95.3991 28.1329L94.692 28.84ZM99.108 35.848L98.178 36.2157C99.2115 38.8297 99.74 41.8533 99.74 45.304H100.74H101.74C101.74 41.6507 101.18 38.3703 100.038 35.4803L99.108 35.848ZM100.74 45.304H99.74C99.74 46.169 99.6933 46.8651 99.6082 47.404C99.5209 47.9569 99.4033 48.2762 99.3065 48.4375L100.164 48.952L101.021 49.4665C101.309 48.9878 101.479 48.3791 101.584 47.716C101.691 47.0389 101.74 46.2309 101.74 45.304H100.74ZM100.164 48.952L99.3185 48.418C99.1994 48.6066 98.8884 48.864 97.956 48.864V49.864V50.864C99.1996 50.864 100.361 50.5134 101.009 49.486L100.164 48.952ZM97.956 49.864V48.864H67.476V49.864V50.864H97.956V49.864ZM120.821 32.296L119.83 32.4242L120.237 35.5772L121.708 32.7586L120.821 32.296ZM126.293 25.384L126.912 26.1695L126.919 26.1637L126.293 25.384ZM139.253 24.328L140.25 24.4142L140.298 23.8487L139.838 23.5168L139.253 24.328ZM138.485 33.208L139.449 33.4756L139.474 33.3864L139.482 33.2942L138.485 33.208ZM137.765 34.456L138.379 35.2454L138.39 35.2369L137.765 34.456ZM134.405 34.552L134.235 35.5375L134.241 35.5384L134.405 34.552ZM128.165 34.888L128.516 35.8243L128.165 34.888ZM125.381 36.568L126.042 37.3187L126.044 37.317L125.381 36.568ZM123.221 39.16L122.373 38.63L122.367 38.6397L122.361 38.6495L123.221 39.16ZM121.493 42.664L120.57 42.281L120.493 42.4649V42.664H121.493ZM121.493 73V74H122.493V73H121.493ZM109.637 73H108.637V74H109.637V73ZM109.637 23.752V22.752H108.637V23.752H109.637ZM119.141 24.424L118.459 25.1551L118.472 25.1676L118.486 25.1797L119.141 24.424ZM120.101 26.728L121.093 26.5997L121.091 26.5866L120.101 26.728ZM120.821 32.296L121.708 32.7586C123.193 29.9112 124.934 27.728 126.912 26.1695L126.293 25.384L125.674 24.5985C123.428 26.368 121.521 28.7928 119.935 31.8334L120.821 32.296ZM126.293 25.384L126.919 26.1637C128.842 24.6197 131.113 23.84 133.781 23.84V22.84V21.84C130.689 21.84 127.968 22.7563 125.667 24.6043L126.293 25.384ZM133.781 22.84V23.84C135.914 23.84 137.512 24.3055 138.668 25.1392L139.253 24.328L139.838 23.5168C138.242 22.3665 136.193 21.84 133.781 21.84V22.84ZM139.253 24.328L138.257 24.2418L137.489 33.1218L138.485 33.208L139.482 33.2942L140.25 24.4142L139.253 24.328ZM138.485 33.208L137.522 32.9404C137.393 33.4028 137.237 33.5981 137.141 33.6751L137.765 34.456L138.39 35.2369C138.934 34.8019 139.257 34.1652 139.449 33.4756L138.485 33.208ZM137.765 34.456L137.151 33.6666C137.097 33.7085 136.943 33.792 136.565 33.792V34.792V35.792C137.212 35.792 137.857 35.6515 138.379 35.2453L137.765 34.456ZM136.565 34.792V33.792C136.172 33.792 135.519 33.7238 134.57 33.5656L134.405 34.552L134.241 35.5384C135.212 35.7002 135.999 35.792 136.565 35.792V34.792ZM134.405 34.552L134.575 33.5665C133.594 33.3974 132.625 33.312 131.669 33.312V34.312V35.312C132.505 35.312 133.361 35.3866 134.235 35.5375L134.405 34.552ZM131.669 34.312V33.312C130.261 33.312 128.97 33.5181 127.814 33.9517L128.165 34.888L128.516 35.8243C129.408 35.4899 130.454 35.312 131.669 35.312V34.312ZM128.165 34.888L127.814 33.9517C126.674 34.3792 125.641 35.0034 124.719 35.819L125.381 36.568L126.044 37.317C126.786 36.6606 127.609 36.1647 128.516 35.8243L128.165 34.888ZM125.381 36.568L124.721 35.8173C123.839 36.5933 123.058 37.5345 122.373 38.63L123.221 39.16L124.069 39.69C124.665 38.7375 125.324 37.9507 126.042 37.3187L125.381 36.568ZM123.221 39.16L122.361 38.6495C121.725 39.7213 121.128 40.9331 120.57 42.281L121.493 42.664L122.417 43.047C122.946 41.7709 123.502 40.6467 124.081 39.6705L123.221 39.16ZM121.493 42.664H120.493V73H121.493H122.493V42.664H121.493ZM121.493 73V72H109.637V73V74H121.493V73ZM109.637 73H110.637V23.752H109.637H108.637V73H109.637ZM109.637 23.752V24.752H116.597V23.752V22.752H109.637V23.752ZM116.597 23.752V24.752C117.753 24.752 118.268 24.9772 118.459 25.1551L119.141 24.424L119.824 23.6929C119.054 22.9748 117.874 22.752 116.597 22.752V23.752ZM119.141 24.424L118.486 25.1797C118.688 25.3543 118.961 25.8203 119.111 26.8694L120.101 26.728L121.091 26.5866C120.921 25.3957 120.555 24.3257 119.796 23.6683L119.141 24.424ZM120.101 26.728L119.11 26.8562L119.83 32.4242L120.821 32.296L121.813 32.1678L121.093 26.5998L120.101 26.728ZM189.85 23.752L190.779 24.1207L191.322 22.752H189.85V23.752ZM170.314 73V74H170.993L171.243 73.3687L170.314 73ZM159.562 73L158.632 73.3687L158.883 74H159.562V73ZM140.026 23.752V22.752H138.553L139.096 24.1207L140.026 23.752ZM152.026 24.376L151.44 25.1867L151.451 25.1941L151.461 25.2013L152.026 24.376ZM153.226 25.96L152.268 26.2473L152.276 26.2738L152.285 26.2998L153.226 25.96ZM162.73 52.264L163.678 51.9478L163.674 51.9359L163.67 51.9242L162.73 52.264ZM164.074 56.776L165.041 56.5236L164.074 56.776ZM165.082 61.192L164.1 61.384L166.059 61.4044L165.082 61.192ZM166.138 56.776L167.105 57.0284L166.138 56.776ZM167.53 52.264L166.591 51.9181L166.587 51.9302L167.53 52.264ZM177.226 25.96L178.164 26.3059L178.167 26.2981L178.17 26.2903L177.226 25.96ZM189.85 23.752L188.92 23.3833L169.384 72.6313L170.314 73L171.243 73.3687L190.779 24.1207L189.85 23.752ZM170.314 73V72H159.562V73V74H170.314V73ZM159.562 73L160.491 72.6313L140.955 23.3833L140.026 23.752L139.096 24.1207L158.632 73.3687L159.562 73ZM140.026 23.752V24.752H149.818V23.752V22.752H140.026V23.752ZM149.818 23.752V24.752C150.559 24.752 151.075 24.9226 151.44 25.1867L152.026 24.376L152.611 23.5653C151.825 22.9974 150.869 22.752 149.818 22.752V23.752ZM152.026 24.376L151.461 25.2013C151.901 25.5023 152.148 25.8491 152.268 26.2473L153.226 25.96L154.184 25.6727C153.919 24.7909 153.367 24.0817 152.59 23.5507L152.026 24.376ZM153.226 25.96L152.285 26.2998L161.789 52.6038L162.73 52.264L163.67 51.9242L154.166 25.6202L153.226 25.96ZM162.73 52.264L161.781 52.5802C162.286 54.0965 162.728 55.5792 163.106 57.0284L164.074 56.776L165.041 56.5236C164.651 55.0288 164.197 53.5035 163.678 51.9478L162.73 52.264ZM164.074 56.776L163.106 57.0284C163.485 58.4807 163.816 59.9326 164.1 61.384L165.082 61.192L166.063 61C165.771 59.5074 165.431 58.0153 165.041 56.5236L164.074 56.776ZM165.082 61.192L166.059 61.4044C166.376 59.946 166.725 58.4873 167.105 57.0284L166.138 56.776L165.17 56.5236C164.783 58.0087 164.428 59.494 164.105 60.9796L165.082 61.192ZM166.138 56.776L167.105 57.0284C167.482 55.5858 167.937 54.1089 168.472 52.5978L167.53 52.264L166.587 51.9302C166.034 53.4911 165.562 55.0222 165.17 56.5236L166.138 56.776ZM167.53 52.264L168.468 52.6099L178.164 26.3059L177.226 25.96L176.287 25.6141L166.591 51.9181L167.53 52.264ZM177.226 25.96L178.17 26.2903C178.323 25.8529 178.593 25.489 179.011 25.1867L178.426 24.376L177.84 23.5653C177.107 24.095 176.577 24.7871 176.282 25.6297L177.226 25.96ZM178.426 24.376L179.011 25.1867C179.396 24.909 179.872 24.752 180.49 24.752V23.752V22.752C179.507 22.752 178.608 23.011 177.84 23.5653L178.426 24.376ZM180.49 23.752V24.752H189.85V23.752V22.752H180.49V23.752ZM208.456 23.752H209.456V22.752H208.456V23.752ZM208.456 73V74H209.456V73H208.456ZM196.553 73H195.553V74H196.553V73ZM196.553 23.752V22.752H195.553V23.752H196.553ZM207.785 14.632L207.094 13.9086L207.086 13.9167L207.077 13.9249L207.785 14.632ZM205.385 16.264L205.767 17.188L205.78 17.1825L205.794 17.1765L205.385 16.264ZM199.48 16.264L199.059 17.171L199.079 17.1799L199.098 17.188L199.48 16.264ZM195.497 12.28L194.577 12.6739L194.583 12.6876L194.589 12.7011L195.497 12.28ZM195.497 6.424L194.584 6.01494L194.578 6.02821L194.572 6.04165L195.497 6.424ZM199.48 2.44L199.874 3.35914L199.882 3.35589L199.89 3.35251L199.48 2.44ZM205.385 2.44L204.975 3.35251L204.989 3.35846L205.002 3.36402L205.385 2.44ZM207.785 4.024L207.077 4.7311L207.086 4.73932L207.094 4.74735L207.785 4.024ZM209.465 6.424L210.377 6.01494V6.01494L209.465 6.424ZM208.456 23.752H207.456V73H208.456H209.456V23.752H208.456ZM208.456 73V72H196.553V73V74H208.456V73ZM196.553 73H197.553V23.752H196.553H195.553V73H196.553ZM196.553 23.752V24.752H208.456V23.752V22.752H196.553V23.752ZM210.089 9.4H209.089C209.089 10.284 208.91 11.0997 208.557 11.8589L209.465 12.28L210.372 12.7011C210.851 11.6683 211.089 10.564 211.089 9.4H210.089ZM209.465 12.28L208.557 11.8589C208.193 12.6432 207.706 13.3243 207.094 13.9086L207.785 14.632L208.475 15.3554C209.271 14.5957 209.904 13.7088 210.372 12.7011L209.465 12.28ZM207.785 14.632L207.077 13.9249C206.497 14.505 205.8 14.9817 204.975 15.3515L205.385 16.264L205.794 17.1765C206.825 16.7143 207.728 16.103 208.492 15.3391L207.785 14.632ZM205.385 16.264L205.002 15.34C204.202 15.6713 203.34 15.84 202.408 15.84V16.84V17.84C203.589 17.84 204.711 17.6247 205.767 17.188L205.385 16.264ZM202.408 16.84V15.84C201.513 15.84 200.667 15.6728 199.863 15.34L199.48 16.264L199.098 17.188C200.15 17.6232 201.256 17.84 202.408 17.84V16.84ZM199.48 16.264L199.902 15.357C199.108 14.9884 198.421 14.5108 197.836 13.9249L197.128 14.632L196.421 15.3391C197.18 16.0972 198.061 16.7076 199.059 17.171L199.48 16.264ZM197.128 14.632L197.836 13.9249C197.25 13.339 196.772 12.6528 196.404 11.8589L195.497 12.28L194.589 12.7011C195.053 13.6992 195.663 14.581 196.421 15.3391L197.128 14.632ZM195.497 12.28L196.416 11.8861C196.088 11.1208 195.921 10.2955 195.921 9.4H194.921H193.921C193.921 10.5525 194.137 11.6472 194.577 12.6739L195.497 12.28ZM194.921 9.4H195.921C195.921 8.46834 196.089 7.60693 196.421 6.80635L195.497 6.424L194.572 6.04165C194.136 7.09706 193.921 8.21966 193.921 9.4H194.921ZM195.497 6.424L196.409 6.83305C196.779 6.00823 197.256 5.3112 197.836 4.7311L197.128 4.024L196.421 3.31689C195.657 4.08079 195.046 4.98376 194.584 6.01494L195.497 6.424ZM197.128 4.024L197.836 4.7311C198.415 4.1514 199.092 3.69435 199.874 3.35914L199.48 2.44L199.087 1.52085C198.077 1.95365 197.186 2.5526 196.421 3.31689L197.128 4.024ZM199.48 2.44L199.89 3.35251C200.688 2.99459 201.524 2.816 202.408 2.816V1.816V0.815998C201.245 0.815998 200.129 1.0534 199.071 1.52749L199.48 2.44ZM202.408 1.816V2.816C203.329 2.816 204.181 2.99641 204.975 3.35251L205.385 2.44L205.794 1.52749C204.732 1.05159 203.6 0.815998 202.408 0.815998V1.816ZM205.385 2.44L205.002 3.36402C205.816 3.70065 206.504 4.15726 207.077 4.7311L207.785 4.024L208.492 3.31689C207.721 2.54674 206.809 1.94734 205.767 1.51598L205.385 2.44ZM207.785 4.024L207.094 4.74735C207.7 5.32595 208.187 6.01781 208.552 6.83305L209.465 6.424L210.377 6.01494C209.91 4.97419 209.277 4.06605 208.475 3.30064L207.785 4.024ZM209.465 6.424L208.552 6.83305C208.908 7.62743 209.089 8.47945 209.089 9.4H210.089H211.089C211.089 8.20854 210.853 7.07656 210.377 6.01494L209.465 6.424ZM255.824 34.168L256.61 34.7858L256.622 34.7699L256.634 34.7535L255.824 34.168ZM254.768 35.224L254.179 34.4153L254.161 34.4288L254.143 34.4431L254.768 35.224ZM251.551 35.08L250.997 35.912L251.013 35.923L251.03 35.9333L251.551 35.08ZM249.488 33.832L248.973 34.6895L248.986 34.6972L248.999 34.7045L249.488 33.832ZM246.607 32.584L246.275 33.527L246.291 33.5328L246.308 33.538L246.607 32.584ZM237.055 33.16L237.48 34.0652L237.488 34.0617L237.495 34.0581L237.055 33.16ZM233.12 36.376L232.32 35.776L232.315 35.7819L232.311 35.7878L233.12 36.376ZM230.816 41.512L231.784 41.7619L231.785 41.7582L230.816 41.512ZM230.863 55.288L229.897 55.5447L229.899 55.5518L229.901 55.5587L230.863 55.288ZM233.311 60.472L232.511 61.072L232.518 61.0808L233.311 60.472ZM237.152 63.64L236.712 64.5382L236.72 64.542L236.728 64.5457L237.152 63.64ZM246.799 64.024L247.162 64.956L247.169 64.9534L247.175 64.9507L246.799 64.024ZM249.775 62.488L250.338 63.3149L250.349 63.3074L250.36 63.2995L249.775 62.488ZM251.84 60.952L252.453 61.7414L252.459 61.7369L251.84 60.952ZM256.016 61.336L255.178 61.8823L255.202 61.92L255.23 61.9554L256.016 61.336ZM259.423 65.656L260.184 66.3055L260.717 65.6812L260.209 65.0366L259.423 65.656ZM255.152 69.544L255.706 70.3761L255.712 70.3721L255.718 70.368L255.152 69.544ZM250.352 72.04L250.701 72.9771L250.71 72.9733L250.352 72.04ZM245.264 73.336L245.12 72.3464L245.117 72.3468L245.264 73.336ZM231.488 72.04L231.094 72.9592L231.103 72.9631L231.488 72.04ZM224.432 67.048L225.165 66.3684L224.432 67.048ZM219.632 59.08L218.692 59.4218L218.696 59.4332L219.632 59.08ZM219.439 38.248L218.493 37.9259L218.491 37.9318L219.439 38.248ZM224.048 30.232L224.791 30.901L224.795 30.8957L224.048 30.232ZM231.536 24.904L231.14 23.9854L231.536 24.904ZM251.456 24.76L251.06 25.6786L251.064 25.6802L251.456 24.76ZM258.944 29.848L259.754 30.4335L260.253 29.7431L259.651 29.1409L258.944 29.848ZM255.824 34.168L255.037 33.5502C254.726 33.9467 254.438 34.2272 254.179 34.4153L254.768 35.224L255.356 36.0327C255.801 35.7088 256.217 35.2853 256.61 34.7858L255.824 34.168ZM254.768 35.224L254.143 34.4431C254.075 34.497 253.861 34.608 253.327 34.608V35.608V36.608C254.074 36.608 254.82 36.463 255.392 36.0049L254.768 35.224ZM253.327 35.608V34.608C252.923 34.608 252.51 34.4937 252.073 34.2267L251.551 35.08L251.03 35.9333C251.745 36.3703 252.516 36.608 253.327 36.608V35.608ZM251.551 35.08L252.106 34.248C251.503 33.8459 250.792 33.4163 249.976 32.9595L249.488 33.832L248.999 34.7045C249.783 35.1437 250.448 35.5461 250.997 35.912L251.551 35.08ZM249.488 33.832L250.002 32.9745C249.12 32.4452 248.084 31.9998 246.907 31.63L246.607 32.584L246.308 33.538C247.371 33.8722 248.255 34.2588 248.973 34.6895L249.488 33.832ZM246.607 32.584L246.94 31.641C245.711 31.2072 244.23 31.008 242.527 31.008V32.008V33.008C244.089 33.008 245.328 33.1928 246.275 33.527L246.607 32.584ZM242.527 32.008V31.008C240.324 31.008 238.344 31.4152 236.616 32.2619L237.055 33.16L237.495 34.0581C238.903 33.3688 240.571 33.008 242.527 33.008V32.008ZM237.055 33.16L236.631 32.2548C234.912 33.0614 233.472 34.2393 232.32 35.776L233.12 36.376L233.919 36.976C234.879 35.6967 236.063 34.7306 237.48 34.0652L237.055 33.16ZM233.12 36.376L232.311 35.7878C231.199 37.3165 230.384 39.1501 229.846 41.2658L230.816 41.512L231.785 41.7582C232.271 39.8419 232.992 38.2515 233.928 36.9642L233.12 36.376ZM230.816 41.512L229.847 41.2621C229.31 43.3441 229.048 45.6865 229.048 48.28H230.048H231.048C231.048 45.8175 231.297 43.6479 231.784 41.7619L230.816 41.512ZM230.048 48.28H229.048C229.048 50.971 229.326 53.3959 229.897 55.5447L230.863 55.288L231.83 55.0313C231.313 53.0841 231.048 50.837 231.048 48.28H230.048ZM230.863 55.288L229.901 55.5587C230.503 57.7015 231.368 59.547 232.512 61.072L233.311 60.472L234.111 59.872C233.143 58.581 232.376 56.9705 231.826 55.0173L230.863 55.288ZM233.311 60.472L232.518 61.0808C233.665 62.5748 235.064 63.7319 236.712 64.5382L237.152 63.64L237.591 62.7418C236.231 62.0761 235.07 61.1212 234.105 59.8632L233.311 60.472ZM237.152 63.64L236.728 64.5457C238.381 65.3198 240.225 65.696 242.24 65.696V64.696V63.696C240.478 63.696 238.93 63.3682 237.575 62.7343L237.152 63.64ZM242.24 64.696V65.696C244.193 65.696 245.85 65.4662 247.162 64.956L246.799 64.024L246.437 63.092C245.445 63.4778 244.062 63.696 242.24 63.696V64.696ZM246.799 64.024L247.175 64.9507C248.405 64.4521 249.464 63.909 250.338 63.3149L249.775 62.488L249.213 61.6611C248.487 62.155 247.562 62.6359 246.424 63.0973L246.799 64.024ZM249.775 62.488L250.36 63.2995C251.167 62.7186 251.865 62.199 252.453 61.7413L251.84 60.952L251.226 60.1626C250.662 60.601 249.984 61.1054 249.191 61.6765L249.775 62.488ZM251.84 60.952L252.459 61.7369C252.901 61.3884 253.357 61.232 253.855 61.232V60.232V59.232C252.882 59.232 251.994 59.5556 251.22 60.1671L251.84 60.952ZM253.855 60.232V61.232C254.515 61.232 254.902 61.4591 255.178 61.8823L256.016 61.336L256.853 60.7897C256.169 59.7409 255.116 59.232 253.855 59.232V60.232ZM256.016 61.336L255.23 61.9554L258.638 66.2754L259.423 65.656L260.209 65.0366L256.801 60.7166L256.016 61.336ZM259.423 65.656L258.663 65.0065C257.403 66.4816 256.043 67.7174 254.585 68.72L255.152 69.544L255.718 70.368C257.332 69.2586 258.82 67.9024 260.184 66.3055L259.423 65.656ZM255.152 69.544L254.597 68.712C253.12 69.6965 251.585 70.494 249.993 71.1067L250.352 72.04L250.71 72.9733C252.446 72.306 254.111 71.4395 255.706 70.3761L255.152 69.544ZM250.352 72.04L250.002 71.1029C248.438 71.6857 246.811 72.1004 245.12 72.3464L245.264 73.336L245.407 74.3256C247.236 74.0596 249.001 73.6103 250.701 72.9771L250.352 72.04ZM245.264 73.336L245.117 72.3468C243.437 72.5957 241.758 72.72 240.079 72.72V73.72V74.72C241.857 74.72 243.634 74.5883 245.41 74.3252L245.264 73.336ZM240.079 73.72V72.72C237.166 72.72 234.433 72.1839 231.872 71.1169L231.488 72.04L231.103 72.9631C233.918 74.1361 236.913 74.72 240.079 74.72V73.72ZM231.488 72.04L231.881 71.1209C229.324 70.0248 227.087 68.4431 225.165 66.3684L224.432 67.048L223.698 67.7276C225.808 70.0049 228.275 71.7512 231.094 72.9591L231.488 72.04ZM224.432 67.048L225.165 66.3684C223.248 64.2987 221.711 61.7576 220.567 58.7268L219.632 59.08L218.696 59.4332C219.92 62.6744 221.583 65.4454 223.698 67.7276L224.432 67.048ZM219.632 59.08L220.571 58.7383C219.466 55.6989 218.904 52.2177 218.904 48.28H217.904H216.904C216.904 52.4063 217.493 56.1251 218.692 59.4217L219.632 59.08ZM217.904 48.28H218.904C218.904 44.7591 219.402 41.5231 220.388 38.5642L219.439 38.248L218.491 37.9318C217.429 41.1169 216.904 44.5689 216.904 48.28H217.904ZM219.439 38.248L220.386 38.5701C221.402 35.5829 222.873 33.0317 224.791 30.901L224.048 30.232L223.304 29.563C221.19 31.9123 219.589 34.7051 218.493 37.9259L219.439 38.248ZM224.048 30.232L224.795 30.8957C226.708 28.7408 229.08 27.0485 231.931 25.8226L231.536 24.904L231.14 23.9854C228.039 25.3195 225.419 27.1792 223.3 29.5683L224.048 30.232ZM231.536 24.904L231.931 25.8226C234.76 24.6057 238.045 23.984 241.807 23.984V22.984V21.984C237.826 21.984 234.263 22.6423 231.14 23.9854L231.536 24.904ZM241.807 22.984V23.984C245.382 23.984 248.458 24.5591 251.06 25.6786L251.456 24.76L251.851 23.8414C248.949 22.5929 245.593 21.984 241.807 21.984V22.984ZM251.456 24.76L251.064 25.6802C253.726 26.8125 256.116 28.4347 258.236 30.5551L258.944 29.848L259.651 29.1409C257.355 26.8452 254.753 25.0755 251.847 23.8398L251.456 24.76ZM258.944 29.848L258.133 29.2625L255.013 33.5825L255.824 34.168L256.634 34.7535L259.754 30.4335L258.944 29.848ZM297.74 42.712V43.712H298.74V42.712H297.74ZM297.068 38.392L296.111 38.6814L296.115 38.6949L296.12 38.7082L297.068 38.392ZM291.836 32.392L291.416 33.2993L291.429 33.3054L291.442 33.3111L291.836 32.392ZM279.116 34.408L278.415 33.6951L278.409 33.7009L279.116 34.408ZM275.372 42.712L274.384 42.5619L274.209 43.712H275.372V42.712ZM275.132 49.864V48.864H274.053L274.135 49.9397L275.132 49.864ZM276.476 56.44L275.541 56.7947L275.543 56.8001L276.476 56.44ZM279.26 61L278.534 61.6878L278.544 61.6974L279.26 61ZM283.34 63.688L282.979 64.6204L282.99 64.6248L283.002 64.6289L283.34 63.688ZM293.564 63.88L293.261 62.9271L293.255 62.9291L293.564 63.88ZM297.212 62.392L296.754 61.503L296.743 61.5089L297.212 62.392ZM299.948 60.904L299.46 60.0315L299.452 60.0358L299.444 60.0402L299.948 60.904ZM304.46 61.336L303.623 61.8823L303.647 61.92L303.675 61.9554L304.46 61.336ZM307.868 65.656L308.629 66.3055L309.162 65.6812L308.653 65.0366L307.868 65.656ZM303.452 69.544L303.984 70.3911L303.996 70.3836L303.452 69.544ZM298.316 72.04L298.643 72.9852L298.653 72.9817L298.316 72.04ZM292.892 73.336L292.756 72.3454L292.753 72.3457L292.892 73.336ZM278.012 72.04L277.648 72.9713L277.657 72.9746L278.012 72.04ZM270.332 67L269.615 67.6968L269.62 67.7019L270.332 67ZM265.196 58.744L264.261 59.0981L264.262 59.1011L265.196 58.744ZM264.956 37.864L265.894 38.2107L265.895 38.2074L264.956 37.864ZM269.612 30.136L268.879 29.456L268.879 29.4564L269.612 30.136ZM277.052 24.904L276.654 23.9869L276.65 23.9885L277.052 24.904ZM302.348 28.84L301.635 29.5412L301.641 29.5471L302.348 28.84ZM306.764 35.848L305.829 36.2027L305.834 36.2157L306.764 35.848ZM307.82 48.952L308.666 49.486L308.672 49.4763L308.678 49.4665L307.82 48.952ZM297.74 42.712H298.74C298.74 41.0776 298.502 39.53 298.017 38.0758L297.068 38.392L296.12 38.7082C296.531 39.942 296.74 41.2744 296.74 42.712H297.74ZM297.068 38.392L298.025 38.1026C297.573 36.6058 296.871 35.2827 295.913 34.1471L295.148 34.792L294.384 35.4369C295.154 36.3493 295.732 37.4262 296.111 38.6814L297.068 38.392ZM295.148 34.792L295.913 34.1471C294.939 32.9935 293.704 32.1045 292.23 31.4729L291.836 32.392L291.442 33.3111C292.657 33.8315 293.629 34.5425 294.384 35.4369L295.148 34.792ZM291.836 32.392L292.257 31.4847C290.788 30.8038 289.103 30.48 287.228 30.48V31.48V32.48C288.874 32.48 290.261 32.7642 291.416 33.2993L291.836 32.392ZM287.228 31.48V30.48C283.606 30.48 280.627 31.5187 278.415 33.6952L279.116 34.408L279.818 35.1208C281.573 33.3933 284.003 32.48 287.228 32.48V31.48ZM279.116 34.408L278.409 33.7009C276.265 35.8449 274.95 38.8328 274.384 42.5619L275.372 42.712L276.361 42.8621C276.883 39.4232 278.063 36.8751 279.823 35.1151L279.116 34.408ZM275.372 42.712V43.712H297.74V42.712V41.712H275.372V42.712ZM275.132 49.864L274.135 49.9397C274.332 52.5382 274.795 54.8283 275.541 56.7947L276.476 56.44L277.411 56.0853C276.749 54.3396 276.316 52.2458 276.129 49.7883L275.132 49.864ZM276.476 56.44L275.543 56.8001C276.287 58.7257 277.279 60.3626 278.534 61.6877L279.26 61L279.986 60.3123C278.938 59.2054 278.074 57.8023 277.409 56.0799L276.476 56.44ZM279.26 61L278.544 61.6974C279.798 62.9862 281.279 63.9614 282.979 64.6204L283.34 63.688L283.702 62.7556C282.265 62.1986 281.027 61.3818 279.977 60.3026L279.26 61ZM283.34 63.688L283.002 64.6289C284.723 65.2487 286.6 65.552 288.62 65.552V64.552V63.552C286.801 63.552 285.157 63.2793 283.679 62.7471L283.34 63.688ZM288.62 64.552V65.552C290.613 65.552 292.371 65.3201 293.874 64.8309L293.564 63.88L293.255 62.9291C292.005 63.3359 290.467 63.552 288.62 63.552V64.552ZM293.564 63.88L293.867 64.8329C295.318 64.3714 296.592 63.8538 297.681 63.2751L297.212 62.392L296.743 61.5089C295.784 62.0182 294.626 62.4926 293.261 62.9271L293.564 63.88ZM297.212 62.392L297.67 63.281C298.737 62.7314 299.665 62.2269 300.452 61.7678L299.948 60.904L299.444 60.0402C298.695 60.4771 297.8 60.9646 296.754 61.503L297.212 62.392ZM299.948 60.904L300.437 61.7765C301.124 61.3918 301.725 61.232 302.252 61.232V60.232V59.232C301.308 59.232 300.373 59.5202 299.46 60.0315L299.948 60.904ZM302.252 60.232V61.232C302.958 61.232 303.354 61.4697 303.623 61.8823L304.46 61.336L305.298 60.7897C304.607 59.7303 303.531 59.232 302.252 59.232V60.232ZM304.46 61.336L303.675 61.9554L307.083 66.2754L307.868 65.656L308.653 65.0366L305.245 60.7166L304.46 61.336ZM307.868 65.656L307.108 65.0065C305.856 66.4719 304.457 67.703 302.909 68.7044L303.452 69.544L303.996 70.3836C305.712 69.273 307.256 67.9121 308.629 66.3055L307.868 65.656ZM303.452 69.544L302.921 68.6969C301.349 69.6829 299.703 70.483 297.98 71.0983L298.316 72.04L298.653 72.9817C300.514 72.317 302.291 71.4531 303.984 70.3911L303.452 69.544ZM298.316 72.04L297.99 71.0948C296.292 71.6814 294.547 72.0982 292.756 72.3454L292.892 73.336L293.029 74.3266C294.949 74.0618 296.821 73.6146 298.643 72.9852L298.316 72.04ZM292.892 73.336L292.753 72.3457C290.972 72.5957 289.243 72.72 287.564 72.72V73.72V74.72C289.342 74.72 291.164 74.5883 293.031 74.3263L292.892 73.336ZM287.564 73.72V72.72C284.251 72.72 281.189 72.1785 278.368 71.1054L278.012 72.04L277.657 72.9746C280.724 74.1415 284.029 74.72 287.564 74.72V73.72ZM278.012 72.04L278.377 71.1088C275.561 70.0069 273.12 68.404 271.044 66.2981L270.332 67L269.62 67.7019C271.897 70.012 274.576 71.7691 277.648 72.9712L278.012 72.04ZM270.332 67L271.05 66.3032C268.979 64.1715 267.336 61.5392 266.13 58.3869L265.196 58.744L264.262 59.1011C265.553 62.4768 267.334 65.3485 269.615 67.6968L270.332 67ZM265.196 58.744L266.131 58.3899C264.935 55.2294 264.324 51.5454 264.324 47.32H263.324H262.324C262.324 51.7346 262.962 55.6666 264.261 59.0981L265.196 58.744ZM263.324 47.32H264.324C264.324 44.0699 264.85 41.0361 265.894 38.2106L264.956 37.864L264.018 37.5173C262.886 40.5799 262.324 43.8501 262.324 47.32H263.324ZM264.956 37.864L265.895 38.2074C266.941 35.3474 268.426 32.8878 270.346 30.8156L269.612 30.136L268.879 29.4564C266.766 31.7362 265.147 34.4286 264.017 37.5206L264.956 37.864ZM269.612 30.136L270.345 30.816C272.295 28.7139 274.661 27.0476 277.455 25.8195L277.052 24.904L276.65 23.9885C273.62 25.3204 271.025 27.1421 268.879 29.456L269.612 30.136ZM277.052 24.904L277.451 25.8211C280.252 24.6032 283.425 23.984 286.988 23.984V22.984V21.984C283.191 21.984 279.74 22.6448 276.654 23.9869L277.052 24.904ZM286.988 22.984V23.984C289.984 23.984 292.727 24.4624 295.227 25.4074L295.58 24.472L295.934 23.5366C293.185 22.4976 290.2 21.984 286.988 21.984V22.984ZM295.58 24.472L295.227 25.4074C297.721 26.3504 299.853 27.7286 301.635 29.5411L302.348 28.84L303.061 28.1389C301.068 26.1114 298.687 24.5776 295.934 23.5366L295.58 24.472ZM302.348 28.84L301.641 29.5471C303.418 31.3241 304.818 33.5356 305.829 36.2027L306.764 35.848L307.699 35.4933C306.599 32.5924 305.054 30.1319 303.055 28.1329L302.348 28.84ZM306.764 35.848L305.834 36.2157C306.868 38.8297 307.396 41.8533 307.396 45.304H308.396H309.396C309.396 41.6507 308.837 38.3703 307.694 35.4803L306.764 35.848ZM308.396 45.304H307.396C307.396 46.169 307.35 46.8651 307.264 47.404C307.177 47.9569 307.06 48.2762 306.963 48.4375L307.82 48.952L308.678 49.4665C308.965 48.9878 309.135 48.3791 309.24 47.716C309.347 47.0389 309.396 46.2309 309.396 45.304H308.396ZM307.82 48.952L306.975 48.418C306.856 48.6066 306.545 48.864 305.612 48.864V49.864V50.864C306.856 50.864 308.017 50.5134 308.666 49.486L307.82 48.952ZM305.612 49.864V48.864H275.132V49.864V50.864H305.612V49.864ZM347.341 33.352L346.495 32.8194L346.493 32.822L347.341 33.352ZM346.333 34.456L346.812 35.3339L346.842 35.3178L346.87 35.2997L346.333 34.456ZM343.117 34.264L342.67 35.1584L342.679 35.1627L342.688 35.1669L343.117 34.264ZM340.862 33.208L340.428 34.109L340.441 34.1156L340.455 34.1218L340.862 33.208ZM337.885 32.104L337.603 33.0634L337.611 33.0655L337.885 32.104ZM328.478 33.112L327.884 32.3074L327.874 32.3143L328.478 33.112ZM327.517 39.688L326.779 40.3623L326.794 40.379L326.81 40.3951L327.517 39.688ZM330.254 41.56L329.817 42.4596L329.827 42.4642L330.254 41.56ZM334.142 43.048L333.844 44.0029L333.854 44.0059L333.864 44.0087L334.142 43.048ZM338.509 44.44L338.181 45.3845L338.187 45.3867L338.509 44.44ZM342.926 46.216L342.503 47.1222L342.511 47.1261L342.519 47.1298L342.926 46.216ZM346.766 48.712L346.091 49.45L346.102 49.4601L346.113 49.4698L346.766 48.712ZM349.501 52.312L348.599 52.7427L348.603 52.751L348.607 52.7592L349.501 52.312ZM349.262 63.976L348.342 63.5821L348.339 63.5893L349.262 63.976ZM345.518 69.16L346.172 69.9162L346.18 69.909L345.518 69.16ZM339.326 72.568L339.638 73.518L339.645 73.5154L339.326 72.568ZM325.885 73.288L326.078 72.3067L326.07 72.3052L326.063 72.3038L325.885 73.288ZM321.229 72.04L320.883 72.978L320.889 72.9804L321.229 72.04ZM317.102 70.12L316.593 70.9814L316.603 70.9869L317.102 70.12ZM313.789 67.72L312.934 67.2015L312.505 67.9094L313.121 68.4633L313.789 67.72ZM316.526 63.208L315.686 62.6647L315.678 62.677L315.67 62.6895L316.526 63.208ZM317.773 61.96L318.288 62.8175L317.773 61.96ZM321.661 62.152L321.117 62.9904L321.126 62.9965L321.135 63.0023L321.661 62.152ZM323.966 63.496L323.48 64.3702L323.966 63.496ZM326.99 64.84L326.65 65.7806L326.658 65.7835L326.99 64.84ZM335.053 64.984L335.361 65.9357L335.37 65.9328L335.379 65.9297L335.053 64.984ZM337.549 63.64L336.92 62.8628L336.911 62.8703L336.902 62.8781L337.549 63.64ZM338.99 61.768L338.072 61.3693L338.068 61.3793L338.064 61.3894L338.99 61.768ZM338.414 56.68L337.675 57.3543L337.683 57.3628L337.691 57.3712L338.414 56.68ZM335.677 54.76L335.241 55.6596L335.25 55.6642L335.677 54.76ZM331.789 53.32L331.492 54.2749L331.505 54.2787L331.518 54.2823L331.789 53.32ZM327.326 51.88L327.003 52.8267L327.009 52.8287L327.326 51.88ZM322.862 50.104L322.422 51.0024L322.434 51.0082L322.446 51.0137L322.862 50.104ZM318.974 47.464L318.287 48.1917L318.298 48.2012L318.974 47.464ZM316.237 43.576L315.321 43.9768L315.325 43.9848L315.328 43.9927L316.237 43.576ZM316.43 32.248L315.514 31.8463L316.43 32.248ZM319.934 27.496L320.592 28.2486L320.593 28.2476L319.934 27.496ZM325.741 24.232L326.07 25.1767L326.077 25.174L325.741 24.232ZM343.069 24.664L343.443 23.7363L343.069 24.664ZM350.03 29.08L350.876 29.6126L351.305 28.9311L350.73 28.3668L350.03 29.08ZM347.341 33.352L346.493 32.822C346.22 33.2599 345.979 33.496 345.797 33.6123L346.333 34.456L346.87 35.2997C347.392 34.968 347.823 34.4681 348.19 33.882L347.341 33.352ZM346.333 34.456L345.855 33.5781C345.693 33.6665 345.423 33.744 344.99 33.744V34.744V35.744C345.644 35.744 346.27 35.6295 346.812 35.3339L346.333 34.456ZM344.99 34.744V33.744C344.599 33.744 344.123 33.6352 343.547 33.3611L343.117 34.264L342.688 35.1669C343.456 35.5328 344.228 35.744 344.99 35.744V34.744ZM343.117 34.264L343.565 33.3696C342.908 33.0411 342.141 32.6825 341.268 32.2942L340.862 33.208L340.455 34.1218C341.31 34.5015 342.047 34.8469 342.67 35.1584L343.117 34.264ZM340.862 33.208L341.295 32.307C340.371 31.8618 339.324 31.4749 338.16 31.1425L337.885 32.104L337.611 33.0655C338.687 33.3731 339.624 33.7222 340.428 34.109L340.862 33.208ZM337.885 32.104L338.168 31.1446C336.964 30.7905 335.568 30.624 333.997 30.624V31.624V32.624C335.435 32.624 336.631 32.7775 337.603 33.0634L337.885 32.104ZM333.997 31.624V30.624C331.531 30.624 329.456 31.1468 327.884 32.3074L328.478 33.112L329.071 33.9166C330.187 33.0932 331.792 32.624 333.997 32.624V31.624ZM328.478 33.112L327.874 32.3143C326.321 33.4891 325.509 35.0764 325.509 37H326.509H327.509C327.509 35.7235 328.01 34.7189 329.081 33.9097L328.478 33.112ZM326.509 37H325.509C325.509 38.2892 325.928 39.4303 326.779 40.3623L327.517 39.688L328.256 39.0137C327.763 38.4737 327.509 37.8228 327.509 37H326.509ZM327.517 39.688L326.81 40.3951C327.61 41.1947 328.62 41.8785 329.817 42.4595L330.254 41.56L330.69 40.6605C329.647 40.1535 328.833 39.5893 328.225 38.9809L327.517 39.688ZM330.254 41.56L329.827 42.4642C331.027 43.0313 332.368 43.5435 333.844 44.0029L334.142 43.048L334.439 42.0931C333.035 41.6565 331.784 41.1767 330.681 40.6558L330.254 41.56ZM334.142 43.048L333.864 44.0087C335.286 44.4196 336.725 44.8781 338.181 45.3845L338.509 44.44L338.838 43.4955C337.35 42.9779 335.877 42.5084 334.419 42.0873L334.142 43.048ZM338.509 44.44L338.187 45.3867C339.657 45.887 341.095 46.4655 342.503 47.1222L342.926 46.216L343.348 45.3098C341.876 44.6225 340.37 44.017 338.832 43.4933L338.509 44.44ZM342.926 46.216L342.519 47.1298C343.865 47.7278 345.053 48.5015 346.091 49.45L346.766 48.712L347.44 47.974C346.238 46.8745 344.866 45.9842 343.332 45.3022L342.926 46.216ZM346.766 48.712L346.113 49.4698C347.157 50.3689 347.985 51.4565 348.599 52.7427L349.501 52.312L350.404 51.8813C349.674 50.3515 348.678 49.0391 347.418 47.9542L346.766 48.712ZM349.501 52.312L348.607 52.7592C349.226 53.997 349.557 55.5319 349.557 57.4H350.557H351.557C351.557 55.3001 351.185 53.443 350.396 51.8648L349.501 52.312ZM350.557 57.4H349.557C349.557 59.6435 349.149 61.7002 348.342 63.5821L349.262 63.976L350.181 64.3699C351.102 62.2198 351.557 59.8925 351.557 57.4H350.557ZM349.262 63.976L348.339 63.5893C347.567 65.4299 346.41 67.0353 344.855 68.411L345.518 69.16L346.18 69.909C347.953 68.3407 349.292 66.4901 350.184 64.3627L349.262 63.976ZM345.518 69.16L344.863 68.4038C343.313 69.7451 341.369 70.8226 339.006 71.6206L339.326 72.568L339.645 73.5154C342.21 72.6494 344.394 71.4549 346.172 69.9162L345.518 69.16ZM339.326 72.568L339.013 71.6181C336.703 72.3778 333.997 72.768 330.878 72.768V73.768V74.768C334.158 74.768 337.084 74.3582 339.638 73.5179L339.326 72.568ZM330.878 73.768V72.768C329.245 72.768 327.645 72.614 326.078 72.3067L325.885 73.288L325.693 74.2693C327.39 74.602 329.118 74.768 330.878 74.768V73.768ZM325.885 73.288L326.063 72.3038C324.517 72.0256 323.02 71.6241 321.57 71.0996L321.229 72.04L320.889 72.9804C322.447 73.5439 324.054 73.9744 325.708 74.2722L325.885 73.288ZM321.229 72.04L321.576 71.102C320.153 70.5762 318.829 69.9595 317.6 69.2531L317.102 70.12L316.603 70.9869C317.934 71.7525 319.362 72.4158 320.883 72.978L321.229 72.04ZM317.102 70.12L317.609 69.2586C316.412 68.5525 315.363 67.7911 314.458 66.9767L313.789 67.72L313.121 68.4633C314.136 69.3769 315.295 70.2155 316.594 70.9814L317.102 70.12ZM313.789 67.72L314.645 68.2385L317.381 63.7265L316.526 63.208L315.67 62.6895L312.934 67.2015L313.789 67.72ZM316.526 63.208L317.365 63.7513C317.647 63.3153 317.958 63.0154 318.288 62.8175L317.773 61.96L317.259 61.1025C316.629 61.4806 316.108 62.0127 315.686 62.6647L316.526 63.208ZM317.773 61.96L318.288 62.8175C318.571 62.6477 318.987 62.528 319.598 62.528V61.528V60.528C318.736 60.528 317.936 60.6963 317.259 61.1025L317.773 61.96ZM319.598 61.528V62.528C320.133 62.528 320.632 62.6758 321.117 62.9904L321.661 62.152L322.206 61.3136C321.411 60.7962 320.534 60.528 319.598 60.528V61.528ZM321.661 62.152L321.135 63.0023C321.823 63.4283 322.605 63.8843 323.48 64.3702L323.966 63.496L324.451 62.6218C323.598 62.1477 322.844 61.7077 322.188 61.3017L321.661 62.152ZM323.966 63.496L323.48 64.3702C324.4 64.8814 325.459 65.3505 326.65 65.7806L326.99 64.84L327.329 63.8994C326.216 63.4975 325.259 63.0705 324.451 62.6218L323.966 63.496ZM326.99 64.84L326.658 65.7835C327.983 66.2492 329.593 66.464 331.453 66.464V65.464V64.464C329.73 64.464 328.363 64.2628 327.321 63.8965L326.99 64.84ZM331.453 65.464V66.464C332.932 66.464 334.241 66.2967 335.361 65.9357L335.053 64.984L334.746 64.0323C333.882 64.3113 332.791 64.464 331.453 64.464V65.464ZM335.053 64.984L335.379 65.9297C336.488 65.5483 337.439 65.0464 338.197 64.4019L337.549 63.64L336.902 62.8781C336.38 63.3216 335.667 63.7157 334.728 64.0383L335.053 64.984ZM337.549 63.64L338.179 64.4172C338.963 63.7821 339.555 63.0265 339.915 62.1466L338.99 61.768L338.064 61.3894C337.848 61.9175 337.48 62.4099 336.92 62.8628L337.549 63.64ZM338.99 61.768L339.907 62.1667C340.279 61.3107 340.47 60.4234 340.47 59.512H339.47H338.47C338.47 60.1366 338.34 60.7533 338.072 61.3693L338.99 61.768ZM339.47 59.512H340.47C340.47 58.139 340.042 56.9357 339.136 55.9888L338.414 56.68L337.691 57.3712C338.193 57.8963 338.47 58.581 338.47 59.512H339.47ZM338.414 56.68L339.152 56.0057C338.371 55.1508 337.343 54.4406 336.104 53.8558L335.677 54.76L335.25 55.6642C336.316 56.1674 337.112 56.7372 337.675 57.3543L338.414 56.68ZM335.677 54.76L336.114 53.8605C334.931 53.2857 333.578 52.7862 332.061 52.3577L331.789 53.32L331.518 54.2823C332.945 54.6858 334.184 55.1463 335.241 55.6595L335.677 54.76ZM331.789 53.32L332.087 52.3651C330.653 51.9193 329.172 51.4413 327.642 50.9313L327.326 51.88L327.009 52.8287C328.551 53.3427 330.046 53.8247 331.492 54.2749L331.789 53.32ZM327.326 51.88L327.648 50.9333C326.176 50.4323 324.719 49.8527 323.277 49.1943L322.862 50.104L322.446 51.0137C323.948 51.6993 325.467 52.3037 327.003 52.8266L327.326 51.88ZM322.862 50.104L323.301 49.2056C321.945 48.5426 320.729 47.7164 319.649 46.7268L318.974 47.464L318.298 48.2012C319.522 49.3236 320.898 50.2574 322.422 51.0024L322.862 50.104ZM318.974 47.464L319.66 46.7364C318.642 45.777 317.802 44.5898 317.147 43.1593L316.237 43.576L315.328 43.9927C316.081 45.6342 317.065 47.039 318.287 48.1916L318.974 47.464ZM316.237 43.576L317.154 43.1752C316.551 41.7972 316.229 40.0854 316.229 38.008H315.229H314.229C314.229 40.2826 314.58 42.2828 315.321 43.9768L316.237 43.576ZM315.229 38.008H316.229C316.229 36.1285 316.602 34.3455 317.345 32.6497L316.43 32.248L315.514 31.8463C314.657 33.7985 314.229 35.8555 314.229 38.008H315.229ZM316.43 32.248L317.345 32.6497C318.085 30.9635 319.164 29.4984 320.592 28.2486L319.934 27.496L319.275 26.7434C317.631 28.1816 316.374 29.8845 315.514 31.8463L316.43 32.248ZM319.934 27.496L320.593 28.2476C322.049 26.9699 323.867 25.9414 326.07 25.1767L325.741 24.232L325.413 23.2873C323.008 24.1226 320.954 25.2701 319.274 26.7444L319.934 27.496ZM325.741 24.232L326.077 25.174C328.284 24.3879 330.855 23.984 333.806 23.984V22.984V21.984C330.676 21.984 327.871 22.412 325.406 23.29L325.741 24.232ZM333.806 22.984V23.984C337.086 23.984 340.045 24.5253 342.696 25.5917L343.069 24.664L343.443 23.7363C340.526 22.5627 337.309 21.984 333.806 21.984V22.984ZM343.069 24.664L342.696 25.5917C345.377 26.67 347.58 28.0747 349.329 29.7932L350.03 29.08L350.73 28.3668C348.767 26.4373 346.33 24.898 343.443 23.7363L343.069 24.664ZM350.03 29.08L349.183 28.5474L346.495 32.8194L347.341 33.352L348.188 33.8846L350.876 29.6126L350.03 29.08Z" fill="white" mask="url(#path-1-outside-1_42_768)"/>
</svg>
