<svg width="68" height="68" viewBox="0 0 68 68" fill="none" xmlns="http://www.w3.org/2000/svg">
<g clip-path="url(#clip0_32_731)">
<path fill-rule="evenodd" clip-rule="evenodd" d="M55.7843 1.84086C55.6807 1.42329 55.468 1.04074 55.168 0.732335C54.868 0.423932 54.4915 0.200753 54.077 0.0856297C53.6624 -0.0294931 53.2248 -0.0324268 52.8087 0.0771288C52.3927 0.186684 52.0132 0.404796 51.7091 0.70915L41.9948 10.4234C41.6986 10.7203 41.4843 11.0889 41.3728 11.4932C41.2612 11.8975 41.2564 12.3238 41.3585 12.7306L43.1071 19.7443L43.0391 19.8123L31.4257 31.4257C30.7822 32.1163 30.4319 33.0297 30.4486 33.9734C30.4652 34.9172 30.8475 35.8176 31.515 36.485C32.1824 37.1525 33.0828 37.5348 34.0266 37.5514C34.9703 37.5681 35.8837 37.2178 36.5743 36.5743L48.1974 24.9657L48.2654 24.8929L55.2743 26.6463C55.681 26.7485 56.1073 26.7436 56.5116 26.6321C56.916 26.5206 57.2845 26.3063 57.5814 26.01L67.2957 16.2957C67.6013 15.9918 67.8205 15.6119 67.9308 15.1952C68.0411 14.7786 68.0385 14.34 67.9233 13.9247C67.8081 13.5093 67.5844 13.1321 67.2752 12.8318C66.966 12.5314 66.5825 12.3188 66.164 12.2157L57.8631 10.1466L55.7843 1.84086ZM35.5397 3.68658C35.6064 4.65009 35.2878 5.60066 34.6539 6.32932C34.0199 7.05797 33.1226 7.50506 32.1591 7.57229C27.0844 7.92398 22.2172 9.72513 18.1361 12.7617C14.0549 15.7983 10.9313 19.9427 9.13632 24.7024C7.34137 29.4622 6.95057 34.6371 8.01036 39.6124C9.07014 44.5878 11.536 49.1542 15.1148 52.7693C18.6937 56.3844 23.2351 58.896 28.1995 60.0058C33.1639 61.1157 38.3425 60.777 43.1201 59.03C47.8976 57.2831 52.0732 54.2013 55.1508 50.151C58.2283 46.1006 60.0784 41.2518 60.4811 36.1809C60.5578 35.2173 61.014 34.3236 61.7496 33.6965C62.4851 33.0693 63.4397 32.7601 64.4033 32.8367C65.3668 32.9134 66.2605 33.3697 66.8876 34.1052C67.5148 34.8407 67.824 35.7953 67.7474 36.7589C67.2334 43.2199 64.8755 49.3976 60.9538 54.558C57.0321 59.7184 51.7114 63.6446 45.624 65.8701C39.5366 68.0956 32.9383 68.5269 26.613 67.1127C20.2877 65.6984 14.5013 62.4982 9.94125 57.8922C5.38123 53.2861 2.23926 47.4679 0.88864 41.1287C-0.461981 34.7895 0.0355172 28.1958 2.32203 22.1311C4.60854 16.0663 8.58795 10.7854 13.7875 6.9157C18.987 3.04602 25.1881 0.750253 31.654 0.30115C32.6175 0.23442 33.5681 0.553044 34.2967 1.18697C35.0254 1.8209 35.4725 2.7231 35.5397 3.68658ZM32.2757 19.7054C32.4502 20.151 32.5353 20.6265 32.526 21.1049C32.5167 21.5833 32.4133 22.0552 32.2216 22.4936C32.0299 22.9321 31.7537 23.3284 31.4088 23.6601C31.0639 23.9917 30.657 24.2522 30.2114 24.4266C28.6185 25.0514 27.2064 26.0634 26.1027 27.371C24.999 28.6786 24.2386 30.2406 23.8902 31.9158C23.5418 33.5911 23.6163 35.3267 24.1071 36.9659C24.5978 38.6052 25.4893 40.0962 26.701 41.3044C27.9127 42.5126 29.4064 43.3997 31.047 43.8857C32.6877 44.3717 34.4235 44.4412 36.0978 44.0879C37.772 43.7346 39.3318 42.9696 40.6361 41.8621C41.9405 40.7547 42.9483 39.3396 43.5685 37.7449C43.742 37.299 44.0017 36.8917 44.3326 36.5462C44.6635 36.2006 45.0592 35.9237 45.4971 35.7311C45.9351 35.5385 46.4067 35.4341 46.885 35.4237C47.3633 35.4134 47.839 35.4974 48.2848 35.6709C48.7307 35.8444 49.138 36.104 49.4835 36.4349C49.8291 36.7658 50.106 37.1615 50.2986 37.5995C50.4912 38.0374 50.5956 38.509 50.606 38.9873C50.6163 39.4656 50.5323 39.9413 50.3588 40.3871C49.2995 43.1105 47.5781 45.5268 45.3504 47.4178C43.1226 49.3087 40.4587 50.6147 37.5995 51.2175C34.7403 51.8204 31.7759 51.7011 28.9743 50.8705C26.1727 50.04 23.6224 48.5243 21.5537 46.4604C19.4851 44.3966 17.9634 41.8498 17.1262 39.0502C16.2891 36.2506 16.1629 33.2865 16.759 30.4259C17.3551 27.5652 18.6548 24.8983 20.5405 22.6661C22.4263 20.4339 24.8386 18.7069 27.5594 17.6411C28.4586 17.2902 29.4604 17.3104 30.3447 17.6975C31.229 18.0845 31.9235 18.8067 32.2757 19.7054Z" fill="#FFD74B"/>
</g>
<defs>
<clipPath id="clip0_32_731">
<rect width="68" height="68" fill="white"/>
</clipPath>
</defs>
</svg>
