<svg width="101" height="101" viewBox="0 0 101 101" fill="none" xmlns="http://www.w3.org/2000/svg">
<g clip-path="url(#clip0_32_697)">
<path fill-rule="evenodd" clip-rule="evenodd" d="M70.801 4.80479C72.1212 -1.22635 80.7134 -1.26242 82.0986 4.76151L82.1635 5.05008L82.2861 5.60558C83.8733 12.3509 89.3273 17.4947 96.152 18.6851C102.443 19.7817 102.443 28.8139 96.152 29.9105C92.7975 30.4982 89.6908 32.0621 87.2206 34.4065C84.7504 36.7509 83.0265 39.7718 82.2645 43.091L82.0986 43.8269C80.7279 49.8508 72.1284 49.8147 70.8082 43.7764L70.6711 43.1487C69.9429 39.8147 68.2376 36.7734 65.7731 34.4129C63.3085 32.0524 60.1964 30.4799 56.8341 29.8961C50.5577 28.8067 50.5577 19.7889 56.8341 18.6923C60.183 18.1096 63.2835 16.546 65.743 14.1996C68.2024 11.8532 69.91 8.82955 70.6495 5.51179L70.7505 5.04287L70.801 4.80479ZM55.4851 37.6154C41.9511 35.2635 40.6741 17.4514 51.6471 12.1706C50.6659 10.4055 49.6295 8.67165 48.5377 6.96908C47.3958 6.93031 46.2529 6.93031 45.1109 6.96908C36.9456 19.7336 31.9196 34.2506 30.4443 49.3314H63.2188C63.0024 47.1671 62.7138 45.0172 62.3531 42.8818C61.7168 41.5187 60.762 40.3286 59.5691 39.412C58.3763 38.4954 56.9805 37.8792 55.4995 37.6154M0.144288 49.3314C1.04886 40.0244 4.71104 31.1994 10.6618 23.9865C16.6125 16.7736 24.5809 11.5013 33.5464 8.84479C26.7976 21.3796 22.6598 35.1525 21.3831 49.3314H0.12986M0.194789 58.3492H21.3759C22.6549 72.5286 26.7951 86.3015 33.5464 98.8358C24.5796 96.1805 16.6096 90.9087 10.6575 83.6957C4.70541 76.4827 1.04217 67.657 0.137074 58.3492H0.194789ZM30.4299 58.3492C31.9073 73.4306 36.9359 87.9476 45.1037 100.712C46.2456 100.75 47.3886 100.75 48.5305 100.712C56.6983 87.9476 61.7269 73.4306 63.2044 58.3492H30.4299ZM93.5044 58.3492C92.5998 67.6561 88.9376 76.4812 82.9869 83.6941C77.0361 90.9069 69.0677 96.1793 60.1022 98.8358C66.8486 86.3004 70.9838 72.5275 72.2583 58.3492H93.5044Z" fill="white"/>
</g>
<defs>
<clipPath id="clip0_32_697">
<rect width="101" height="101" fill="white"/>
</clipPath>
</defs>
</svg>
