<svg width="77" height="77" viewBox="0 0 77 77" fill="none" xmlns="http://www.w3.org/2000/svg">
<path d="M52.9375 65.4019L46.7053 59.1697L43.3125 62.5625L52.9375 72.1875L72.1875 52.9375L68.7947 49.5447L52.9375 65.4019Z" fill="#FFD74B"/>
<path d="M60.1562 12.0312H52.9375V9.625C52.9337 8.34982 52.4254 7.12795 51.5237 6.22626C50.6221 5.32456 49.4002 4.81631 48.125 4.8125H28.875C27.5998 4.81631 26.378 5.32456 25.4763 6.22626C24.5746 7.12795 24.0663 8.34982 24.0625 9.625V12.0312H16.8438C15.5686 12.0351 14.3467 12.5433 13.445 13.445C12.5433 14.3467 12.0351 15.5686 12.0312 16.8438V67.375C12.0351 68.6502 12.5433 69.8721 13.445 70.7738C14.3467 71.6754 15.5686 72.1837 16.8438 72.1875H38.5V67.375H16.8438V16.8438H24.0625V24.0625H52.9375V16.8438H60.1562V43.3125H64.9688V16.8438C64.9649 15.5686 64.4567 14.3467 63.555 13.445C62.6533 12.5433 61.4314 12.0351 60.1562 12.0312ZM48.125 19.25H28.875V9.625H48.125V19.25Z" fill="#FFD74B"/>
</svg>
