<svg width="300" height="250" viewBox="0 0 300 250" fill="none" xmlns="http://www.w3.org/2000/svg">
<path d="M173.2 104.87C173.208 107.125 172.546 109.331 171.299 111.21C170.052 113.088 168.275 114.555 166.194 115.422C164.113 116.29 161.821 116.521 159.609 116.085C157.396 115.65 155.363 114.567 153.767 112.975C152.17 111.382 151.082 109.352 150.641 107.141C150.199 104.93 150.424 102.637 151.286 100.554C152.148 98.4702 153.61 96.6897 155.485 95.4375C157.36 94.1854 159.565 93.5181 161.82 93.52C163.318 93.4958 164.807 93.7726 166.196 94.334C167.586 94.8955 168.849 95.7301 169.91 96.7885C170.971 97.8469 171.809 99.1076 172.374 100.496C172.939 101.884 173.22 103.371 173.2 104.87ZM168.2 104.87C168.112 103.622 167.662 102.427 166.905 101.432C166.147 100.437 165.115 99.6844 163.936 99.2674C162.757 98.8503 161.482 98.7869 160.267 99.0847C159.052 99.3826 157.951 100.029 157.098 100.944C156.246 101.859 155.679 103.003 155.468 104.236C155.257 105.469 155.41 106.737 155.91 107.883C156.409 109.03 157.232 110.006 158.279 110.691C159.325 111.376 160.549 111.741 161.8 111.74C162.677 111.726 163.543 111.536 164.346 111.18C165.148 110.824 165.87 110.311 166.47 109.669C167.069 109.028 167.533 108.273 167.834 107.448C168.134 106.623 168.266 105.747 168.22 104.87H168.2Z" fill="#747474"/>
<path d="M197.76 104.87C197.768 107.125 197.107 109.331 195.86 111.21C194.612 113.088 192.836 114.555 190.755 115.422C188.674 116.29 186.382 116.521 184.169 116.085C181.957 115.65 179.924 114.567 178.327 112.975C176.731 111.382 175.643 109.352 175.201 107.141C174.759 104.93 174.984 102.637 175.847 100.554C176.709 98.4702 178.17 96.6897 180.046 95.4375C181.921 94.1854 184.126 93.5181 186.38 93.52C187.879 93.4958 189.367 93.7726 190.757 94.334C192.147 94.8955 193.409 95.7301 194.471 96.7885C195.532 97.8469 196.37 99.1076 196.935 100.496C197.5 101.884 197.781 103.371 197.76 104.87ZM192.76 104.87C192.673 103.622 192.223 102.427 191.465 101.432C190.708 100.437 189.676 99.6844 188.497 99.2674C187.318 98.8503 186.042 98.7869 184.827 99.0847C183.613 99.3826 182.511 100.029 181.659 100.944C180.806 101.859 180.24 103.003 180.028 104.236C179.817 105.469 179.971 106.737 180.47 107.883C180.97 109.03 181.793 110.006 182.839 110.691C183.886 111.376 185.11 111.741 186.36 111.74C187.238 111.726 188.104 111.536 188.906 111.18C189.709 110.824 190.431 110.311 191.03 109.669C191.63 109.028 192.093 108.273 192.394 107.448C192.695 106.623 192.826 105.747 192.78 104.87H192.76Z" fill="#747474"/>
<path d="M221.3 94.1999V114.58C221.3 122.96 216.36 126.38 210.51 126.38C208.358 126.393 206.251 125.763 204.458 124.571C202.666 123.38 201.27 121.68 200.45 119.69L204.79 117.89C205.24 119.048 206.024 120.047 207.042 120.759C208.06 121.472 209.268 121.865 210.51 121.89C214.25 121.89 216.57 119.59 216.57 115.24V113.61H216.39C215.64 114.453 214.714 115.122 213.677 115.568C212.64 116.013 211.518 116.226 210.39 116.19C207.44 116.102 204.639 114.869 202.583 112.751C200.527 110.633 199.377 107.797 199.377 104.845C199.377 101.893 200.527 99.0573 202.583 96.9393C204.639 94.8212 207.44 93.5875 210.39 93.4999C211.513 93.4697 212.629 93.6798 213.664 94.1162C214.698 94.5525 215.628 95.205 216.39 96.0299H216.57V94.2099H221.3V94.1999ZM216.92 104.91C216.92 100.91 214.25 97.9899 210.86 97.9899C207.47 97.9899 204.54 100.91 204.54 104.91C204.497 105.776 204.627 106.641 204.924 107.456C205.22 108.27 205.675 109.018 206.264 109.654C206.853 110.29 207.562 110.802 208.352 111.16C209.141 111.519 209.994 111.716 210.86 111.74C214.25 111.74 216.92 108.86 216.92 104.91Z" fill="#747474"/>
<path d="M229.1 82.2607V115.521H224.24V82.2607H229.1Z" fill="#747474"/>
<path d="M248 108.6L251.87 111.18C250.831 112.73 249.424 113.999 247.775 114.871C246.126 115.744 244.286 116.194 242.42 116.18C240.928 116.202 239.446 115.923 238.064 115.359C236.682 114.795 235.428 113.959 234.377 112.899C233.326 111.84 232.499 110.579 231.947 109.193C231.394 107.806 231.126 106.323 231.16 104.83C231.16 98.0805 236.01 93.4805 241.86 93.4805C247.71 93.4805 250.63 98.1705 251.57 100.7L252.09 101.99L237 108.3C237.465 109.36 238.239 110.255 239.22 110.868C240.201 111.482 241.344 111.786 242.5 111.74C243.609 111.733 244.698 111.441 245.661 110.891C246.625 110.341 247.43 109.552 248 108.6ZM236.1 104.52L246.24 100.31C245.852 99.5404 245.246 98.9014 244.497 98.4729C243.749 98.0444 242.891 97.8454 242.03 97.9005C241.207 97.9438 240.401 98.1499 239.658 98.507C238.915 98.8641 238.251 99.365 237.703 99.9807C237.155 100.596 236.735 101.315 236.467 102.094C236.198 102.873 236.087 103.698 236.14 104.52H236.1Z" fill="#747474"/>
<path d="M132 101.91V97.1004H148.23C148.399 98.0576 148.48 99.0284 148.47 100C148.47 103.62 147.47 108.08 144.3 111.27C142.717 112.918 140.802 114.211 138.681 115.062C136.561 115.914 134.283 116.305 132 116.21C129.627 116.308 127.259 115.926 125.037 115.085C122.816 114.244 120.788 112.963 119.074 111.319C117.36 109.675 115.996 107.701 115.065 105.516C114.133 103.331 113.653 100.98 113.653 98.6054C113.653 96.2303 114.133 93.8797 115.065 91.6949C115.996 89.5101 117.36 87.5362 119.074 85.8917C120.788 84.2473 122.816 82.9663 125.037 82.1257C127.259 81.2852 129.627 80.9024 132 81.0004C134.234 80.9636 136.452 81.3737 138.525 82.2066C140.598 83.0395 142.483 84.2784 144.07 85.8504L140.68 89.2504C138.357 86.9946 135.238 85.7475 132 85.7804C128.666 85.8735 125.5 87.2635 123.174 89.6547C120.849 92.046 119.548 95.2499 119.548 98.5854C119.548 101.921 120.849 105.125 123.174 107.516C125.5 109.907 128.666 111.297 132 111.39C133.647 111.458 135.29 111.18 136.823 110.574C138.356 109.968 139.745 109.047 140.9 107.87C142.418 106.22 143.338 104.106 143.51 101.87L132 101.91Z" fill="#747474"/>
<g clip-path="url(#clip0_46_1586)">
<path d="M127.494 134.09L122.489 147.918H132.809L127.649 134.09H127.494ZM118.181 159.89H113.82L125.353 129.239H129.816L141.349 159.89H137.04L134.048 151.582H121.148L118.181 159.89Z" fill="#747474"/>
</g>
<g clip-path="url(#clip1_46_1586)">
<path d="M143.32 138.94H147.113V141.83H147.268C147.921 140.732 148.869 139.838 150.003 139.25C151.181 138.572 152.513 138.208 153.873 138.192C154.962 138.122 156.054 138.284 157.077 138.666C158.1 139.049 159.03 139.643 159.807 140.411C160.552 141.271 161.121 142.269 161.479 143.35C161.838 144.43 161.98 145.571 161.896 146.706V159.89H157.949V146.99C158.032 146.292 157.956 145.585 157.726 144.921C157.496 144.257 157.118 143.654 156.621 143.157C156.124 142.661 155.521 142.283 154.858 142.053C154.194 141.823 153.487 141.747 152.789 141.83C152.026 141.827 151.273 142 150.589 142.335C149.904 142.671 149.306 143.16 148.842 143.765C147.786 145.029 147.227 146.634 147.268 148.28V159.89H143.32V138.94Z" fill="#747474"/>
</g>
<g clip-path="url(#clip2_46_1586)">
<path d="M169.196 153.474C169.19 153.976 169.304 154.472 169.528 154.921C169.753 155.369 170.081 155.758 170.486 156.054C171.362 156.736 172.447 157.092 173.557 157.06C175.199 157.059 176.775 156.41 177.943 155.254C178.562 154.71 179.057 154.039 179.395 153.287C179.733 152.534 179.906 151.719 179.903 150.894C178.393 149.85 176.576 149.342 174.743 149.449C173.329 149.399 171.935 149.806 170.77 150.61C170.287 150.916 169.889 151.339 169.614 151.839C169.339 152.34 169.195 152.903 169.196 153.474ZM174.356 138.226C176.827 138.116 179.246 138.956 181.116 140.574C181.982 141.392 182.661 142.387 183.106 143.491C183.552 144.595 183.753 145.783 183.696 146.973V159.873H179.903V156.983H179.749C179.065 158.095 178.103 159.01 176.959 159.639C175.815 160.268 174.527 160.588 173.221 160.569C171.096 160.635 169.023 159.898 167.416 158.505C166.676 157.868 166.086 157.075 165.689 156.183C165.292 155.291 165.097 154.322 165.12 153.345C165.101 152.341 165.326 151.346 165.775 150.448C166.225 149.549 166.885 148.773 167.7 148.185C169.608 146.809 171.929 146.126 174.279 146.25C176.27 146.171 178.25 146.597 180.032 147.489V146.611C180.04 145.947 179.896 145.29 179.609 144.69C179.323 144.091 178.903 143.565 178.381 143.154C177.357 142.188 175.996 141.66 174.589 141.684C173.561 141.664 172.546 141.91 171.642 142.398C170.738 142.886 169.975 143.6 169.429 144.47L165.817 142.354C166.755 140.999 168.027 139.908 169.508 139.185C170.99 138.462 172.633 138.132 174.279 138.226H174.356Z" fill="#747474"/>
</g>
<g clip-path="url(#clip3_46_1586)">
<path d="M191.888 129.239V159.89H187.94V129.239H191.888Z" fill="#747474"/>
</g>
<g clip-path="url(#clip4_46_1586)">
<path d="M215.1 138.923L201.89 169.109H197.943L202.819 158.557L194.15 138.923H198.433L204.677 153.991L210.843 138.923H215.1Z" fill="#747474"/>
</g>
<g clip-path="url(#clip5_46_1586)">
<path d="M225.925 160.21C224.362 160.264 222.842 159.698 221.694 158.637C221.114 158.068 220.66 157.384 220.362 156.628C220.064 155.872 219.929 155.062 219.965 154.251V142.512H216.25V138.925H219.965V132.527H223.99V138.925H229.15V142.512H223.99V152.961C223.909 153.46 223.929 153.971 224.049 154.463C224.168 154.955 224.385 155.418 224.687 155.824C225.202 156.292 225.874 156.55 226.57 156.547C226.879 156.575 227.19 156.575 227.499 156.547C227.789 156.472 228.073 156.377 228.35 156.263L229.511 159.694C228.35 160.054 227.14 160.228 225.925 160.21Z" fill="#747474"/>
</g>
<g clip-path="url(#clip6_46_1586)">
<path d="M237.653 131.716C237.659 132.085 237.587 132.451 237.44 132.789C237.293 133.127 237.075 133.43 236.801 133.677C236.555 133.943 236.255 134.154 235.922 134.296C235.588 134.438 235.229 134.508 234.866 134.502C234.495 134.516 234.126 134.449 233.783 134.307C233.44 134.164 233.132 133.949 232.88 133.677C232.367 133.148 232.081 132.44 232.081 131.703C232.081 130.967 232.367 130.259 232.88 129.729C233.141 129.471 233.451 129.266 233.792 129.129C234.133 128.992 234.499 128.924 234.866 128.93C235.226 128.929 235.581 129 235.913 129.137C236.245 129.274 236.547 129.476 236.801 129.729C237.078 129.979 237.298 130.286 237.445 130.629C237.592 130.972 237.663 131.343 237.653 131.716ZM236.827 138.94V159.89H232.88V138.94H236.827Z" fill="#747474"/>
</g>
<g clip-path="url(#clip7_46_1586)">
<path d="M250.098 160.569C248.658 160.61 247.226 160.348 245.893 159.802C244.559 159.255 243.356 158.436 242.358 157.396C240.344 155.228 239.26 152.356 239.34 149.398C239.288 147.935 239.529 146.477 240.047 145.108C240.565 143.739 241.351 142.487 242.358 141.426C243.353 140.381 244.556 139.557 245.889 139.005C247.223 138.454 248.656 138.189 250.098 138.226C252.096 138.202 254.051 138.797 255.697 139.929C257.292 141.002 258.539 142.517 259.283 144.289L255.697 145.786C255.282 144.584 254.49 143.549 253.44 142.833C252.389 142.117 251.136 141.759 249.866 141.813C248.975 141.814 248.095 142.011 247.288 142.39C246.481 142.769 245.767 143.32 245.196 144.006C243.886 145.489 243.193 147.419 243.261 149.398C243.199 151.383 243.891 153.319 245.196 154.816C245.768 155.497 246.483 156.045 247.29 156.42C248.097 156.794 248.977 156.986 249.866 156.983C251.161 157.05 252.444 156.704 253.529 155.994C254.614 155.285 255.446 154.249 255.903 153.036L259.412 154.532C258.706 156.347 257.453 157.898 255.826 158.97C254.115 160.053 252.123 160.609 250.098 160.569Z" fill="#747474"/>
</g>
<g clip-path="url(#clip8_46_1586)">
<path d="M278.875 154.068C278.876 154.98 278.655 155.879 278.233 156.688C277.811 157.497 277.199 158.191 276.45 158.712C274.717 160 272.596 160.656 270.438 160.57C268.463 160.61 266.523 160.033 264.891 158.918C263.327 157.852 262.128 156.33 261.46 154.558L264.969 153.062C265.429 154.232 266.206 155.25 267.213 156.003C268.147 156.692 269.278 157.063 270.438 157.061C271.543 157.108 272.638 156.83 273.586 156.261C273.955 156.085 274.27 155.812 274.498 155.471C274.725 155.131 274.855 154.735 274.876 154.326C274.876 152.984 273.844 152.004 271.78 151.385L268.194 150.482C264.04 149.45 262.053 147.463 262.053 144.574C262.026 143.665 262.226 142.764 262.636 141.953C263.047 141.142 263.653 140.446 264.401 139.93C266.143 138.709 268.236 138.093 270.361 138.175C272.171 138.144 273.955 138.608 275.521 139.517C276.903 140.337 277.967 141.601 278.54 143.103L275.057 144.574C274.644 143.683 273.945 142.956 273.07 142.51C272.161 141.986 271.126 141.718 270.077 141.736C269.102 141.728 268.145 141.996 267.317 142.51C266.966 142.688 266.668 142.956 266.455 143.287C266.242 143.618 266.121 144 266.104 144.393C266.104 145.606 267.213 146.457 269.484 146.973L272.631 147.67C276.785 148.831 278.875 150.92 278.875 154.068Z" fill="#747474"/>
</g>
<path d="M76.5996 91.2096V156.12C76.5996 163.39 81.5996 167.43 86.9296 167.43C91.8396 167.43 97.2496 163.99 97.2496 156.12V91.7096C97.2496 85.0496 92.3296 80.8896 86.9296 80.8896C84.2053 80.9334 81.6046 82.0344 79.6771 83.9601C77.7495 85.8858 76.646 88.4854 76.5996 91.2096Z" fill="#F8AB00"/>
<path d="M49.5596 124.16V156.16C49.5596 163.43 54.5596 167.47 59.8796 167.47C64.7996 167.47 70.2096 164.03 70.2096 156.16V124.65C70.2096 118 65.2896 113.83 59.8796 113.83C57.1553 113.876 54.5557 114.98 52.63 116.908C50.7043 118.835 49.6033 121.436 49.5596 124.16Z" fill="#E37300"/>
<path d="M43.16 157.099C43.162 159.143 42.5576 161.142 41.4232 162.842C40.2889 164.542 38.6757 165.868 36.7877 166.651C34.8998 167.434 32.8219 167.64 30.8172 167.241C28.8124 166.843 26.9709 165.859 25.5256 164.414C24.0803 162.968 23.0963 161.127 22.698 159.122C22.2997 157.117 22.5051 155.04 23.2882 153.152C24.0713 151.264 25.3969 149.65 27.0972 148.516C28.7975 147.382 30.7961 146.777 32.84 146.779C35.5762 146.782 38.1996 147.87 40.1344 149.805C42.0692 151.74 43.1574 154.363 43.16 157.099Z" fill="#E37300"/>
<defs>
<clipPath id="clip0_46_1586">
<rect width="27.5286" height="30.6504" fill="white" transform="matrix(1 0 0 -1 113.82 159.89)"/>
</clipPath>
<clipPath id="clip1_46_1586">
<rect width="18.576" height="21.6462" fill="white" transform="matrix(1 0 0 -1 143.32 159.89)"/>
</clipPath>
<clipPath id="clip2_46_1586">
<rect width="18.5502" height="22.3428" fill="white" transform="matrix(1 0 0 -1 165.12 160.569)"/>
</clipPath>
<clipPath id="clip3_46_1586">
<rect width="3.9474" height="30.6504" fill="white" transform="matrix(1 0 0 -1 187.94 159.89)"/>
</clipPath>
<clipPath id="clip4_46_1586">
<rect width="20.9754" height="30.186" fill="white" transform="matrix(1 0 0 -1 194.15 169.109)"/>
</clipPath>
<clipPath id="clip5_46_1586">
<rect width="13.2612" height="27.6834" fill="white" transform="matrix(1 0 0 -1 216.25 160.21)"/>
</clipPath>
<clipPath id="clip6_46_1586">
<rect width="5.5728" height="30.96" fill="white" transform="matrix(1 0 0 -1 232.08 159.89)"/>
</clipPath>
<clipPath id="clip7_46_1586">
<rect width="20.0724" height="22.3428" fill="white" transform="matrix(1 0 0 -1 239.34 160.569)"/>
</clipPath>
<clipPath id="clip8_46_1586">
<rect width="17.415" height="22.3428" fill="white" transform="matrix(1 0 0 -1 261.46 160.569)"/>
</clipPath>
</defs>
</svg>
