<svg width="268" height="41" viewBox="0 0 268 41" fill="none" xmlns="http://www.w3.org/2000/svg">
<path d="M75.02 11.04L70.62 27.94L66.22 11.04H61.79L62.79 14.67L58.95 28.5L54.73 11.04H50.47L56.47 33.12H61.13L64.73 21.3L68.09 33.12H72.73L79.04 11.04H75.02ZM119.79 17.44C118.828 17.2206 117.846 17.0999 116.86 17.08C111.49 17.08 108.56 20.66 108.56 25.91C108.56 31.16 111.49 33.51 114.95 33.51C116.771 33.4399 118.522 32.792 119.95 31.66V33.12H123.63V11.04H119.75L119.79 17.44ZM119.79 28.61C118.831 29.6506 117.511 30.287 116.1 30.39C113.95 30.39 112.58 28.97 112.58 25.64C112.58 22.05 114.29 20.17 117.25 20.17C118.114 20.1691 118.97 20.3355 119.77 20.66V28.66L119.79 28.61ZM101.24 20.03H101.1V17.44H97.48V33.12H101.37V23.78C101.794 22.7865 102.524 21.9541 103.454 21.4039C104.384 20.8536 105.465 20.614 106.54 20.72H106.94V17.35C106.59 17.35 106.23 17.29 105.88 17.28C104.92 17.2271 103.966 17.4614 103.139 17.9529C102.313 18.4445 101.652 19.1711 101.24 20.04V20.03ZM232.35 17.03C226.99 17.03 224.45 20.5 224.45 25.27C224.45 30.04 226.98 33.47 232.35 33.47C237.72 33.47 240.25 30.04 240.25 25.27C240.25 20.5 237.68 17.03 232.34 17.03H232.35ZM232.35 30.34C229.83 30.34 228.47 28.7 228.47 25.27C228.47 21.84 229.81 20.2 232.35 20.2C234.89 20.2 236.2 21.84 236.2 25.27C236.2 28.7 234.88 30.34 232.34 30.34H232.35ZM262.5 17.03C260.564 17.2119 258.718 17.9325 257.17 19.11L256.7 19.41C256.312 18.6294 255.695 17.985 254.933 17.5619C254.171 17.1387 253.298 16.9568 252.43 17.04C250.503 17.2011 248.658 17.8934 247.1 19.04V17.42H243.41V33.1H247.32V21.87C248.529 21.0015 249.948 20.47 251.43 20.33C252.71 20.33 253.52 21.02 253.52 23.23V33.12H257.4V21.92C258.604 21.0414 260.018 20.4964 261.5 20.34C262.79 20.34 263.58 21.02 263.58 23.24V33.12H267.46V22.3C267.46 19.3 265.66 17.06 262.46 17.06L262.5 17.03ZM86.5 17.03C81.14 17.03 78.62 20.5 78.62 25.27C78.62 30.04 81.14 33.47 86.5 33.47C91.86 33.47 94.42 30.04 94.42 25.27C94.42 20.5 91.83 17.03 86.49 17.03H86.5ZM86.5 30.34C83.98 30.34 82.62 28.7 82.62 25.27C82.62 21.84 83.98 20.2 86.52 20.2C89.06 20.2 90.37 21.84 90.37 25.27C90.37 28.7 89.03 30.34 86.49 30.34H86.5ZM150.07 19.99H149.94V17.42H146.3V33.1H150.18V23.76C150.604 22.7665 151.334 21.9341 152.264 21.3838C153.194 20.8336 154.275 20.594 155.35 20.7H155.75V17.33C155.4 17.33 155.04 17.27 154.69 17.26C153.73 17.2098 152.777 17.4452 151.952 17.9365C151.126 18.4277 150.464 19.1528 150.05 20.02L150.07 19.99ZM135.75 10.99H128.53V33.07H132.69V25.39H135.73C140.44 25.39 143.86 22.85 143.86 18.1C143.86 13.35 140.44 10.99 135.73 10.99H135.75ZM135.75 22.15H132.66V14.25H135.73C138.25 14.25 139.48 15.64 139.48 18.1C139.48 20.56 138.33 22.1 135.73 22.1L135.75 22.15ZM192.55 21.79C192.55 20.61 193.85 20.15 195.24 20.15C196.708 20.1708 198.166 20.3998 199.57 20.83V17.61C198.058 17.181 196.491 16.9788 194.92 17.01C191.17 17.01 188.53 18.79 188.53 21.7C188.53 27.33 196.29 25.87 196.29 28.62C196.29 29.96 195.08 30.32 193.29 30.32C191.676 30.22 190.086 29.8831 188.57 29.32V32.52C190.025 33.1013 191.573 33.4163 193.14 33.45C196.8 33.45 200.29 32.36 200.29 28.45C200.29 23.01 192.56 24.45 192.56 21.78L192.55 21.79ZM164.96 17.01C159.96 17.01 157.34 20.91 157.34 25.15C157.34 30.98 160.4 33.46 165.34 33.46C167.295 33.4623 169.239 33.1586 171.1 32.56V29.33C169.613 29.9442 168.028 30.2831 166.42 30.33C163.51 30.33 161.57 29.54 161.48 26.12H171.48C171.573 25.3569 171.616 24.5887 171.61 23.82C171.61 20.51 169.86 17.05 164.87 17.05L164.96 17.01ZM161.55 23.51C161.79 21.33 162.97 19.95 164.91 19.95C166.85 19.95 167.62 21.6 167.62 23.51H161.55ZM178.43 21.79C178.43 20.61 179.7 20.15 181.09 20.15C182.562 20.1708 184.023 20.3998 185.43 20.83V17.61C183.921 17.186 182.358 16.9839 180.79 17.01C177.04 17.01 174.39 18.79 174.39 21.7C174.39 27.33 182.16 25.87 182.16 28.62C182.16 29.96 180.93 30.32 179.16 30.32C177.543 30.219 175.95 29.8821 174.43 29.32V32.52C175.885 33.103 177.433 33.418 179 33.45C182.66 33.45 186.16 32.36 186.16 28.45C186.18 23.07 178.41 24.5 178.41 21.84L178.43 21.79ZM213.07 25.1C213.07 21.43 215.07 20.18 217.46 20.18C218.951 20.2282 220.422 20.5327 221.81 21.08V17.77C220.393 17.2585 218.897 17.0012 217.39 17.01C212.22 17.01 209.02 20.17 209.02 25.29C209.02 30.13 211.32 33.46 217.16 33.46C218.817 33.4477 220.459 33.1431 222.01 32.56V29.34C220.628 29.9413 219.146 30.2804 217.64 30.34C215.07 30.34 213.07 29.16 213.07 25.14V25.1ZM202.92 33.1H206.81V29.1H202.92V33.1ZM2.73001 20.5C2.73001 23.8361 3.66752 27.105 5.43564 29.934C7.20375 32.763 9.73129 35.0381 12.73 36.5L4.24001 13.25C3.23196 15.5334 2.7174 18.004 2.73001 20.5ZM20.51 38.29C22.5256 38.2921 24.527 37.9541 26.43 37.29L26.3 37.05L20.83 22.05L15.5 37.55C17.1211 38.0415 18.806 38.2909 20.5 38.29H20.51ZM22.96 12.16L29.39 31.29L31.17 25.36C31.8773 23.5101 32.3282 21.5721 32.51 19.6C32.4918 17.8667 31.9896 16.173 31.06 14.71C30.15 13.23 29.31 11.98 29.31 10.53C29.2994 10.126 29.3686 9.72385 29.5138 9.34666C29.6589 8.96947 29.8771 8.62465 30.1558 8.33199C30.4346 8.03933 30.7683 7.80457 31.138 7.64121C31.5077 7.47784 31.906 7.38908 32.31 7.38H32.53C30.6318 5.64023 28.3783 4.33352 25.9254 3.55024C23.4725 2.76695 20.8788 2.52578 18.3235 2.8434C15.7683 3.16103 13.3125 4.02986 11.126 5.38983C8.93956 6.7498 7.07456 8.56845 5.66001 10.72H6.79001C8.66001 10.72 11.53 10.49 11.53 10.49C11.7236 10.4741 11.9156 10.5357 12.0638 10.6614C12.2119 10.787 12.3041 10.9664 12.32 11.16C12.3359 11.3536 12.2743 11.5456 12.1486 11.6938C12.023 11.8419 11.8436 11.9341 11.65 11.95C11.65 11.95 10.65 12.08 9.60001 12.13L16.1 31.4L19.99 19.73L17.22 12.13C16.6 12.13 15.98 12.04 15.36 11.97C15.1637 11.9554 14.9813 11.8635 14.8529 11.7144C14.7244 11.5653 14.6604 11.3713 14.675 11.175C14.6896 10.9787 14.7815 10.7963 14.9306 10.6679C15.0797 10.5394 15.2737 10.4754 15.47 10.49C15.47 10.49 18.4 10.72 20.15 10.72C21.9 10.72 24.88 10.49 24.88 10.49C25.0736 10.4728 25.2661 10.5331 25.4152 10.6579C25.5643 10.7826 25.6578 10.9614 25.675 11.155C25.6922 11.3486 25.6319 11.5411 25.5072 11.6902C25.3824 11.8393 25.2036 11.9328 25.01 11.95C25.01 11.95 24.04 12.09 22.95 12.16H22.96ZM29.46 35.88C33.4644 33.546 36.4012 29.7429 37.6467 25.2784C38.8921 20.8139 38.348 16.0398 36.13 11.97C36.406 14.763 35.9834 17.5809 34.9 20.17L29.46 35.88ZM20.51 41C16.4551 41.002 12.4906 39.8014 9.1181 37.55C5.74557 35.2986 3.11648 32.0977 1.56335 28.3519C0.0102205 24.6062 -0.397175 20.4841 0.392692 16.5068C1.18256 12.5295 3.13421 8.87583 6.00078 6.00786C8.86736 3.13988 12.5201 1.18645 16.497 0.394643C20.4739 -0.397165 24.5962 0.00821972 28.3427 1.55952C32.0892 3.11082 35.2914 5.73835 37.5444 9.10978C39.7974 12.4812 41 16.4451 41 20.5C41 25.9369 38.8402 31.1512 34.9957 34.9957C31.1512 38.8402 25.9369 41 20.5 41H20.51Z" fill="#003C56"/>
</svg>
