<svg width="240" height="111" viewBox="0 0 240 111" fill="none" xmlns="http://www.w3.org/2000/svg">
<mask id="mask0_46_1642" style="mask-type:luminance" maskUnits="userSpaceOnUse" x="0" y="0" width="240" height="111">
<path d="M239.72 0H0V110.39H239.72V0Z" fill="white"/>
</mask>
<g mask="url(#mask0_46_1642)">
<path d="M9.03016 109.71C6.97776 109.673 4.98563 109.01 3.32016 107.81C1.47596 106.541 0.171038 104.63 -0.339844 102.45L2.86016 101.2C3.2209 102.652 4.02902 103.953 5.17016 104.92C6.23969 105.901 7.63901 106.443 9.09016 106.44C10.4483 106.448 11.7719 106.013 12.8602 105.2C13.3659 104.839 13.7747 104.36 14.0504 103.803C14.326 103.247 14.4599 102.631 14.4402 102.01C14.471 101.355 14.3436 100.702 14.0685 100.107C13.7935 99.5113 13.379 98.991 12.8602 98.5899C11.3384 97.5524 9.6459 96.7908 7.86016 96.3399C5.87133 95.7907 4.03223 94.7994 2.48016 93.4399C1.87133 92.851 1.39295 92.1408 1.07599 91.3553C0.759027 90.5698 0.610547 89.7264 0.640158 88.8799C0.645785 87.9328 0.85186 86.9976 1.24483 86.1358C1.6378 85.274 2.20876 84.5052 2.92016 83.8799C4.56036 82.4054 6.71734 81.6396 8.92016 81.7499C10.9042 81.6505 12.8606 82.2484 14.4502 83.4399C15.7243 84.3778 16.6917 85.6723 17.2302 87.1599L14.0702 88.4799C13.7699 87.5373 13.1869 86.7098 12.4002 86.1099C11.4265 85.3506 10.2136 84.964 8.98016 85.0199C7.75184 84.9918 6.55126 85.3873 5.58016 86.1399C5.14526 86.4543 4.79146 86.8676 4.54801 87.3458C4.30456 87.824 4.17847 88.3533 4.18016 88.8899C4.18203 89.3804 4.29987 89.8634 4.52407 90.2997C4.74826 90.7359 5.07245 91.1129 5.47016 91.3999C6.61596 92.2389 7.90302 92.8655 9.27016 93.2499C10.5902 93.6799 11.7002 94.0899 12.5802 94.4699C13.5203 94.9188 14.4203 95.4474 15.2702 96.0499C16.1503 96.6836 16.8556 97.5299 17.3202 98.5099C17.8004 99.5887 18.0393 100.759 18.0202 101.94C18.0395 103.15 17.7577 104.346 17.2002 105.42C16.7036 106.398 15.9673 107.234 15.0602 107.85C14.1627 108.436 13.1861 108.89 12.1602 109.2C11.1565 109.561 10.0967 109.74 9.03016 109.73V109.71Z" fill="#616161"/>
<path d="M29.2406 109.71C27.9809 109.755 26.7263 109.529 25.5606 109.05C24.3949 108.571 23.3448 107.848 22.4806 106.93C20.7344 105.025 19.8014 102.514 19.8806 99.9305C19.8374 97.3978 20.7354 94.9392 22.4006 93.0305C23.1918 92.0946 24.183 91.3481 25.301 90.8462C26.4191 90.3443 27.6355 90.0997 28.8606 90.1305C30.0775 90.0761 31.2917 90.2867 32.4191 90.7477C33.5466 91.2087 34.5605 91.9091 35.3906 92.8005C37.0975 94.7648 37.9821 97.3111 37.8606 99.9105V100.55H23.3306C23.3489 102.2 24.0131 103.776 25.1806 104.94C25.7066 105.462 26.3313 105.873 27.0182 106.149C27.7051 106.425 28.4403 106.562 29.1806 106.55C30.2418 106.624 31.2988 106.357 32.198 105.789C33.0972 105.221 33.7917 104.381 34.1806 103.39L37.2506 104.67C36.6273 106.132 35.583 107.375 34.2506 108.24C32.7684 109.267 30.9922 109.783 29.1906 109.71H29.2406ZM34.1906 97.7105C34.0745 96.5733 33.5652 95.5124 32.7506 94.7105C32.2252 94.199 31.5964 93.8059 30.9065 93.5575C30.2166 93.3092 29.4815 93.2113 28.7506 93.2705C27.5406 93.2519 26.3661 93.679 25.4506 94.4705C24.4827 95.3125 23.8069 96.4399 23.5206 97.6905L34.1906 97.7105Z" fill="#616161"/>
<path d="M46.0098 109.711C44.2251 109.772 42.4817 109.166 41.1198 108.011C40.4751 107.422 39.9665 106.701 39.6295 105.895C39.2925 105.09 39.1351 104.222 39.1684 103.349C39.2018 102.477 39.425 101.623 39.8224 100.846C40.2199 100.069 40.7821 99.388 41.4698 98.8507C43.1526 97.6906 45.1679 97.1113 47.2098 97.2007C48.9446 97.1304 50.6678 97.5129 52.2098 98.3107V97.7807C52.2392 97.1669 52.1335 96.5542 51.9002 95.9857C51.6669 95.4173 51.3118 94.9069 50.8598 94.4907C49.9196 93.6709 48.7069 93.2322 47.4598 93.2607C46.5063 93.2526 45.5677 93.4976 44.7398 93.9707C43.9458 94.3968 43.3474 95.1134 43.0698 95.9707L39.8598 94.5807C40.3903 93.357 41.266 92.3144 42.3798 91.5807C43.8267 90.5804 45.5629 90.0848 47.3198 90.1707C49.4514 90.0814 51.539 90.7951 53.1698 92.1707C53.9597 92.9049 54.5773 93.8048 54.9784 94.8058C55.3795 95.8068 55.5541 96.8842 55.4898 97.9607V109.111H52.1798V106.571H52.0298C51.3948 107.581 50.5026 108.404 49.4448 108.955C48.387 109.507 47.2015 109.768 46.0098 109.711ZM46.5598 106.581C48.0032 106.577 49.3881 106.01 50.4198 105.001C50.9736 104.535 51.4183 103.953 51.7224 103.296C52.0265 102.64 52.1827 101.924 52.1798 101.201C50.8963 100.311 49.3472 99.8879 47.7898 100.001C46.4426 99.8955 45.103 100.283 44.0198 101.091C43.6277 101.39 43.308 101.774 43.0847 102.213C42.8613 102.653 42.74 103.138 42.7298 103.631C42.7112 104.058 42.8059 104.483 43.0044 104.863C43.2028 105.242 43.4979 105.562 43.8598 105.791C44.6586 106.322 45.6004 106.598 46.5598 106.581Z" fill="#616161"/>
<path d="M62.2198 109.12H58.7598V90.7798H62.0698V93.7798H62.2198C62.6162 92.7241 63.3842 91.8494 64.3798 91.3198C65.3228 90.7058 66.4152 90.3601 67.5398 90.3198C68.4173 90.2916 69.2915 90.4413 70.1098 90.7598L68.7998 93.9798C68.2087 93.7755 67.5846 93.6839 66.9598 93.7098C66.3345 93.7128 65.7169 93.847 65.1467 94.1036C64.5766 94.3603 64.0666 94.7337 63.6498 95.1998C63.1653 95.7168 62.7891 96.3256 62.5435 96.9902C62.2979 97.6548 62.1879 98.3619 62.2198 99.0698V109.12Z" fill="#616161"/>
<path d="M79.2106 109.71C77.9487 109.748 76.6929 109.52 75.5248 109.041C74.3568 108.562 73.3025 107.843 72.4306 106.93C70.7088 105.005 69.7568 102.512 69.7568 99.9297C69.7568 97.3469 70.7088 94.8548 72.4306 92.9297C73.2994 92.0127 74.3531 91.2906 75.5219 90.8114C76.6908 90.3321 77.9481 90.1066 79.2106 90.1497C81.0241 90.08 82.8109 90.6031 84.3006 91.6397C85.6378 92.5908 86.678 93.9015 87.3006 95.4197L84.1406 96.7397C83.782 95.6831 83.0874 94.7729 82.1629 94.1481C81.2383 93.5233 80.1347 93.2183 79.0206 93.2797C78.2586 93.2913 77.5079 93.465 76.8182 93.7891C76.1285 94.1133 75.5158 94.5805 75.0206 95.1597C73.8904 96.4902 73.2699 98.179 73.2699 99.9247C73.2699 101.67 73.8904 103.359 75.0206 104.69C75.5158 105.269 76.1285 105.736 76.8182 106.06C77.5079 106.384 78.2586 106.558 79.0206 106.57C80.1617 106.643 81.2958 106.345 82.2543 105.722C83.2129 105.099 83.9446 104.182 84.3406 103.11L87.4206 104.43C86.7833 105.939 85.7461 107.246 84.4206 108.21C82.8892 109.254 81.063 109.78 79.2106 109.71Z" fill="#616161"/>
<path d="M92.9102 82.3203V90.7803L92.7602 93.3203H92.9102C93.4811 92.3765 94.3012 91.6084 95.2802 91.1003C96.3281 90.4939 97.5195 90.1797 98.7302 90.1903C99.7015 90.1261 100.675 90.2825 101.577 90.6479C102.479 91.0133 103.287 91.5783 103.94 92.3003C105.197 93.8949 105.83 95.8929 105.72 97.9203V109.12H102.27V98.4103C102.27 95.0203 100.75 93.3203 97.7302 93.3203C97.0567 93.3061 96.3895 93.4529 95.7842 93.7486C95.1789 94.0443 94.653 94.4803 94.2502 95.0203C93.349 96.1556 92.8747 97.5712 92.9102 99.0203V109.17H89.4502V82.3703L92.9102 82.3203Z" fill="#616161"/>
<path d="M126.38 109.71C122.667 109.71 119.106 108.235 116.48 105.61C113.855 102.984 112.38 99.4234 112.38 95.7103C112.38 91.9973 113.855 88.4364 116.48 85.8108C119.106 83.1853 122.667 81.7103 126.38 81.7103C128.247 81.6561 130.103 82.0224 131.81 82.7823C133.517 83.5422 135.031 84.6762 136.24 86.1003L133.84 88.4104C132.954 87.2934 131.816 86.4027 130.52 85.8116C129.223 85.2205 127.804 84.9459 126.38 85.0103C125.008 84.987 123.646 85.2407 122.374 85.7561C121.103 86.2716 119.948 87.0383 118.98 88.0103C117.038 90.1263 115.961 92.8936 115.961 95.7653C115.961 98.6371 117.038 101.404 118.98 103.52C119.952 104.484 121.108 105.242 122.38 105.748C123.651 106.255 125.012 106.501 126.38 106.47C127.958 106.478 129.518 106.132 130.945 105.459C132.373 104.786 133.631 103.802 134.63 102.58L137.03 104.98C135.769 106.47 134.199 107.667 132.43 108.49C130.55 109.359 128.501 109.799 126.43 109.78L126.38 109.71Z" fill="#616161"/>
<path d="M141.01 92.9698C141.879 92.0527 142.932 91.3307 144.101 90.8514C145.27 90.3722 146.527 90.1466 147.79 90.1898C149.053 90.1534 150.31 90.382 151.479 90.8608C152.649 91.3396 153.705 92.058 154.58 92.9698C156.295 94.8978 157.243 97.3889 157.243 99.9698C157.243 102.551 156.295 105.042 154.58 106.97C152.771 108.751 150.334 109.75 147.795 109.75C145.256 109.75 142.819 108.751 141.01 106.97C139.288 105.045 138.336 102.553 138.336 99.9698C138.336 97.387 139.288 94.8949 141.01 92.9698ZM143.55 104.76C144.091 105.335 144.744 105.793 145.469 106.106C146.194 106.419 146.975 106.58 147.765 106.58C148.554 106.58 149.335 106.419 150.06 106.106C150.785 105.793 151.438 105.335 151.98 104.76C153.128 103.426 153.759 101.725 153.759 99.9648C153.759 98.2049 153.128 96.5035 151.98 95.1698C151.438 94.595 150.785 94.137 150.06 93.8239C149.335 93.5109 148.554 93.3494 147.765 93.3494C146.975 93.3494 146.194 93.5109 145.469 93.8239C144.744 94.137 144.091 94.595 143.55 95.1698C142.943 95.8055 142.473 96.5581 142.167 97.3816C141.861 98.2051 141.726 99.0823 141.77 99.9598C141.714 101.731 142.353 103.453 143.55 104.76Z" fill="#616161"/>
<path d="M162.951 90.7798V93.3198H163.101C163.669 92.3774 164.485 91.6094 165.461 91.0998C166.513 90.4949 167.707 90.1808 168.921 90.1899C169.892 90.1256 170.865 90.282 171.768 90.6474C172.67 91.0129 173.478 91.5778 174.131 92.2999C175.383 93.8966 176.016 95.893 175.911 97.9198V109.12H172.461V98.4099C172.461 95.0199 170.941 93.3198 167.921 93.3198C167.247 93.3056 166.58 93.4525 165.975 93.7482C165.369 94.0438 164.843 94.4799 164.441 95.0199C163.536 96.1531 163.061 97.5701 163.101 99.0199V109.17H159.641V90.7798H162.951Z" fill="#616161"/>
<path d="M185.95 109.71C184.134 109.782 182.344 109.252 180.86 108.2C179.56 107.244 178.549 105.946 177.94 104.45L181.01 103.16C181.356 104.201 182.031 105.101 182.933 105.725C183.835 106.349 184.915 106.663 186.01 106.62C186.943 106.661 187.865 106.413 188.65 105.91C188.96 105.707 189.213 105.429 189.388 105.103C189.563 104.776 189.653 104.411 189.65 104.04C189.65 102.84 188.8 102.04 187.14 101.61L183.42 100.7C182.201 100.377 181.063 99.8016 180.08 99.0104C179.568 98.6085 179.157 98.091 178.882 97.5001C178.608 96.9091 178.477 96.2616 178.5 95.6104C178.495 94.8147 178.691 94.0305 179.07 93.331C179.45 92.6315 180 92.0396 180.67 91.6104C182.171 90.5707 183.965 90.0381 185.79 90.0904C187.308 90.0676 188.804 90.4545 190.12 91.2104C191.374 91.9023 192.339 93.0195 192.84 94.3604L189.84 95.5904C189.16 93.9804 187.76 93.1604 185.65 93.1604C184.749 93.1272 183.857 93.3527 183.08 93.8104C182.767 93.9772 182.504 94.2245 182.317 94.5267C182.131 94.829 182.029 95.1755 182.02 95.5304C182.02 96.5904 182.84 97.2904 184.45 97.6704L188.08 98.5204C189.542 98.7803 190.883 99.4982 191.91 100.57C192.707 101.485 193.144 102.658 193.14 103.87C193.15 104.667 192.974 105.454 192.627 106.171C192.28 106.888 191.771 107.514 191.14 108C189.656 109.145 187.813 109.726 185.94 109.64L185.95 109.71Z" fill="#616161"/>
<path d="M197.121 92.9699C197.994 92.0557 199.05 91.3356 200.219 90.8566C201.389 90.3776 202.647 90.1505 203.911 90.1899C205.174 90.1548 206.43 90.384 207.599 90.8627C208.769 91.3414 209.825 92.0592 210.701 92.9699C212.416 94.898 213.364 97.389 213.364 99.9699C213.364 102.551 212.416 105.042 210.701 106.97C209.828 107.884 208.772 108.604 207.602 109.083C206.432 109.562 205.174 109.789 203.911 109.75C202.648 109.785 201.391 109.556 200.222 109.077C199.053 108.598 197.996 107.881 197.121 106.97C195.405 105.042 194.457 102.551 194.457 99.9699C194.457 97.389 195.405 94.898 197.121 92.9699ZM199.701 104.76C200.241 105.334 200.893 105.792 201.617 106.105C202.341 106.418 203.122 106.58 203.911 106.58C204.699 106.58 205.48 106.418 206.204 106.105C206.928 105.792 207.58 105.334 208.121 104.76C209.274 103.429 209.91 101.726 209.91 99.9649C209.91 98.2034 209.274 96.5009 208.121 95.1699C207.58 94.5954 206.928 94.1376 206.204 93.8247C205.48 93.5117 204.699 93.3503 203.911 93.3503C203.122 93.3503 202.341 93.5117 201.617 93.8247C200.893 94.1376 200.241 94.5954 199.701 95.1699C199.092 95.8048 198.62 96.557 198.312 97.3806C198.005 98.2042 197.868 99.0818 197.911 99.9599C197.871 100.839 198.008 101.718 198.316 102.542C198.624 103.367 199.095 104.121 199.701 104.76Z" fill="#616161"/>
<path d="M219.27 109.12H215.86V82.3203H219.31L219.27 109.12Z" fill="#616161"/>
<path d="M231.12 109.71C229.86 109.755 228.606 109.529 227.44 109.05C226.274 108.571 225.224 107.848 224.36 106.93C222.609 105.028 221.676 102.514 221.76 99.9304C221.718 97.3997 222.612 94.9426 224.27 93.0304C225.064 92.0954 226.057 91.3497 227.177 90.848C228.296 90.3462 229.514 90.101 230.74 90.1304C231.956 90.0761 233.168 90.2868 234.294 90.7479C235.42 91.2089 236.432 91.9093 237.26 92.8004C238.967 94.7641 239.848 97.3118 239.72 99.9104V100.55H225.21C225.23 102.197 225.89 103.772 227.05 104.94C227.577 105.46 228.202 105.87 228.889 106.147C229.575 106.423 230.31 106.56 231.05 106.55C232.111 106.624 233.168 106.357 234.068 105.789C234.967 105.221 235.661 104.381 236.05 103.39L239.13 104.67C238.507 106.132 237.462 107.375 236.13 108.24C234.646 109.263 232.871 109.779 231.07 109.71H231.12ZM236.06 97.7104C235.953 96.573 235.446 95.5103 234.63 94.7104C234.11 94.2066 233.489 93.818 232.808 93.5699C232.128 93.3218 231.403 93.2198 230.68 93.2704C229.468 93.2559 228.292 93.6824 227.37 94.4704C226.405 95.3151 225.73 96.4414 225.44 97.6904L236.06 97.7104Z" fill="#616161"/>
<path d="M-0.339844 30.3902C-0.339844 13.6602 13.7302 0.0001877 30.5102 0.0001877C34.3656 -0.0563453 38.1936 0.656542 41.7702 2.09715C45.3468 3.53776 48.6003 5.67716 51.3402 8.39019L45.5002 14.2002C43.5117 12.2773 41.1629 10.7662 38.5888 9.75373C36.0146 8.74123 33.2658 8.24725 30.5002 8.30018C24.6521 8.30018 19.0436 10.6233 14.9085 14.7585C10.7733 18.8937 8.45016 24.5022 8.45016 30.3502C8.45016 36.1982 10.7733 41.8067 14.9085 45.9419C19.0436 50.0771 24.6521 52.4002 30.5002 52.4002C38.4302 52.4002 42.9402 49.2102 45.8402 46.3202C48.2102 43.9502 49.7702 40.5302 50.3502 35.9002H30.5102V27.6702H58.4602C58.7816 29.3847 58.9389 31.1259 58.9302 32.8702C58.9302 39.1302 57.2502 46.8702 51.7502 52.2602C46.4202 57.8202 39.6002 60.7702 30.5702 60.7702C13.7302 60.7102 -0.339844 47.1102 -0.339844 30.3902Z" fill="#4285F4"/>
<path d="M81.4404 21.6499C77.574 21.6618 73.7978 22.8193 70.5888 24.9762C67.3799 27.1331 64.8822 30.1927 63.4112 33.7684C61.9403 37.3441 61.5621 41.2756 62.3244 45.0662C63.0867 48.8568 64.9553 52.3364 67.6942 55.0655C70.4331 57.7946 73.9193 59.6508 77.7126 60.3995C81.5059 61.1483 85.436 60.756 89.0064 59.2723C92.5769 57.7886 95.6275 55.2799 97.773 52.0633C99.9184 48.8467 101.062 45.0664 101.06 41.1999C101.1 38.6158 100.619 36.0501 99.6457 33.6558C98.6728 31.2615 97.2279 29.0875 95.3972 27.2633C93.5664 25.4391 91.3873 24.002 88.9895 23.0376C86.5918 22.0732 84.0244 21.6013 81.4404 21.6499ZM81.4404 53.0099C75.5304 53.0099 70.3804 48.1499 70.3804 41.1499C70.3804 34.1499 75.4804 29.2899 81.4404 29.2899C87.4004 29.2899 92.4404 34.0899 92.4404 41.1499C92.4404 48.2099 87.3404 53.0099 81.4404 53.0099Z" fill="#DB4437"/>
<path d="M124.26 21.6505C120.393 21.6584 116.615 22.8126 113.403 24.9671C110.192 27.1216 107.691 30.1798 106.217 33.7552C104.743 37.3306 104.362 41.2627 105.122 45.0546C105.882 48.8465 107.749 52.328 110.487 55.0591C113.225 57.7902 116.711 59.6484 120.505 60.3987C124.299 61.1491 128.23 60.758 131.802 59.2749C135.373 57.7917 138.425 55.2831 140.571 52.066C142.718 48.8489 143.862 45.0678 143.86 41.2005C143.9 38.6181 143.419 36.0541 142.447 33.6612C141.476 31.2682 140.033 29.0951 138.204 27.2712C136.375 25.4473 134.199 24.0098 131.803 23.0442C129.408 22.0786 126.843 21.6046 124.26 21.6505ZM124.26 53.0105C118.36 53.0105 113.21 48.1505 113.21 41.1505C113.21 34.1505 118.3 29.2905 124.26 29.2905C130.22 29.2905 135.32 34.0905 135.32 41.1505C135.32 48.2105 130.17 53.0105 124.26 53.0105Z" fill="#F4B400"/>
<path d="M176.861 22.8006V25.9906H176.571C175.271 24.5592 173.679 23.425 171.901 22.6656C170.123 21.9063 168.203 21.5396 166.271 21.5906C156.491 21.5906 147.521 30.1506 147.521 41.2106C147.521 52.2706 156.521 60.7106 166.271 60.7106C168.208 60.7655 170.134 60.3956 171.914 59.6268C173.693 58.8581 175.282 57.7091 176.571 56.2606H176.861V59.0906C176.861 66.5606 172.861 70.5506 166.451 70.5506C164.306 70.5041 162.224 69.8188 160.471 68.5826C158.718 67.3463 157.374 65.6151 156.611 63.6106L149.141 66.7306C150.549 70.1723 152.955 73.114 156.048 75.1776C159.142 77.2412 162.782 78.3323 166.501 78.3106C176.571 78.3106 185.081 72.4006 185.081 57.9306V22.8006H176.861ZM167.021 53.0106C161.121 53.0106 156.141 48.0106 156.141 41.2106C156.141 34.4106 161.141 29.2906 167.021 29.2906C172.901 29.2906 177.441 34.2906 177.441 41.2106C177.441 48.1306 172.861 53.0106 166.971 53.0106H167.021Z" fill="#4285F4"/>
<path d="M199.5 2.08984H190.93V59.5598H199.5V2.08984Z" fill="#0F9D58"/>
<path d="M223.05 53.0104C218.65 53.0104 215.59 51.0104 213.56 47.1104L239.72 36.2904L238.85 34.0904C237.23 29.6904 232.25 21.6504 222.13 21.6504C212.01 21.6504 203.67 29.5804 203.67 41.2004C203.612 43.7697 204.072 46.3244 205.023 48.7119C205.974 51.0994 207.397 53.2707 209.206 55.0964C211.015 56.922 213.173 58.3644 215.551 59.3376C217.93 60.3107 220.48 60.7946 223.05 60.7604C226.274 60.7685 229.451 59.9805 232.298 58.4663C235.145 56.9521 237.574 54.7586 239.37 52.0804L232.72 47.6204C230.46 50.8704 227.45 53.0104 223.05 53.0104ZM222.42 29.2004C225.83 29.2004 228.72 30.8804 229.65 33.3704L212.17 40.6004C212.081 39.1758 212.277 37.7478 212.746 36.3998C213.215 35.0517 213.948 33.8107 214.903 32.7493C215.857 31.6879 217.013 30.8274 218.304 30.218C219.595 29.6087 220.994 29.2627 222.42 29.2004Z" fill="#DB4437"/>
</g>
</svg>
