<svg width="300" height="250" viewBox="0 0 300 250" fill="none" xmlns="http://www.w3.org/2000/svg">
<path d="M190.75 186.37L187.21 195.25L184.21 202.86H182L175.5 186.51C175.44 186.43 175.41 186.34 175.31 186.29C175.21 186.24 175.15 186.4 175.19 186.52C175.32 191.95 175.19 197.38 175.26 202.85H172.8V181.85H176.43L183 198.77H183.19L189.75 181.85H193.43V202.85H190.89V189.15C190.98 188.222 190.98 187.287 190.89 186.36C190.89 186.36 190.78 186.32 190.75 186.37ZM215.13 202.85H212.71V187.91H215C215.26 188.51 215 189.13 215.18 189.78C215.65 189.38 216.02 188.91 216.5 188.54C217.591 187.748 218.914 187.342 220.261 187.385C221.608 187.429 222.903 187.919 223.94 188.78C224.488 189.339 224.914 190.007 225.19 190.741C225.465 191.474 225.584 192.257 225.54 193.04C225.54 196.21 225.54 199.37 225.54 202.54C225.532 202.646 225.508 202.75 225.47 202.85H223.09C222.965 202.585 222.933 202.285 223 202C223 199.08 223 196.15 222.93 193.23C222.999 192.492 222.801 191.754 222.372 191.15C221.942 190.546 221.31 190.116 220.59 189.94C219.8 189.701 218.954 189.719 218.175 189.99C217.395 190.261 216.721 190.772 216.25 191.45C215.546 192.507 215.196 193.76 215.25 195.03C215.25 197.37 215.25 199.71 215.25 202.03C215.28 202.309 215.238 202.591 215.13 202.85ZM126.45 202.85H123.85V184.33H118V181.9H132.19V184.3H126.45V202.85ZM286.74 187.8V190.38C286.28 190.53 285.95 190.24 285.59 190.16C282.96 189.54 281.17 191.7 280.82 193.57C280.663 194.776 280.617 195.995 280.68 197.21V202.83H278.15V187.92H280.49C280.69 188.56 280.49 189.2 280.63 189.86C282.81 187.55 284.84 186.86 286.74 187.8ZM161.88 188.63C161.88 188.39 161.95 188.13 161.76 187.94C160.973 187.816 160.171 187.833 159.39 187.99V189.87L159.03 189.54C156.82 186.76 152.19 186.69 149.57 189.25C148.311 190.605 147.501 192.315 147.248 194.147C146.996 195.979 147.314 197.845 148.16 199.49C150.63 204.17 156.67 204.17 159.09 201.01C159.108 200.966 159.142 200.932 159.185 200.913C159.228 200.894 159.276 200.893 159.32 200.91H159.38C159.43 201.549 159.43 202.191 159.38 202.83C159.11 207.01 155.38 207.83 152.83 206.92C152.254 206.69 151.731 206.346 151.292 205.907C150.854 205.469 150.509 204.946 150.28 204.37L147.95 205.37C148.103 206.031 148.419 206.643 148.87 207.15C149.555 207.98 150.424 208.638 151.409 209.072C152.393 209.506 153.465 209.704 154.54 209.65C155.637 209.722 156.737 209.54 157.751 209.116C158.766 208.693 159.67 208.04 160.39 207.21C161.471 205.774 162.013 204.004 161.92 202.21C161.92 197.69 161.89 193.16 161.88 188.63ZM158.94 197.72C158.626 198.597 158.056 199.359 157.303 199.908C156.551 200.457 155.651 200.768 154.72 200.8C153.775 200.845 152.84 200.593 152.046 200.081C151.252 199.568 150.638 198.819 150.29 197.94C149.895 197.058 149.702 196.1 149.725 195.135C149.747 194.17 149.985 193.221 150.42 192.36C150.821 191.53 151.46 190.84 152.256 190.376C153.052 189.913 153.968 189.698 154.887 189.759C155.806 189.821 156.686 190.155 157.413 190.72C158.141 191.285 158.683 192.054 158.97 192.93C159.263 193.733 159.399 194.585 159.37 195.44C159.353 196.218 159.208 196.988 158.94 197.72ZM258.09 187.93H255.71V189.84C255.56 189.74 255.51 189.73 255.49 189.69C253.2 186.59 247.93 186.59 245.34 189.86C244.331 191.225 243.716 192.842 243.562 194.533C243.409 196.224 243.723 197.925 244.47 199.45C246.97 204.18 253.15 204.19 255.56 200.85H255.67C255.96 204.72 254.67 206.3 252.84 206.96C250.31 207.88 248.5 207.14 246.49 204.41L244.28 205.34C244.312 205.784 244.476 206.209 244.75 206.56C245.355 207.488 246.185 208.25 247.162 208.774C248.138 209.298 249.231 209.568 250.34 209.56C252.79 209.66 254.99 209.14 256.65 207.18C257.749 205.753 258.293 203.977 258.18 202.18C258.18 197.65 258.18 193.12 258.18 188.58C258.226 188.333 258.194 188.078 258.09 187.85V187.93ZM255.69 195.3C255.69 197.48 254.94 199.3 252.88 200.36C252.181 200.681 251.415 200.827 250.647 200.786C249.88 200.745 249.133 200.518 248.473 200.124C247.813 199.731 247.258 199.182 246.857 198.526C246.455 197.87 246.22 197.127 246.17 196.36C245.979 195.102 246.135 193.816 246.62 192.64C247.007 191.705 247.686 190.922 248.557 190.408C249.428 189.894 250.442 189.677 251.446 189.79C252.451 189.903 253.392 190.34 254.127 191.034C254.861 191.728 255.35 192.643 255.52 193.64C255.66 194.181 255.717 194.741 255.69 195.3ZM275.21 195.89C275.21 195.66 275.28 195.43 275.3 195.21C275.3 194.816 275.28 194.422 275.24 194.03C274.95 191.28 273.78 189.03 271.11 187.97C269.899 187.394 268.546 187.181 267.217 187.359C265.887 187.536 264.638 188.096 263.62 188.97C261.37 190.86 260.72 193.36 260.89 196.19C261.23 201.46 266.01 204.68 271.29 202.79C272.107 202.488 272.856 202.025 273.491 201.429C274.127 200.833 274.636 200.116 274.99 199.32L272.86 198.32C270.62 200.95 268.64 201.6 266.31 200.52C264.6 199.73 263.26 197.52 263.56 195.89H275.21ZM268.21 189.74C269.282 189.73 270.316 190.132 271.1 190.864C271.883 191.595 272.356 192.6 272.42 193.67H263.71C263.845 192.577 264.38 191.572 265.21 190.849C266.04 190.125 267.109 189.734 268.21 189.75V189.74ZM144.71 193.14C144.753 192.233 144.559 191.331 144.149 190.521C143.739 189.711 143.126 189.022 142.37 188.52C141.468 187.959 140.459 187.59 139.408 187.437C138.357 187.284 137.285 187.35 136.26 187.63C135.459 187.778 134.697 188.087 134.019 188.539C133.342 188.991 132.764 189.577 132.32 190.26C132.867 190.862 133.522 191.357 134.25 191.72C136.39 189.72 138.54 189.21 140.46 190.32C141.109 190.662 141.63 191.206 141.944 191.869C142.258 192.533 142.347 193.281 142.2 194L141.86 193.92C139.947 193.184 137.858 193.034 135.86 193.49C135.022 193.628 134.235 193.981 133.575 194.515C132.914 195.048 132.404 195.744 132.092 196.534C131.781 197.323 131.68 198.18 131.799 199.021C131.917 199.862 132.252 200.657 132.77 201.33C134.77 203.83 139.25 203.96 141.6 201.62C141.8 201.41 141.94 201.11 142.27 200.99C142.43 201.63 142.22 202.24 142.42 202.82H144.76C144.76 199.52 144.76 196.31 144.76 193.1L144.71 193.14ZM137.16 201.04C135.07 200.81 133.84 199.04 134.58 197.31C134.771 196.871 135.067 196.485 135.442 196.187C135.817 195.889 136.259 195.687 136.73 195.6C138.449 195.18 140.262 195.389 141.84 196.19C141.987 196.271 142.124 196.369 142.25 196.48C142.216 197.113 142.056 197.733 141.782 198.305C141.507 198.877 141.122 199.388 140.649 199.811C140.177 200.234 139.625 200.559 139.026 200.768C138.427 200.977 137.793 201.066 137.16 201.03V201.04ZM209.21 192.7C209.213 191.942 209.039 191.194 208.703 190.515C208.366 189.836 207.875 189.245 207.27 188.79C205.882 187.83 204.224 187.34 202.537 187.392C200.851 187.444 199.226 188.036 197.9 189.08C197.439 189.407 197.09 189.868 196.9 190.4L198.75 191.79C200.93 189.68 203.14 189.18 205.09 190.33C205.725 190.682 206.226 191.233 206.517 191.897C206.808 192.562 206.872 193.305 206.7 194.01C206.57 194.01 206.43 193.94 206.3 193.89C204.379 193.181 202.293 193.053 200.3 193.52C199.473 193.66 198.695 194.01 198.042 194.537C197.389 195.063 196.882 195.749 196.57 196.528C196.258 197.307 196.151 198.153 196.26 198.985C196.368 199.817 196.688 200.607 197.19 201.28C198.82 203.49 202.73 204.03 205.14 202.41C205.704 201.979 206.232 201.504 206.72 200.99C206.91 201.66 206.72 202.28 206.88 202.83H209.22C209.22 199.41 209.22 196.06 209.22 192.7H209.21ZM200.84 200.83C200.357 200.705 199.921 200.443 199.582 200.077C199.244 199.71 199.018 199.254 198.931 198.763C198.845 198.272 198.902 197.766 199.095 197.307C199.288 196.847 199.609 196.452 200.02 196.17C201.57 195 205.29 195.17 206.75 196.52C206.724 197.22 206.54 197.906 206.211 198.525C205.882 199.145 205.418 199.682 204.852 200.097C204.287 200.511 203.635 200.792 202.945 200.919C202.256 201.046 201.546 201.016 200.87 200.83H200.84ZM241.05 193.63C241.063 193.192 241.046 192.755 241 192.32C240.93 191.627 240.721 190.956 240.386 190.347C240.051 189.737 239.596 189.2 239.05 188.77C237.723 187.867 236.155 187.384 234.55 187.384C232.945 187.384 231.377 187.867 230.05 188.77C229.434 189.166 228.942 189.727 228.63 190.39L230.47 191.77C233.16 189.57 235.01 189.19 236.93 190.41C237.539 190.775 238.015 191.325 238.29 191.979C238.566 192.634 238.625 193.359 238.46 194.05C236.455 193.211 234.235 193.029 232.12 193.53C230.25 194 228.71 194.96 228.21 196.95C227.915 197.852 227.9 198.822 228.168 199.733C228.435 200.643 228.973 201.451 229.71 202.05C230.722 202.82 231.941 203.272 233.211 203.347C234.481 203.422 235.744 203.116 236.84 202.47C237.465 202.043 238.024 201.528 238.5 200.94C238.73 201.64 238.5 202.26 238.68 202.83H241.04C241.08 199.72 241.08 196.69 241.08 193.63H241.05ZM232.72 200.85C232.178 200.717 231.693 200.415 231.334 199.988C230.975 199.561 230.761 199.03 230.723 198.474C230.685 197.917 230.825 197.363 231.123 196.891C231.421 196.42 231.861 196.055 232.38 195.85C233.38 195.466 234.454 195.315 235.521 195.407C236.588 195.498 237.62 195.831 238.54 196.38C238.539 197.089 238.375 197.788 238.061 198.425C237.748 199.061 237.292 199.616 236.73 200.049C236.168 200.482 235.515 200.78 234.819 200.92C234.124 201.061 233.406 201.04 232.72 200.86V200.85Z" fill="#757575"/>
<path d="M160 155.49L140 136L182.89 92.2002L203.57 112.47L159.97 155.47L160 155.49Z" fill="#8AB4F8"/>
<path d="M160.09 69.3796L140.19 49.0596L96.6801 92.1696C93.9914 94.8653 92.4814 98.5172 92.4814 102.325C92.4814 106.132 93.9914 109.784 96.6801 112.48L139.54 155.62L159.81 136.62L127.15 102.27L160.09 69.3796Z" fill="#4285F4"/>
<path d="M203.32 92.5002L160.17 49.3502C157.472 46.653 153.814 45.1377 150 45.1377C146.185 45.1377 142.527 46.653 139.83 49.3502C137.132 52.0475 135.617 55.7058 135.617 59.5202C135.617 63.3347 137.132 66.993 139.83 69.6903L183 112.84C185.661 115.573 189.299 117.137 193.114 117.188C196.928 117.238 200.607 115.772 203.34 113.11C206.073 110.449 207.637 106.811 207.687 102.996C207.738 99.1817 206.271 95.5033 203.61 92.7702L203.32 92.5002Z" fill="#8AB4F8"/>
<path d="M149.67 160.2C157.435 160.2 163.73 153.905 163.73 146.14C163.73 138.375 157.435 132.08 149.67 132.08C141.905 132.08 135.61 138.375 135.61 146.14C135.61 153.905 141.905 160.2 149.67 160.2Z" fill="#246FDB"/>
<path d="M54.4298 195.08C54.4357 196.652 53.9751 198.19 53.1062 199.499C52.2374 200.809 50.9994 201.831 49.5491 202.437C48.0988 203.042 46.5014 203.204 44.9592 202.901C43.417 202.598 41.9994 201.844 40.886 200.735C39.7726 199.626 39.0134 198.211 38.7046 196.67C38.3958 195.129 38.5513 193.531 39.1513 192.078C39.7514 190.626 40.7691 189.384 42.0754 188.51C43.3818 187.636 44.9181 187.17 46.4898 187.17C47.5344 187.154 48.5716 187.347 49.5402 187.739C50.5089 188.13 51.3892 188.712 52.1294 189.449C52.8695 190.186 53.4544 191.064 53.8495 192.032C54.2446 192.999 54.4419 194.035 54.4298 195.08ZM50.9598 195.08C50.8974 194.21 50.5824 193.377 50.0534 192.683C49.5244 191.989 48.8043 191.465 47.9817 191.175C47.159 190.885 46.2695 190.841 45.4223 191.049C44.5752 191.257 43.8072 191.708 43.2127 192.347C42.6181 192.985 42.2229 193.783 42.0756 194.643C41.9282 195.503 42.0351 196.387 42.3831 197.187C42.7311 197.987 43.3051 198.668 44.0346 199.146C44.7641 199.625 45.6174 199.88 46.4898 199.88C47.1051 199.874 47.7129 199.744 48.2765 199.497C48.8401 199.25 49.3479 198.891 49.7693 198.443C50.1907 197.994 50.5169 197.465 50.7284 196.887C50.9399 196.309 51.0322 195.694 50.9998 195.08H50.9598Z" fill="#747474"/>
<path d="M71.5596 195.08C71.5656 196.652 71.105 198.19 70.2361 199.499C69.3673 200.809 68.1293 201.831 66.679 202.437C65.2287 203.042 63.6313 203.204 62.0891 202.901C60.5469 202.598 59.1293 201.844 58.0159 200.735C56.9025 199.626 56.1433 198.211 55.8345 196.67C55.5257 195.129 55.6811 193.531 56.2812 192.078C56.8813 190.626 57.8989 189.384 59.2053 188.51C60.5117 187.636 62.048 187.17 63.6196 187.17C64.6642 187.154 65.7015 187.347 66.6701 187.739C67.6388 188.13 68.5191 188.712 69.2593 189.449C69.9994 190.186 70.5843 191.064 70.9794 192.032C71.3745 192.999 71.5718 194.035 71.5596 195.08ZM68.0796 195.08C68.0154 194.212 67.6994 193.382 67.1704 192.692C66.6415 192.001 65.9225 191.48 65.1016 191.192C64.2807 190.904 63.3936 190.862 62.5491 191.071C61.7046 191.279 60.9394 191.73 60.3472 192.367C59.7551 193.005 59.3617 193.801 59.2155 194.658C59.0692 195.516 59.1763 196.397 59.5237 197.195C59.8711 197.993 60.4437 198.671 61.1713 199.148C61.8988 199.625 62.7497 199.879 63.6196 199.88C64.2312 199.869 64.8342 199.734 65.3926 199.485C65.951 199.235 66.4534 198.876 66.8698 198.428C67.2861 197.98 67.6078 197.452 67.8157 196.877C68.0236 196.302 68.1133 195.691 68.0796 195.08Z" fill="#747474"/>
<path d="M87.9995 187.65V201.86C87.9995 207.7 84.5596 210.09 80.4796 210.09C78.9807 210.096 77.5143 209.654 76.2675 208.823C75.0207 207.991 74.05 206.806 73.4796 205.42L76.4796 204.16C76.7903 204.974 77.3372 205.676 78.0499 206.177C78.7626 206.678 79.6087 206.954 80.4796 206.97C83.0896 206.97 84.6995 205.36 84.6995 202.33V201.2H84.5796C84.0541 201.79 83.4055 202.256 82.6797 202.567C81.954 202.878 81.1687 203.026 80.3795 203C78.3505 202.898 76.4382 202.02 75.0382 200.548C73.6382 199.076 72.8574 197.122 72.8574 195.09C72.8574 193.059 73.6382 191.105 75.0382 189.632C76.4382 188.16 78.3505 187.282 80.3795 187.18C81.1605 187.162 81.9365 187.31 82.6556 187.615C83.3747 187.92 84.0204 188.376 84.5496 188.95H84.6695V187.66L87.9995 187.65ZM84.9995 195.11C84.9995 192.32 83.1395 190.29 80.7695 190.29C79.5633 190.386 78.4374 190.932 77.6163 191.821C76.7952 192.71 76.3391 193.875 76.3391 195.085C76.3391 196.295 76.7952 197.461 77.6163 198.35C78.4374 199.238 79.5633 199.785 80.7695 199.88C83.0595 199.88 84.9195 197.87 84.9195 195.11H84.9995Z" fill="#747474"/>
<path d="M93.42 179.32V202.51H90V179.32H93.42Z" fill="#747474"/>
<path d="M106.63 197.69L109.32 199.49C108.596 200.572 107.615 201.458 106.465 202.068C105.315 202.679 104.032 202.996 102.73 202.99C101.689 203.007 100.656 202.813 99.6912 202.42C98.7269 202.028 97.8516 201.445 97.1178 200.707C96.384 199.968 95.8067 199.089 95.4205 198.123C95.0343 197.156 94.8471 196.121 94.8701 195.08C94.8701 190.37 98.26 187.16 102.34 187.16C103.845 187.197 105.303 187.697 106.514 188.592C107.725 189.486 108.632 190.732 109.11 192.16L109.47 193.06L98.89 197.44C99.2126 198.181 99.7522 198.807 100.438 199.236C101.123 199.664 101.922 199.875 102.73 199.84C103.514 199.845 104.286 199.645 104.97 199.261C105.654 198.877 106.226 198.322 106.63 197.65V197.69ZM98.32 194.84L105.39 191.9C105.125 191.36 104.704 190.912 104.182 190.614C103.659 190.317 103.06 190.183 102.46 190.23C101.884 190.256 101.318 190.396 100.797 190.642C100.275 190.889 99.8078 191.237 99.4224 191.666C99.0369 192.095 98.7408 192.597 98.5516 193.142C98.3623 193.687 98.2836 194.264 98.32 194.84Z" fill="#747474"/>
<path d="M25.7196 193V189.65H36.9996C37.2858 191.398 37.1881 193.187 36.7132 194.893C36.2383 196.599 35.3977 198.181 34.2496 199.53C33.1534 200.678 31.8265 201.58 30.3563 202.178C28.8861 202.777 27.3059 203.056 25.7196 203C24.0769 203.047 22.4414 202.764 20.9099 202.167C19.3784 201.571 17.9821 200.674 16.8036 199.528C15.625 198.383 14.6882 197.013 14.0485 195.499C13.4087 193.985 13.0791 192.358 13.0791 190.715C13.0791 189.071 13.4087 187.445 14.0485 185.931C14.6882 184.417 15.625 183.047 16.8036 181.901C17.9821 180.756 19.3784 179.859 20.9099 179.262C22.4414 178.666 24.0769 178.383 25.7196 178.43C27.2787 178.406 28.8269 178.693 30.2741 179.273C31.7213 179.853 33.0387 180.716 34.1496 181.81L31.7796 184.18C30.1546 182.613 27.9769 181.75 25.7196 181.78C23.4017 181.857 21.2045 182.833 19.5922 184.5C17.9799 186.167 17.0786 188.396 17.0786 190.715C17.0786 193.034 17.9799 195.263 19.5922 196.93C21.2045 198.597 23.4017 199.572 25.7196 199.65C26.8692 199.697 28.0158 199.502 29.0854 199.078C30.1551 198.654 31.124 198.011 31.9296 197.19C32.9845 196.034 33.6248 194.56 33.7496 193H25.7196Z" fill="#747474"/>
</svg>
