<svg width="550" height="75" viewBox="0 0 550 75" fill="none" xmlns="http://www.w3.org/2000/svg">
<mask id="path-1-outside-1_42_770" maskUnits="userSpaceOnUse" x="0" y="0" width="550" height="75" fill="black">
<rect fill="white" width="550" height="75"/>
<path d="M101.08 3.592L79.528 73H67.864L52.696 25.576C52.28 24.424 51.896 23.016 51.544 21.352C51.352 22.152 51.16 22.904 50.968 23.608C50.776 24.312 50.568 24.968 50.344 25.576L35.032 73H23.32L1.816 3.592H12.616C13.736 3.592 14.664 3.864 15.4 4.408C16.168 4.92 16.68 5.62399 16.936 6.51999L28.744 48.04C29 49.064 29.24 50.184 29.464 51.4C29.72 52.584 29.976 53.832 30.232 55.144C30.488 53.8 30.76 52.536 31.048 51.352C31.368 50.168 31.704 49.064 32.056 48.04L45.688 6.51999C45.944 5.78399 46.44 5.112 47.176 4.504C47.944 3.896 48.872 3.592 49.96 3.592H53.752C54.872 3.592 55.784 3.864 56.488 4.408C57.192 4.952 57.72 5.656 58.072 6.51999L71.656 48.04C72.328 50.024 72.936 52.312 73.48 54.904C73.896 52.376 74.36 50.088 74.872 48.04L86.68 6.51999C86.872 5.72 87.352 5.032 88.12 4.456C88.92 3.88 89.864 3.592 90.952 3.592H101.08ZM118.837 29.032C120.757 27.24 122.869 25.784 125.173 24.664C127.477 23.544 130.181 22.984 133.285 22.984C135.973 22.984 138.357 23.448 140.437 24.376C142.517 25.272 144.245 26.552 145.621 28.216C147.029 29.848 148.085 31.816 148.789 34.12C149.525 36.392 149.893 38.904 149.893 41.656V73H138.037V41.656C138.037 38.648 137.349 36.328 135.973 34.696C134.597 33.032 132.501 32.2 129.685 32.2C127.637 32.2 125.717 32.664 123.925 33.592C122.133 34.52 120.437 35.784 118.837 37.384V73H106.981V1.672H118.837V29.032ZM182.961 22.984C186.609 22.984 189.921 23.576 192.897 24.76C195.905 25.944 198.465 27.624 200.577 29.8C202.72 31.976 204.368 34.632 205.521 37.768C206.673 40.904 207.249 44.408 207.249 48.28C207.249 52.184 206.673 55.704 205.521 58.84C204.368 61.976 202.72 64.648 200.577 66.856C198.465 69.064 195.905 70.76 192.897 71.944C189.921 73.128 186.609 73.72 182.961 73.72C179.281 73.72 175.937 73.128 172.929 71.944C169.921 70.76 167.345 69.064 165.201 66.856C163.089 64.648 161.441 61.976 160.257 58.84C159.105 55.704 158.529 52.184 158.529 48.28C158.529 44.408 159.105 40.904 160.257 37.768C161.441 34.632 163.089 31.976 165.201 29.8C167.345 27.624 169.921 25.944 172.929 24.76C175.937 23.576 179.281 22.984 182.961 22.984ZM182.961 64.6C187.057 64.6 190.081 63.224 192.033 60.472C194.017 57.72 195.009 53.688 195.009 48.376C195.009 43.064 194.017 39.016 192.033 36.232C190.081 33.448 187.057 32.056 182.961 32.056C178.801 32.056 175.713 33.464 173.697 36.28C171.713 39.064 170.721 43.096 170.721 48.376C170.721 53.656 171.713 57.688 173.697 60.472C175.713 63.224 178.801 64.6 182.961 64.6ZM333.205 3.592L311.653 73H299.989L284.821 25.576C284.405 24.424 284.021 23.016 283.669 21.352C283.477 22.152 283.285 22.904 283.093 23.608C282.901 24.312 282.693 24.968 282.469 25.576L267.157 73H255.445L233.941 3.592H244.741C245.861 3.592 246.789 3.864 247.525 4.408C248.293 4.92 248.805 5.62399 249.061 6.51999L260.869 48.04C261.125 49.064 261.365 50.184 261.589 51.4C261.845 52.584 262.101 53.832 262.357 55.144C262.613 53.8 262.885 52.536 263.173 51.352C263.493 50.168 263.829 49.064 264.181 48.04L277.813 6.51999C278.069 5.78399 278.565 5.112 279.301 4.504C280.069 3.896 280.997 3.592 282.085 3.592H285.877C286.997 3.592 287.909 3.864 288.613 4.408C289.317 4.952 289.845 5.656 290.197 6.51999L303.781 48.04C304.453 50.024 305.061 52.312 305.605 54.904C306.021 52.376 306.485 50.088 306.997 48.04L318.805 6.51999C318.997 5.72 319.477 5.032 320.245 4.456C321.045 3.88 321.989 3.592 323.077 3.592H333.205ZM365.772 42.712C365.772 41.176 365.548 39.736 365.1 38.392C364.684 37.016 364.044 35.816 363.18 34.792C362.316 33.768 361.212 32.968 359.868 32.392C358.556 31.784 357.02 31.48 355.26 31.48C351.836 31.48 349.132 32.456 347.148 34.408C345.196 36.36 343.948 39.128 343.404 42.712H365.772ZM343.164 49.864C343.356 52.392 343.804 54.584 344.508 56.44C345.212 58.264 346.14 59.784 347.292 61C348.444 62.184 349.804 63.08 351.372 63.688C352.972 64.264 354.732 64.552 356.652 64.552C358.572 64.552 360.22 64.328 361.596 63.88C363.004 63.432 364.22 62.936 365.244 62.392C366.3 61.848 367.212 61.352 367.98 60.904C368.78 60.456 369.548 60.232 370.284 60.232C371.276 60.232 372.012 60.6 372.492 61.336L375.9 65.656C374.588 67.192 373.116 68.488 371.484 69.544C369.852 70.568 368.14 71.4 366.348 72.04C364.588 72.648 362.78 73.08 360.924 73.336C359.1 73.592 357.324 73.72 355.596 73.72C352.172 73.72 348.988 73.16 346.044 72.04C343.1 70.888 340.54 69.208 338.364 67C336.188 64.76 334.476 62.008 333.228 58.744C331.98 55.448 331.355 51.64 331.355 47.32C331.355 43.96 331.9 40.808 332.988 37.864C334.076 34.888 335.628 32.312 337.644 30.136C339.692 27.928 342.172 26.184 345.084 24.904C348.028 23.624 351.34 22.984 355.02 22.984C358.124 22.984 360.988 23.48 363.612 24.472C366.236 25.464 368.492 26.92 370.38 28.84C372.268 30.728 373.74 33.064 374.796 35.848C375.884 38.6 376.427 41.752 376.427 45.304C376.427 47.096 376.236 48.312 375.852 48.952C375.468 49.56 374.732 49.864 373.644 49.864H343.164ZM444.025 46.792L435.577 23.704C435.161 22.68 434.729 21.464 434.281 20.056C433.833 18.648 433.385 17.128 432.937 15.496C432.521 17.128 432.089 18.664 431.641 20.104C431.193 21.512 430.761 22.744 430.345 23.8L421.945 46.792H444.025ZM466.825 73H456.841C455.721 73 454.809 72.728 454.105 72.184C453.401 71.608 452.873 70.904 452.521 70.072L447.337 55.912H418.585L413.401 70.072C413.145 70.808 412.649 71.48 411.913 72.088C411.177 72.696 410.265 73 409.177 73H399.097L426.409 3.592H439.561L466.825 73ZM483.228 32.296C484.764 29.352 486.588 27.048 488.7 25.384C490.812 23.688 493.308 22.84 496.188 22.84C498.46 22.84 500.284 23.336 501.66 24.328L500.892 33.208C500.732 33.784 500.492 34.2 500.172 34.456C499.884 34.68 499.484 34.792 498.972 34.792C498.492 34.792 497.772 34.712 496.812 34.552C495.884 34.392 494.972 34.312 494.076 34.312C492.764 34.312 491.596 34.504 490.572 34.888C489.548 35.272 488.62 35.832 487.788 36.568C486.988 37.272 486.268 38.136 485.628 39.16C485.02 40.184 484.444 41.352 483.9 42.664V73H472.044V23.752H479.004C480.22 23.752 481.068 23.976 481.548 24.424C482.028 24.84 482.348 25.608 482.508 26.728L483.228 32.296ZM538.178 42.712C538.178 41.176 537.954 39.736 537.506 38.392C537.09 37.016 536.45 35.816 535.586 34.792C534.722 33.768 533.618 32.968 532.274 32.392C530.962 31.784 529.426 31.48 527.666 31.48C524.242 31.48 521.538 32.456 519.554 34.408C517.602 36.36 516.354 39.128 515.81 42.712H538.178ZM515.57 49.864C515.762 52.392 516.21 54.584 516.914 56.44C517.618 58.264 518.546 59.784 519.698 61C520.85 62.184 522.21 63.08 523.778 63.688C525.378 64.264 527.138 64.552 529.058 64.552C530.978 64.552 532.626 64.328 534.002 63.88C535.41 63.432 536.626 62.936 537.65 62.392C538.706 61.848 539.618 61.352 540.386 60.904C541.186 60.456 541.954 60.232 542.69 60.232C543.682 60.232 544.418 60.6 544.898 61.336L548.306 65.656C546.994 67.192 545.522 68.488 543.89 69.544C542.258 70.568 540.546 71.4 538.754 72.04C536.994 72.648 535.186 73.08 533.33 73.336C531.506 73.592 529.73 73.72 528.002 73.72C524.578 73.72 521.394 73.16 518.45 72.04C515.506 70.888 512.946 69.208 510.77 67C508.594 64.76 506.882 62.008 505.634 58.744C504.386 55.448 503.762 51.64 503.762 47.32C503.762 43.96 504.306 40.808 505.394 37.864C506.482 34.888 508.034 32.312 510.05 30.136C512.098 27.928 514.578 26.184 517.49 24.904C520.434 23.624 523.746 22.984 527.426 22.984C530.53 22.984 533.394 23.48 536.018 24.472C538.642 25.464 540.898 26.92 542.786 28.84C544.674 30.728 546.146 33.064 547.202 35.848C548.29 38.6 548.834 41.752 548.834 45.304C548.834 47.096 548.642 48.312 548.258 48.952C547.874 49.56 547.138 49.864 546.05 49.864H515.57Z"/>
</mask>
<path d="M101.08 3.592L102.035 3.88854L102.438 2.592H101.08V3.592ZM79.528 73V74H80.2646L80.483 73.2965L79.528 73ZM67.864 73L66.9115 73.3046L67.1339 74H67.864V73ZM52.696 25.576L53.6485 25.2714L53.6428 25.2537L53.6366 25.2364L52.696 25.576ZM51.544 21.352L52.5224 21.145L50.5716 21.1186L51.544 21.352ZM50.968 23.608L50.0032 23.3449L50.0032 23.3449L50.968 23.608ZM50.344 25.576L49.4057 25.2303L49.3986 25.2494L49.3924 25.2687L50.344 25.576ZM35.032 73V74H35.76L35.9836 73.3073L35.032 73ZM23.32 73L22.3648 73.2959L22.5829 74H23.32V73ZM1.816 3.592V2.592H0.459285L0.860794 3.88794L1.816 3.592ZM15.4 4.408L14.8056 5.21217L14.8251 5.22659L14.8453 5.24005L15.4 4.408ZM16.936 6.51999L17.8979 6.24645L17.8975 6.24527L16.936 6.51999ZM28.744 48.04L29.7141 47.7975L29.7103 47.7819L29.7059 47.7664L28.744 48.04ZM29.464 51.4L28.4805 51.5812L28.4833 51.5963L28.4866 51.6113L29.464 51.4ZM30.232 55.144L29.2505 55.3355L31.2143 55.3311L30.232 55.144ZM31.048 51.352L30.0826 51.0911L30.0793 51.1033L30.0763 51.1156L31.048 51.352ZM32.056 48.04L33.0018 48.3651L33.0061 48.3519L32.056 48.04ZM45.688 6.51999L44.7435 6.19147L44.7406 6.19974L44.7379 6.20805L45.688 6.51999ZM47.176 4.504L46.5553 3.71995L46.5471 3.72641L46.5391 3.73303L47.176 4.504ZM56.488 4.408L55.8766 5.19928L55.8766 5.19929L56.488 4.408ZM58.072 6.51999L59.0224 6.20905L59.0114 6.17544L58.9981 6.1427L58.072 6.51999ZM71.656 48.04L70.7055 48.351L70.7089 48.3608L71.656 48.04ZM73.48 54.904L72.5013 55.1094L74.4667 55.0664L73.48 54.904ZM74.872 48.04L73.9101 47.7664L73.9058 47.7819L73.9019 47.7975L74.872 48.04ZM86.68 6.51999L87.6419 6.79354L87.6475 6.77357L87.6524 6.75337L86.68 6.51999ZM88.12 4.456L87.5357 3.64446L87.5278 3.65015L87.52 3.656L88.12 4.456ZM101.08 3.592L100.125 3.29545L78.573 72.7035L79.528 73L80.483 73.2965L102.035 3.88854L101.08 3.592ZM79.528 73V72H67.864V73V74H79.528V73ZM67.864 73L68.8165 72.6954L53.6485 25.2714L52.696 25.576L51.7435 25.8806L66.9115 73.3046L67.864 73ZM52.696 25.576L53.6366 25.2364C53.2409 24.1407 52.8682 22.7799 52.5224 21.145L51.544 21.352L50.5657 21.559C50.9238 23.2521 51.3191 24.7073 51.7554 25.9156L52.696 25.576ZM51.544 21.352L50.5716 21.1186C50.3817 21.9099 50.1922 22.6519 50.0032 23.3449L50.968 23.608L51.9328 23.8711C52.1278 23.1561 52.3223 22.3941 52.5164 21.5854L51.544 21.352ZM50.968 23.608L50.0032 23.3449C49.8179 24.0244 49.6185 24.6526 49.4057 25.2303L50.344 25.576L51.2823 25.9217C51.5175 25.2834 51.7341 24.5996 51.9328 23.8711L50.968 23.608ZM50.344 25.576L49.3924 25.2687L34.0804 72.6927L35.032 73L35.9836 73.3073L51.2956 25.8833L50.344 25.576ZM35.032 73V72H23.32V73V74H35.032V73ZM23.32 73L24.2752 72.7041L2.77121 3.29605L1.816 3.592L0.860794 3.88794L22.3648 73.2959L23.32 73ZM1.816 3.592V4.592H12.616V3.592V2.592H1.816V3.592ZM12.616 3.592V4.592C13.5709 4.592 14.2772 4.82161 14.8056 5.21217L15.4 4.408L15.9944 3.60382C15.0508 2.90638 13.9011 2.592 12.616 2.592V3.592ZM15.4 4.408L14.8453 5.24005C15.4138 5.61905 15.783 6.12448 15.9745 6.79472L16.936 6.51999L17.8975 6.24527C17.577 5.12351 16.9222 4.22095 15.9547 3.57595L15.4 4.408ZM16.936 6.51999L15.9741 6.79354L27.7821 48.3135L28.744 48.04L29.7059 47.7664L17.8979 6.24645L16.936 6.51999ZM28.744 48.04L27.7739 48.2825C28.024 49.2831 28.2597 50.3824 28.4805 51.5812L29.464 51.4L30.4475 51.2188C30.2203 49.9856 29.976 48.8449 29.7141 47.7975L28.744 48.04ZM29.464 51.4L28.4866 51.6113C28.741 52.7881 28.9957 54.0295 29.2505 55.3355L30.232 55.144L31.2135 54.9525C30.9563 53.6345 30.699 52.3799 30.4414 51.1887L29.464 51.4ZM30.232 55.144L31.2143 55.3311C31.4676 54.0016 31.7361 52.7542 32.0197 51.5883L31.048 51.352L30.0763 51.1156C29.7839 52.3178 29.5084 53.5984 29.2497 54.9569L30.232 55.144ZM31.048 51.352L32.0134 51.6129C32.3283 50.4477 32.6578 49.3654 33.0017 48.3651L32.056 48.04L31.1103 47.7149C30.7502 48.7626 30.4077 49.8883 30.0826 51.0911L31.048 51.352ZM32.056 48.04L33.0061 48.3519L46.6381 6.83194L45.688 6.51999L44.7379 6.20805L31.1059 47.7281L32.056 48.04ZM45.688 6.51999L46.6325 6.84852C46.8162 6.32049 47.1862 5.79261 47.8129 5.27496L47.176 4.504L46.5391 3.73303C45.6938 4.43138 45.0718 5.2475 44.7435 6.19147L45.688 6.51999ZM47.176 4.504L47.7967 5.28804C48.3684 4.83547 49.0709 4.592 49.96 4.592V3.592V2.592C48.6731 2.592 47.5196 2.95652 46.5553 3.71995L47.176 4.504ZM49.96 3.592V4.592H53.752V3.592V2.592H49.96V3.592ZM53.752 3.592V4.592C54.7089 4.592 55.3887 4.82233 55.8766 5.19928L56.488 4.408L57.0994 3.61672C56.1793 2.90566 55.0351 2.592 53.752 2.592V3.592ZM56.488 4.408L55.8766 5.19929C56.4341 5.63012 56.8571 6.18835 57.1459 6.89729L58.072 6.51999L58.9981 6.1427C58.5829 5.12364 57.9499 4.27388 57.0994 3.61671L56.488 4.408ZM58.072 6.51999L57.1216 6.83094L70.7056 48.3509L71.656 48.04L72.6064 47.729L59.0224 6.20905L58.072 6.51999ZM71.656 48.04L70.7089 48.3608C71.3652 50.2987 71.9635 52.5468 72.5013 55.1094L73.48 54.904L74.4587 54.6986C73.9085 52.0772 73.2908 49.7493 72.6031 47.7192L71.656 48.04ZM73.48 54.904L74.4667 55.0664C74.8792 52.5599 75.338 50.2992 75.8421 48.2825L74.872 48.04L73.9019 47.7975C73.382 49.8768 72.9128 52.1921 72.4933 54.7416L73.48 54.904ZM74.872 48.04L75.8339 48.3135L87.6419 6.79354L86.68 6.51999L85.7181 6.24645L73.9101 47.7664L74.872 48.04ZM86.68 6.51999L87.6524 6.75337C87.7812 6.2166 88.1057 5.71675 88.72 5.25599L88.12 4.456L87.52 3.656C86.5983 4.34725 85.9628 5.22339 85.7076 6.28662L86.68 6.51999ZM88.12 4.456L88.7043 5.26753C89.3165 4.82676 90.0509 4.592 90.952 4.592V3.592V2.592C89.6771 2.592 88.5235 2.93323 87.5357 3.64446L88.12 4.456ZM90.952 3.592V4.592H101.08V3.592V2.592H90.952V3.592ZM118.837 29.032H117.837V31.3332L119.519 29.7631L118.837 29.032ZM125.173 24.664L124.736 23.7646L125.173 24.664ZM140.437 24.376L140.03 25.2893L140.041 25.2944L140.437 24.376ZM145.621 28.216L144.85 28.8533L144.857 28.8613L144.864 28.8692L145.621 28.216ZM148.789 34.12L147.833 34.4122L147.835 34.4202L147.838 34.4282L148.789 34.12ZM149.893 73V74H150.893V73H149.893ZM138.037 73H137.037V74H138.037V73ZM135.973 34.696L135.202 35.3333L135.208 35.3406L135.973 34.696ZM118.837 37.384L118.13 36.6769L117.837 36.9698V37.384H118.837ZM118.837 73V74H119.837V73H118.837ZM106.981 73H105.981V74H106.981V73ZM106.981 1.672V0.671997H105.981V1.672H106.981ZM118.837 1.672H119.837V0.671997H118.837V1.672ZM118.837 29.032L119.519 29.7631C121.368 28.0373 123.398 26.6387 125.61 25.5634L125.173 24.664L124.736 23.7646C122.34 24.9293 120.146 26.4427 118.155 28.3009L118.837 29.032ZM125.173 24.664L125.61 25.5634C127.752 24.5221 130.301 23.984 133.285 23.984V22.984V21.984C130.061 21.984 127.202 22.5659 124.736 23.7646L125.173 24.664ZM133.285 22.984V23.984C135.858 23.984 138.099 24.4278 140.03 25.2892L140.437 24.376L140.844 23.4628C138.615 22.4682 136.088 21.984 133.285 21.984V22.984ZM140.437 24.376L140.041 25.2944C141.983 26.1309 143.58 27.3174 144.85 28.8533L145.621 28.216L146.392 27.5787C144.91 25.7866 143.051 24.4131 140.833 23.4576L140.437 24.376ZM145.621 28.216L144.864 28.8692C146.171 30.3843 147.164 32.2254 147.833 34.4122L148.789 34.12L149.745 33.8278C149.006 31.4066 147.887 29.3117 146.378 27.5628L145.621 28.216ZM148.789 34.12L147.838 34.4282C148.537 36.5868 148.893 38.993 148.893 41.656H149.893H150.893C150.893 38.815 150.513 36.1972 149.74 33.8118L148.789 34.12ZM149.893 41.656H148.893V73H149.893H150.893V41.656H149.893ZM149.893 73V72H138.037V73V74H149.893V73ZM138.037 73H139.037V41.656H138.037H137.037V73H138.037ZM138.037 41.656H139.037C139.037 38.5074 138.317 35.9253 136.738 34.0514L135.973 34.696L135.208 35.3406C136.381 36.7307 137.037 38.7886 137.037 41.656H138.037ZM135.973 34.696L136.744 34.0587C135.123 32.0992 132.702 31.2 129.685 31.2V32.2V33.2C132.3 33.2 134.071 33.9648 135.202 35.3333L135.973 34.696ZM129.685 32.2V31.2C127.479 31.2 125.401 31.7013 123.465 32.704L123.925 33.592L124.385 34.48C126.033 33.6267 127.795 33.2 129.685 33.2V32.2ZM123.925 33.592L123.465 32.704C121.572 33.6846 119.794 35.0129 118.13 36.6769L118.837 37.384L119.544 38.0911C121.08 36.555 122.694 35.3554 124.385 34.48L123.925 33.592ZM118.837 37.384H117.837V73H118.837H119.837V37.384H118.837ZM118.837 73V72H106.981V73V74H118.837V73ZM106.981 73H107.981V1.672H106.981H105.981V73H106.981ZM106.981 1.672V2.672H118.837V1.672V0.671997H106.981V1.672ZM118.837 1.672H117.837V29.032H118.837H119.837V1.672H118.837ZM192.896 24.76L192.527 25.6892L192.53 25.6905L192.896 24.76ZM200.577 29.8L199.859 30.4965L199.864 30.5018L200.577 29.8ZM205.521 58.84L204.582 58.4952L205.521 58.84ZM200.577 66.856L199.859 66.1593L199.854 66.1648L200.577 66.856ZM192.896 71.944L192.53 71.0135L192.527 71.0148L192.896 71.944ZM165.201 66.856L164.478 67.5472L164.483 67.5526L165.201 66.856ZM160.257 58.84L159.318 59.1848L159.321 59.1932L160.257 58.84ZM160.257 37.768L159.321 37.4148L159.318 37.4232L160.257 37.768ZM165.201 29.8L164.488 29.0981L164.483 29.1035L165.201 29.8ZM172.928 24.76L173.295 25.6905L172.928 24.76ZM192.033 60.472L191.221 59.8872L191.217 59.8935L192.033 60.472ZM192.033 36.232L191.214 36.8061L191.218 36.8124L192.033 36.232ZM173.697 36.28L172.883 35.6979L172.882 35.6996L173.697 36.28ZM173.697 60.472L172.882 61.0524L172.89 61.063L173.697 60.472ZM182.96 22.984V23.984C186.499 23.984 189.684 24.558 192.527 25.6892L192.896 24.76L193.266 23.8308C190.157 22.594 186.718 21.984 182.96 21.984V22.984ZM192.896 24.76L192.53 25.6905C195.415 26.8259 197.852 28.4292 199.859 30.4965L200.577 29.8L201.294 29.1035C199.077 26.8188 196.394 25.0621 193.263 23.8295L192.896 24.76ZM200.577 29.8L199.864 30.5018C201.899 32.5671 203.474 35.0979 204.582 38.1128L205.521 37.768L206.459 37.4232C205.263 34.1661 203.542 31.3849 201.289 29.0981L200.577 29.8ZM205.521 37.768L204.582 38.1128C205.687 41.1223 206.249 44.5073 206.249 48.28H207.249H208.249C208.249 44.3087 207.658 40.6856 206.459 37.4232L205.521 37.768ZM207.249 48.28H206.249C206.249 52.0858 205.687 55.4865 204.582 58.4952L205.521 58.84L206.459 59.1848C207.658 55.9215 208.249 52.2822 208.249 48.28H207.249ZM205.521 58.84L204.582 58.4952C203.474 61.5111 201.897 64.0602 199.859 66.1594L200.577 66.856L201.294 67.5526C203.544 65.2358 205.263 62.4409 206.459 59.1848L205.521 58.84ZM200.577 66.856L199.854 66.1648C197.848 68.2621 195.411 69.8794 192.53 71.0135L192.896 71.944L193.263 72.8745C196.398 71.6406 199.081 69.8659 201.299 67.5472L200.577 66.856ZM192.896 71.944L192.527 71.0148C189.684 72.146 186.499 72.72 182.96 72.72V73.72V74.72C186.718 74.72 190.157 74.11 193.266 72.8732L192.896 71.944ZM182.96 73.72V72.72C179.389 72.72 176.171 72.1457 173.295 71.0135L172.928 71.944L172.562 72.8745C175.702 74.1103 179.172 74.72 182.96 74.72V73.72ZM172.928 71.944L173.295 71.0135C170.412 69.8789 167.958 68.2602 165.918 66.1594L165.201 66.856L164.483 67.5526C166.731 69.8678 169.429 71.6411 172.562 72.8745L172.928 71.944ZM165.201 66.856L165.923 66.1648C163.913 64.063 162.333 61.5092 161.192 58.4868L160.257 58.84L159.321 59.1932C160.548 62.4428 162.264 65.233 164.478 67.5472L165.201 66.856ZM160.257 58.84L161.195 58.4952C160.09 55.4865 159.529 52.0858 159.529 48.28H158.529H157.529C157.529 52.2822 158.119 55.9215 159.318 59.1848L160.257 58.84ZM158.529 48.28H159.529C159.529 44.5073 160.09 41.1223 161.195 38.1128L160.257 37.768L159.318 37.4232C158.119 40.6856 157.529 44.3087 157.529 48.28H158.529ZM160.257 37.768L161.192 38.1212C162.333 35.0998 163.911 32.5643 165.918 30.4965L165.201 29.8L164.483 29.1035C162.266 31.3877 160.548 34.1642 159.321 37.4148L160.257 37.768ZM165.201 29.8L165.913 30.5018C167.953 28.4312 170.409 26.8263 173.295 25.6905L172.928 24.76L172.562 23.8295C169.432 25.0616 166.736 26.8168 164.488 29.0981L165.201 29.8ZM172.928 24.76L173.295 25.6905C176.171 24.5583 179.389 23.984 182.96 23.984V22.984V21.984C179.172 21.984 175.702 22.5937 172.562 23.8295L172.928 24.76ZM182.96 64.6V65.6C187.302 65.6 190.667 64.125 192.848 61.0505L192.033 60.472L191.217 59.8935C189.494 62.323 186.811 63.6 182.96 63.6V64.6ZM192.033 60.472L192.844 61.0568C195.002 58.0627 196.008 53.7875 196.008 48.376H195.008H194.008C194.008 53.5885 193.031 57.3773 191.221 59.8872L192.033 60.472ZM195.008 48.376H196.008C196.008 42.9633 195.002 38.6754 192.847 35.6516L192.033 36.232L191.218 36.8124C193.031 39.3566 194.008 43.1647 194.008 48.376H195.008ZM192.033 36.232L192.851 35.6579C190.672 32.5503 187.307 31.056 182.96 31.056V32.056V33.056C186.806 33.056 189.489 34.3456 191.214 36.8061L192.033 36.232ZM182.96 32.056V31.056C178.551 31.056 175.126 32.565 172.883 35.6979L173.697 36.28L174.51 36.8621C176.299 34.363 179.05 33.056 182.96 33.056V32.056ZM173.697 36.28L172.882 35.6996C170.728 38.7226 169.721 42.9938 169.721 48.376H170.721H171.721C171.721 43.1982 172.697 39.4054 174.511 36.8604L173.697 36.28ZM170.721 48.376H169.721C169.721 53.7582 170.728 58.0294 172.882 61.0524L173.697 60.472L174.511 59.8916C172.697 57.3466 171.721 53.5538 171.721 48.376H170.721ZM173.697 60.472L172.89 61.063C175.136 64.1295 178.56 65.6 182.96 65.6V64.6V63.6C179.041 63.6 176.289 62.3185 174.503 59.881L173.697 60.472ZM333.205 3.592L334.16 3.88854L334.563 2.592H333.205V3.592ZM311.653 73V74H312.39L312.608 73.2965L311.653 73ZM299.989 73L299.037 73.3046L299.259 74H299.989V73ZM284.821 25.576L285.773 25.2714L285.768 25.2537L285.762 25.2364L284.821 25.576ZM283.669 21.352L284.647 21.145L282.697 21.1186L283.669 21.352ZM283.093 23.608L282.128 23.3449V23.3449L283.093 23.608ZM282.469 25.576L281.531 25.2303L281.524 25.2494L281.517 25.2687L282.469 25.576ZM267.157 73V74H267.885L268.109 73.3073L267.157 73ZM255.445 73L254.49 73.2959L254.708 74H255.445V73ZM233.941 3.592V2.592H232.584L232.986 3.88794L233.941 3.592ZM247.525 4.408L246.931 5.21217L246.95 5.22659L246.97 5.24005L247.525 4.408ZM249.061 6.51999L250.023 6.24645L250.023 6.24527L249.061 6.51999ZM260.869 48.04L261.839 47.7975L261.835 47.7819L261.831 47.7664L260.869 48.04ZM261.589 51.4L260.606 51.5812L260.608 51.5963L260.612 51.6113L261.589 51.4ZM262.357 55.144L261.376 55.3355L263.339 55.3311L262.357 55.144ZM263.173 51.352L262.208 51.0911L262.204 51.1033L262.201 51.1156L263.173 51.352ZM264.181 48.04L265.127 48.3651L265.131 48.3519L264.181 48.04ZM277.813 6.51999L276.868 6.19147L276.866 6.19974L276.863 6.20805L277.813 6.51999ZM279.301 4.504L278.68 3.71995L278.672 3.72641L278.664 3.73303L279.301 4.504ZM288.613 4.408L288.002 5.19928V5.19929L288.613 4.408ZM290.197 6.51999L291.147 6.20905L291.136 6.17544L291.123 6.1427L290.197 6.51999ZM303.781 48.04L302.831 48.351L302.834 48.3608L303.781 48.04ZM305.605 54.904L304.626 55.1094L306.592 55.0664L305.605 54.904ZM306.997 48.04L306.035 47.7664L306.031 47.7819L306.027 47.7975L306.997 48.04ZM318.805 6.51999L319.767 6.79354L319.773 6.77357L319.777 6.75337L318.805 6.51999ZM320.245 4.456L319.661 3.64446L319.653 3.65015L319.645 3.656L320.245 4.456ZM333.205 3.592L332.25 3.29545L310.698 72.7035L311.653 73L312.608 73.2965L334.16 3.88854L333.205 3.592ZM311.653 73V72H299.989V73V74H311.653V73ZM299.989 73L300.941 72.6954L285.773 25.2714L284.821 25.576L283.869 25.8806L299.037 73.3046L299.989 73ZM284.821 25.576L285.762 25.2364C285.366 24.1407 284.993 22.7799 284.647 21.145L283.669 21.352L282.691 21.559C283.049 23.2521 283.444 24.7073 283.88 25.9156L284.821 25.576ZM283.669 21.352L282.697 21.1186C282.507 21.9099 282.317 22.6519 282.128 23.3449L283.093 23.608L284.058 23.8711C284.253 23.1561 284.447 22.3941 284.641 21.5854L283.669 21.352ZM283.093 23.608L282.128 23.3449C281.943 24.0244 281.743 24.6526 281.531 25.2303L282.469 25.576L283.407 25.9217C283.642 25.2834 283.859 24.5996 284.058 23.8711L283.093 23.608ZM282.469 25.576L281.517 25.2687L266.205 72.6927L267.157 73L268.109 73.3073L283.421 25.8833L282.469 25.576ZM267.157 73V72H255.445V73V74H267.157V73ZM255.445 73L256.4 72.7041L234.896 3.29605L233.941 3.592L232.986 3.88794L254.49 73.2959L255.445 73ZM233.941 3.592V4.592H244.741V3.592V2.592H233.941V3.592ZM244.741 3.592V4.592C245.696 4.592 246.402 4.82161 246.931 5.21217L247.525 4.408L248.119 3.60382C247.176 2.90638 246.026 2.592 244.741 2.592V3.592ZM247.525 4.408L246.97 5.24005C247.539 5.61905 247.908 6.12448 248.099 6.79472L249.061 6.51999L250.023 6.24527C249.702 5.12351 249.047 4.22095 248.08 3.57595L247.525 4.408ZM249.061 6.51999L248.099 6.79354L259.907 48.3135L260.869 48.04L261.831 47.7664L250.023 6.24645L249.061 6.51999ZM260.869 48.04L259.899 48.2825C260.149 49.2831 260.385 50.3824 260.606 51.5812L261.589 51.4L262.572 51.2188C262.345 49.9856 262.101 48.8449 261.839 47.7975L260.869 48.04ZM261.589 51.4L260.612 51.6113C260.866 52.7881 261.121 54.0295 261.376 55.3355L262.357 55.144L263.339 54.9525C263.081 53.6345 262.824 52.3799 262.566 51.1887L261.589 51.4ZM262.357 55.144L263.339 55.3311C263.593 54.0016 263.861 52.7542 264.145 51.5883L263.173 51.352L262.201 51.1156C261.909 52.3178 261.633 53.5984 261.375 54.9569L262.357 55.144ZM263.173 51.352L264.138 51.6129C264.453 50.4477 264.783 49.3654 265.127 48.3651L264.181 48.04L263.235 47.7149C262.875 48.7626 262.533 49.8883 262.208 51.0911L263.173 51.352ZM264.181 48.04L265.131 48.3519L278.763 6.83194L277.813 6.51999L276.863 6.20805L263.231 47.7281L264.181 48.04ZM277.813 6.51999L278.758 6.84852C278.941 6.32049 279.311 5.79261 279.938 5.27496L279.301 4.504L278.664 3.73303C277.819 4.43138 277.197 5.2475 276.868 6.19147L277.813 6.51999ZM279.301 4.504L279.922 5.28804C280.493 4.83547 281.196 4.592 282.085 4.592V3.592V2.592C280.798 2.592 279.645 2.95652 278.68 3.71995L279.301 4.504ZM282.085 3.592V4.592H285.877V3.592V2.592H282.085V3.592ZM285.877 3.592V4.592C286.834 4.592 287.514 4.82233 288.002 5.19928L288.613 4.408L289.224 3.61672C288.304 2.90566 287.16 2.592 285.877 2.592V3.592ZM288.613 4.408L288.002 5.19929C288.559 5.63012 288.982 6.18835 289.271 6.89729L290.197 6.51999L291.123 6.1427C290.708 5.12364 290.075 4.27388 289.224 3.61671L288.613 4.408ZM290.197 6.51999L289.247 6.83094L302.831 48.3509L303.781 48.04L304.731 47.729L291.147 6.20905L290.197 6.51999ZM303.781 48.04L302.834 48.3608C303.49 50.2987 304.089 52.5468 304.626 55.1094L305.605 54.904L306.584 54.6986C306.034 52.0772 305.416 49.7493 304.728 47.7192L303.781 48.04ZM305.605 54.904L306.592 55.0664C307.004 52.5599 307.463 50.2992 307.967 48.2825L306.997 48.04L306.027 47.7975C305.507 49.8768 305.038 52.1921 304.618 54.7416L305.605 54.904ZM306.997 48.04L307.959 48.3135L319.767 6.79354L318.805 6.51999L317.843 6.24645L306.035 47.7664L306.997 48.04ZM318.805 6.51999L319.777 6.75337C319.906 6.2166 320.231 5.71675 320.845 5.25599L320.245 4.456L319.645 3.656C318.723 4.34725 318.088 5.22339 317.833 6.28662L318.805 6.51999ZM320.245 4.456L320.829 5.26753C321.441 4.82676 322.176 4.592 323.077 4.592V3.592V2.592C321.802 2.592 320.648 2.93323 319.661 3.64446L320.245 4.456ZM323.077 3.592V4.592H333.205V3.592V2.592H323.077V3.592ZM365.772 42.712V43.712H366.772V42.712H365.772ZM365.099 38.392L364.142 38.6814L364.146 38.6949L364.151 38.7082L365.099 38.392ZM359.867 32.392L359.447 33.2993L359.46 33.3054L359.474 33.3111L359.867 32.392ZM347.147 34.408L346.446 33.6951L346.44 33.7009L347.147 34.408ZM343.404 42.712L342.415 42.5619L342.24 43.712H343.404V42.712ZM343.164 49.864V48.864H342.085L342.166 49.9397L343.164 49.864ZM344.508 56.44L343.572 56.7947L343.575 56.8001L344.508 56.44ZM347.292 61L346.565 61.6878L346.575 61.6974L347.292 61ZM351.371 63.688L351.01 64.6204L351.021 64.6248L351.033 64.6289L351.371 63.688ZM361.595 63.88L361.292 62.9271L361.286 62.9291L361.595 63.88ZM365.243 62.392L364.786 61.503L364.774 61.5089L365.243 62.392ZM367.979 60.904L367.491 60.0315L367.483 60.0358L367.476 60.0402L367.979 60.904ZM372.492 61.336L371.654 61.8823L371.678 61.92L371.706 61.9554L372.492 61.336ZM375.9 65.656L376.66 66.3055L377.193 65.6812L376.685 65.0366L375.9 65.656ZM371.483 69.544L372.015 70.3911L372.027 70.3836L371.483 69.544ZM366.348 72.04L366.674 72.9852L366.684 72.9817L366.348 72.04ZM360.923 73.336L360.787 72.3454L360.785 72.3457L360.923 73.336ZM346.043 72.04L345.679 72.9713L345.688 72.9746L346.043 72.04ZM338.363 67L337.646 67.6968L337.651 67.7019L338.363 67ZM333.228 58.744L332.292 59.0981L332.293 59.1011L333.228 58.744ZM332.987 37.864L333.926 38.2107L333.927 38.2074L332.987 37.864ZM337.643 30.136L336.91 29.456L336.91 29.4564L337.643 30.136ZM345.083 24.904L344.685 23.9869L344.681 23.9885L345.083 24.904ZM370.38 28.84L369.666 29.5412L369.672 29.5471L370.38 28.84ZM374.796 35.848L373.86 36.2027L373.866 36.2157L374.796 35.848ZM375.852 48.952L376.697 49.486L376.703 49.4763L376.709 49.4665L375.852 48.952ZM365.772 42.712H366.772C366.772 41.0776 366.533 39.53 366.048 38.0758L365.099 38.392L364.151 38.7082C364.562 39.942 364.772 41.2744 364.772 42.712H365.772ZM365.099 38.392L366.057 38.1026C365.604 36.6058 364.902 35.2827 363.944 34.1471L363.18 34.792L362.415 35.4369C363.185 36.3493 363.763 37.4262 364.142 38.6814L365.099 38.392ZM363.18 34.792L363.944 34.1471C362.97 32.9935 361.735 32.1045 360.261 31.4729L359.867 32.392L359.474 33.3111C360.688 33.8315 361.661 34.5425 362.415 35.4369L363.18 34.792ZM359.867 32.392L360.288 31.4847C358.819 30.8038 357.134 30.48 355.259 30.48V31.48V32.48C356.905 32.48 358.292 32.7642 359.447 33.2993L359.867 32.392ZM355.259 31.48V30.48C351.637 30.48 348.658 31.5187 346.446 33.6952L347.147 34.408L347.849 35.1208C349.605 33.3933 352.034 32.48 355.259 32.48V31.48ZM347.147 34.408L346.44 33.7009C344.296 35.8449 342.981 38.8328 342.415 42.5619L343.404 42.712L344.392 42.8621C344.914 39.4232 346.095 36.8751 347.855 35.1151L347.147 34.408ZM343.404 42.712V43.712H365.772V42.712V41.712H343.404V42.712ZM343.164 49.864L342.166 49.9397C342.364 52.5382 342.827 54.8283 343.573 56.7947L344.508 56.44L345.443 56.0853C344.78 54.3396 344.347 52.2458 344.161 49.7883L343.164 49.864ZM344.508 56.44L343.575 56.8001C344.318 58.7257 345.31 60.3626 346.566 61.6877L347.292 61L348.017 60.3123C346.969 59.2054 346.105 57.8023 345.44 56.0799L344.508 56.44ZM347.292 61L346.575 61.6974C347.829 62.9862 349.311 63.9614 351.01 64.6204L351.371 63.688L351.733 62.7556C350.296 62.1986 349.058 61.3818 348.008 60.3026L347.292 61ZM351.371 63.688L351.033 64.6289C352.754 65.2487 354.631 65.552 356.651 65.552V64.552V63.552C354.832 63.552 353.189 63.2793 351.71 62.7471L351.371 63.688ZM356.651 64.552V65.552C358.644 65.552 360.403 65.3201 361.905 64.8309L361.595 63.88L361.286 62.9291C360.036 63.3359 358.499 63.552 356.651 63.552V64.552ZM361.595 63.88L361.899 64.8329C363.349 64.3714 364.623 63.8538 365.713 63.2751L365.243 62.392L364.774 61.5089C363.816 62.0182 362.658 62.4926 361.292 62.9271L361.595 63.88ZM365.243 62.392L365.701 63.281C366.768 62.7314 367.696 62.2269 368.483 61.7678L367.979 60.904L367.476 60.0402C366.727 60.4771 365.831 60.9646 364.786 61.503L365.243 62.392ZM367.979 60.904L368.468 61.7765C369.155 61.3918 369.756 61.232 370.284 61.232V60.232V59.232C369.339 59.232 368.404 59.5202 367.491 60.0315L367.979 60.904ZM370.284 60.232V61.232C370.989 61.232 371.385 61.4697 371.654 61.8823L372.492 61.336L373.329 60.7897C372.638 59.7303 371.562 59.232 370.284 59.232V60.232ZM372.492 61.336L371.706 61.9554L375.114 66.2754L375.9 65.656L376.685 65.0366L373.277 60.7166L372.492 61.336ZM375.9 65.656L375.139 65.0065C373.887 66.4719 372.488 67.703 370.94 68.7044L371.483 69.544L372.027 70.3836C373.743 69.273 375.288 67.9121 376.66 66.3055L375.9 65.656ZM371.483 69.544L370.952 68.6969C369.381 69.6829 367.734 70.483 366.011 71.0983L366.348 72.04L366.684 72.9817C368.545 72.317 370.322 71.4531 372.015 70.3911L371.483 69.544ZM366.348 72.04L366.021 71.0948C364.323 71.6814 362.579 72.0982 360.787 72.3454L360.923 73.336L361.06 74.3266C362.98 74.0618 364.852 73.6146 366.674 72.9852L366.348 72.04ZM360.923 73.336L360.785 72.3457C359.004 72.5957 357.274 72.72 355.595 72.72V73.72V74.72C357.373 74.72 359.195 74.5883 361.062 74.3263L360.923 73.336ZM355.595 73.72V72.72C352.282 72.72 349.22 72.1785 346.399 71.1054L346.043 72.04L345.688 72.9746C348.755 74.1415 352.061 74.72 355.595 74.72V73.72ZM346.043 72.04L346.408 71.1088C343.592 70.0069 341.151 68.404 339.076 66.2981L338.363 67L337.651 67.7019C339.928 70.012 342.607 71.7691 345.679 72.9712L346.043 72.04ZM338.363 67L339.081 66.3032C337.01 64.1715 335.367 61.5392 334.162 58.3869L333.228 58.744L332.293 59.1011C333.584 62.4768 335.365 65.3485 337.646 67.6968L338.363 67ZM333.228 58.744L334.163 58.3899C332.966 55.2294 332.355 51.5454 332.355 47.32H331.355H330.355C330.355 51.7346 330.993 55.6666 332.292 59.0981L333.228 58.744ZM331.355 47.32H332.355C332.355 44.0699 332.881 41.0361 333.926 38.2106L332.987 37.864L332.049 37.5173C330.918 40.5799 330.355 43.8501 330.355 47.32H331.355ZM332.987 37.864L333.927 38.2074C334.972 35.3474 336.457 32.8878 338.377 30.8156L337.643 30.136L336.91 29.4564C334.798 31.7362 333.179 34.4286 332.048 37.5206L332.987 37.864ZM337.643 30.136L338.377 30.816C340.327 28.7139 342.692 27.0476 345.486 25.8195L345.083 24.904L344.681 23.9885C341.651 25.3204 339.057 27.1421 336.91 29.456L337.643 30.136ZM345.083 24.904L345.482 25.8211C348.283 24.6032 351.457 23.984 355.02 23.984V22.984V21.984C351.222 21.984 347.772 22.6448 344.685 23.9869L345.083 24.904ZM355.02 22.984V23.984C358.016 23.984 360.758 24.4624 363.258 25.4074L363.612 24.472L363.965 23.5366C361.217 22.4976 358.231 21.984 355.02 21.984V22.984ZM363.612 24.472L363.258 25.4074C365.752 26.3504 367.884 27.7286 369.666 29.5411L370.38 28.84L371.093 28.1389C369.099 26.1114 366.719 24.5776 363.965 23.5366L363.612 24.472ZM370.38 28.84L369.672 29.5471C371.449 31.3241 372.849 33.5356 373.861 36.2027L374.796 35.848L375.73 35.4933C374.63 32.5924 373.086 30.1319 371.087 28.1329L370.38 28.84ZM374.796 35.848L373.866 36.2157C374.899 38.8297 375.427 41.8533 375.427 45.304H376.427H377.427C377.427 41.6507 376.868 38.3703 375.725 35.4803L374.796 35.848ZM376.427 45.304H375.427C375.427 46.169 375.381 46.8651 375.296 47.404C375.208 47.9569 375.091 48.2762 374.994 48.4375L375.852 48.952L376.709 49.4665C376.996 48.9878 377.167 48.3791 377.271 47.716C377.378 47.0389 377.427 46.2309 377.427 45.304H376.427ZM375.852 48.952L375.006 48.418C374.887 48.6066 374.576 48.864 373.643 48.864V49.864V50.864C374.887 50.864 376.048 50.5134 376.697 49.486L375.852 48.952ZM373.643 49.864V48.864H343.164V49.864V50.864H373.643V49.864ZM444.025 46.792V47.792H445.456L444.964 46.4484L444.025 46.792ZM435.577 23.704L436.516 23.3604L436.51 23.3439L436.503 23.3276L435.577 23.704ZM434.281 20.056L435.234 19.7528V19.7528L434.281 20.056ZM432.937 15.496L433.901 15.2313L432.901 11.5879L431.968 15.249L432.937 15.496ZM431.641 20.104L432.594 20.4072L432.596 20.4011L431.641 20.104ZM430.345 23.8L429.415 23.4335L429.41 23.4451L429.406 23.4568L430.345 23.8ZM421.945 46.792L421.006 46.4488L420.515 47.792H421.945V46.792ZM466.825 73V74H468.292L467.756 72.6344L466.825 73ZM454.105 72.184L453.472 72.958L453.483 72.9668L453.494 72.9753L454.105 72.184ZM452.521 70.072L451.582 70.4158L451.59 70.4389L451.6 70.4616L452.521 70.072ZM447.337 55.912L448.276 55.5682L448.036 54.912H447.337V55.912ZM418.585 55.912V54.912H417.886L417.646 55.5682L418.585 55.912ZM413.401 70.072L412.462 69.7282L412.459 69.7358L412.457 69.7435L413.401 70.072ZM399.097 73L398.166 72.6338L397.629 74H399.097V73ZM426.409 3.592V2.592H425.728L425.478 3.22582L426.409 3.592ZM439.561 3.592L440.492 3.22638L440.243 2.592H439.561V3.592ZM444.025 46.792L444.964 46.4484L436.516 23.3604L435.577 23.704L434.638 24.0476L443.086 47.1356L444.025 46.792ZM435.577 23.704L436.503 23.3276C436.1 22.3341 435.676 21.1437 435.234 19.7528L434.281 20.056L433.328 20.3592C433.782 21.7843 434.222 23.0259 434.651 24.0804L435.577 23.704ZM434.281 20.056L435.234 19.7528C434.791 18.3592 434.346 16.8522 433.901 15.2313L432.937 15.496L431.973 15.7607C432.424 17.4038 432.875 18.9368 433.328 20.3592L434.281 20.056ZM432.937 15.496L431.968 15.249C431.556 16.8661 431.128 18.3853 430.686 19.8069L431.641 20.104L432.596 20.4011C433.05 18.9427 433.486 17.3899 433.906 15.743L432.937 15.496ZM431.641 20.104L430.688 19.8008C430.245 21.1934 429.82 22.4034 429.415 23.4335L430.345 23.8L431.275 24.1665C431.702 23.0846 432.141 21.8306 432.594 20.4072L431.641 20.104ZM430.345 23.8L429.406 23.4568L421.006 46.4488L421.945 46.792L422.884 47.1352L431.284 24.1432L430.345 23.8ZM421.945 46.792V47.792H444.025V46.792V45.792H421.945V46.792ZM466.825 73V72H456.841V73V74H466.825V73ZM456.841 73V72C455.884 72 455.204 71.7697 454.716 71.3927L454.105 72.184L453.494 72.9753C454.414 73.6863 455.558 74 456.841 74V73ZM454.105 72.184L454.738 71.41C454.159 70.9361 453.73 70.3637 453.442 69.6824L452.521 70.072L451.6 70.4616C452.016 71.4443 452.643 72.2799 453.472 72.958L454.105 72.184ZM452.521 70.072L453.46 69.7282L448.276 55.5682L447.337 55.912L446.398 56.2558L451.582 70.4158L452.521 70.072ZM447.337 55.912V54.912H418.585V55.912V56.912H447.337V55.912ZM418.585 55.912L417.646 55.5682L412.462 69.7282L413.401 70.072L414.34 70.4158L419.524 56.2558L418.585 55.912ZM413.401 70.072L412.457 69.7435C412.273 70.2715 411.903 70.7994 411.276 71.317L411.913 72.088L412.55 72.859C413.395 72.1606 414.017 71.3445 414.345 70.4005L413.401 70.072ZM411.913 72.088L411.276 71.317C410.744 71.7565 410.067 72 409.177 72V73V74C410.463 74 411.61 73.6355 412.55 72.859L411.913 72.088ZM409.177 73V72H399.097V73V74H409.177V73ZM399.097 73L400.028 73.3662L427.34 3.95817L426.409 3.592L425.478 3.22582L398.166 72.6338L399.097 73ZM426.409 3.592V4.592H439.561V3.592V2.592H426.409V3.592ZM439.561 3.592L438.63 3.95761L465.894 73.3656L466.825 73L467.756 72.6344L440.492 3.22638L439.561 3.592ZM483.228 32.296L482.236 32.4242L482.643 35.5772L484.114 32.7586L483.228 32.296ZM488.699 25.384L489.318 26.1695L489.326 26.1637L488.699 25.384ZM501.66 24.328L502.656 24.4142L502.705 23.8487L502.244 23.5168L501.66 24.328ZM500.892 33.208L501.855 33.4756L501.88 33.3864L501.888 33.2942L500.892 33.208ZM500.172 34.456L500.785 35.2454L500.796 35.2369L500.172 34.456ZM496.811 34.552L496.642 35.5375L496.647 35.5384L496.811 34.552ZM490.572 34.888L490.923 35.8243L490.572 34.888ZM487.788 36.568L488.448 37.3187L488.45 37.317L487.788 36.568ZM485.628 39.16L484.78 38.63L484.773 38.6397L484.768 38.6495L485.628 39.16ZM483.9 42.664L482.976 42.281L482.9 42.4649V42.664H483.9ZM483.9 73V74H484.9V73H483.9ZM472.043 73H471.043V74H472.043V73ZM472.043 23.752V22.752H471.043V23.752H472.043ZM481.548 24.424L480.865 25.1551L480.879 25.1676L480.893 25.1797L481.548 24.424ZM482.508 26.728L483.499 26.5997L483.497 26.5866L482.508 26.728ZM483.228 32.296L484.114 32.7586C485.6 29.9112 487.34 27.728 489.318 26.1695L488.699 25.384L488.081 24.5985C485.835 26.368 483.927 28.7928 482.341 31.8334L483.228 32.296ZM488.699 25.384L489.326 26.1637C491.248 24.6197 493.52 23.84 496.188 23.84V22.84V21.84C493.095 21.84 490.375 22.7563 488.073 24.6043L488.699 25.384ZM496.188 22.84V23.84C498.32 23.84 499.918 24.3055 501.075 25.1392L501.66 24.328L502.244 23.5168C500.649 22.3665 498.599 21.84 496.188 21.84V22.84ZM501.66 24.328L500.663 24.2418L499.895 33.1218L500.892 33.208L501.888 33.2942L502.656 24.4142L501.66 24.328ZM500.892 33.208L499.928 32.9404C499.8 33.4028 499.643 33.5981 499.547 33.6751L500.172 34.456L500.796 35.2369C501.34 34.8019 501.663 34.1652 501.855 33.4756L500.892 33.208ZM500.172 34.456L499.558 33.6666C499.504 33.7085 499.349 33.792 498.971 33.792V34.792V35.792C499.618 35.792 500.263 35.6515 500.785 35.2453L500.172 34.456ZM498.971 34.792V33.792C498.578 33.792 497.925 33.7238 496.976 33.5656L496.811 34.552L496.647 35.5384C497.618 35.7002 498.405 35.792 498.971 35.792V34.792ZM496.811 34.552L496.981 33.5665C496 33.3974 495.031 33.312 494.076 33.312V34.312V35.312C494.912 35.312 495.767 35.3866 496.642 35.5375L496.811 34.552ZM494.076 34.312V33.312C492.667 33.312 491.377 33.5181 490.22 33.9517L490.572 34.888L490.923 35.8243C491.814 35.4899 492.86 35.312 494.076 35.312V34.312ZM490.572 34.888L490.22 33.9517C489.08 34.3792 488.047 35.0034 487.125 35.819L487.788 36.568L488.45 37.317C489.192 36.6606 490.015 36.1647 490.923 35.8243L490.572 34.888ZM487.788 36.568L487.127 35.8173C486.245 36.5933 485.464 37.5345 484.78 38.63L485.628 39.16L486.475 39.69C487.071 38.7375 487.73 37.9507 488.448 37.3187L487.788 36.568ZM485.628 39.16L484.768 38.6495C484.131 39.7213 483.535 40.9331 482.976 42.281L483.9 42.664L484.823 43.047C485.352 41.7709 485.908 40.6467 486.487 39.6705L485.628 39.16ZM483.9 42.664H482.9V73H483.9H484.9V42.664H483.9ZM483.9 73V72H472.043V73V74H483.9V73ZM472.043 73H473.043V23.752H472.043H471.043V73H472.043ZM472.043 23.752V24.752H479.004V23.752V22.752H472.043V23.752ZM479.004 23.752V24.752C480.159 24.752 480.675 24.9772 480.865 25.1551L481.548 24.424L482.23 23.6929C481.46 22.9748 480.28 22.752 479.004 22.752V23.752ZM481.548 24.424L480.893 25.1797C481.094 25.3543 481.368 25.8203 481.518 26.8694L482.508 26.728L483.497 26.5866C483.327 25.3957 482.961 24.3257 482.202 23.6683L481.548 24.424ZM482.508 26.728L481.516 26.8562L482.236 32.4242L483.228 32.296L484.219 32.1678L483.499 26.5998L482.508 26.728ZM538.178 42.712V43.712H539.178V42.712H538.178ZM537.506 38.392L536.549 38.6814L536.553 38.6949L536.557 38.7082L537.506 38.392ZM532.274 32.392L531.853 33.2993L531.866 33.3054L531.88 33.3111L532.274 32.392ZM519.554 34.408L518.852 33.6951L518.847 33.7009L519.554 34.408ZM515.81 42.712L514.821 42.5619L514.646 43.712H515.81V42.712ZM515.57 49.864V48.864H514.491L514.573 49.9397L515.57 49.864ZM516.914 56.44L515.979 56.7947L515.981 56.8001L516.914 56.44ZM519.698 61L518.972 61.6878L518.981 61.6974L519.698 61ZM523.778 63.688L523.416 64.6204L523.428 64.6248L523.439 64.6289L523.778 63.688ZM534.002 63.88L533.699 62.9271L533.692 62.9291L534.002 63.88ZM537.65 62.392L537.192 61.503L537.181 61.5089L537.65 62.392ZM540.386 60.904L539.897 60.0315L539.889 60.0358L539.882 60.0402L540.386 60.904ZM544.898 61.336L544.06 61.8823L544.085 61.92L544.113 61.9554L544.898 61.336ZM548.306 65.656L549.066 66.3055L549.599 65.6812L549.091 65.0366L548.306 65.656ZM543.89 69.544L544.421 70.3911L544.433 70.3836L543.89 69.544ZM538.754 72.04L539.08 72.9852L539.09 72.9817L538.754 72.04ZM533.33 73.336L533.193 72.3454L533.191 72.3457L533.33 73.336ZM518.45 72.04L518.085 72.9713L518.094 72.9746L518.45 72.04ZM510.77 67L510.052 67.6968L510.057 67.7019L510.77 67ZM505.634 58.744L504.699 59.0981L504.7 59.1011L505.634 58.744ZM505.394 37.864L506.332 38.2107L506.333 38.2074L505.394 37.864ZM510.05 30.136L509.317 29.456L509.316 29.4564L510.05 30.136ZM517.49 24.904L517.091 23.9869L517.087 23.9885L517.49 24.904ZM542.786 28.84L542.073 29.5412L542.079 29.5471L542.786 28.84ZM547.202 35.848L546.267 36.2027L546.272 36.2157L547.202 35.848ZM548.258 48.952L549.103 49.486L549.109 49.4763L549.115 49.4665L548.258 48.952ZM538.178 42.712H539.178C539.178 41.0776 538.939 39.53 538.454 38.0758L537.506 38.392L536.557 38.7082C536.968 39.942 537.178 41.2744 537.178 42.712H538.178ZM537.506 38.392L538.463 38.1026C538.01 36.6058 537.308 35.2827 536.35 34.1471L535.586 34.792L534.821 35.4369C535.591 36.3493 536.169 37.4262 536.549 38.6814L537.506 38.392ZM535.586 34.792L536.35 34.1471C535.377 32.9935 534.141 32.1045 532.668 31.4729L532.274 32.392L531.88 33.3111C533.094 33.8315 534.067 34.5425 534.821 35.4369L535.586 34.792ZM532.274 32.392L532.694 31.4847C531.225 30.8038 529.54 30.48 527.666 30.48V31.48V32.48C529.311 32.48 530.698 32.7642 531.853 33.2993L532.274 32.392ZM527.666 31.48V30.48C524.043 30.48 521.065 31.5187 518.852 33.6952L519.554 34.408L520.255 35.1208C522.011 33.3933 524.44 32.48 527.666 32.48V31.48ZM519.554 34.408L518.847 33.7009C516.703 35.8449 515.387 38.8328 514.821 42.5619L515.81 42.712L516.798 42.8621C517.32 39.4232 518.501 36.8751 520.261 35.1151L519.554 34.408ZM515.81 42.712V43.712H538.178V42.712V41.712H515.81V42.712ZM515.57 49.864L514.573 49.9397C514.77 52.5382 515.233 54.8283 515.979 56.7947L516.914 56.44L517.849 56.0853C517.187 54.3396 516.754 52.2458 516.567 49.7883L515.57 49.864ZM516.914 56.44L515.981 56.8001C516.724 58.7257 517.716 60.3626 518.972 61.6877L519.698 61L520.424 60.3123C519.375 59.2054 518.511 57.8023 517.847 56.0799L516.914 56.44ZM519.698 61L518.981 61.6974C520.235 62.9862 521.717 63.9614 523.416 64.6204L523.778 63.688L524.139 62.7556C522.703 62.1986 521.464 61.3818 520.414 60.3026L519.698 61ZM523.778 63.688L523.439 64.6289C525.161 65.2487 527.037 65.552 529.058 65.552V64.552V63.552C527.238 63.552 525.595 63.2793 524.116 62.7471L523.778 63.688ZM529.058 64.552V65.552C531.051 65.552 532.809 65.3201 534.311 64.8309L534.002 63.88L533.692 62.9291C532.443 63.3359 530.905 63.552 529.058 63.552V64.552ZM534.002 63.88L534.305 64.8329C535.755 64.3714 537.03 63.8538 538.119 63.2751L537.65 62.392L537.181 61.5089C536.222 62.0182 535.064 62.4926 533.699 62.9271L534.002 63.88ZM537.65 62.392L538.108 63.281C539.174 62.7314 540.103 62.2269 540.89 61.7678L540.386 60.904L539.882 60.0402C539.133 60.4771 538.237 60.9646 537.192 61.503L537.65 62.392ZM540.386 60.904L540.874 61.7765C541.561 61.3918 542.162 61.232 542.69 61.232V60.232V59.232C541.745 59.232 540.81 59.5202 539.897 60.0315L540.386 60.904ZM542.69 60.232V61.232C543.395 61.232 543.791 61.4697 544.06 61.8823L544.898 61.336L545.735 60.7897C545.044 59.7303 543.968 59.232 542.69 59.232V60.232ZM544.898 61.336L544.113 61.9554L547.521 66.2754L548.306 65.656L549.091 65.0366L545.683 60.7166L544.898 61.336ZM548.306 65.656L547.545 65.0065C546.294 66.4719 544.894 67.703 543.346 68.7044L543.89 69.544L544.433 70.3836C546.149 69.273 547.694 67.9121 549.066 66.3055L548.306 65.656ZM543.89 69.544L543.358 68.6969C541.787 69.6829 540.14 70.483 538.417 71.0983L538.754 72.04L539.09 72.9817C540.951 72.317 542.729 71.4531 544.421 70.3911L543.89 69.544ZM538.754 72.04L538.427 71.0948C536.729 71.6814 534.985 72.0982 533.193 72.3454L533.33 73.336L533.466 74.3266C535.387 74.0618 537.258 73.6146 539.08 72.9852L538.754 72.04ZM533.33 73.336L533.191 72.3457C531.41 72.5957 529.68 72.72 528.002 72.72V73.72V74.72C529.779 74.72 531.602 74.5883 533.469 74.3263L533.33 73.336ZM528.002 73.72V72.72C524.689 72.72 521.626 72.1785 518.805 71.1054L518.45 72.04L518.094 72.9746C521.161 74.1415 524.467 74.72 528.002 74.72V73.72ZM518.45 72.04L518.814 71.1088C515.998 70.0069 513.557 68.404 511.482 66.2981L510.77 67L510.057 67.7019C512.334 70.012 515.013 71.7691 518.085 72.9712L518.45 72.04ZM510.77 67L511.487 66.3032C509.416 64.1715 507.773 61.5392 506.568 58.3869L505.634 58.744L504.7 59.1011C505.99 62.4768 507.771 65.3485 510.052 67.6968L510.77 67ZM505.634 58.744L506.569 58.3899C505.372 55.2294 504.762 51.5454 504.762 47.32H503.762H502.762C502.762 51.7346 503.399 55.6666 504.699 59.0981L505.634 58.744ZM503.762 47.32H504.762C504.762 44.0699 505.288 41.0361 506.332 38.2106L505.394 37.864L504.456 37.5173C503.324 40.5799 502.762 43.8501 502.762 47.32H503.762ZM505.394 37.864L506.333 38.2074C507.379 35.3474 508.864 32.8878 510.783 30.8156L510.05 30.136L509.316 29.4564C507.204 31.7362 505.585 34.4286 504.455 37.5206L505.394 37.864ZM510.05 30.136L510.783 30.816C512.733 28.7139 515.098 27.0476 517.892 25.8195L517.49 24.904L517.087 23.9885C514.057 25.3204 511.463 27.1421 509.317 29.456L510.05 30.136ZM517.49 24.904L517.888 25.8211C520.69 24.6032 523.863 23.984 527.426 23.984V22.984V21.984C523.629 21.984 520.178 22.6448 517.091 23.9869L517.49 24.904ZM527.426 22.984V23.984C530.422 23.984 533.165 24.4624 535.664 25.4074L536.018 24.472L536.371 23.5366C533.623 22.4976 530.638 21.984 527.426 21.984V22.984ZM536.018 24.472L535.664 25.4074C538.159 26.3504 540.29 27.7286 542.073 29.5411L542.786 28.84L543.499 28.1389C541.505 26.1114 539.125 24.5776 536.371 23.5366L536.018 24.472ZM542.786 28.84L542.079 29.5471C543.856 31.3241 545.255 33.5356 546.267 36.2027L547.202 35.848L548.137 35.4933C547.036 32.5924 545.492 30.1319 543.493 28.1329L542.786 28.84ZM547.202 35.848L546.272 36.2157C547.305 38.8297 547.834 41.8533 547.834 45.304H548.834H549.834C549.834 41.6507 549.274 38.3703 548.132 35.4803L547.202 35.848ZM548.834 45.304H547.834C547.834 46.169 547.787 46.8651 547.702 47.404C547.615 47.9569 547.497 48.2762 547.4 48.4375L548.258 48.952L549.115 49.4665C549.402 48.9878 549.573 48.3791 549.677 47.716C549.784 47.0389 549.834 46.2309 549.834 45.304H548.834ZM548.258 48.952L547.412 48.418C547.293 48.6066 546.982 48.864 546.05 48.864V49.864V50.864C547.293 50.864 548.454 50.5134 549.103 49.486L548.258 48.952ZM546.05 49.864V48.864H515.57V49.864V50.864H546.05V49.864Z" fill="white" mask="url(#path-1-outside-1_42_770)"/>
</svg>
