<svg width="78" height="78" viewBox="0 0 78 78" fill="none" xmlns="http://www.w3.org/2000/svg">
<g clip-path="url(#clip0_41_465)">
<path d="M38.0576 51.675C38.9196 51.675 39.7462 51.3326 40.3557 50.7231C40.9652 50.1136 41.3076 49.287 41.3076 48.425C41.3076 47.563 40.9652 46.7364 40.3557 46.1269C39.7462 45.5174 38.9196 45.175 38.0576 45.175H27.1376C26.9698 45.1795 26.8047 45.132 26.6651 45.0388C26.5254 44.9457 26.418 44.8116 26.3576 44.655C25.3838 41.9929 24.6868 39.2375 24.2776 36.4325C24.2347 36.3295 24.2126 36.2191 24.2126 36.1075C24.2126 35.9959 24.2347 35.8855 24.2776 35.7825C24.3531 35.6918 24.4475 35.6187 24.5541 35.5682C24.6608 35.5177 24.7771 35.491 24.8951 35.49H39.5201C40.3821 35.49 41.2087 35.1476 41.8182 34.5381C42.4277 33.9286 42.7701 33.102 42.7701 32.24C42.7701 31.378 42.4277 30.5514 41.8182 29.9419C41.2087 29.3324 40.3821 28.99 39.5201 28.99H24.7651C24.6544 28.9927 24.5445 28.9708 24.4434 28.9258C24.3422 28.8808 24.2523 28.814 24.1801 28.73C24.0976 28.6513 24.0342 28.5547 23.9948 28.4476C23.9553 28.3406 23.9409 28.226 23.9526 28.1125C24.174 25.2806 24.7416 22.4864 25.6426 19.7925C25.7187 19.6859 25.8226 19.6023 25.9429 19.5507C26.0633 19.4991 26.1955 19.4816 26.3251 19.5H40.0726C40.2443 19.4978 40.4123 19.5502 40.5524 19.6494C40.6926 19.7487 40.7977 19.8898 40.8526 20.0525C41.5524 22.1678 42.0529 24.344 42.3476 26.5525C42.458 27.3334 42.8485 28.0475 43.4465 28.5618C44.0444 29.076 44.809 29.3553 45.5976 29.3475H46.0201C46.466 29.2864 46.8943 29.1335 47.278 28.8982C47.6617 28.663 47.9923 28.3506 48.2489 27.9809C48.5056 27.6112 48.6826 27.1923 48.7689 26.7506C48.8552 26.3089 48.8488 25.8541 48.7501 25.415C48.5168 23.717 48.1803 22.0347 47.7426 20.3775C47.7338 20.2682 47.7471 20.1581 47.782 20.0541C47.8168 19.9501 47.8723 19.8542 47.9452 19.7722C48.0181 19.6902 48.1068 19.6238 48.2061 19.577C48.3053 19.5302 48.413 19.504 48.5226 19.5H55.0226C55.1688 19.4996 55.3123 19.5386 55.4382 19.613C55.564 19.6874 55.6674 19.7943 55.7376 19.9225C56.7114 21.5878 57.4755 23.3671 58.0126 25.22C58.2474 26.0461 58.7997 26.7457 59.5487 27.1659C60.2978 27.5861 61.1827 27.6928 62.0101 27.4625C62.8302 27.2208 63.5221 26.6657 63.9358 25.9175C64.3495 25.1692 64.4516 24.2881 64.2201 23.465C62.3098 16.7497 58.2755 10.834 52.7212 6.60378C47.1669 2.37361 40.3916 0.0566826 33.4101 0C10.6601 0 0.91011 16.25 0.91011 32.5C0.768897 36.7617 1.5064 41.0068 3.07671 44.9711C4.64702 48.9355 7.01653 52.5341 10.0377 55.5432C13.0589 58.5522 16.6672 60.9071 20.6378 62.4614C24.6085 64.0156 28.8565 64.736 33.1176 64.5775C33.9796 64.5775 34.8062 64.2351 35.4157 63.6256C36.0252 63.0161 36.3676 62.1895 36.3676 61.3275C36.3516 60.6313 36.1125 59.9586 35.6853 59.4086C35.2582 58.8586 34.6657 58.4603 33.9951 58.2725C33.9085 58.255 33.8264 58.2201 33.7537 58.1698C33.6811 58.1195 33.6195 58.0549 33.5726 57.98C32.401 56.3258 31.3162 54.6118 30.3226 52.845C30.2597 52.7188 30.2269 52.5798 30.2269 52.4388C30.2269 52.2978 30.2597 52.1587 30.3226 52.0325C30.3993 51.9125 30.505 51.8139 30.63 51.7457C30.755 51.6775 30.8952 51.642 31.0376 51.6425L38.0576 51.675ZM19.5001 44.1675C19.5546 44.2788 19.583 44.4011 19.583 44.525C19.583 44.6489 19.5546 44.7712 19.5001 44.8825C19.4228 44.9816 19.3243 45.0622 19.2118 45.1185C19.0994 45.1747 18.9758 45.2051 18.8501 45.2075H11.5051C11.3629 45.2093 11.2232 45.1705 11.1023 45.0956C10.9815 45.0208 10.8844 44.913 10.8226 44.785C9.36967 42.1975 8.3591 39.3855 7.83261 36.465C7.81634 36.349 7.82534 36.2309 7.859 36.1187C7.89266 36.0065 7.95017 35.9029 8.02761 35.815C8.09795 35.7186 8.1913 35.6413 8.29916 35.5902C8.40702 35.5391 8.52595 35.5159 8.64511 35.5225H16.9651C17.1612 35.5218 17.3503 35.595 17.4949 35.7275C17.6394 35.86 17.7288 36.0421 17.7451 36.2375C18.0992 38.9267 18.6864 41.58 19.5001 44.1675ZM17.5501 28.3075C17.5337 28.5115 17.441 28.7019 17.2903 28.8405C17.1397 28.979 16.9423 29.0557 16.7376 29.055H8.41761C8.18549 29.0534 7.96345 28.9599 7.80011 28.795C7.72267 28.7071 7.66516 28.6035 7.6315 28.4913C7.59784 28.3791 7.58884 28.261 7.60511 28.145C8.00518 25.2237 8.91839 22.396 10.3026 19.7925C10.3882 19.6882 10.4983 19.6069 10.6231 19.5558C10.7479 19.5048 10.8835 19.4856 11.0176 19.5H17.9726C18.0937 19.5025 18.2125 19.5332 18.3197 19.5896C18.4269 19.646 18.5195 19.7266 18.5901 19.825C18.6443 19.9306 18.6726 20.0476 18.6726 20.1663C18.6726 20.2849 18.6443 20.4019 18.5901 20.5075C17.9809 23.0666 17.6217 25.6789 17.5176 28.3075H17.5501ZM18.0376 13C17.8715 12.9954 17.7107 12.94 17.577 12.8412C17.4434 12.7424 17.3432 12.605 17.2901 12.4475C17.231 12.2849 17.2277 12.1072 17.2806 11.9424C17.3336 11.7777 17.4398 11.6352 17.5826 11.5375C18.9577 10.5404 20.4273 9.68046 21.9701 8.97C22.1284 8.90273 22.3034 8.88536 22.4718 8.9202C22.6402 8.95504 22.794 9.04045 22.9126 9.165C23.0062 9.30433 23.0562 9.46839 23.0562 9.63625C23.0562 9.80411 23.0062 9.96817 22.9126 10.1075C22.4576 10.9308 22.0351 11.7433 21.6451 12.545C21.5874 12.6721 21.4966 12.7813 21.3823 12.8613C21.268 12.9414 21.1343 12.9892 20.9951 13H18.0376ZM30.2576 13C30.1144 12.998 29.9742 12.9581 29.8513 12.8845C29.7284 12.8108 29.6272 12.706 29.5579 12.5806C29.4886 12.4552 29.4537 12.3137 29.4567 12.1705C29.4598 12.0272 29.5006 11.8874 29.5751 11.765C30.4677 10.2805 31.4442 8.84816 32.5001 7.475C32.5791 7.38005 32.6787 7.30435 32.7913 7.25367C32.904 7.20298 33.0267 7.17864 33.1501 7.1825C33.2681 7.18349 33.3845 7.21017 33.4911 7.26068C33.5977 7.3112 33.6921 7.38433 33.7676 7.475C34.8779 8.80315 35.8984 10.2037 36.8226 11.6675C36.901 11.7885 36.9426 11.9296 36.9426 12.0738C36.9426 12.2179 36.901 12.359 36.8226 12.48C36.7524 12.6082 36.649 12.7151 36.5232 12.7895C36.3973 12.8639 36.2538 12.9029 36.1076 12.9025L30.2576 13ZM43.6476 10.4325C43.5469 10.2899 43.4928 10.1196 43.4928 9.945C43.4928 9.77041 43.5469 9.60011 43.6476 9.4575C43.7832 9.3547 43.9487 9.29905 44.1189 9.29905C44.289 9.29905 44.4545 9.3547 44.5901 9.4575C45.8741 10.1022 47.1025 10.8523 48.2626 11.7C48.399 11.8023 48.4998 11.945 48.5506 12.1077C48.6015 12.2705 48.5998 12.4452 48.5459 12.6069C48.492 12.7687 48.3885 12.9094 48.2502 13.0091C48.1118 13.1088 47.9456 13.1625 47.7751 13.1625H45.5001C45.3498 13.1636 45.2023 13.1213 45.0754 13.0406C44.9486 12.9599 44.8478 12.8442 44.7851 12.7075C44.4276 11.7325 44.0376 11.05 43.6476 10.335V10.4325ZM23.9526 54.795C24.0554 54.9306 24.1111 55.0961 24.1111 55.2663C24.1111 55.4364 24.0554 55.6019 23.9526 55.7375C23.8453 55.8681 23.6969 55.9585 23.5317 55.9939C23.3664 56.0293 23.194 56.0077 23.0426 55.9325C21.3479 55.1878 19.7447 54.2499 18.2651 53.1375C18.1223 53.0398 18.0161 52.8973 17.9631 52.7326C17.9102 52.5678 17.9135 52.3901 17.9726 52.2275C18.0276 52.0648 18.1326 51.9237 18.2728 51.8244C18.4129 51.7252 18.5809 51.6728 18.7526 51.675H22.0026C22.153 51.6739 22.3004 51.7162 22.4273 51.7969C22.5541 51.8776 22.655 51.9933 22.7176 52.13C23.0101 53.0075 23.4651 53.9175 23.9526 54.795Z" fill="#EFAB00"/>
<path d="M66.5925 59.605C66.4786 59.5275 66.3853 59.4233 66.3208 59.3015C66.2564 59.1797 66.2227 59.044 66.2227 58.9062C66.2227 58.7684 66.2564 58.6327 66.3208 58.5109C66.3853 58.3891 66.4786 58.285 66.5925 58.2075C69.0813 56.4539 70.9471 53.9534 71.9194 51.0683C72.8918 48.1832 72.9201 45.0635 72.0004 42.1612C71.0806 39.2589 69.2606 36.7249 66.804 34.9265C64.3475 33.128 61.3821 32.1585 58.3375 32.1585C55.293 32.1585 52.3276 33.128 49.871 34.9265C47.4145 36.7249 45.5944 39.2589 44.6747 42.1612C43.7549 45.0635 43.7833 48.1832 44.7556 51.0683C45.7279 53.9534 47.5937 56.4539 50.0825 58.2075C50.2038 58.2794 50.3042 58.3817 50.374 58.5042C50.4437 58.6267 50.4804 58.7652 50.4804 58.9062C50.4804 59.0472 50.4437 59.1858 50.374 59.3083C50.3042 59.4308 50.2038 59.533 50.0825 59.605C47.0131 61.1686 44.4356 63.5501 42.6347 66.4866C40.8338 69.4231 39.8796 72.8002 39.8775 76.245C39.8732 76.4568 39.9112 76.6674 39.9893 76.8644C40.0674 77.0614 40.184 77.2408 40.3323 77.3921C40.4806 77.5434 40.6576 77.6637 40.853 77.7457C41.0484 77.8278 41.2581 77.87 41.47 77.87H75.465C75.896 77.87 76.3093 77.6988 76.6141 77.394C76.9188 77.0893 77.09 76.6759 77.09 76.245C77.057 72.7704 76.0575 69.3735 74.2036 66.4347C72.3496 63.4959 69.7142 61.1311 66.5925 59.605ZM56.6475 71.045V66.2025C56.6475 65.5646 56.9009 64.9529 57.3519 64.5019C57.803 64.0509 58.4147 63.7975 59.0525 63.7975C59.6934 63.7974 60.3085 64.0498 60.7647 64.4999C61.2209 64.95 61.4815 65.5617 61.49 66.2025V71.045C61.4816 71.6888 61.2221 72.3039 60.7668 72.7592C60.3115 73.2145 59.6964 73.4741 59.0525 73.4825C58.4117 73.4739 57.8 73.2133 57.3499 72.7572C56.8998 72.301 56.6475 71.6858 56.6475 71.045ZM50.7 44.1025C50.746 43.9882 50.8163 43.8854 50.9061 43.8012C50.9959 43.717 51.1031 43.6534 51.22 43.615C51.3275 43.5675 51.4438 43.543 51.5613 43.543C51.6788 43.543 51.795 43.5675 51.9025 43.615C54.8716 45.5165 58.3217 46.5312 61.8475 46.54C63.0921 46.5285 64.3328 46.3979 65.5525 46.15C65.6035 46.1266 65.6589 46.1145 65.715 46.1145C65.7711 46.1145 65.8265 46.1266 65.8775 46.15C65.9255 46.1901 65.9647 46.2396 65.9926 46.2955C66.0206 46.3515 66.0367 46.4125 66.04 46.475C65.9113 48.4777 65.025 50.3564 63.5612 51.7292C62.0973 53.1021 60.1657 53.8661 58.1588 53.8661C56.1519 53.8661 54.2203 53.1021 52.7564 51.7292C51.2925 50.3564 50.4062 48.4777 50.2775 46.475C50.3043 45.668 50.4466 44.8691 50.7 44.1025Z" fill="#EFAB00"/>
</g>
<defs>
<clipPath id="clip0_41_465">
<rect width="78" height="78" fill="white"/>
</clipPath>
</defs>
</svg>
